<?xml version="1.0" standalone="no"?>
<!DOCTYPE svg PUBLIC "-//W3C//DTD SVG 20010904//EN"
 "http://www.w3.org/TR/2001/REC-SVG-20010904/DTD/svg10.dtd">
<svg version="1.0" xmlns="http://www.w3.org/2000/svg"
 width="300.000000pt" height="300.000000pt" viewBox="0 0 300.000000 300.000000"
 preserveAspectRatio="xMidYMid meet">
<metadata>
Created by potrace 1.10, written by Peter Selinger 2001-2011
</metadata>
<g transform="translate(0.000000,300.000000) scale(0.100000,-0.100000)"
fill="#000000" stroke="none">
<path d="M397 2718 c-48 -7 -64 -15 -92 -46 -19 -20 -39 -49 -46 -64 -7 -17
-21 -29 -40 -33 -16 -4 -29 -9 -29 -11 0 -3 11 -17 25 -32 57 -62 58 -74 26
-434 -16 -180 -25 -342 -22 -360 6 -26 11 -32 29 -30 29 4 45 -50 26 -95 -11
-29 -11 -33 10 -47 21 -13 27 -13 62 4 52 26 192 60 284 70 101 10 214 51 257
92 19 18 45 56 59 85 25 49 26 60 22 175 -4 144 -5 144 -113 277 -42 52 -90
114 -106 138 l-30 43 20 27 c25 31 26 62 6 130 -15 49 -16 51 -59 57 -24 4
-75 20 -112 36 -74 31 -87 33 -177 18z m182 -53 c7 -8 0 -11 -76 -34 -40 -12
-79 -24 -88 -27 -11 -5 -15 1 -15 24 0 28 5 32 53 50 47 18 55 19 86 6 19 -8
37 -17 40 -19z m91 -73 c0 -29 -51 -52 -117 -51 -32 0 -67 4 -78 9 -19 7 -18
9 8 19 37 14 103 30 147 34 19 2 36 5 38 5 1 1 2 -6 2 -16z m-195 -71 c19 -8
19 -8 -2 -19 -27 -15 -50 -15 -58 -2 -16 25 18 37 60 21z m-190 -11 c3 -5 1
-18 -4 -27 -6 -10 -11 -13 -11 -6 0 6 -3 18 -6 27 -7 17 11 22 21 6z m395 -5
c-7 -8 -20 -15 -29 -15 -13 1 -13 3 3 15 26 19 42 19 26 0z m-70 -29 c0 -2 -7
-7 -16 -10 -8 -3 -12 -2 -9 4 6 10 25 14 25 6z m-180 -26 c-8 -5 -19 -10 -25
-10 -5 0 -3 5 5 10 8 5 20 10 25 10 6 0 3 -5 -5 -10z m150 -70 c11 -7 2 -9
-30 -9 -37 1 -41 2 -20 9 34 11 33 11 50 0z m57 -17 c-4 -3 -10 -3 -14 0 -3 4
0 7 7 7 7 0 10 -3 7 -7z m15 -54 c113 -24 170 -75 190 -172 41 -193 -134 -438
-347 -486 -56 -12 -141 -10 -154 5 -4 5 -2 95 6 199 7 105 16 242 21 305 7
111 8 115 30 113 27 -3 29 13 2 22 -11 4 -18 11 -15 16 8 13 203 11 267 -2z
m-368 -449 c-6 -52 -7 -53 -16 -25 -9 31 -4 206 10 292 10 65 16 -190 6 -267z
m649 173 l-7 -28 -7 35 c-3 19 -9 49 -13 65 -7 28 -6 28 14 -7 14 -27 18 -46
13 -65z"/>
<path d="M1056 2705 c-13 -36 -5 -447 14 -665 26 -294 26 -280 -7 -280 -33 0
-115 -39 -108 -51 3 -5 25 -6 49 -3 59 8 106 -18 106 -58 0 -15 5 -28 10 -28
6 0 10 6 10 14 0 28 22 28 51 0 19 -18 29 -23 29 -13 0 8 8 1 18 -16 24 -39
48 -59 56 -46 4 5 -7 24 -24 42 -16 19 -30 37 -30 40 0 4 -3 15 -6 23 -5 14
-2 15 17 7 23 -8 162 0 289 18 54 8 54 8 27 19 -16 7 -57 12 -92 12 -35 0 -66
4 -70 10 -6 10 33 22 152 44 45 8 106 24 136 34 l54 18 33 -61 c51 -92 132
-215 141 -215 10 0 12 13 9 47 -1 12 4 32 11 44 10 19 9 21 -5 16 -13 -5 -15
-2 -10 21 9 37 10 37 36 12 26 -25 58 -44 58 -35 0 4 -5 15 -11 27 -23 42 -18
93 21 214 22 67 71 226 110 354 39 129 72 236 74 238 2 2 7 -59 10 -135 14
-288 46 -528 70 -520 14 5 25 91 19 142 -5 38 -5 39 11 20 16 -19 16 -16 10
47 -8 81 11 123 51 116 13 -3 30 -1 37 3 9 6 6 9 -9 9 -13 0 -23 3 -23 7 0 11
80 113 89 113 5 0 15 -33 21 -72 31 -187 62 -323 96 -409 19 -52 44 -121 55
-154 10 -33 25 -69 34 -80 15 -19 15 -18 9 20 l-6 40 26 -37 c41 -58 42 -45 2
26 -27 48 -43 96 -61 186 -46 227 -96 533 -91 555 3 12 36 55 73 95 41 44 67
81 68 96 1 27 -5 30 -24 12 -11 -11 -13 -10 -8 5 12 33 -28 1 -83 -68 -51 -62
-70 -77 -70 -54 0 5 -4 7 -10 4 -5 -3 -10 -16 -10 -28 0 -26 -165 -196 -177
-183 -4 4 -10 106 -13 226 -3 153 -9 223 -17 231 -10 10 -14 7 -22 -12 l-10
-24 0 28 c-1 15 -4 27 -7 27 -19 0 -70 -65 -99 -128 -28 -59 -38 -72 -52 -68
-22 7 -36 -2 -52 -32 -12 -23 -12 -23 13 -7 23 15 26 15 26 2 0 -16 -158 -428
-167 -437 -15 -14 14 111 52 230 25 74 43 136 41 138 -7 6 -66 -168 -97 -286
-17 -64 -34 -121 -39 -125 -4 -5 -20 21 -35 58 -39 90 -43 75 -5 -19 45 -114
36 -122 -21 -21 -76 133 -137 264 -150 323 -7 29 -18 52 -24 52 -7 0 -30 39
-53 88 -42 90 -71 137 -72 114 0 -7 7 -26 15 -42 22 -42 -1 -51 -32 -12 -14
19 -29 29 -38 25 -11 -4 -15 2 -15 23 0 39 -30 114 -45 114 -7 0 -11 -8 -9
-17 2 -10 8 -44 14 -76 6 -31 15 -55 20 -52 5 3 6 -10 3 -28 -4 -27 0 -39 16
-54 12 -11 30 -47 40 -79 18 -57 156 -376 207 -476 l26 -51 -24 6 c-13 3 -41
2 -63 -3 -22 -5 -41 -7 -44 -5 -2 3 4 16 13 30 9 14 13 25 8 25 -9 0 -131 -41
-276 -94 -55 -20 -105 -36 -111 -36 -25 0 -47 349 -37 578 7 185 -2 248 -13
85 -12 -179 -23 -192 -24 -29 -1 82 -6 179 -13 215 -10 60 -12 63 -20 39 -11
-31 -28 -37 -28 -10 0 9 -4 23 -9 30 -7 11 -10 10 -15 -3z m41 -207 c-3 -7 -5
-2 -5 12 0 14 2 19 5 13 2 -7 2 -19 0 -25z m433 -63 c0 -7 30 -76 66 -152 76
-160 126 -281 122 -295 -4 -11 -169 326 -195 395 -8 23 -19 58 -23 77 l-9 35
20 -24 c10 -13 19 -29 19 -36z m540 -135 c-7 -17 -15 -28 -18 -26 -2 3 1 19 8
36 7 17 15 28 18 26 2 -3 -1 -19 -8 -36z m291 -57 c-20 -37 -40 -58 -47 -50
-4 4 5 21 21 37 33 34 40 38 26 13z m-1204 -45 c-3 -7 -5 -2 -5 12 0 14 2 19
5 13 2 -7 2 -19 0 -25z m842 -147 c-12 -34 -26 -64 -31 -67 -4 -3 3 25 17 61
14 37 25 70 25 73 0 3 3 3 6 -1 3 -3 -4 -33 -17 -66z m-862 -23 c-3 -8 -6 -5
-6 6 -1 11 2 17 5 13 3 -3 4 -12 1 -19z m788 -51 c-8 -21 -18 -37 -20 -37 -3
0 2 16 10 36 8 20 15 39 15 42 0 3 2 3 5 0 3 -3 -2 -21 -10 -41z m-756 -154
c1 -32 -3 -43 -14 -43 -12 0 -15 15 -14 83 1 82 1 82 14 42 8 -22 14 -59 14
-82z m341 42 c-14 -8 -34 -14 -45 -14 -15 0 -13 3 10 14 40 18 67 18 35 0z
m125 -14 c-6 -11 -93 -26 -102 -18 -6 7 52 25 85 26 13 1 21 -3 17 -8z m-165
-21 c0 -17 -40 -31 -108 -36 -64 -5 -66 -4 -40 10 22 13 57 22 141 35 4 0 7
-3 7 -9z m497 -27 c-4 -3 -7 0 -7 7 0 7 3 10 7 7 3 -4 3 -10 0 -14z m-652 -43
c-45 -11 -87 -11 -80 0 3 6 30 9 58 9 45 -1 48 -2 22 -9z m-10 -50 c-3 -5 -24
-10 -46 -10 -21 0 -39 5 -39 10 0 6 21 10 46 10 27 0 43 -4 39 -10z"/>
<path d="M1640 2530 c0 -8 -3 -25 -6 -37 -5 -18 -2 -23 13 -23 16 0 26 -14 43
-62 50 -137 82 -219 86 -215 7 7 -106 321 -121 336 -13 13 -15 13 -15 1z"/>
<path d="M1780 2175 c0 -5 5 -17 10 -25 5 -8 10 -10 10 -5 0 6 -5 17 -10 25
-5 8 -10 11 -10 5z"/>
<path d="M2294 1789 c-3 -6 -1 -16 5 -22 8 -8 11 -5 11 11 0 24 -5 28 -16 11z"/>
<path d="M680 1519 c-36 -6 -116 -8 -178 -5 -93 4 -123 2 -175 -14 -76 -24
-232 -124 -281 -182 -40 -46 -43 -56 -21 -64 20 -8 18 -34 -5 -64 -11 -14 -20
-31 -20 -39 0 -11 4 -9 15 5 13 16 16 17 25 4 16 -25 11 -49 -15 -76 -29 -29
-32 -39 -8 -30 11 5 24 -2 38 -20 17 -21 34 -29 81 -35 32 -5 73 -6 90 -3 29
5 354 -51 383 -66 8 -4 -5 -10 -35 -14 -72 -11 -94 -17 -94 -27 0 -5 18 -6 39
-3 22 4 64 1 93 -6 58 -12 168 -50 168 -57 0 -2 -12 -15 -26 -28 -33 -30 -26
-31 26 -5 37 19 70 18 70 -1 0 -15 -72 -89 -101 -105 -37 -19 -77 -18 -81 2
-2 13 -7 12 -26 -6 -20 -19 -38 -22 -240 -29 -159 -6 -227 -13 -255 -24 -20
-9 -37 -20 -37 -25 0 -24 82 -42 185 -42 58 0 105 -4 105 -8 0 -20 -63 -44
-113 -42 -71 3 -77 2 -77 -14 0 -11 15 -16 53 -19 l52 -3 -52 -2 c-45 -2 -53
-5 -53 -21 0 -23 33 -51 95 -81 40 -19 58 -21 162 -18 103 3 125 6 173 29 99
48 229 180 303 311 12 21 25 38 30 38 4 0 7 -41 7 -90 0 -109 28 -292 44 -287
6 2 13 41 16 90 3 47 8 88 11 92 4 3 10 -20 14 -52 9 -75 15 -103 25 -103 12
0 21 43 10 50 -14 9 -25 156 -11 164 7 5 11 -3 11 -21 0 -22 2 -25 10 -13 6 9
10 175 10 416 0 442 -4 414 61 414 35 0 36 -6 7 -37 -19 -20 -20 -25 -8 -33 8
-5 24 -6 35 -3 27 10 335 10 335 1 0 -11 -1 -11 -112 -13 -53 -1 -109 -7 -125
-13 -15 -6 -41 -14 -58 -18 -21 -5 -25 -8 -12 -11 20 -5 22 -24 5 -41 -8 -8
-9 -12 -1 -12 6 0 19 -3 28 -7 14 -5 16 -2 11 15 -12 38 29 53 164 59 l120 6
0 -27 c0 -15 -4 -25 -8 -22 -5 3 -26 -1 -48 -9 -21 -8 -73 -15 -114 -16 -69
-1 -72 -2 -36 -10 24 -6 66 -6 105 0 36 5 67 7 69 6 2 -2 -4 -91 -12 -199 -9
-107 -16 -218 -16 -246 0 -46 2 -51 19 -45 17 5 20 -1 26 -62 10 -103 35 -247
45 -257 14 -14 30 4 30 36 0 23 -4 29 -15 24 -18 -6 -19 0 -39 154 -23 175
-27 234 -17 248 8 14 19 -39 23 -117 1 -20 4 14 7 74 l6 110 23 -195 c37 -306
33 -283 47 -263 12 15 14 12 25 -27 23 -89 60 -115 60 -42 0 32 -1 34 -13 18
-13 -18 -14 -18 -21 0 -11 27 -20 289 -11 311 7 17 8 17 15 -2 5 -11 10 -56
11 -100 2 -59 4 -67 6 -30 2 28 6 57 9 65 8 23 24 -8 24 -47 0 -18 4 -33 10
-33 5 0 7 12 4 28 -2 15 2 38 11 52 30 51 55 109 61 142 3 22 -5 9 -26 -39
-18 -40 -35 -73 -39 -73 -21 0 -29 491 -10 534 13 27 35 36 90 36 20 0 55 7
78 15 22 8 41 10 41 5 0 -5 21 -3 47 5 26 8 49 12 51 10 2 -2 -6 -18 -18 -35
-12 -17 -20 -34 -17 -37 3 -3 33 4 66 16 34 12 66 21 72 21 8 0 10 -20 6 -68
-4 -37 0 -155 8 -262 8 -107 11 -197 7 -201 -4 -3 -46 -17 -94 -30 l-88 -24
28 -22 c19 -16 23 -23 12 -24 -8 -1 -19 -3 -25 -4 -5 -2 -20 -3 -33 -4 -23 -1
-23 -1 -5 -27 17 -23 22 -25 80 -20 l62 5 36 -41 c19 -23 34 -47 32 -52 -2 -6
-22 -18 -45 -26 -56 -21 -75 -40 -41 -41 13 0 45 -2 71 -3 48 -2 88 -26 88
-54 0 -12 3 -12 15 -2 8 7 15 23 15 36 0 21 5 24 38 24 20 0 96 6 167 14 102
12 313 23 463 26 6 0 12 7 12 15 0 12 -18 15 -92 16 l-93 2 74 10 c67 8 73 11
56 23 -22 17 -57 17 -145 3 -64 -10 -217 -24 -394 -35 -68 -5 -90 -3 -97 7
-12 20 -11 117 2 124 5 4 34 8 62 9 29 2 120 10 202 19 83 9 189 16 235 15 47
-2 93 2 103 8 17 10 17 12 -7 35 -14 13 -26 29 -26 36 0 22 -17 23 -146 12
-71 -6 -199 -12 -285 -13 l-156 -3 -7 60 c-9 87 -6 224 7 367 l12 125 35 12
c19 7 53 12 75 13 22 0 64 7 93 14 51 14 53 14 81 -10 30 -25 81 -48 89 -40 2
3 -12 15 -32 27 -55 32 -44 59 23 59 16 0 37 10 51 25 l23 24 -29 12 c-18 7
-56 8 -101 5 -79 -7 -223 2 -223 14 0 4 27 18 60 30 33 12 63 27 66 31 11 18
-42 8 -104 -18 l-63 -26 -27 26 c-16 15 -31 27 -35 27 -4 0 -15 -17 -26 -39
-24 -46 -37 -52 -116 -61 -59 -6 -59 -12 0 -25 l30 -7 -25 -20 c-41 -34 -140
-80 -140 -66 0 17 32 65 56 83 16 13 17 16 4 25 -31 21 -63 22 -135 5 -76 -18
-116 -17 -122 1 -5 16 45 24 151 24 50 0 118 7 151 15 33 8 75 14 93 15 22 0
32 4 30 13 -3 7 -28 13 -66 15 -34 2 -62 7 -62 12 0 13 -324 13 -367 1 -18 -5
-35 -5 -40 0 -5 5 -25 1 -48 -11 -30 -15 -50 -19 -81 -14 -27 4 -51 1 -70 -9
-20 -10 -67 -15 -152 -15 -98 -2 -131 -6 -162 -21 l-40 -19 0 49 c0 35 -4 49
-14 49 -19 0 -35 -21 -62 -87 -23 -58 -24 -58 -24 -21 0 38 -15 57 -31 41 -15
-15 -39 -250 -39 -390 0 -73 -2 -133 -5 -133 -3 0 -28 11 -56 25 -27 14 -103
39 -167 56 -107 28 -162 50 -162 65 0 3 12 15 26 26 18 15 22 24 15 31 -8 8
-15 5 -25 -9 -14 -18 -18 -16 -83 48 -73 72 -103 88 -171 93 -24 1 -46 6 -50
10 -10 10 28 35 55 35 13 0 23 4 23 10 0 5 19 22 43 36 23 15 59 42 80 60 41
38 61 41 112 20 32 -14 36 -13 49 6 12 17 30 22 100 28 101 10 119 18 84 36
-37 19 -94 24 -168 13z m1300 -28 c0 -14 -136 -32 -165 -21 -14 5 -23 14 -20
20 7 12 185 14 185 1z m-1554 -8 c-6 -7 -157 -64 -218 -83 -47 -15 -27 12 34
45 52 29 207 60 184 38z m704 -15 c0 -16 -3 -19 -11 -11 -6 6 -8 16 -5 22 11
17 16 13 16 -11z m630 12 c0 -5 -9 -10 -21 -10 -11 0 -17 5 -14 10 3 6 13 10
21 10 8 0 14 -4 14 -10z m-443 -46 c-3 -3 -12 -4 -19 -1 -8 3 -5 6 6 6 11 1
17 -2 13 -5z m-70 -11 c-4 -3 -10 -3 -14 0 -3 4 0 7 7 7 7 0 10 -3 7 -7z m250
-10 c-4 -3 -10 -3 -14 0 -3 4 0 7 7 7 7 0 10 -3 7 -7z m-1122 -32 c-36 -32
-102 -71 -122 -71 -35 0 -20 16 45 50 55 28 97 40 77 21z m1902 -8 c-4 -3 -7
0 -7 7 0 7 3 10 7 7 3 -4 3 -10 0 -14z m-430 -10 c-4 -3 -10 -3 -14 0 -3 4 0
7 7 7 7 0 10 -3 7 -7z m171 -10 c-2 -10 -9 -18 -16 -17 -6 1 -40 2 -74 3 -93
2 -55 27 45 30 41 1 48 -2 45 -16z m-1898 -3 c0 -5 -5 -10 -11 -10 -5 0 -7 5
-4 10 3 6 8 10 11 10 2 0 4 -4 4 -10z m2319 -1 c-18 -12 -92 -12 -85 0 4 5 27
9 53 9 31 0 42 -3 32 -9z m-1365 -141 c-8 -118 -8 -121 -17 -70 -7 36 -6 75 3
127 7 42 15 73 17 71 3 -2 1 -60 -3 -128z m874 113 c13 -8 -18 -22 -110 -51
-44 -14 -65 -6 -46 17 29 35 123 55 156 34z m-238 -35 c0 -8 -4 -18 -10 -21
-5 -3 -10 3 -10 14 0 12 5 21 10 21 6 0 10 -6 10 -14z m40 -6 c0 -11 -4 -20
-10 -20 -5 0 -10 9 -10 20 0 11 5 20 10 20 6 0 10 -9 10 -20z m415 0 c7 -11
-42 -26 -53 -16 -7 8 17 26 35 26 6 0 15 -4 18 -10z m-1954 -34 c-13 -15 -51
-28 -51 -17 0 14 24 31 43 31 16 0 17 -3 8 -14z m113 2 c56 -16 67 -28 25 -29
-21 -1 -11 -5 29 -10 71 -9 125 -36 130 -64 3 -14 0 -16 -14 -10 -58 24 -120
35 -145 25 -20 -9 -34 -8 -60 3 l-34 14 30 17 c17 9 21 15 11 11 -31 -9 -136
-18 -136 -11 0 9 93 66 109 66 7 0 32 -5 55 -12z m1411 -175 c-4 -87 -10 -178
-14 -203 l-7 -45 -7 55 c-8 57 6 321 18 340 15 25 17 1 10 -147z m503 -63 c-1
-91 -1 -92 -8 -35 -9 67 -13 150 -9 210 4 70 17 -67 17 -175z m-598 -2 c0
-111 -3 -199 -6 -196 -6 7 -28 264 -27 319 1 33 17 79 28 79 3 0 5 -91 5 -202z
m-83 175 c-4 -3 -7 0 -7 7 0 7 3 10 7 7 3 -4 3 -10 0 -14z m-1280 -39 c-6 -6
-47 9 -47 17 0 5 11 3 25 -3 14 -6 24 -13 22 -14z m-182 -3 c3 -5 1 -12 -5
-16 -5 -3 -10 1 -10 9 0 18 6 21 15 7z m372 -13 c4 -7 -7 -8 -33 -4 -53 10
-63 22 -14 18 22 -2 43 -9 47 -14z m-261 -33 c14 -11 15 -14 4 -15 -26 0 -60
12 -60 21 0 14 34 10 56 -6z m224 5 c8 -5 11 -10 5 -10 -5 0 -17 5 -25 10 -8
5 -10 10 -5 10 6 0 17 -5 25 -10z m-279 -42 c32 -18 59 -36 59 -40 0 -15 -65
-7 -107 12 -45 20 -51 28 -31 48 16 16 10 17 79 -20z m369 22 c-20 -13 -43
-13 -35 0 3 6 16 10 28 10 18 0 19 -2 7 -10z m1047 -22 c-3 -7 -5 -2 -5 12 0
14 2 19 5 13 2 -7 2 -19 0 -25z m-528 -55 c-1 -69 -2 -74 -11 -43 -9 31 -3
120 8 120 2 0 4 -35 3 -77z m-472 50 c-4 -3 -10 -3 -14 0 -3 4 0 7 7 7 7 0 10
-3 7 -7z m-267 -9 c22 -5 28 -9 18 -15 -21 -14 -64 -10 -78 6 -10 12 -9 15 8
15 11 0 34 -3 52 -6z m168 -46 c29 -11 51 -22 49 -24 -5 -5 -128 13 -161 23
-19 5 -19 6 -1 19 20 15 27 14 113 -18z m589 -55 c-3 -10 -5 -4 -5 12 0 17 2
24 5 18 2 -7 2 -21 0 -30z m40 -45 c-2 -13 -4 -3 -4 22 0 25 2 35 4 23 2 -13
2 -33 0 -45z m-192 40 c32 -14 32 -25 0 -40 -21 -9 -32 -8 -60 5 -19 9 -35 21
-35 26 0 21 56 27 95 9z m675 -23 c0 -8 -4 -17 -10 -20 -6 -4 -10 5 -10 20 0
15 4 24 10 20 6 -3 10 -12 10 -20z m-830 -17 c11 -12 20 -25 20 -28 0 -4 -31
0 -69 9 -39 9 -68 17 -65 20 3 3 48 14 86 20 4 0 16 -9 28 -21z m1004 -88 c5
-73 4 -100 -3 -90 -10 13 -16 209 -7 199 2 -2 6 -51 10 -109z m-794 91 c0 -5
-7 -12 -16 -15 -14 -5 -15 -4 -4 9 14 17 20 19 20 6z m-175 -11 c3 -5 4 -10 1
-10 -3 0 -8 5 -11 10 -3 6 -4 10 -1 10 3 0 8 -4 11 -10z m892 -22 c-3 -8 -6
-5 -6 6 -1 11 2 17 5 13 3 -3 4 -12 1 -19z m-697 -29 c0 -23 -13 -25 -31 -3
-10 13 -10 17 1 24 18 11 30 3 30 -21z m-44 -24 c19 -29 14 -40 -14 -31 -22 7
-36 32 -26 47 9 15 23 10 40 -16z m91 -82 c-2 -16 -4 -5 -4 22 0 28 2 40 4 28
2 -13 2 -35 0 -50z m-117 7 c0 -13 -58 -42 -73 -37 -7 2 6 13 28 25 48 25 45
24 45 12z m1504 -19 c5 -8 -49 -21 -89 -21 -20 1 -20 1 -1 15 22 16 82 20 90
6z m321 -13 c-66 -9 -92 -5 -58 8 12 5 44 7 70 5 l48 -5 -60 -8z m-1926 -64
c-15 -14 -35 -24 -45 -22 -15 3 -12 7 16 25 47 30 60 29 29 -3z m1396 16 c-8
-13 -72 -24 -92 -14 -14 6 -11 9 17 14 53 11 82 11 75 0z m-1555 -24 c0 -7
-19 -18 -42 -25 -163 -43 -232 -49 -348 -30 -63 10 -78 15 -69 23 4 5 263 34
344 39 112 7 115 7 115 -7z m70 -46 c-24 -15 -37 -11 -16 5 11 8 22 12 25 9 3
-3 -1 -9 -9 -14z m1383 13 c-7 -2 -19 -2 -25 0 -7 3 -2 5 12 5 14 0 19 -2 13
-5z m-1279 -49 c-10 -15 -52 -54 -92 -86 -117 -93 -162 -111 -253 -101 -62 6
-69 16 -18 27 45 9 199 84 294 144 44 28 81 49 83 47 2 -2 -5 -16 -14 -31z
m1406 -1 l0 -37 -30 29 c-33 31 -31 45 6 45 21 0 24 -4 24 -37z m-1614 18
c-12 -19 -158 -72 -188 -69 -51 5 -44 26 14 42 111 31 183 42 174 27z m1651
-8 c-4 -3 -7 0 -7 7 0 7 3 10 7 7 3 -4 3 -10 0 -14z"/>
<path d="M501 1288 c27 -51 74 -118 87 -123 9 -3 6 7 -8 27 -12 18 -34 52 -48
75 -28 44 -51 60 -31 21z"/>
<path d="M1593 645 c0 -22 2 -30 4 -17 2 12 2 30 0 40 -3 9 -5 -1 -4 -23z"/>
<path d="M1782 530 c0 -25 3 -54 7 -64 7 -19 8 -18 14 4 3 13 2 29 -3 34 -4 6
-10 25 -13 41 -3 22 -4 18 -5 -15z"/>
</g>
</svg>
