<?xml version="1.0" standalone="no"?>
<!DOCTYPE svg PUBLIC "-//W3C//DTD SVG 20010904//EN"
 "http://www.w3.org/TR/2001/REC-SVG-20010904/DTD/svg10.dtd">
<svg version="1.0" xmlns="http://www.w3.org/2000/svg"
 width="361.000000pt" height="361.000000pt" viewBox="0 0 361.000000 361.000000"
 preserveAspectRatio="xMidYMid meet">
<metadata>
Created by potrace 1.16, written by Peter Selinger 2001-2019
</metadata>
<g transform="translate(0.000000,361.000000) scale(0.100000,-0.100000)"
fill="#000000" stroke="none">
<path d="M1637 3193 c-14 -15 -21 -16 -37 -5 -16 10 -20 10 -20 -2 0 -10 -19
-16 -67 -21 -38 -4 -105 -13 -150 -20 -70 -10 -83 -10 -83 1 0 19 -16 18 -24
-1 -6 -17 -36 -21 -36 -5 0 6 -7 10 -16 10 -10 0 -14 -6 -10 -15 3 -10 -1 -15
-12 -15 -42 0 -141 -34 -196 -66 -37 -22 -65 -32 -77 -29 -14 5 -19 1 -19 -14
0 -16 -6 -21 -25 -21 -14 0 -25 -4 -25 -8 0 -13 -88 -52 -105 -46 -10 4 -15 0
-15 -11 0 -14 -3 -15 -15 -5 -12 10 -15 10 -15 -4 0 -9 -5 -16 -11 -16 -6 0
-9 -7 -5 -15 4 -10 -1 -15 -14 -15 -11 0 -19 -3 -18 -7 1 -5 -39 -49 -89 -99
-66 -67 -94 -89 -102 -81 -8 8 -11 4 -11 -16 0 -20 -5 -27 -20 -27 -21 0 -28
-16 -10 -22 6 -2 -10 -39 -34 -82 -25 -44 -51 -103 -57 -133 -9 -41 -16 -53
-31 -53 -16 0 -16 -3 -6 -20 10 -16 10 -24 0 -40 -10 -17 -10 -20 4 -20 14 0
16 -8 11 -50 -3 -28 -2 -61 3 -74 13 -34 1 -108 -16 -102 -17 7 -18 -6 -2 -22
9 -9 8 -16 -5 -30 -21 -23 -22 -36 -2 -28 12 4 15 -4 15 -43 0 -40 22 -149 46
-223 3 -12 0 -18 -10 -18 -23 0 -20 -17 4 -23 17 -4 19 -11 14 -31 -5 -20 -3
-25 8 -21 11 5 21 -13 38 -67 12 -40 33 -99 47 -131 23 -56 23 -60 6 -73 -17
-13 -17 -15 -1 -25 19 -11 25 -39 8 -39 -5 0 -10 -5 -10 -11 0 -6 7 -9 15 -5
11 4 19 -12 35 -62 20 -71 70 -155 101 -175 13 -8 15 -15 7 -24 -8 -10 -4 -13
17 -13 18 0 28 -6 32 -20 3 -11 9 -20 14 -20 18 0 139 -105 135 -117 -3 -7 0
-13 8 -13 18 0 57 -48 45 -55 -15 -10 0 -25 18 -18 10 4 22 -3 34 -18 13 -17
21 -21 27 -12 6 9 18 9 49 1 36 -9 43 -15 48 -42 4 -17 25 -65 47 -106 22 -42
35 -76 29 -78 -19 -6 -12 -20 12 -24 14 -2 23 -11 25 -25 3 -22 22 -33 22 -13
0 5 16 0 36 -12 51 -30 108 -38 193 -27 58 8 76 8 82 -2 6 -10 10 -9 15 5 5
14 14 17 36 12 24 -5 29 -3 25 8 -8 20 65 42 161 51 53 5 72 3 72 -6 0 -8 6
-7 18 4 11 10 26 14 41 10 18 -5 22 -3 16 7 -6 10 -1 12 25 7 18 -4 36 -7 41
-7 5 0 6 -7 3 -15 -7 -18 7 -20 24 -3 10 10 17 10 33 0 16 -11 23 -10 36 4 11
10 19 12 21 6 2 -8 10 -8 27 0 18 8 28 8 38 -1 11 -9 17 -8 27 4 17 20 295 22
303 3 4 -10 8 -10 15 1 7 9 19 11 37 7 21 -5 26 -4 22 7 -3 9 15 18 67 31 39
10 102 34 139 53 56 28 71 32 83 22 12 -10 16 -8 21 9 3 15 13 22 28 22 13 0
22 6 21 13 0 7 26 36 59 64 33 27 76 75 95 107 22 35 40 54 49 51 9 -4 12 1 8
15 -4 14 1 25 14 33 22 14 25 27 5 27 -12 0 -12 7 1 47 8 27 18 88 22 137 5
51 13 91 20 96 10 6 10 12 0 28 -10 17 -10 23 0 36 11 13 11 16 -3 16 -9 0
-16 7 -16 15 0 8 -1 18 -2 23 -36 168 -36 207 6 289 18 38 42 90 51 116 12 32
23 46 32 43 10 -4 12 1 7 18 -4 17 0 27 13 35 15 9 16 12 4 20 -12 8 -13 18
-3 61 7 28 12 78 12 110 0 70 9 122 21 114 13 -8 11 10 -3 24 -8 8 -8 15 2 27
11 13 10 18 -2 28 -23 18 -34 289 -13 280 19 -7 19 4 0 23 -17 18 -20 34 -5
34 6 0 10 5 10 10 0 6 -6 10 -14 10 -8 0 -21 23 -32 55 -13 42 -33 73 -81 125
-36 39 -60 70 -54 70 6 0 11 5 11 10 0 6 -9 10 -21 10 -13 0 -23 8 -26 20 -4
15 -9 18 -18 10 -9 -7 -23 1 -51 31 -75 81 -95 96 -151 113 -40 13 -52 20 -42
27 15 9 6 13 -24 9 -10 -1 -25 4 -33 11 -11 9 -17 10 -22 2 -5 -8 -25 -7 -72
4 -44 10 -94 13 -152 10 -49 -2 -85 -1 -82 4 3 5 -1 9 -10 9 -8 0 -16 -5 -18
-12 -5 -15 -113 24 -113 41 0 12 -7 13 -31 4 -10 -4 -22 0 -29 10 -14 20 -25
22 -25 5 0 -9 -17 -12 -59 -10 -46 3 -59 7 -54 18 4 11 -2 13 -25 8 -22 -5
-31 -2 -36 13 -7 16 -8 17 -19 2 -11 -15 -19 -15 -77 -3 -36 7 -102 14 -147
14 -65 0 -82 3 -85 15 -3 14 -5 14 -21 -2z m1030 -158 c14 -5 20 -12 16 -21
-4 -12 0 -14 20 -9 18 5 28 2 36 -12 9 -15 12 -16 20 -4 8 12 16 13 53 2 30
-9 63 -33 113 -83 43 -43 65 -72 58 -75 -22 -8 -14 -24 10 -21 16 2 23 -3 25
-19 4 -25 17 -30 26 -10 6 16 100 -83 125 -132 28 -56 34 -91 16 -91 -20 0
-19 -10 3 -26 14 -10 15 -15 5 -25 -17 -17 -16 -29 2 -29 11 0 15 -11 15 -42
0 -24 3 -87 7 -141 5 -88 4 -97 -10 -91 -21 8 -22 -3 -2 -23 14 -14 14 -17 -1
-34 -16 -18 -16 -19 1 -19 17 0 18 -8 12 -102 -8 -125 -22 -179 -42 -171 -17
6 -20 -12 -4 -22 7 -5 4 -14 -7 -27 -14 -14 -15 -21 -6 -27 8 -5 2 -26 -23
-77 -27 -53 -34 -62 -30 -36 2 17 1 32 -3 32 -5 0 -14 48 -20 108 -7 59 -15
124 -18 145 -5 31 -4 36 10 31 22 -8 20 12 -1 25 -15 8 -16 13 -5 30 6 12 12
23 12 26 0 3 -6 5 -12 5 -17 0 -22 272 -5 282 7 4 4 12 -7 23 -12 13 -14 21
-7 28 16 16 13 30 -3 24 -10 -4 -16 3 -20 24 -3 16 -9 44 -13 62 -4 17 -6 36
-5 41 2 4 -2 14 -8 22 -7 7 -9 22 -6 32 4 12 1 22 -7 25 -19 7 -29 60 -14 69
8 5 6 12 -7 21 -13 9 -17 21 -13 36 4 17 2 21 -11 17 -11 -4 -26 7 -42 29 -31
43 -85 82 -161 116 -48 20 -56 28 -46 38 10 11 7 12 -15 7 -21 -5 -30 -1 -42
16 -13 18 -16 19 -16 5 0 -21 -2 -21 -45 -3 -19 8 -56 18 -82 21 -70 10 -83
15 -83 32 0 14 15 15 118 10 64 -3 127 -9 139 -12z m-1451 -23 c-3 -5 -23 -17
-45 -28 -23 -10 -41 -24 -41 -31 0 -7 -19 -17 -42 -23 -50 -12 -148 -60 -198
-96 -19 -14 -36 -20 -38 -15 -6 19 -22 12 -22 -9 0 -14 -7 -20 -21 -20 -21 0
-21 1 -4 28 10 15 32 45 48 67 17 22 32 42 34 44 1 2 9 -2 18 -9 13 -11 15 -9
15 14 0 19 5 26 20 26 11 0 20 7 20 15 0 18 46 21 53 3 4 -10 8 -10 15 1 7 9
19 11 37 7 22 -6 26 -4 22 8 -5 11 4 16 36 19 81 7 98 7 93 -1z m638 -37 c-7
-17 11 -21 21 -5 10 17 44 11 55 -9 11 -22 0 -34 -24 -25 -9 3 -16 2 -16 -3 0
-5 -44 -8 -97 -6 -54 2 -121 3 -150 3 -44 0 -51 3 -46 16 4 11 1 15 -12 12
-10 -2 -20 2 -22 9 -5 14 39 18 194 21 87 2 102 0 97 -13z m-559 -97 c-8 -20
-64 -53 -83 -50 -13 3 -14 1 -5 -9 10 -10 9 -15 -5 -25 -9 -8 -23 -14 -31 -14
-14 0 -88 -58 -160 -124 -34 -33 -41 -36 -30 -15 28 51 114 168 117 159 6 -17
19 -11 25 10 4 14 12 19 29 18 18 -2 22 1 20 16 -3 14 1 18 16 14 14 -4 22 0
25 13 4 15 14 19 46 19 28 0 39 -4 36 -12z m305 -38 c0 -5 -8 -10 -17 -10 -26
-1 -99 -35 -161 -77 -42 -28 -56 -33 -63 -22 -6 10 -11 6 -18 -14 -7 -18 -18
-27 -33 -27 -17 0 -19 -3 -10 -12 8 -8 -1 -24 -39 -66 -28 -30 -66 -83 -86
-117 -25 -44 -41 -61 -51 -58 -11 5 -13 1 -7 -16 6 -18 1 -24 -24 -34 -20 -7
-29 -17 -26 -26 6 -16 -13 -43 -26 -35 -5 3 -9 1 -9 -5 0 -5 5 -11 11 -13 12
-4 -38 -95 -74 -135 -16 -17 -23 -20 -34 -12 -13 12 -17 6 -14 -23 1 -10 -2
-18 -7 -18 -12 0 -22 34 -22 74 0 21 4 27 15 22 17 -6 20 9 4 20 -6 4 -9 19
-5 36 3 18 2 27 -4 23 -20 -12 -10 31 16 68 22 33 28 36 41 25 14 -11 16 -10
11 10 -4 16 0 27 15 37 15 11 18 18 11 23 -8 5 5 31 40 78 28 40 66 94 85 120
19 27 36 43 38 37 3 -7 9 -13 15 -13 6 0 8 7 4 15 -3 9 0 15 8 15 8 0 16 5 18
12 2 6 15 12 29 13 15 1 23 7 21 17 -2 15 9 22 98 58 70 29 250 50 250 30z
m-971 -64 c-16 -38 -23 -69 -33 -157 -1 -9 -20 -39 -42 -67 -32 -40 -44 -48
-53 -39 -10 9 -12 8 -10 -8 2 -11 -14 -44 -35 -73 -32 -44 -41 -51 -53 -40
-12 10 -15 9 -13 -7 4 -39 0 -45 -30 -43 -39 3 -38 16 4 116 41 98 71 143 91
135 10 -3 15 2 15 17 0 14 8 24 20 27 17 4 18 8 8 20 -9 12 2 28 65 89 43 41
79 74 82 74 2 0 -5 -20 -16 -44z m1087 29 c8 -20 22 -19 26 3 3 15 6 14 16 -5
12 -21 10 -24 -25 -38 -92 -39 -134 -49 -144 -34 -7 11 -10 9 -15 -8 -5 -17
-14 -23 -36 -23 -25 0 -28 -3 -19 -14 9 -11 8 -15 -5 -20 -9 -3 -20 -3 -26 0
-5 3 -12 -3 -15 -15 -5 -20 -14 -25 -40 -22 -7 1 -13 -5 -13 -13 0 -19 -110
-116 -132 -116 -10 0 -18 -6 -18 -13 0 -19 -49 -59 -76 -62 l-23 -2 19 26 c35
49 122 127 127 114 8 -21 25 -14 18 7 -6 19 2 25 33 21 15 -2 16 16 0 21 -13
5 36 41 162 121 73 46 97 57 85 37 -3 -5 1 -10 9 -10 9 0 16 7 16 16 0 12 7
15 25 12 21 -5 25 -2 20 13 -8 23 23 27 31 4z m700 -32 c13 -17 13 -17 14 0 0
9 7 17 15 17 26 0 85 -28 85 -40 0 -7 8 -9 19 -5 21 6 67 -33 91 -81 8 -16 18
-31 21 -34 12 -10 30 -52 25 -57 -10 -10 -38 7 -43 27 -4 15 -9 18 -17 11 -9
-7 -23 -1 -48 19 -20 16 -56 40 -81 53 -26 13 -60 41 -77 65 -28 40 -32 62 -4
25z m-516 -24 c0 -6 8 -8 20 -4 10 3 37 1 60 -6 32 -10 39 -16 34 -31 -6 -19
10 -25 21 -8 11 17 44 -7 38 -29 -4 -15 -17 -19 -86 -24 -45 -2 -110 -11 -145
-18 -54 -11 -64 -11 -72 1 -7 12 -12 12 -27 -3 -12 -10 -27 -14 -42 -10 -17 4
-22 3 -17 -5 4 -7 -14 -17 -51 -27 -32 -9 -95 -27 -141 -41 -78 -23 -102 -24
-102 -4 0 4 15 17 33 29 29 19 32 19 38 3 6 -14 9 -12 18 11 9 22 15 27 31 22
11 -4 20 -2 20 4 0 6 -6 11 -12 11 -8 1 -5 6 5 15 11 7 25 11 33 8 8 -3 14 1
14 11 0 11 9 16 31 16 16 0 28 4 25 9 -9 14 85 54 129 55 22 1 46 7 53 14 16
15 92 16 92 1z m1030 -102 c13 -24 13 -29 0 -37 -13 -9 -13 -12 3 -21 13 -8
17 -18 13 -35 -5 -17 -3 -22 7 -18 10 4 17 -12 24 -58 6 -35 9 -65 8 -67 -2
-1 -18 25 -35 60 -37 72 -75 134 -103 165 -13 16 -15 24 -7 29 8 5 9 10 2 14
-6 3 -14 19 -18 36 l-7 29 49 -35 c27 -19 56 -48 64 -62z m-2010 59 c0 -2 -13
-33 -30 -68 -16 -34 -30 -57 -30 -50 0 6 -4 12 -10 12 -5 0 -7 -13 -3 -30 4
-23 2 -30 -11 -30 -9 0 -16 -4 -16 -10 0 -5 6 -10 14 -10 12 0 12 -7 0 -52 -8
-29 -18 -80 -24 -112 -5 -33 -15 -63 -22 -67 -7 -4 -9 -11 -6 -15 12 -12 -11
-44 -28 -37 -12 4 -14 0 -8 -21 5 -20 2 -26 -10 -26 -9 0 -16 -7 -16 -16 0 -8
5 -12 10 -9 15 9 13 4 -32 -90 -24 -51 -43 -106 -46 -136 -2 -27 -8 -49 -13
-49 -5 0 -9 1 -9 3 0 1 -7 40 -15 87 -29 160 -30 171 -11 164 20 -8 21 9 1 26
-12 10 -13 15 -3 28 10 12 10 16 1 19 -14 5 -17 31 -7 57 3 8 12 12 20 9 11
-4 13 2 8 26 -4 20 -3 31 5 31 14 0 14 37 0 42 -15 5 9 52 66 133 59 83 80
101 100 85 8 -7 16 -9 16 -4 1 5 2 16 3 24 0 8 11 16 24 18 13 2 20 8 16 14
-4 6 6 22 22 35 27 21 44 29 44 19z m1648 -93 c24 -18 31 -30 27 -44 -5 -14
-3 -17 9 -13 11 4 19 -3 26 -22 8 -20 14 -24 22 -16 8 8 16 6 30 -11 17 -19
18 -23 4 -33 -21 -15 -20 -28 0 -20 14 5 16 1 11 -30 -3 -20 -8 -39 -11 -41
-3 -3 -28 14 -56 38 -48 41 -123 159 -100 159 6 0 10 5 10 10 0 6 -6 10 -14
10 -16 0 -29 27 -20 41 6 10 15 6 62 -28z m-494 2 c-7 -18 0 -19 26 -2 17 10
22 9 31 -3 8 -11 12 -12 16 -2 9 23 83 12 83 -14 0 -8 9 -13 22 -11 20 2 25
-7 45 -83 12 -46 21 -85 20 -87 -2 -1 -12 0 -24 3 -13 4 -20 11 -16 20 6 17
-1 18 -27 2 -15 -10 -22 -10 -32 0 -14 14 -32 16 -23 2 4 -6 -31 -10 -97 -10
-57 0 -127 -3 -155 -6 -47 -6 -53 -5 -53 11 0 17 -1 17 -18 2 -21 -19 -42 -22
-42 -7 0 6 -4 10 -10 10 -5 0 -10 -6 -10 -14 0 -10 -24 -15 -95 -21 -53 -4
-120 -13 -150 -20 -46 -10 -55 -10 -55 1 0 19 -17 18 -24 -2 -4 -11 -14 -15
-31 -12 -17 4 -25 1 -25 -8 0 -16 -46 -19 -55 -4 -3 6 -11 10 -16 10 -6 0 -8
-4 -5 -9 3 -5 -1 -14 -9 -21 -8 -7 -15 -21 -15 -31 0 -10 -8 -24 -18 -31 -10
-7 -37 -36 -61 -65 -28 -33 -48 -50 -58 -46 -9 4 -14 0 -13 -8 5 -30 -1 -39
-22 -40 -20 0 -21 -2 -7 -11 14 -9 11 -20 -25 -92 -23 -44 -49 -105 -59 -134
-14 -41 -21 -51 -31 -43 -7 6 -16 8 -19 4 -13 -12 -7 73 8 128 33 115 45 140
66 134 17 -6 19 -3 14 18 -5 17 -2 26 9 30 10 4 16 18 16 38 0 22 5 32 19 36
11 3 17 11 15 17 -7 19 99 161 119 160 10 -1 17 5 17 16 0 9 11 22 25 28 15 7
25 8 25 2 0 -6 5 -10 10 -10 6 0 10 7 10 15 0 15 10 19 42 16 12 -2 16 3 12
13 -4 11 11 19 63 35 70 20 216 61 220 61 1 0 0 -7 -3 -15 -4 -8 -1 -15 5 -15
7 0 14 7 18 16 4 11 13 13 34 9 24 -5 28 -4 23 9 -4 10 -1 16 7 17 8 0 59 6
114 13 147 19 176 19 169 1z m103 -211 c15 -4 20 -11 16 -22 -5 -14 -3 -15 8
-4 16 14 49 16 49 2 0 -5 7 -10 16 -10 8 0 12 5 9 11 -5 7 4 9 26 7 29 -3 34
-8 40 -35 5 -25 3 -33 -7 -33 -19 0 -18 -10 4 -26 14 -11 15 -16 4 -34 -11
-18 -11 -21 4 -18 23 4 31 -28 40 -163 7 -111 7 -111 -14 -100 -12 6 -29 23
-39 38 -10 14 -35 42 -55 62 -21 20 -38 42 -38 48 0 7 -18 17 -40 23 -21 6
-42 15 -45 20 -3 6 -11 10 -16 10 -6 0 -7 -5 -4 -11 5 -7 -3 -9 -21 -7 -21 2
-30 9 -32 26 -2 13 -13 27 -26 31 -12 5 -28 16 -35 25 -8 10 -22 14 -36 10
-13 -3 -38 2 -56 12 l-34 17 19 -22 c23 -25 13 -40 -14 -23 -11 7 -31 12 -45
12 -14 0 -33 8 -43 18 -10 10 -26 21 -35 25 -26 10 -20 27 11 28 23 0 21 3
-18 17 -71 26 -80 35 -45 43 59 13 95 10 95 -8 0 -15 1 -15 18 0 21 19 42 22
42 7 0 -5 5 -10 10 -10 6 0 10 7 10 15 0 11 17 15 73 18 143 6 182 7 204 1z
m268 -50 c54 -15 55 -16 55 -52 0 -52 -10 -82 -26 -82 -8 0 -14 -4 -14 -10 0
-5 5 -10 10 -10 16 0 12 -27 -5 -34 -20 -7 -19 -26 0 -26 11 0 14 -7 9 -24 -3
-13 -11 -61 -17 -107 -7 -47 -17 -84 -25 -87 -14 -4 -16 24 -2 33 6 3 10 11
10 16 0 6 -4 7 -10 4 -5 -3 -10 0 -10 7 -1 71 -11 168 -21 213 -11 48 -10 58
2 66 12 8 12 10 0 18 -9 6 -11 18 -7 36 6 22 4 26 -8 22 -8 -3 -17 1 -20 9
-10 26 -7 36 9 30 9 -3 40 -13 70 -22z m-2000 -21 c-4 -10 -9 -55 -12 -100 -4
-61 -9 -83 -20 -83 -11 0 -11 -4 2 -24 14 -21 14 -24 -1 -37 -14 -12 -14 -14
6 -21 17 -6 21 -16 20 -50 0 -24 2 -107 4 -185 5 -128 3 -143 -11 -143 -13 0
-14 -3 -5 -12 15 -15 16 -48 2 -48 -5 0 -10 -5 -10 -11 0 -6 6 -9 13 -6 11 4
14 -14 15 -81 l1 -87 -31 90 c-21 60 -27 90 -19 93 17 6 13 22 -5 22 -12 0
-15 6 -10 26 6 21 4 25 -7 21 -11 -4 -19 10 -30 51 -34 121 -42 233 -17 217
16 -10 20 13 5 25 -14 11 -14 15 1 31 16 18 16 19 1 19 -23 0 -21 21 9 125 30
103 51 145 71 138 9 -3 13 3 13 21 0 14 5 26 11 26 7 0 8 -7 4 -17z m2099 -9
c9 -3 12 -12 9 -22 -5 -12 -2 -14 11 -9 21 8 65 -32 58 -53 -3 -7 0 -10 7 -6
14 9 14 5 1 -28 -7 -19 -14 -24 -27 -19 -15 6 -16 4 -5 -9 15 -18 6 -48 -14
-48 -8 0 -14 -4 -14 -10 0 -5 7 -10 15 -10 19 0 20 6 -14 -92 -16 -46 -31 -95
-35 -110 -6 -26 -65 -98 -81 -98 -4 0 0 11 9 25 18 28 21 39 6 30 -14 -8 -13
1 12 151 16 100 25 131 35 127 16 -6 17 9 2 24 -7 7 -6 15 5 26 19 19 20 27 4
27 -9 0 -12 16 -10 55 2 30 5 55 7 55 2 0 10 -3 19 -6z m-1250 -118 c-3 -9
-10 -16 -15 -16 -5 0 -9 -27 -9 -59 0 -36 -5 -65 -13 -73 -8 -7 -22 -46 -32
-87 -14 -58 -16 -94 -11 -173 7 -115 25 -168 56 -168 23 0 47 -46 57 -108 6
-32 5 -34 -23 -30 -41 4 -42 -22 -3 -67 43 -48 126 -106 218 -151 65 -32 86
-37 172 -41 105 -6 140 0 121 19 -15 15 -16 42 -2 33 6 -3 10 -1 10 4 0 6 9
11 20 11 14 0 21 -9 26 -35 7 -39 38 -49 47 -15 3 12 14 20 26 20 12 0 21 4
21 9 0 12 64 33 90 29 17 -3 10 -16 -51 -95 -67 -88 -89 -108 -89 -81 0 6 -3
8 -7 4 -4 -4 -8 -15 -8 -24 0 -10 -9 -18 -22 -20 -24 -4 -32 -21 -10 -23 15
-1 -44 -15 -101 -24 -23 -3 -42 -3 -41 2 4 22 -3 24 -21 8 -16 -14 -23 -16
-32 -7 -17 17 -31 15 -24 -3 3 -8 2 -15 -2 -15 -4 0 -62 -7 -127 -15 -156 -19
-169 -19 -161 1 5 13 1 15 -20 10 -18 -5 -30 -3 -36 6 -6 10 -10 10 -18 -2 -8
-13 -15 -12 -55 9 -44 23 -57 45 -32 54 8 3 4 11 -11 22 -17 12 -21 22 -16 38
6 19 5 20 -8 9 -13 -10 -22 5 -67 111 -55 130 -58 143 -39 149 9 3 8 10 -5 23
-13 12 -15 21 -8 28 16 16 13 27 -3 21 -28 -11 -31 76 -6 176 20 81 25 90 42
84 17 -5 18 -4 6 16 -11 18 -10 23 7 36 16 12 17 16 6 23 -9 6 -11 17 -6 32
12 40 66 162 87 197 17 28 22 31 36 20 13 -11 14 -10 8 15 -6 24 -3 30 14 34
21 6 27 19 10 25 -6 2 4 20 21 41 32 38 45 44 33 13z m239 -61 c35 -15 51 -43
36 -66 -5 -9 5 -31 28 -64 28 -38 38 -62 41 -102 4 -47 2 -55 -25 -82 -19 -18
-45 -32 -69 -36 -21 -3 -56 -12 -76 -20 -40 -14 -48 -11 -48 16 0 9 -5 19 -11
21 -9 3 -9 36 -1 128 9 99 9 128 -1 144 -11 16 -9 23 12 47 29 33 60 37 114
14z m161 -33 c3 -20 6 -71 6 -112 0 -41 3 -92 6 -112 l6 -37 50 20 c28 11 59
17 70 13 24 -7 22 -2 -27 122 -34 84 -51 144 -41 144 4 0 11 -12 17 -27 7 -19
12 -24 18 -14 6 9 12 3 21 -19 17 -41 32 -49 25 -13 l-5 28 14 -31 c8 -17 18
-44 21 -60 l6 -29 -15 30 c-8 17 -14 23 -14 15 0 -8 8 -33 19 -55 12 -26 17
-31 14 -15 -5 24 -4 24 8 -3 14 -29 27 -27 27 5 0 12 4 16 11 12 8 -4 9 0 4
15 -3 11 -1 29 5 38 9 15 10 14 5 -7 -8 -32 10 -6 19 30 6 19 5 21 -3 10 -7
-10 -11 -11 -11 -3 0 7 8 20 18 30 10 10 26 30 35 46 28 43 37 32 37 -42 0
-65 13 -98 29 -73 3 5 24 31 45 56 27 33 42 44 49 37 8 -8 4 -18 -10 -33 -11
-13 -23 -28 -26 -34 -8 -14 28 -226 43 -254 13 -24 10 -33 -6 -22 -14 9 -51
124 -60 185 -6 46 -24 66 -24 27 0 -11 -7 -20 -15 -20 -14 0 -21 -43 -18 -109
1 -8 -2 -10 -9 -3 -5 5 -13 48 -17 96 -5 48 -10 89 -13 91 -6 7 -58 -180 -58
-210 0 -14 -4 -25 -10 -25 -5 0 -10 -9 -10 -20 0 -15 7 -20 28 -22 15 -1 41
-3 57 -5 53 -6 60 -6 80 2 20 7 20 6 1 -9 -19 -15 -17 -16 32 -16 53 0 69 -13
31 -25 -17 -6 -18 -9 -7 -22 12 -14 11 -15 -9 -5 -30 17 -69 15 -87 -4 -12
-11 -16 -36 -16 -96 l0 -81 85 5 c47 3 85 2 85 -2 0 -17 -28 -28 -85 -35 -61
-8 -89 -20 -79 -36 3 -5 18 -9 34 -9 16 0 32 -5 35 -11 10 -14 4 -18 -33 -21
-18 -1 -32 -8 -32 -14 0 -9 -8 -8 -30 2 -28 14 -29 17 -15 38 14 21 13 22 -17
24 -35 3 -50 12 -30 19 6 3 10 8 7 13 -3 4 6 11 20 14 24 6 25 9 25 97 0 85
-1 89 -19 79 -14 -7 -21 -6 -24 3 -4 9 -8 8 -16 -3 -7 -10 -11 -11 -11 -2 0 6
-10 12 -22 12 -19 0 -20 2 -8 11 13 9 13 10 0 6 -8 -2 -15 -9 -15 -14 0 -6 -3
-15 -7 -19 -11 -11 -9 -126 2 -144 8 -13 10 -13 10 2 0 9 5 20 11 23 5 4 3
-10 -5 -30 -9 -21 -16 -53 -16 -73 0 -42 -9 -38 -14 7 -5 47 -16 50 -16 5 0
-22 5 -45 12 -52 6 -6 9 -15 5 -19 -4 -3 -14 2 -22 13 -8 11 -15 14 -15 7 0
-7 -4 -13 -8 -13 -15 0 -35 149 -28 211 l6 61 -28 -6 c-27 -5 -27 -5 3 9 l30
14 -37 1 c-21 0 -38 -4 -38 -10 0 -5 -4 -10 -10 -10 -14 0 -12 27 3 34 6 2 1
4 -13 3 -16 -1 -24 3 -22 11 1 8 -2 11 -8 7 -6 -4 -10 -68 -10 -166 0 -104 -3
-158 -10 -154 -5 3 -10 1 -10 -4 0 -6 -4 -11 -10 -11 -5 0 -10 26 -10 58 l-1
57 -21 -29 c-54 -73 -90 -96 -146 -96 -58 0 -100 59 -44 61 21 1 18 3 -15 11
-76 17 -44 38 58 38 46 0 59 4 79 25 28 30 24 35 -30 42 -24 3 -36 9 -30 13
18 11 -1 19 -66 26 -62 7 -108 29 -98 46 4 6 10 5 16 -3 6 -9 7 -1 4 22 -5 30
-1 41 22 64 15 15 41 33 57 40 36 15 172 18 180 4 6 -8 -16 -14 -39 -10 -5 1
-6 -5 -3 -13 5 -12 0 -13 -25 -5 -25 7 -36 4 -66 -19 -33 -25 -34 -27 -14 -30
12 -2 31 -15 42 -29 23 -29 27 -18 5 11 -8 11 -15 25 -15 30 0 6 9 -4 20 -22
11 -18 20 -38 20 -46 0 -7 25 -22 55 -33 l54 -20 3 83 c2 46 7 84 11 83 5 0
15 8 23 18 13 17 13 17 14 0 0 -13 6 -16 23 -13 12 3 63 10 114 17 l92 13 -21
35 c-31 53 -32 53 -79 40 -41 -11 -42 -13 -19 -19 21 -6 17 -9 -26 -15 -46 -6
-51 -10 -47 -29 4 -19 3 -19 -7 -3 -6 9 -17 17 -24 17 -8 0 -19 7 -26 15 -7 9
-19 14 -27 11 -7 -3 -13 -1 -13 4 0 5 8 11 19 15 17 5 18 16 13 165 -4 141 -3
160 10 155 9 -4 18 -23 22 -43z m1016 7 c0 -21 16 -26 22 -7 4 11 68 -77 68
-93 0 -5 -7 -6 -15 -3 -8 4 -15 1 -15 -4 0 -6 8 -13 18 -16 15 -5 19 -17 20
-54 1 -55 -6 -85 -19 -77 -5 4 -6 -7 -3 -25 4 -20 3 -30 -5 -30 -8 0 -10 -8
-6 -19 3 -10 0 -30 -6 -45 -10 -21 -15 -24 -27 -13 -13 10 -14 8 -9 -15 5 -20
3 -30 -10 -37 -15 -9 -16 -12 -4 -20 12 -8 10 -19 -13 -65 -23 -46 -31 -56
-47 -51 -15 5 -19 2 -17 -17 2 -17 -3 -24 -20 -26 -18 -3 -21 -6 -12 -17 9
-10 -7 -33 -72 -102 -125 -134 -119 -133 -117 -14 1 82 4 101 18 106 14 6 14
8 1 14 -13 5 -9 27 30 142 31 92 49 134 58 131 9 -3 11 3 7 21 -5 17 -2 26 9
30 9 4 16 11 16 17 0 6 -4 8 -10 5 -15 -10 -12 14 7 46 13 22 22 27 40 23 24
-6 33 11 11 19 -8 2 0 10 16 19 18 9 25 18 18 22 -8 5 -2 25 18 63 17 31 30
71 30 90 0 20 4 32 10 28 6 -3 10 -15 10 -26z m-1827 -276 c-3 -32 0 -78 6
-103 7 -31 7 -48 -1 -57 -8 -10 -6 -13 6 -13 11 0 16 -9 16 -28 0 -16 -3 -31
-6 -35 -4 -3 -6 -56 -5 -116 2 -97 0 -110 -13 -105 -20 8 -21 -10 -1 -26 12
-10 13 -16 3 -27 -8 -10 -8 -17 -1 -21 11 -8 28 -52 19 -52 -3 0 -21 29 -41
63 -37 67 -47 127 -20 127 8 0 15 5 15 10 0 6 -4 10 -10 10 -5 0 -10 9 -10 20
0 11 5 20 11 20 5 0 7 5 4 10 -4 6 -11 8 -16 4 -13 -7 -9 146 4 164 6 8 5 12
-2 12 -18 0 -13 39 16 122 15 43 28 78 29 78 1 0 0 -26 -3 -57z m1971 -87
c-13 -113 -47 -208 -70 -199 -8 3 -14 1 -14 -5 0 -6 5 -12 12 -14 8 -3 4 -12
-10 -26 -18 -18 -19 -22 -6 -22 9 0 13 -6 10 -12 -2 -7 -15 -46 -27 -86 -15
-50 -26 -71 -35 -68 -9 4 -13 -2 -11 -17 2 -17 -3 -22 -21 -20 -19 2 -21 -1
-16 -22 5 -21 3 -25 -15 -25 -12 0 -21 -4 -21 -10 0 -5 5 -10 10 -10 6 0 10
-6 10 -13 0 -13 -103 -165 -124 -182 -7 -5 -15 -18 -19 -28 -5 -13 -13 -16
-27 -12 -16 5 -20 2 -20 -15 0 -12 -9 -24 -22 -30 -13 -5 -17 -9 -10 -9 23 -2
-5 -37 -71 -90 -82 -65 -115 -78 -133 -54 -13 17 -13 17 -14 -1 0 -15 -5 -17
-31 -12 -25 5 -30 3 -25 -9 4 -10 -5 -17 -32 -23 -157 -39 -207 -48 -210 -40
-2 5 -10 3 -18 -3 -12 -10 -18 -9 -29 2 -13 12 -6 21 47 64 38 30 69 48 83 47
16 -1 22 4 21 16 -1 11 7 18 22 20 15 2 22 9 18 17 -3 8 13 20 44 33 45 19 49
19 53 4 4 -14 6 -13 12 6 7 22 15 26 50 22 16 -1 17 1 8 11 -9 9 -2 20 35 49
51 41 105 104 123 144 7 14 15 26 20 26 14 0 99 77 140 128 24 29 45 48 47 43
2 -6 8 -11 14 -11 5 0 6 9 3 20 -5 16 0 22 21 31 22 8 25 12 14 19 -11 7 -12
14 -2 34 6 14 16 26 22 26 5 0 10 9 10 21 0 13 8 23 20 26 14 4 19 11 15 22
-3 10 13 41 40 79 25 34 44 63 43 64 -1 2 2 14 6 28 4 14 9 32 10 40 7 39 18
59 32 53 16 -6 20 12 4 22 -5 3 -10 11 -10 17 0 6 6 6 15 -2 12 -10 14 -25 9
-64z m-2329 -84 c11 -26 18 -52 17 -58 -1 -7 4 -14 13 -18 10 -3 15 -19 15
-43 0 -36 9 -93 29 -190 5 -27 5 -40 -2 -36 -5 3 -13 0 -17 -6 -9 -15 -59 95
-77 169 -17 75 -17 101 2 94 8 -4 15 -2 15 4 0 6 -6 12 -12 15 -10 3 -10 9 0
26 16 27 15 34 -2 28 -10 -4 -14 3 -13 29 1 19 3 34 6 34 4 0 15 -21 26 -48z
m2366 -132 c14 0 11 -17 -8 -36 -13 -13 -14 -19 -5 -22 18 -6 15 -26 -18 -106
-30 -72 -54 -103 -97 -125 -20 -10 -23 -9 -23 7 0 12 9 23 23 27 19 6 19 8 4
12 -15 4 -12 15 27 86 24 45 46 94 50 110 5 19 13 27 28 27 17 0 19 3 10 12
-7 7 -11 19 -11 28 1 11 2 11 6 -2 2 -10 9 -18 14 -18z m-1948 -25 c-3 -8 0
-15 7 -15 7 0 9 -8 5 -20 -4 -11 -2 -20 4 -20 15 0 14 -33 -1 -48 -9 -9 -7
-12 9 -12 18 0 23 -8 29 -47 4 -27 11 -58 15 -70 6 -16 5 -23 -4 -23 -6 0 -3
-7 8 -16 14 -10 16 -17 8 -22 -8 -5 -8 -11 1 -24 7 -10 16 -15 19 -11 4 3 7 1
7 -5 0 -6 -5 -14 -10 -17 -6 -4 -8 -11 -4 -16 4 -6 11 -6 19 1 10 8 14 7 17
-2 3 -7 -2 -18 -10 -24 -14 -10 -13 -12 6 -18 15 -5 22 -15 22 -32 0 -13 4
-24 8 -24 4 0 18 -21 31 -47 26 -55 29 -57 -74 62 -43 49 -72 91 -66 93 18 6
13 19 -9 25 -12 3 -20 14 -20 26 0 14 -5 19 -15 15 -12 -5 -15 4 -15 45 0 41
3 49 15 45 20 -8 19 6 -2 21 -17 12 -17 14 1 34 16 18 17 21 3 21 -9 0 -17 10
-19 23 -5 39 4 127 12 122 5 -3 7 -12 3 -20z m1365 -97 c-15 -43 -84 -175
-107 -204 -14 -18 -21 -20 -30 -11 -10 9 -12 8 -9 -8 2 -13 -5 -23 -19 -30
-25 -11 -30 -25 -10 -26 6 0 1 -5 -12 -10 -17 -7 -27 -6 -32 2 -5 9 -11 8 -23
-3 -9 -10 -24 -14 -37 -11 -15 4 -20 2 -15 -5 9 -15 -42 -28 -56 -14 -8 8 -5
18 8 35 11 13 46 59 78 103 66 87 75 96 94 89 6 -2 12 0 12 5 0 5 24 22 53 37
l52 28 -43 3 c-37 3 -42 6 -31 18 15 19 48 18 70 -2 17 -15 19 -15 30 10 19
40 41 35 27 -6z m762 -18 c0 -39 -9 -60 -26 -60 -12 0 -12 -4 -3 -21 8 -15 8
-24 0 -32 -14 -14 -14 -30 -1 -22 18 11 10 -30 -16 -83 -14 -29 -32 -52 -40
-52 -16 0 -19 16 -4 25 6 3 10 11 10 16 0 6 -4 7 -10 4 -6 -4 -10 8 -10 30 0
21 4 34 10 30 6 -3 7 1 4 9 -4 10 -1 16 7 16 11 0 11 2 -1 10 -13 8 -13 12 -1
32 10 16 10 23 2 26 -20 7 -11 36 36 115 10 17 43 -15 43 -43z m-2318 -124
c24 -47 27 -61 16 -67 -11 -8 -11 -11 1 -18 7 -5 10 -14 7 -20 -4 -6 -3 -11 3
-11 5 0 16 -21 24 -47 8 -27 22 -65 31 -86 16 -37 16 -38 -1 -35 -11 2 -17 11
-15 21 2 12 -4 17 -20 17 -25 0 -59 45 -51 68 3 7 -1 11 -8 10 -14 -3 -31 77
-43 202 -6 61 -6 64 9 45 9 -11 30 -46 47 -79z m2328 -51 c-10 -12 -9 -15 4
-15 19 0 21 -43 5 -140 -17 -111 -27 -140 -46 -133 -13 5 -15 2 -9 -12 5 -14
0 -24 -16 -37 -19 -15 -20 -18 -5 -18 9 0 17 -4 17 -8 0 -25 -110 -147 -170
-189 -17 -12 -25 -13 -28 -5 -6 19 -19 14 -25 -9 -4 -16 -10 -19 -28 -14 -18
6 -21 4 -16 -9 7 -18 -13 -30 -124 -74 -85 -33 -155 -49 -144 -33 8 14 -1 14
-25 -1 -15 -10 -22 -10 -32 0 -16 16 -31 15 -25 -2 7 -19 -22 -26 -108 -25
l-70 0 35 19 c32 17 36 17 41 2 6 -15 8 -15 15 3 10 26 25 36 47 29 9 -3 17
-1 17 5 0 6 -5 11 -12 11 -6 0 -3 9 7 20 18 20 52 29 40 11 -3 -5 -1 -12 4
-15 5 -3 12 1 15 10 5 12 14 15 36 11 21 -5 28 -3 24 6 -3 8 19 18 65 30 38
10 101 34 141 53 54 25 76 32 85 24 10 -9 14 -6 17 12 2 15 11 24 26 26 22 3
30 17 13 24 -6 2 8 30 30 63 21 33 42 74 45 93 4 18 15 37 27 44 19 10 20 12
5 17 -15 5 -11 15 26 69 24 35 57 92 72 129 16 36 30 60 32 54 2 -6 -2 -18 -8
-26z m-1026 -155 c9 7 19 11 22 8 2 -3 -22 -29 -56 -58 -40 -34 -66 -50 -76
-46 -12 4 -15 2 -11 -9 8 -18 -9 -30 -19 -13 -5 8 -10 4 -15 -10 -5 -12 -17
-22 -27 -22 -10 0 -22 -4 -27 -9 -10 -10 -100 -47 -147 -61 -19 -6 -28 -4 -32
5 -3 9 23 34 72 68 42 30 90 69 106 86 17 17 37 31 45 31 9 0 43 9 76 19 41
13 62 15 67 8 4 -7 11 -7 22 3z m-259 -75 c-80 -69 -145 -109 -157 -97 -17 17
-25 15 -31 -9 -4 -16 -10 -19 -28 -14 -18 6 -21 4 -16 -9 7 -17 -11 -28 -69
-42 -20 -5 -23 -3 -18 10 5 14 2 16 -21 10 -18 -4 -30 -2 -37 7 -7 11 -11 11
-15 2 -6 -15 -53 -18 -53 -3 0 6 -11 10 -23 10 -13 0 -31 8 -39 18 -17 18 -78
125 -78 134 0 4 14 1 30 -5 19 -7 28 -17 25 -25 -4 -11 1 -13 21 -8 16 4 32 2
42 -6 12 -10 16 -10 19 0 3 8 25 12 61 12 32 0 95 7 142 15 97 17 110 18 109
8 -4 -22 3 -25 15 -7 13 16 18 17 35 7 27 -17 34 -16 28 1 -6 15 15 22 73 24
23 1 23 -1 -15 -33z m1082 -107 c-14 -29 -33 -62 -42 -73 -13 -17 -17 -18 -25
-5 -7 11 -11 9 -19 -13 -7 -19 -15 -25 -27 -20 -13 5 -15 2 -10 -14 5 -17 -3
-24 -51 -46 -53 -23 -147 -57 -159 -57 -2 0 0 9 6 20 8 15 17 19 32 14 17 -5
20 -3 15 10 -4 10 -3 15 3 11 6 -3 10 0 10 8 0 18 24 29 47 20 12 -5 15 -2 10
9 -4 12 11 26 58 53 34 20 87 61 116 91 29 29 55 52 57 49 2 -2 -7 -28 -21
-57z m-917 -52 c0 -3 -38 -34 -85 -70 l-85 -66 -85 22 -86 22 73 28 c85 33
100 35 91 11 -6 -17 -5 -17 14 0 14 12 29 16 47 11 20 -5 25 -3 21 8 -4 11 6
18 37 25 55 13 58 14 58 9z m-877 -143 c-20 -8 -15 -23 7 -23 19 0 24 -10 20
-39 -1 -9 4 -12 15 -7 12 4 34 -9 71 -43 34 -31 79 -60 124 -78 48 -19 68 -32
65 -42 -4 -10 1 -12 16 -8 29 8 49 -2 49 -23 0 -15 -11 -20 -45 -26 -111 -16
-245 15 -215 51 9 11 6 14 -12 17 -17 2 -22 9 -21 26 2 12 -2 22 -7 22 -6 0
-10 -5 -10 -11 0 -5 -5 -7 -10 -4 -11 7 -90 171 -90 186 0 5 12 9 28 8 15 0
21 -3 15 -6z"/>
<path d="M1462 1998 c-6 -13 -12 -62 -15 -110 l-3 -88 25 0 c68 0 143 98 124
163 -16 56 -108 80 -131 35z"/>
</g>
</svg>
