<?xml version="1.0" standalone="no"?>
<!DOCTYPE svg PUBLIC "-//W3C//DTD SVG 20010904//EN"
 "http://www.w3.org/TR/2001/REC-SVG-20010904/DTD/svg10.dtd">
<svg version="1.0" xmlns="http://www.w3.org/2000/svg"
 width="300.000000pt" height="300.000000pt" viewBox="0 0 300.000000 300.000000"
 preserveAspectRatio="xMidYMid meet">
<metadata>
Created by potrace 1.10, written by Peter Selinger 2001-2011
</metadata>
<g transform="translate(0.000000,300.000000) scale(0.100000,-0.100000)"
fill="#ffffff" stroke="none">
<path d="M1356 2653 c-13 -13 -20 -15 -23 -5 -3 6 -11 12 -19 12 -7 0 -11 -6
-8 -13 3 -9 -8 -14 -38 -15 -48 -3 -163 -20 -190 -28 -13 -4 -18 0 -18 13 -1
17 -1 17 -11 1 -11 -19 -39 -25 -39 -8 0 6 -5 10 -11 10 -6 0 -9 -6 -6 -14 4
-10 -8 -15 -46 -19 -32 -4 -74 -20 -117 -45 -59 -34 -68 -37 -78 -23 -9 13
-11 11 -11 -11 -1 -18 -6 -28 -16 -28 -9 0 -35 -10 -58 -22 -23 -12 -48 -21
-55 -20 -6 2 -12 -5 -12 -15 0 -14 -2 -15 -9 -4 -8 12 -11 12 -23 0 -8 -8 -13
-20 -10 -27 2 -7 -2 -10 -12 -6 -11 4 -15 2 -11 -7 3 -8 -10 -24 -30 -38 -20
-13 -54 -46 -77 -73 -32 -39 -43 -46 -54 -37 -12 9 -14 7 -12 -11 2 -18 -3
-25 -22 -30 -20 -6 -22 -9 -9 -14 15 -6 12 -15 -17 -64 -34 -55 -54 -110 -54
-145 0 -14 -5 -17 -20 -12 -11 4 -20 2 -20 -4 0 -6 5 -11 10 -11 6 0 10 -9 10
-20 0 -11 -4 -20 -10 -20 -5 0 -10 -5 -10 -11 0 -6 7 -9 15 -5 12 4 15 -5 14
-47 0 -29 0 -59 2 -67 1 -8 1 -29 1 -47 -2 -24 -6 -31 -17 -27 -8 4 -15 1 -15
-5 0 -6 5 -11 10 -11 16 0 12 -21 -7 -37 -17 -14 -17 -14 -1 -9 15 5 18 -1 18
-37 0 -23 9 -76 20 -117 15 -57 16 -76 7 -82 -9 -6 -7 -11 6 -19 12 -7 16 -17
12 -30 -5 -14 -2 -17 8 -13 11 4 17 -4 22 -28 4 -18 21 -68 38 -111 25 -66 28
-80 16 -88 -12 -8 -12 -10 1 -19 13 -8 13 -13 2 -31 -12 -19 -12 -21 1 -16 12
5 20 -7 32 -50 19 -64 54 -124 87 -147 12 -9 17 -16 10 -16 -6 0 -12 -5 -12
-11 0 -6 9 -8 21 -4 15 5 22 2 26 -14 3 -12 10 -21 15 -21 19 0 109 -84 104
-97 -3 -7 -1 -13 5 -13 6 0 22 -9 36 -20 14 -11 21 -20 14 -20 -6 0 -11 -5
-11 -10 0 -6 6 -10 13 -9 26 3 37 -2 37 -16 0 -16 16 -21 22 -6 2 6 18 7 37 3
29 -6 36 -13 46 -49 7 -23 27 -65 44 -92 23 -38 27 -51 16 -51 -24 0 -17 -18
8 -22 14 -2 21 -9 21 -21 -1 -9 2 -17 7 -17 5 0 9 5 9 11 0 6 14 0 32 -12 37
-27 120 -36 186 -21 36 9 42 8 42 -7 1 -14 2 -14 15 2 9 13 20 17 36 12 17 -6
21 -4 16 8 -7 20 9 26 111 41 73 11 82 11 82 -3 1 -14 2 -13 11 2 11 18 39 24
39 7 0 -5 5 -10 11 -10 6 0 8 7 5 16 -5 13 -2 15 16 10 13 -3 29 -6 37 -6 11
0 11 -4 -2 -18 -25 -27 -21 -36 5 -12 25 23 39 25 56 8 9 -9 12 -8 12 5 0 9 7
17 15 17 8 0 15 -5 15 -10 0 -6 8 -5 19 2 16 10 23 9 39 -6 19 -17 20 -17 18
1 -1 16 10 18 122 21 83 2 121 -1 117 -8 -3 -5 -1 -10 4 -10 6 0 11 5 11 11 0
7 11 9 30 6 23 -5 28 -3 23 8 -4 11 2 15 21 15 29 0 149 43 185 67 18 11 26
13 29 5 6 -19 19 -14 25 9 4 16 10 19 29 14 18 -6 20 -5 11 5 -8 9 1 22 40 54
29 23 66 63 82 88 17 26 35 45 42 43 17 -5 24 6 12 21 -7 9 -4 17 13 28 16 12
18 16 7 16 -14 0 -15 6 -3 50 7 27 16 81 20 120 3 38 10 67 15 64 13 -7 11 3
-3 27 -10 17 -10 23 0 26 6 3 12 9 12 15 0 6 -6 8 -14 5 -11 -4 -17 13 -25 76
-17 127 -17 128 16 192 17 33 36 77 42 97 9 26 17 35 27 31 12 -4 14 0 8 21
-5 20 -2 26 10 26 9 0 16 5 16 10 0 6 -6 10 -13 10 -11 0 -11 13 -1 73 7 39
13 91 14 115 0 33 4 42 18 42 16 1 16 1 0 14 -10 7 -18 17 -18 21 0 4 8 14 18
22 15 13 15 14 0 9 -14 -4 -17 6 -23 72 -3 42 -8 98 -11 125 -5 40 -4 46 10
41 9 -3 16 -2 16 4 0 5 -8 13 -17 16 -12 5 -14 9 -5 18 15 15 15 29 1 25 -6
-1 -17 19 -25 45 -9 29 -33 67 -63 100 -26 29 -46 59 -44 66 3 7 -4 12 -16 12
-15 0 -21 6 -21 21 0 17 -3 19 -13 10 -11 -8 -25 2 -64 43 -36 38 -64 57 -97
67 -37 11 -45 17 -40 32 5 16 4 17 -16 5 -18 -11 -23 -11 -34 5 -16 21 -27 23
-20 3 5 -12 -3 -12 -53 1 -35 9 -86 14 -130 11 -39 -2 -69 0 -67 4 2 3 0 9 -5
13 -5 3 -14 -1 -18 -10 -8 -13 -14 -13 -54 3 -27 10 -44 22 -42 30 3 6 1 12
-4 12 -5 0 -15 -6 -22 -12 -10 -11 -15 -10 -25 5 -14 18 -32 24 -21 7 4 -6
-15 -10 -49 -10 -49 0 -55 2 -49 18 6 14 4 15 -9 4 -13 -10 -19 -10 -31 3 -19
19 -27 19 -27 1 0 -12 -6 -12 -37 0 -21 7 -77 13 -125 14 -70 0 -87 3 -90 15
-3 14 -6 13 -22 -2z m102 -28 c12 -3 22 -10 22 -16 0 -13 -92 -8 -97 6 -3 11
41 17 75 10z m72 -11 c0 -2 -9 -4 -20 -4 -11 0 -20 4 -20 9 0 5 9 7 20 4 11
-3 20 -7 20 -9z m-165 -5 c3 -4 -30 -7 -73 -7 -55 0 -68 2 -47 8 37 10 114 9
120 -1z m220 1 c16 -6 14 -8 -12 -7 -18 0 -33 4 -33 9 0 10 18 9 45 -2z m-375
-10 c0 -5 -4 -10 -9 -10 -6 0 -13 5 -16 10 -3 6 1 10 9 10 9 0 16 -4 16 -10z
m-100 -20 c-20 -13 -40 -13 -40 0 0 6 12 10 28 10 21 0 24 -2 12 -10z m420 -2
c0 -11 -22 -10 -39 1 -10 7 -7 9 12 8 15 -1 27 -5 27 -9z m140 1 c0 -5 -29 -9
-65 -9 -37 0 -65 4 -65 10 0 6 27 10 65 9 36 -1 65 -5 65 -10z m60 -5 l35 -14
-40 5 c-22 2 -41 4 -42 5 -2 0 -3 5 -3 10 0 13 7 12 50 -6z m-725 -3 c-6 -4
-39 -16 -75 -26 -36 -9 -71 -22 -77 -27 -8 -6 -13 -7 -13 -1 0 5 10 14 23 20
63 30 164 55 142 34z m170 -1 c3 -5 -1 -10 -10 -10 -9 0 -13 5 -10 10 3 6 8
10 10 10 2 0 7 -4 10 -10z m140 5 c-23 -8 -85 -10 -85 -3 0 4 21 8 48 7 26 0
43 -2 37 -4z m105 -4 c0 -5 -20 -9 -45 -9 -25 0 -43 3 -41 7 7 11 86 13 86 2z
m50 -1 c0 -5 -9 -10 -20 -10 -11 0 -20 5 -20 10 0 6 9 10 20 10 11 0 20 -4 20
-10z m330 0 c0 -5 -7 -7 -15 -4 -8 4 -15 8 -15 10 0 2 7 4 15 4 8 0 15 -4 15
-10z m-668 -12 c-9 -9 -15 -9 -24 0 -9 9 -7 12 12 12 19 0 21 -3 12 -12z m85
6 c-3 -3 -12 -4 -19 -1 -8 3 -5 6 6 6 11 1 17 -2 13 -5z m623 -4 c0 -5 -4 -10
-9 -10 -6 0 -13 5 -16 10 -3 6 1 10 9 10 9 0 16 -4 16 -10z m49 -8 c28 -3 37
-9 28 -18 -10 -10 -60 11 -65 27 -2 8 0 10 5 4 4 -5 19 -11 32 -13z m-794 -2
c7 -11 -16 -17 -110 -25 -86 -8 -81 1 11 19 87 18 92 18 99 6z m433 -3 c6 3
12 0 12 -6 0 -12 -14 -14 -47 -5 -13 4 -20 10 -17 15 3 5 12 5 22 0 9 -4 23
-6 30 -4z m-333 -7 c3 -5 -3 -10 -15 -10 -12 0 -18 5 -15 10 3 6 10 10 15 10
5 0 12 -4 15 -10z m125 0 c-20 -13 -110 -13 -110 0 0 6 27 10 63 10 44 0 58
-3 47 -10z m100 0 c0 -5 -17 -10 -37 -9 -34 1 -35 2 -13 9 36 11 50 11 50 0z
m188 4 c34 -10 26 -24 -10 -20 -18 3 -36 5 -40 5 -5 1 -8 6 -8 11 0 11 24 13
58 4z m199 -8 c14 -14 -7 -15 -67 -4 -48 8 -65 8 -68 -1 -2 -6 -11 -11 -20
-11 -13 0 -13 3 4 15 14 12 35 15 82 11 35 -2 66 -7 69 -10z m404 -13 c23 -4
27 -8 18 -19 -13 -16 2 -19 18 -3 8 8 15 4 27 -12 13 -19 16 -20 16 -6 0 16 3
16 50 -2 58 -22 142 -105 134 -133 -4 -12 0 -15 16 -11 15 4 20 1 20 -16 0
-11 5 -21 10 -21 6 0 10 5 10 12 0 21 79 -65 99 -107 31 -64 35 -86 17 -79 -9
3 -16 1 -16 -5 0 -6 7 -11 15 -11 20 0 19 -9 -2 -33 -17 -19 -17 -19 2 -13 19
5 20 1 23 -57 1 -34 5 -89 8 -121 6 -52 4 -58 -10 -53 -19 7 -21 -4 -4 -21 9
-9 9 -15 0 -24 -17 -17 -15 -28 4 -21 14 5 15 -2 9 -63 -10 -107 -26 -179 -35
-163 -5 7 -12 10 -16 6 -4 -3 -1 -13 5 -21 10 -11 8 -17 -6 -25 -15 -9 -15
-12 -4 -20 11 -7 9 -19 -13 -66 -14 -32 -26 -63 -26 -70 0 -7 -6 -18 -14 -24
-13 -11 -13 -7 -4 26 5 21 14 42 19 48 14 14 11 25 -5 19 -10 -4 -13 0 -10 14
5 18 -10 148 -23 199 -5 22 -3 25 11 20 21 -8 21 9 -1 22 -16 9 -16 11 2 32
20 22 20 22 0 16 -19 -6 -20 -2 -21 117 0 99 2 123 13 119 7 -3 13 0 13 6 0 6
-7 11 -15 11 -18 0 -20 21 -2 39 10 11 9 13 -5 8 -14 -5 -19 2 -24 31 -4 20
-11 45 -16 55 -6 11 -5 17 3 17 7 0 5 8 -5 19 -10 11 -15 25 -11 31 4 7 3 15
-3 19 -6 3 -14 19 -18 35 -5 20 -3 27 4 22 6 -3 13 -2 16 3 3 5 -4 11 -15 14
-16 4 -20 11 -16 27 3 12 1 20 -6 18 -7 -1 -35 21 -63 49 -32 32 -69 56 -103
68 -35 13 -50 24 -46 33 3 9 -1 12 -15 7 -13 -4 -22 -1 -26 9 -3 9 -10 16 -16
16 -5 0 -6 -5 -2 -11 4 -7 0 -9 -12 -6 -18 6 -71 18 -136 32 -17 3 -28 12 -28
22 0 14 11 15 91 9 50 -4 104 -9 120 -13z m-441 -15 c10 -6 -1 -7 -30 -2 -25
3 -49 10 -55 16 -12 12 63 0 85 -14z m80 12 c0 -5 -4 -10 -9 -10 -6 0 -13 5
-16 10 -3 6 1 10 9 10 9 0 16 -4 16 -10z m40 -6 c0 -2 -7 -4 -15 -4 -8 0 -15
4 -15 10 0 5 7 7 15 4 8 -4 15 -8 15 -10z m75 8 c17 -12 18 -42 0 -36 -8 3
-12 11 -9 16 4 6 0 14 -7 19 -8 5 -9 9 -4 9 6 0 15 -4 20 -8z m-497 -17 c-9
-8 -228 -13 -228 -5 0 5 42 11 93 12 84 3 142 0 135 -7z m77 -3 c-3 -3 -11 0
-18 7 -9 10 -8 11 6 5 10 -3 15 -9 12 -12z m-553 -12 c-18 -11 -39 -20 -47
-20 -8 0 -14 -5 -12 -11 1 -6 -22 -19 -51 -29 -28 -9 -77 -34 -107 -53 -30
-20 -61 -34 -68 -31 -9 3 -17 -3 -20 -18 -5 -17 -9 -20 -18 -11 -8 8 0 26 32
69 23 32 44 53 47 46 2 -7 8 -12 14 -12 6 0 7 7 4 16 -4 11 1 18 14 21 11 3
20 11 20 17 0 19 40 17 40 -2 1 -15 3 -14 16 3 13 17 17 18 36 6 18 -11 20
-11 15 2 -6 16 13 21 88 25 l30 2 -33 -20z m153 -11 c-64 -29 -74 -32 -117
-30 -34 1 -33 19 1 43 19 13 44 17 100 16 l76 -1 -60 -28z m503 24 c-10 -2
-28 -2 -40 0 -13 2 -5 4 17 4 22 1 32 -1 23 -4z m172 -3 c0 -5 -4 -10 -10 -10
-5 0 -10 5 -10 10 0 6 5 10 10 10 6 0 10 -4 10 -10z m117 4 c-3 -3 -12 -4 -19
-1 -8 3 -5 6 6 6 11 1 17 -2 13 -5z m-737 -24 c0 -5 -5 -10 -11 -10 -5 0 -7 5
-4 10 3 6 8 10 11 10 2 0 4 -4 4 -10z m344 -5 c-4 -8 -1 -15 5 -15 6 0 11 5
11 10 0 16 26 11 44 -9 14 -16 15 -19 2 -24 -8 -3 -17 -1 -20 6 -3 9 -7 9 -13
0 -5 -7 -49 -11 -131 -11 -101 0 -122 3 -118 14 6 17 -6 18 -21 3 -12 -12 -33
-4 -33 13 0 6 7 5 17 -3 15 -12 16 -12 10 3 -5 16 4 18 96 21 56 1 114 4 129
5 21 1 26 -2 22 -13z m116 5 c0 -5 -4 -10 -9 -10 -6 0 -13 5 -16 10 -3 6 1 10
9 10 9 0 16 -4 16 -10z m85 1 c-6 -4 -24 -11 -42 -14 -26 -5 -31 -3 -26 8 3 9
19 15 41 15 21 0 32 -4 27 -9z m125 1 c0 -4 16 -7 35 -7 35 2 46 -8 23 -19 -7
-3 -3 -3 10 0 13 3 29 0 37 -6 9 -8 15 -8 15 -2 0 7 10 7 30 -1 17 -6 30 -17
30 -24 0 -19 -27 -16 -39 5 -7 11 -10 13 -11 3 0 -17 -37 -10 -108 21 -51 23
-66 38 -37 38 8 0 15 -4 15 -8z m-226 -31 c-2 -3 -12 3 -22 13 -16 17 -16 18
5 5 12 -7 20 -15 17 -18z m392 19 c15 -6 24 -13 22 -16 -3 -3 -21 2 -39 10
-39 16 -24 21 17 6z m101 -5 c20 -8 34 -18 30 -21 -3 -3 -22 4 -44 15 -45 24
-37 27 14 6z m-1147 -5 c0 -5 -5 -10 -11 -10 -5 0 -7 5 -4 10 3 6 8 10 11 10
2 0 4 -4 4 -10z m240 -3 c0 -8 -18 -13 -52 -15 -29 -1 -57 -7 -63 -13 -7 -7
-4 -8 10 -4 18 6 18 5 2 -5 -9 -6 -22 -8 -28 -4 -19 11 7 27 68 40 32 7 59 13
61 13 1 1 2 -5 2 -12z m555 3 c9 8 17 7 28 -5 9 -8 17 -11 19 -6 2 5 17 3 33
-4 28 -13 25 -14 -48 -13 -43 0 -80 4 -83 9 -2 4 -11 6 -19 2 -8 -3 -15 -3
-15 1 0 10 65 23 68 14 2 -5 10 -4 17 2z m320 -10 c8 -13 -5 -13 -25 0 -13 8
-13 10 2 10 9 0 20 -4 23 -10z m-1439 -87 c-31 -43 -60 -83 -66 -90 -5 -7 -10
-17 -10 -22 0 -12 -29 -41 -41 -41 -5 0 -1 10 11 22 11 12 20 26 20 31 0 6 18
35 41 64 37 50 39 56 24 67 -16 11 -15 14 9 29 34 23 43 21 21 -3 -10 -11 -16
-23 -13 -26 3 -3 16 8 29 24 46 57 30 22 -25 -55z m359 67 c3 -5 1 -10 -4 -10
-6 0 -11 5 -11 10 0 6 2 10 4 10 3 0 8 -4 11 -10z m279 -19 c2 -3 -6 -11 -18
-17 -18 -8 -28 -7 -46 8 -18 14 -19 18 -6 18 10 0 15 4 11 10 -3 5 7 5 25 -1
16 -6 32 -14 34 -18z m371 8 c-4 -5 -13 -9 -22 -9 -13 0 -13 3 -3 15 13 15 35
11 25 -6z m530 11 c3 -5 -1 -10 -9 -10 -9 0 -16 5 -16 10 0 6 4 10 9 10 6 0
13 -4 16 -10z m-1245 -5 c0 -2 -9 -9 -19 -15 -14 -7 -22 -7 -27 2 -4 6 -3 8 4
4 6 -3 13 -2 17 4 6 10 25 14 25 5z m40 1 c0 -11 -19 -15 -25 -6 -3 5 1 10 9
10 9 0 16 -2 16 -4z m630 -12 c0 -8 -4 -12 -10 -9 -5 3 -10 10 -10 16 0 5 5 9
10 9 6 0 10 -7 10 -16z m510 -39 c55 -42 79 -46 30 -5 -40 33 -27 41 14 9 15
-12 25 -27 22 -35 -3 -8 0 -11 8 -8 7 3 18 -1 24 -9 9 -11 8 -13 -8 -12 -31 2
-139 59 -135 71 2 7 -6 9 -22 6 -23 -4 -24 -3 -12 15 8 13 16 17 23 12 6 -5
31 -25 56 -44z m76 14 c4 -6 3 -10 -2 -7 -44 20 -64 33 -64 40 0 11 56 -18 66
-33z m79 6 c60 -33 125 -89 125 -107 0 -5 -4 -7 -9 -4 -5 4 -11 1 -13 -5 -6
-17 -103 55 -102 74 1 10 -4 13 -15 9 -14 -5 -14 -4 -1 13 14 17 13 18 -2 12
-11 -4 -22 1 -32 14 -10 15 -15 17 -19 7 -4 -9 -6 -7 -6 5 -1 23 3 22 74 -18z
m-335 9 c0 -2 -30 -3 -67 -2 -67 1 -67 1 -18 7 47 6 85 3 85 -5z m-580 -4 c0
-5 -9 -10 -21 -10 -11 0 -17 5 -14 10 3 6 13 10 21 10 8 0 14 -4 14 -10z m73
-6 c-4 -10 -13 -14 -27 -10 -11 3 -25 6 -31 7 -5 1 6 5 25 9 19 4 36 8 37 9 1
0 0 -6 -4 -15z m37 6 c0 -5 -5 -10 -11 -10 -5 0 -7 5 -4 10 3 6 8 10 11 10 2
0 4 -4 4 -10z m107 -3 c7 3 16 -3 19 -12 5 -13 8 -14 15 -3 7 10 9 9 9 -4 0
-23 -48 -25 -57 -2 -3 8 -11 13 -18 10 -8 -3 -16 2 -19 9 -4 11 0 12 17 6 12
-4 28 -6 34 -4z m216 6 c-7 -2 -19 -2 -25 0 -7 3 -2 5 12 5 14 0 19 -2 13 -5z
m-948 -11 c-13 -11 -95 -43 -95 -37 0 7 74 44 90 45 8 0 10 -3 5 -8z m190 -21
c-16 -15 -36 -26 -43 -23 -8 3 -10 -1 -6 -11 4 -12 -2 -18 -21 -23 -27 -7 -46
-20 -126 -93 -27 -24 -49 -41 -49 -37 0 19 96 145 108 141 6 -2 12 3 12 11 0
10 8 14 23 12 17 -2 21 1 19 15 -3 15 1 17 17 12 15 -5 21 -2 21 9 0 12 10 16
38 16 l37 0 -30 -29z m145 20 c0 -9 -121 -43 -128 -36 -2 2 9 10 26 19 16 8
32 12 36 9 3 -4 6 -1 6 5 0 7 14 12 30 12 17 0 30 -4 30 -9z m35 -1 c3 -5 -1
-10 -9 -10 -9 0 -16 5 -16 10 0 6 4 10 9 10 6 0 13 -4 16 -10z m455 6 c0 -11
-19 -15 -25 -6 -3 5 1 10 9 10 9 0 16 -2 16 -4z m50 -6 c0 -5 -9 -10 -21 -10
-11 0 -17 5 -14 10 3 6 13 10 21 10 8 0 14 -4 14 -10z m30 0 c0 -5 -4 -10 -10
-10 -5 0 -10 5 -10 10 0 6 5 10 10 10 6 0 10 -4 10 -10z m-1130 -5 c0 -12 -83
-110 -91 -107 -5 1 -9 -7 -9 -18 0 -11 -4 -20 -10 -20 -13 0 -13 1 11 65 17
46 24 55 40 50 14 -5 19 -1 19 14 0 14 6 21 20 21 11 0 20 -2 20 -5z m290 -10
c-7 -8 -17 -12 -22 -9 -6 4 -5 10 3 15 22 14 33 10 19 -6z m945 5 c-3 -5 -13
-10 -21 -10 -8 0 -14 5 -14 10 0 6 9 10 21 10 11 0 17 -4 14 -10z m168 -24
c20 -10 37 -22 37 -27 0 -12 -4 -11 -35 3 -14 6 -25 15 -25 19 0 5 -7 6 -15 3
-8 -4 -22 -1 -29 5 -11 9 -15 9 -18 0 -3 -8 -16 -10 -42 -5 -28 5 -35 10 -27
20 14 16 104 6 154 -18z m-1148 4 c3 -5 1 -10 -4 -10 -6 0 -11 5 -11 10 0 6 2
10 4 10 3 0 8 -4 11 -10z m442 3 c-4 -3 -29 -14 -56 -24 -27 -9 -71 -32 -97
-50 -30 -21 -49 -28 -52 -21 -2 7 -8 10 -12 7 -5 -3 -7 -12 -3 -20 5 -14 -6
-19 -34 -16 -7 1 -13 -3 -13 -9 0 -5 5 -10 11 -10 7 0 -8 -21 -33 -47 -24 -27
-57 -72 -74 -101 -16 -30 -34 -50 -41 -47 -8 3 -12 -4 -10 -18 1 -16 -4 -23
-21 -25 -18 -3 -21 -8 -17 -23 5 -15 1 -22 -15 -26 -15 -4 -18 -8 -9 -13 9 -6
6 -18 -11 -46 -31 -51 -70 -98 -70 -85 0 6 -5 11 -10 11 -6 0 -10 -7 -8 -16 2
-10 -2 -19 -8 -21 -6 -2 -11 15 -13 42 -1 37 1 44 14 39 20 -8 19 6 -2 22 -17
12 -17 14 2 29 20 16 20 16 -2 10 -19 -5 -22 -3 -16 12 14 37 47 86 51 75 7
-21 22 -13 19 11 -1 16 3 21 16 19 19 -3 24 14 5 20 -7 3 15 42 56 101 59 83
71 95 84 84 13 -10 15 -9 9 11 -4 17 -2 22 8 18 7 -2 16 2 19 10 4 10 13 13
26 9 15 -5 18 -3 14 9 -3 9 3 19 18 27 13 7 23 11 23 10 0 -1 18 6 40 15 50
21 229 44 212 27z m218 -2 c19 -8 19 -8 -3 -20 -16 -9 -22 -9 -22 0 0 6 -6 9
-13 6 -7 -3 -26 1 -42 8 l-30 13 45 0 c25 1 54 -3 65 -7z m228 -7 c20 -3 37
-10 37 -16 0 -5 5 -6 11 -2 11 6 29 -12 29 -29 0 -14 -62 4 -107 30 -45 26
-55 38 -25 29 9 -3 34 -8 55 -12z m474 -9 c0 -20 -4 -19 -17 5 -8 15 -8 18 3
14 8 -3 14 -11 14 -19z m-905 -7 c-7 -7 -12 -8 -12 -2 0 6 3 14 7 17 3 4 9 5
12 2 2 -3 -1 -11 -7 -17z m381 -12 c9 5 9 3 0 -6 -10 -11 -18 -11 -39 -1 -19
8 -30 9 -39 1 -9 -8 -15 -8 -20 0 -3 5 -17 7 -31 4 -16 -4 -24 -2 -24 6 0 9
11 11 40 6 33 -5 38 -4 33 9 -4 13 2 12 31 -5 21 -11 43 -17 49 -14z m-1208
-12 c-12 -24 -19 -57 -29 -136 -4 -30 -65 -98 -82 -91 -13 5 -15 2 -9 -16 4
-14 2 -23 -9 -27 -9 -3 -16 -11 -16 -17 0 -18 -31 -46 -46 -40 -10 3 -13 -1
-12 -13 3 -20 -2 -24 -31 -24 -18 0 -18 4 -9 38 5 20 26 67 45 105 28 53 40
66 54 62 14 -5 16 -2 12 15 -4 14 -1 20 12 20 12 0 15 5 11 16 -4 11 14 37 56
80 34 35 63 62 65 61 2 -2 -3 -17 -12 -33z m345 31 c0 -2 -10 -10 -22 -16 -21
-11 -22 -11 -9 4 13 16 31 23 31 12z m559 -12 c6 -10 11 -12 11 -5 0 17 17 15
24 -3 4 -10 -2 -19 -17 -24 -122 -48 -126 -49 -120 -35 3 8 1 14 -5 14 -5 0
-12 -10 -15 -21 -4 -16 -11 -20 -27 -16 -15 4 -20 1 -18 -11 2 -12 -3 -16 -18
-15 -15 2 -24 -4 -27 -19 -4 -14 -11 -19 -21 -15 -10 4 -16 1 -16 -8 0 -17
-100 -106 -112 -99 -4 3 -8 -1 -8 -8 0 -7 -16 -26 -35 -41 -19 -15 -35 -23
-35 -18 0 6 -8 7 -17 4 -9 -4 12 23 48 60 35 36 66 62 67 56 6 -16 19 -10 25
11 3 13 10 18 21 14 9 -3 16 -2 16 4 0 6 -5 12 -11 14 -6 2 27 29 73 59 103
70 128 83 128 69 0 -5 5 -10 10 -10 6 0 10 7 10 16 0 12 6 15 26 10 22 -6 25
-4 19 14 -8 25 10 27 24 3z m685 1 c3 -8 2 -12 -4 -9 -6 3 -10 10 -10 16 0 14
7 11 14 -7z m-1294 -4 c0 -5 -11 -17 -25 -27 -14 -10 -46 -33 -70 -51 -25 -18
-45 -28 -45 -22 0 5 -4 10 -10 10 -6 0 -9 -3 -9 -7 4 -23 -3 -33 -23 -33 -15
0 -19 -3 -11 -8 9 -6 3 -18 -23 -43 -20 -19 -42 -47 -51 -62 -23 -46 -25 -25
-2 31 13 32 28 52 42 56 16 4 18 8 9 19 -14 16 -6 27 19 27 9 0 19 10 22 21 4
15 11 20 21 16 10 -4 16 -1 16 9 0 8 5 12 10 9 6 -3 10 -2 10 4 0 5 10 13 22
17 12 3 28 13 36 20 17 17 35 18 27 2 -3 -7 0 -5 7 5 14 19 28 23 28 7z m510
2 c0 -4 -21 -18 -47 -32 -27 -14 -76 -46 -110 -72 -40 -31 -63 -43 -66 -35 -3
7 -6 5 -6 -4 -1 -17 -31 -36 -31 -20 0 10 31 39 45 41 17 4 50 30 46 37 -3 7
146 93 162 93 4 0 7 -3 7 -8z m165 -2 c3 -5 -1 -10 -9 -10 -9 0 -16 5 -16 10
0 6 4 10 9 10 6 0 13 -4 16 -10z m461 -20 c44 -31 63 -61 25 -41 -10 6 -22 7
-26 3 -5 -4 -5 1 -2 11 6 15 3 17 -14 12 -14 -5 -25 -1 -36 12 -13 16 -14 16
-9 1 3 -10 1 -18 -4 -18 -6 0 -10 11 -10 25 0 34 21 32 76 -5z m-1104 -27
c-17 -21 -39 -54 -49 -74 -10 -19 -24 -34 -31 -31 -7 2 -10 -2 -6 -11 3 -8 -2
-17 -10 -20 -22 -9 -21 -4 16 70 22 44 43 72 67 88 20 12 38 21 40 19 1 -1
-11 -20 -27 -41z m197 44 c-2 -1 -13 -9 -24 -17 -19 -14 -19 -14 -6 3 7 9 18
17 24 17 6 0 8 -1 6 -3z m1184 -45 c26 -18 34 -28 25 -33 -7 -5 -26 5 -50 27
-55 49 -60 42 -8 -11 61 -62 47 -65 -18 -4 -56 54 -61 62 -35 52 11 -5 14 -3
8 6 -9 15 17 3 78 -37z m87 -13 c0 -17 -18 -9 -34 16 -25 38 -18 53 9 22 14
-15 25 -32 25 -38z m-314 40 c5 -8 8 -8 13 0 9 13 81 -5 81 -21 0 -5 7 -8 15
-4 15 5 85 -58 85 -76 0 -6 10 -23 21 -40 l22 -30 -24 4 c-16 2 -23 9 -21 21
2 9 -2 17 -8 17 -5 0 -10 -5 -10 -11 0 -6 -15 0 -33 14 -18 13 -48 33 -68 44
-38 20 -109 93 -91 93 6 0 14 -5 18 -11z m-1345 -12 c-1 -12 -15 -9 -19 4 -3
6 1 10 8 8 6 -3 11 -8 11 -12z m919 -13 c0 -12 3 -14 13 -6 8 7 23 7 50 -1 30
-10 36 -15 31 -32 -5 -16 -4 -18 7 -7 21 20 39 14 39 -13 0 -23 -3 -25 -52
-25 -52 0 -152 -13 -189 -25 -14 -5 -17 -2 -13 9 8 21 -6 20 -21 -1 -11 -15
-15 -16 -31 -3 -16 13 -17 13 -12 -1 5 -13 -3 -19 -40 -29 -26 -7 -76 -21
-112 -32 -36 -12 -72 -22 -81 -22 -8 -1 -31 -12 -50 -25 l-34 -24 35 35 c45
44 90 74 90 59 0 -19 17 -12 23 8 4 15 10 18 28 14 21 -6 22 -4 11 9 -15 19
-2 31 23 22 10 -4 15 -2 13 7 -2 9 5 14 20 13 12 0 22 5 22 11 0 17 76 49 116
49 19 0 34 3 34 7 0 7 20 12 68 18 6 0 12 -6 12 -15z m110 6 c0 -12 -8 -12
-35 0 -18 8 -17 9 8 9 15 1 27 -3 27 -9z m65 -24 c18 -15 17 -15 -15 -2 -19 8
-36 19 -38 26 -5 13 18 3 53 -24z m45 4 c19 -16 32 -32 29 -35 -3 -3 -16 4
-28 14 -12 11 -32 26 -44 35 -15 10 -18 15 -7 15 8 1 31 -12 50 -29z m60 10
c0 -5 -4 -10 -10 -10 -5 0 -10 5 -10 10 0 6 5 10 10 10 6 0 10 -4 10 -10z m40
-10 c0 -5 -4 -10 -10 -10 -5 0 -10 5 -10 10 0 6 5 10 10 10 6 0 10 -4 10 -10z
m511 -42 c15 -12 39 -50 39 -62 0 -3 -7 -3 -15 0 -8 4 -15 1 -15 -5 0 -6 7
-11 16 -11 12 0 15 -6 10 -25 -5 -18 -3 -23 8 -19 9 4 16 -6 20 -33 4 -21 9
-46 12 -55 3 -10 1 -18 -5 -18 -5 0 -13 10 -17 23 -9 31 -82 153 -100 168 -11
9 -12 14 -3 20 9 5 8 11 -4 24 -10 9 -17 23 -17 31 0 15 12 9 71 -38z m22 21
c10 -11 17 -25 15 -30 -2 -6 -14 4 -26 20 -25 35 -16 42 11 10z m-1689 -46
c-19 -41 -28 -51 -42 -46 -14 5 -15 3 -4 -8 17 -18 15 -39 -3 -39 -17 0 -20
-17 -4 -22 8 -3 8 -15 0 -44 -6 -22 -13 -60 -16 -84 -3 -24 -11 -50 -17 -57
-6 -7 -7 -13 -4 -13 4 0 2 -10 -5 -21 -9 -17 -13 -19 -20 -8 -4 7 -11 10 -15
6 -4 -4 -2 -13 4 -19 17 -17 15 -25 -10 -33 -19 -6 -20 -8 -6 -12 15 -4 12
-13 -19 -72 -19 -38 -37 -89 -40 -115 -8 -63 -20 -58 -28 12 -3 31 -10 67 -16
80 -5 13 -9 36 -9 52 0 24 3 28 18 23 16 -6 16 -5 -1 14 -12 14 -15 23 -8 28
6 3 11 11 11 16 0 6 -4 7 -10 4 -6 -4 -10 7 -10 25 0 27 3 30 20 25 11 -4 20
-2 20 4 0 6 -4 11 -10 11 -15 0 -12 19 5 36 19 20 19 32 -1 36 -13 2 -6 19 34
78 57 86 92 122 99 103 8 -22 25 -14 18 7 -5 17 -2 20 22 20 21 0 24 3 13 10
-8 5 -12 11 -10 13 40 31 64 47 66 44 2 -1 -8 -26 -22 -54z m1192 40 c13 -17
13 -17 14 0 0 21 -1 21 42 3 40 -17 69 -66 40 -67 -13 0 -11 -3 6 -9 12 -5 22
-16 22 -24 0 -9 8 -20 19 -25 10 -6 21 -21 24 -33 l6 -23 -17 21 c-9 12 -25
24 -35 27 -9 4 -16 12 -15 19 2 7 -2 12 -7 13 -18 0 -135 97 -129 106 8 13 15
11 30 -8z m-1020 -25 c-15 -18 -47 -64 -73 -101 -41 -59 -48 -66 -61 -53 -16
16 -9 36 14 36 8 0 14 10 14 25 0 19 5 25 21 25 12 0 18 4 13 11 -4 6 12 28
37 50 54 47 71 50 35 7z m893 2 c21 -11 29 -30 12 -30 -5 0 -17 7 -26 16 -11
12 -19 13 -29 5 -14 -12 -26 -5 -26 16 0 15 35 12 69 -7z m61 10 c8 -5 11 -12
7 -16 -4 -4 -15 0 -24 9 -18 18 -8 23 17 7z m414 -5 c-4 -8 1 -17 10 -21 9 -3
16 -12 16 -20 0 -20 -9 -17 -31 9 -22 27 -24 47 -4 47 9 0 12 -6 9 -15z
m-1742 -47 c-1 -5 2 -8 7 -8 5 0 3 -13 -5 -30 -9 -16 -20 -30 -26 -30 -7 0 -7
4 1 13 6 8 8 17 4 20 -3 4 -1 7 5 7 15 0 9 39 -8 50 -7 4 -9 13 -5 21 6 9 11
6 18 -12 6 -13 9 -27 9 -31z m1601 -14 c16 -13 24 -24 18 -24 -6 0 -11 -5 -11
-10 0 -6 8 -10 18 -8 9 2 18 -4 18 -12 3 -32 5 -34 14 -20 8 13 11 13 26 -2
14 -14 15 -20 5 -32 -10 -11 -9 -15 2 -18 10 -2 11 -11 5 -37 l-9 -34 -36 34
c-30 30 -103 131 -103 144 0 3 8 5 18 6 13 0 12 2 -5 9 -13 5 -23 16 -23 25 0
8 -5 14 -11 13 -6 -2 -14 3 -16 10 -7 17 49 -10 90 -44z m-222 36 c10 -6 19
-15 19 -21 0 -5 -10 -3 -23 6 -13 8 -27 12 -32 8 -4 -5 -5 -2 -1 5 9 15 12 15
37 2z m-195 -25 c-3 -8 -1 -15 4 -15 6 0 10 5 10 10 0 16 22 12 36 -7 13 -17
13 -17 14 0 0 11 8 17 23 17 20 0 63 -19 44 -20 -5 0 -5 -5 -1 -11 4 -8 9 -7
15 2 4 7 10 11 12 9 5 -7 46 -154 44 -157 -2 -1 -13 0 -26 4 -16 4 -19 8 -10
14 8 4 11 11 7 14 -3 4 -16 0 -27 -7 -18 -11 -23 -11 -31 2 -7 10 -12 12 -17
4 -5 -7 -57 -13 -130 -16 -108 -5 -123 -3 -123 11 -1 14 -2 14 -14 -1 -14 -20
-36 -24 -36 -8 0 6 -5 10 -11 10 -6 0 -9 -6 -6 -14 4 -10 -15 -15 -86 -20 -51
-4 -109 -11 -130 -16 -31 -7 -37 -6 -33 6 3 8 1 14 -3 14 -5 0 -12 -7 -15 -16
-5 -12 -13 -14 -32 -10 -21 6 -25 4 -21 -8 7 -18 -27 -23 -38 -6 -3 6 -10 10
-14 10 -10 0 -24 -38 -22 -57 1 -6 -6 -14 -16 -17 -10 -4 -34 -28 -53 -55 -26
-37 -38 -47 -47 -39 -10 8 -13 4 -13 -16 0 -18 -5 -26 -17 -26 -13 0 -14 -3
-6 -8 10 -6 4 -24 -21 -73 -18 -35 -39 -85 -47 -112 -9 -32 -18 -46 -27 -42
-8 3 -17 5 -21 5 -5 0 -5 21 0 48 10 62 50 182 60 182 5 0 9 -5 9 -11 0 -5 5
-7 10 -4 8 5 7 11 -1 21 -10 12 -9 16 8 20 15 4 18 12 15 35 -4 25 -1 29 18
29 17 0 20 3 12 13 -8 10 2 30 40 81 37 49 53 64 59 54 7 -10 9 -8 9 6 0 10 8
24 17 31 14 11 20 10 30 -4 11 -14 12 -14 13 7 0 24 19 29 39 10 11 -11 12 -9
7 8 -6 20 0 23 66 42 40 11 95 27 121 35 41 13 48 13 43 1 -8 -20 11 -17 23 4
8 14 12 15 22 5 17 -17 30 -16 23 1 -6 16 25 23 164 36 43 4 79 8 81 9 2 0 1
-6 -3 -14z m527 0 c-3 -9 -8 -14 -10 -11 -3 3 -2 9 2 15 9 16 15 13 8 -4z
m146 -95 c5 -22 7 -40 4 -40 -5 0 -35 69 -37 87 -1 7 -5 16 -9 19 -4 4 -7 14
-7 23 0 26 39 -46 49 -89z m-64 52 c-8 -9 -25 20 -18 31 3 5 10 2 15 -7 6 -10
7 -20 3 -24z m-373 6 c-6 -23 -15 -23 -36 1 -16 17 -15 18 12 17 22 -1 28 -5
24 -18z m350 -47 c-3 -7 0 -16 5 -20 12 -7 26 -71 15 -71 -4 1 -20 19 -35 41
-27 39 -27 42 -10 56 17 14 17 14 -4 10 -15 -3 -23 1 -27 16 -3 11 -3 24 0 29
8 12 61 -45 56 -61z m-1242 56 c0 -2 -16 -19 -37 -38 -37 -35 -37 -23 0 19 18
19 37 29 37 19z m-312 -29 c-2 -6 -10 -14 -16 -16 -7 -2 -10 2 -6 12 7 18 28
22 22 4z m1296 -127 c-3 -8 1 -11 10 -8 8 3 17 -1 20 -9 7 -17 8 -17 -44 1
-23 8 -53 15 -66 15 -16 0 -24 6 -24 18 -1 9 -9 40 -18 68 l-18 51 72 -61 c41
-34 70 -67 68 -75z m-57 119 c3 -11 14 -20 24 -20 11 0 19 -7 19 -15 0 -9 6
-12 15 -9 8 4 15 2 15 -4 0 -5 -8 -13 -17 -16 -18 -7 -96 61 -87 76 9 15 26 8
31 -12z m251 1 c3 -8 -1 -12 -9 -9 -7 2 -15 10 -17 17 -3 8 1 12 9 9 7 -2 15
-10 17 -17z m-1768 -16 c-13 -14 -19 -25 -14 -25 5 0 4 -4 -2 -8 -20 -14 -47
-86 -59 -161 -9 -54 -14 -71 -20 -57 -9 20 19 166 34 175 4 3 16 22 26 41 10
19 25 40 34 47 26 20 26 15 1 -12z m1881 -12 c13 -16 12 -17 -3 -4 -17 13 -22
21 -14 21 2 0 10 -8 17 -17z m-1847 -30 c-4 -16 -11 -37 -15 -48 -7 -18 -8
-18 -8 5 -1 35 10 70 20 70 5 0 6 -12 3 -27z m213 -3 c-9 -25 -27 -42 -27 -26
0 15 21 56 29 56 5 0 4 -13 -2 -30z m47 4 c7 -19 -1 -34 -18 -34 -9 0 -12 9
-8 25 5 28 17 33 26 9z m1666 -21 c0 -7 -4 -13 -10 -13 -5 0 -10 12 -10 28 0
21 2 24 10 12 5 -8 10 -21 10 -27z m-57 -19 c-3 -8 0 -14 6 -14 6 0 11 -7 11
-15 0 -8 -4 -15 -10 -15 -5 0 -10 -4 -10 -10 0 -5 6 -7 13 -4 9 3 12 -6 9 -36
-2 -22 -9 -40 -14 -40 -6 0 -7 11 -4 25 4 14 2 25 -3 25 -4 0 -11 19 -15 43
-4 23 -10 53 -13 67 -6 25 -6 25 15 7 11 -11 18 -25 15 -33z m-1907 20 c-3 -9
-6 -25 -6 -37 0 -15 -3 -18 -11 -10 -12 12 -2 63 13 63 6 0 7 -7 4 -16z m1604
-10 c0 -14 -3 -14 -15 -4 -8 7 -15 14 -15 16 0 2 7 4 15 4 8 0 15 -7 15 -16z
m222 -17 c18 -24 27 -47 28 -78 3 -61 2 -63 -14 -49 -8 6 -12 19 -9 27 5 11 3
14 -6 9 -7 -5 -22 0 -35 13 -20 19 -21 25 -12 66 6 25 13 45 16 45 3 0 17 -15
32 -33z m-148 -24 c14 -27 25 -42 26 -35 0 7 5 10 10 7 14 -9 12 8 -2 25 -7 8
-3 6 10 -5 12 -10 19 -21 15 -24 -11 -8 -15 -31 -5 -31 4 0 13 5 20 12 7 7 12
8 12 2 0 -5 -9 -15 -19 -21 -17 -11 -21 -9 -26 7 -4 11 -10 18 -15 15 -8 -5
-36 29 -59 73 -7 14 -8 22 -2 22 6 0 22 -21 35 -47z m-1119 18 c-3 -6 -11 -11
-17 -11 -6 0 -6 6 2 15 14 17 26 13 15 -4z m-282 -16 c-7 -21 -13 -19 -13 6 0
11 4 18 10 14 5 -3 7 -12 3 -20z m1357 15 c0 -5 -2 -10 -4 -10 -3 0 -8 5 -11
10 -3 6 -1 10 4 10 6 0 11 -4 11 -10z m350 1 c0 -5 -7 -11 -15 -15 -15 -5 -20
5 -8 17 9 10 23 9 23 -2z m-2074 -28 c-10 -10 -19 5 -10 18 6 11 8 11 12 0 2
-7 1 -15 -2 -18z m594 17 c0 -5 -7 -10 -16 -10 -8 0 -12 5 -9 10 3 6 10 10 16
10 5 0 9 -4 9 -10z m843 -6 c-5 -14 -3 -14 16 -2 18 11 23 11 32 -2 8 -11 12
-12 16 -2 7 19 41 14 53 -7 13 -25 13 -54 0 -46 -5 3 -10 2 -10 -4 0 -5 6 -11
13 -14 9 -3 9 -9 -1 -27 -12 -20 -11 -21 6 -16 21 7 24 -5 38 -162 6 -64 5
-72 -9 -66 -9 3 -25 20 -36 38 -11 18 -34 44 -51 59 -16 15 -30 32 -30 37 0 6
-7 10 -16 10 -9 0 -33 10 -53 22 -27 17 -33 18 -22 5 14 -18 5 -22 -23 -11 -9
3 -16 12 -16 18 0 17 -62 61 -82 58 -9 -2 -43 11 -75 28 -54 30 -56 30 -28 6
17 -14 38 -29 48 -32 9 -3 17 -10 17 -15 0 -12 -27 -12 -35 1 -3 6 -17 10 -30
10 -13 0 -30 6 -37 13 -7 7 -21 16 -30 20 -27 10 -21 27 10 28 22 1 20 3 -15
12 -23 7 -45 15 -49 20 -4 4 -19 8 -33 9 -14 1 6 4 44 7 53 5 71 3 73 -7 3
-10 9 -9 23 4 17 16 22 16 30 4 6 -10 11 -12 17 -4 12 19 34 22 144 23 94 1
107 -1 101 -15z m677 -16 c0 -16 -3 -19 -11 -11 -6 6 -8 16 -5 22 11 17 16 13
16 -11z m-2050 -23 c-10 -12 -10 -15 4 -15 15 0 14 -3 -1 -42 -32 -85 -44 -62
-22 42 8 37 14 49 22 41 7 -7 6 -15 -3 -26z m260 -35 c-18 -34 -23 -16 -8 32
12 38 13 40 16 16 2 -15 -2 -37 -8 -48z m294 55 c-4 -8 -8 -15 -10 -15 -2 0
-4 7 -4 15 0 8 4 15 10 15 5 0 7 -7 4 -15z m1072 -28 c3 -3 3 -26 0 -51 -5
-34 -11 -44 -22 -39 -7 3 -14 0 -14 -6 0 -6 5 -11 10 -11 16 0 12 -22 -7 -36
-17 -13 -17 -13 1 -14 14 0 17 -5 12 -24 -3 -13 -10 -54 -15 -91 -10 -69 -16
-84 -28 -71 -4 4 -2 16 5 26 7 12 8 20 2 20 -5 0 -10 21 -11 48 0 26 -6 80
-13 120 -12 64 -11 72 2 72 13 0 12 3 -3 14 -16 11 -17 17 -7 29 9 10 10 17 2
22 -5 3 -10 0 -11 -7 0 -12 -17 17 -18 33 -1 8 105 -24 115 -34z m394 11 c0
-5 -5 -8 -11 -8 -5 0 -7 5 -4 10 3 6 1 10 -5 10 -6 0 -8 5 -4 11 6 11 23 -6
24 -23z m-1520 12 c0 -5 -5 -10 -11 -10 -5 0 -7 5 -4 10 3 6 8 10 11 10 2 0 4
-4 4 -10z m480 -40 c10 -14 16 -29 13 -34 -3 -5 -1 -6 4 -3 6 4 16 0 23 -8 7
-8 19 -15 26 -15 8 0 14 -4 14 -9 0 -5 11 -8 24 -8 14 0 32 -8 42 -17 15 -16
18 -16 40 5 27 25 33 16 8 -12 -12 -13 -12 -19 -3 -25 8 -5 10 -3 5 5 -5 8 0
14 13 18 11 3 18 9 15 14 -3 5 0 9 5 9 6 0 11 -9 11 -20 0 -12 -5 -17 -14 -14
-8 3 -16 -3 -19 -16 -3 -12 -10 -19 -16 -15 -7 3 -8 0 -5 -9 3 -9 1 -16 -6
-16 -6 0 -8 -4 -5 -10 3 -5 1 -10 -5 -10 -7 0 -10 -6 -7 -13 3 -8 -1 -14 -9
-14 -7 0 -11 4 -8 8 9 16 -16 60 -33 57 -11 -2 -17 2 -15 10 1 8 -2 11 -9 6
-7 -4 -19 3 -30 17 l-18 24 -21 -23 c-11 -12 -24 -22 -27 -22 -4 0 -3 3 0 7
11 10 -30 34 -48 27 -9 -4 -19 -19 -22 -35 l-5 -28 -24 28 c-15 18 -41 33 -69
40 -41 10 -48 9 -67 -8 -11 -11 -25 -18 -30 -15 -5 3 -8 2 -7 -3 3 -18 -1 -34
-8 -30 -5 3 -9 -6 -9 -19 -1 -15 2 -21 10 -17 6 4 4 -2 -4 -12 -8 -10 -10 -16
-4 -12 14 8 14 -70 0 -92 -7 -10 -5 -12 5 -6 8 5 4 -3 -8 -17 -26 -27 -29 -43
-10 -55 18 -12 39 -53 27 -53 -5 0 -9 -3 -8 -8 2 -4 -10 -21 -26 -37 -18 -20
-26 -24 -22 -12 3 11 2 16 -5 12 -5 -4 -7 -15 -4 -26 4 -12 2 -19 -7 -19 -10
0 -9 -3 2 -10 8 -5 10 -10 4 -10 -30 0 -47 50 -47 140 1 92 11 156 32 196 13
23 18 47 14 64 -4 20 1 34 16 49 12 12 17 21 12 21 -5 0 -12 8 -15 17 -4 10
-4 14 0 10 12 -11 33 13 27 30 -4 11 -2 14 5 9 7 -4 12 -1 12 8 0 9 7 16 16
16 11 0 14 -5 10 -17 -4 -10 4 -6 18 10 13 16 27 28 30 28 39 -5 126 1 122 8
-13 20 78 -17 94 -39z m701 34 c12 -14 11 -16 -5 -13 -11 2 -21 10 -24 17 -5
17 13 15 29 -4z m-1761 -30 c-6 -14 -10 -52 -10 -84 0 -49 -3 -58 -15 -54 -8
4 -15 2 -15 -4 0 -6 6 -12 13 -15 9 -3 9 -9 -1 -26 -10 -18 -10 -21 3 -21 19
0 31 -46 16 -64 -7 -8 -8 -16 -2 -18 5 -1 11 -55 13 -119 3 -93 1 -116 -9
-112 -7 3 -13 0 -13 -6 0 -6 5 -11 10 -11 6 0 10 -7 10 -15 0 -8 -4 -15 -10
-15 -5 0 -10 -5 -10 -11 0 -6 7 -9 15 -5 18 7 20 -5 3 -22 -7 -7 -8 -12 -3
-12 6 0 10 -25 11 -55 0 -30 -2 -52 -5 -50 -4 4 -50 144 -51 153 0 2 5 0 10
-3 17 -10 11 7 -7 22 -13 10 -15 16 -5 19 17 8 15 27 -3 20 -15 -6 -26 23 -45
124 -14 76 -13 101 5 94 8 -4 15 -1 15 5 0 6 -4 11 -10 11 -14 0 -12 27 3 33
9 4 9 8 -2 15 -12 9 -13 19 -2 67 20 90 50 155 69 148 10 -4 13 -2 8 6 -10 15
1 44 14 36 6 -4 6 -15 0 -31z m590 -14 c-12 -17 -25 -28 -30 -25 -4 3 -10 -4
-13 -15 -3 -11 -10 -20 -16 -20 -17 0 0 33 38 73 40 42 54 34 21 -13z m1480
29 c0 -5 -4 -9 -8 -9 -5 0 -9 7 -9 15 0 8 4 12 9 9 4 -3 8 -9 8 -15z m-2136
-5 c14 -5 13 -11 -4 -45 -11 -21 -20 -45 -20 -53 0 -8 -5 -18 -12 -22 -16 -10
-3 67 14 78 10 6 10 10 -1 17 -7 5 -10 14 -7 20 8 13 9 13 30 5z m1814 -22
c-11 -13 -10 -14 15 -8 20 5 27 3 27 -9 0 -8 7 -15 16 -15 14 0 15 -2 3 -17
-12 -15 -12 -16 3 -10 15 5 16 3 6 -18 -9 -19 -14 -22 -25 -14 -16 14 -18 -2
-2 -18 14 -14 3 -33 -17 -33 -8 0 -12 -5 -9 -10 4 -6 11 -8 16 -5 12 8 12 8
-16 -79 -14 -42 -25 -82 -25 -89 0 -13 -82 -118 -88 -112 -5 5 19 49 32 58 8
5 8 9 -1 15 -9 6 -8 33 7 117 11 59 20 113 20 118 0 5 7 4 15 -3 18 -15 20 1
3 18 -9 9 -9 15 0 24 15 15 16 31 0 22 -8 -5 -9 4 -5 32 4 21 7 44 7 51 0 7 7
10 15 7 13 -5 13 -9 3 -22z m402 -21 c0 -32 -6 -24 -14 19 -4 25 -3 31 4 20 5
-8 10 -26 10 -39z m-34 17 c4 -13 2 -24 -4 -26 -8 -2 -8 -9 0 -22 7 -11 9 -22
5 -26 -11 -12 -20 3 -22 40 -1 18 -5 38 -9 45 -4 6 -1 11 8 11 8 0 18 -10 22
-22z m-56 2 c0 -5 -5 -10 -11 -10 -5 0 -7 5 -4 10 3 6 8 10 11 10 2 0 4 -4 4
-10z m-1530 -4 c0 -3 -4 -8 -10 -11 -5 -3 -10 -1 -10 4 0 6 5 11 10 11 6 0 10
-2 10 -4z m1369 -17 c3 -12 2 -12 -11 -1 -13 10 -17 10 -21 0 -2 -7 -8 -9 -13
-5 -9 9 16 28 30 24 6 -2 12 -10 15 -18z m171 -101 l0 -103 -23 44 c-22 41
-26 91 -7 91 5 0 6 9 3 20 -6 24 2 50 17 50 6 0 10 -39 10 -102z m-1720 84 c0
-15 -11 -21 -27 -15 -12 5 -12 7 -1 14 17 11 28 11 28 1z m-265 -79 c-10 -38
-22 -72 -26 -77 -5 -6 -9 -21 -9 -34 0 -13 -4 -21 -9 -17 -6 3 -6 17 -2 33 5
15 15 47 22 72 7 25 16 50 21 56 4 6 5 14 2 17 -3 3 -3 11 1 17 17 27 17 -5 0
-67z m1790 57 c27 -30 12 -34 -15 -5 -13 14 -19 25 -13 25 5 0 18 -9 28 -20z
m70 -10 c16 -16 26 -32 24 -35 -3 -2 -21 11 -39 30 -19 19 -29 35 -24 35 6 0
23 -13 39 -30z m-1448 -20 c-20 -60 -87 -155 -87 -125 0 10 64 131 78 148 21
24 23 17 9 -23z m1501 23 c-2 -10 2 -17 9 -16 7 2 10 -4 7 -12 -6 -15 -24 -21
-24 -7 0 4 -3 17 -6 30 -4 13 -2 22 5 22 7 0 11 -8 9 -17z m-1296 -15 c-7 -7
-12 -30 -13 -52 0 -38 -16 -93 -19 -71 -1 6 -8 -12 -16 -40 -16 -59 -18 -214
-3 -267 7 -27 17 -40 34 -44 17 -4 28 -18 39 -52 21 -61 20 -64 -11 -60 -84
10 21 -101 170 -179 56 -29 132 -45 206 -42 59 2 77 11 46 23 -8 3 -15 13 -15
22 0 14 3 14 16 4 8 -8 14 -9 12 -3 -3 11 1 13 22 13 6 0 10 -13 10 -30 0 -23
4 -30 20 -30 14 0 20 7 20 21 0 16 5 20 20 16 11 -3 20 -1 20 4 0 10 26 21 73
33 27 6 25 3 -32 -73 -62 -81 -81 -100 -81 -82 0 6 -4 11 -10 11 -5 0 -9 -10
-7 -22 1 -17 -3 -22 -15 -20 -20 3 -25 -14 -6 -20 6 -2 -19 -9 -56 -14 -54 -8
-66 -8 -62 3 7 18 -9 16 -24 -2 -9 -11 -16 -13 -24 -5 -15 15 -26 12 -19 -7 4
-9 2 -14 -3 -11 -5 3 -54 -1 -109 -8 -131 -17 -138 -17 -131 1 6 18 -10 20
-20 3 -5 -7 -11 -5 -21 8 -11 15 -15 16 -22 5 -7 -11 -15 -10 -44 4 -40 19
-57 45 -29 45 14 0 13 3 -6 18 -18 14 -20 20 -10 31 11 10 9 12 -6 9 -16 -2
-27 15 -62 97 -24 55 -43 103 -44 108 0 4 8 7 18 7 16 1 16 1 0 14 -20 15 -24
36 -7 36 5 0 8 4 4 10 -3 5 -12 7 -19 4 -19 -7 -19 68 0 149 14 58 19 67 35
62 11 -4 19 -2 19 4 0 6 -4 11 -10 11 -5 0 -10 7 -10 15 0 8 7 15 15 15 8 0
15 5 15 10 0 6 -7 10 -15 10 -12 0 -12 8 5 50 39 100 81 174 90 159 5 -7 12
-10 16 -6 4 3 1 14 -6 22 -11 14 -10 17 9 22 14 4 18 8 11 13 -8 5 -3 17 16
39 14 17 29 29 32 26 3 -3 0 -11 -6 -17z m-405 -2 c0 -8 -13 -30 -29 -48 -28
-31 -28 -32 -17 -5 7 15 17 27 22 27 6 0 7 3 4 7 -4 3 -2 12 4 20 14 16 16 16
16 -1z m56 -48 c5 -54 2 -66 -19 -97 l-24 -36 0 78 c0 42 3 76 8 76 19 -3 26
2 13 10 -7 5 -10 14 -7 20 15 24 23 9 29 -51z m168 39 c-10 -9 -11 -8 -5 6 3
10 9 15 12 12 3 -3 0 -11 -7 -18z m1415 -31 c-3 -11 -5 -22 -5 -24 -1 -2 -6 0
-11 3 -7 5 -8 11 -1 19 7 8 6 17 -1 26 -8 12 -9 12 -4 -2 3 -10 2 -18 -3 -18
-16 0 -21 13 -10 27 16 19 40 -2 35 -31z m-1906 13 c0 -5 -4 -9 -10 -9 -5 0
-10 7 -10 16 0 8 5 12 10 9 6 -3 10 -10 10 -16z m1840 11 c0 -5 -2 -10 -4 -10
-3 0 -8 5 -11 10 -3 6 -1 10 4 10 6 0 11 -4 11 -10z m260 -35 c0 -25 -4 -45
-9 -45 -9 0 -20 77 -12 86 14 13 21 -1 21 -41z m-1233 13 c37 -16 44 -28 38
-56 -4 -16 3 -35 25 -62 23 -29 30 -48 30 -82 0 -61 -20 -84 -82 -98 -29 -6
-63 -13 -75 -16 -19 -5 -23 -2 -23 15 0 12 -5 21 -10 21 -7 0 -9 18 -6 48 16
145 16 161 3 173 -10 10 -9 16 8 34 18 20 39 32 57 34 4 1 20 -5 35 -11z m133
-19 c0 -11 3 -18 8 -16 4 3 7 -41 7 -98 0 -57 3 -107 7 -110 3 -4 27 2 52 13
32 14 46 17 49 9 2 -7 7 -9 11 -6 5 5 -33 113 -54 150 -15 28 -24 93 -11 85 6
-4 11 -16 11 -26 0 -11 5 -17 13 -15 7 3 19 -13 30 -42 36 -93 51 -124 61
-130 6 -3 8 -3 4 1 -3 4 0 19 7 33 8 15 12 31 9 35 -9 14 17 69 29 61 6 -4 7
-1 2 7 -4 7 -4 15 1 19 5 3 17 19 27 34 26 40 37 25 37 -51 l1 -67 21 25 c11
14 31 38 43 54 14 17 27 26 35 21 8 -5 4 -15 -14 -34 l-25 -26 19 -95 c11 -52
22 -106 26 -120 5 -20 4 -23 -6 -13 -20 18 -50 112 -52 160 -1 42 -18 63 -18
23 0 -11 -7 -20 -15 -20 -11 0 -13 -12 -11 -55 2 -30 0 -55 -5 -55 -10 0 -21
72 -21 142 0 33 -3 56 -6 53 -10 -9 -50 -179 -47 -202 1 -14 -2 -20 -11 -16
-7 2 -14 -4 -16 -14 -4 -14 -9 -9 -23 20 -17 34 -22 37 -50 31 -16 -3 -37 -11
-45 -16 -13 -8 -13 -9 1 -5 9 3 22 1 30 -4 9 -6 -2 -9 -34 -9 -45 0 -48 -1
-42 -22 3 -13 3 -18 -2 -12 -12 16 -56 39 -70 36 -20 -4 -15 16 5 22 16 5 17
18 14 142 -3 99 -1 135 7 130 6 -4 11 -16 11 -27z m790 -85 c-20 -40 -40 -58
-40 -35 0 26 34 110 43 104 6 -3 7 -1 4 5 -4 5 -4 18 0 29 6 13 9 8 11 -20 2
-24 -5 -54 -18 -83z m62 76 c-2 -18 0 -20 12 -11 10 9 19 3 40 -29 30 -46 32
-52 11 -44 -8 4 -15 1 -15 -5 0 -6 6 -11 14 -11 21 0 30 -19 16 -34 -8 -11 -8
-15 1 -18 17 -6 2 -58 -16 -58 -13 0 -13 -3 -3 -20 9 -14 10 -23 3 -28 -5 -4
-11 -20 -12 -36 -3 -35 -11 -45 -23 -26 -5 8 -12 11 -16 7 -4 -4 -2 -13 4 -19
17 -17 15 -25 -10 -33 -20 -6 -20 -8 -5 -12 21 -6 21 -3 -5 -58 -16 -34 -26
-44 -39 -40 -14 5 -16 1 -12 -15 4 -15 1 -20 -16 -20 -21 0 -29 -15 -12 -22 5
-1 -29 -43 -75 -93 l-85 -90 2 85 c1 65 6 88 18 97 15 11 15 12 0 13 -14 0
-10 18 22 113 31 89 42 111 56 109 15 -3 15 -2 3 13 -12 15 -12 19 3 30 18 13
24 31 7 20 -16 -10 -12 18 6 43 11 17 19 20 28 13 13 -11 26 -5 26 11 0 5 -5
6 -11 2 -7 -4 -10 -1 -7 7 3 8 13 13 22 13 17 -2 22 12 6 18 -6 2 1 20 15 40
17 25 25 51 25 78 0 29 4 40 13 37 6 -2 11 -14 9 -27z m94 -28 c-9 -9 -16 3
-21 34 l-5 29 16 -28 c8 -16 13 -31 10 -35z m34 14 c0 -6 -7 -2 -15 8 -8 11
-15 25 -15 30 0 6 7 2 15 -8 8 -11 15 -25 15 -30z m-1970 8 c0 -8 -4 -14 -10
-14 -5 0 -7 -6 -4 -14 3 -8 0 -17 -6 -21 -10 -6 -12 49 -3 68 6 11 23 -2 23
-19z m51 -62 c-6 -2 -9 -8 -5 -13 3 -5 0 -9 -6 -9 -7 0 -10 6 -7 14 3 8 9 32
14 53 l8 38 3 -40 c2 -22 -1 -41 -7 -43z m413 54 c-6 -16 -24 -23 -24 -8 0 10
22 33 27 28 2 -2 1 -11 -3 -20z m-204 4 c0 -5 -4 -10 -10 -10 -5 0 -10 5 -10
10 0 6 5 10 10 10 6 0 10 -4 10 -10z m1074 -5 c-4 -8 -8 -15 -10 -15 -2 0 -4
7 -4 15 0 8 4 15 10 15 5 0 7 -7 4 -15z m735 -42 c1 -13 -3 -23 -9 -23 -5 0
-10 19 -9 43 0 32 2 37 9 22 5 -11 9 -30 9 -42z m-920 -20 c24 -80 21 -97 -4
-21 -10 29 -22 58 -26 64 -7 9 -3 24 7 24 2 0 12 -30 23 -67z m288 53 c-3 -8
2 -20 11 -28 15 -12 16 -11 3 7 -8 11 4 0 27 -25 22 -24 38 -49 35 -54 -4 -5
-1 -6 7 -1 10 6 12 4 7 -9 -6 -14 -3 -15 14 -5 19 9 20 9 10 -10 -17 -31 -13
-36 8 -10 l19 23 0 -27 c0 -15 -4 -27 -8 -27 -4 0 -15 -15 -25 -33 -17 -32
-17 -34 1 -55 26 -30 40 -28 19 4 -14 21 -14 28 -3 41 11 14 14 10 19 -28 4
-27 2 -56 -6 -76 -7 -17 -11 -34 -7 -37 9 -9 9 -55 0 -50 -4 3 -8 -2 -8 -11 0
-9 5 -13 10 -10 6 3 10 -1 10 -10 0 -11 -5 -15 -14 -12 -8 3 -16 -2 -19 -14
-3 -10 -10 -19 -15 -19 -6 0 -4 13 5 30 16 33 12 60 -9 59 -10 0 -10 -2 0 -6
6 -2 12 -9 12 -14 0 -6 -4 -7 -10 -4 -5 3 -10 1 -10 -5 0 -6 -6 -8 -12 -5 -7
4 -4 -1 6 -9 11 -9 16 -19 11 -23 -4 -5 -10 -2 -12 5 -7 19 -21 14 -34 -10
-11 -21 -11 -22 4 -9 21 17 22 3 2 -23 -8 -11 -15 -14 -15 -7 0 7 -5 9 -10 6
-6 -4 -8 -11 -5 -16 4 -5 -1 -9 -10 -9 -14 0 -14 2 1 25 8 13 14 32 11 42 -4
14 -5 12 -6 -6 -1 -23 -1 -23 -28 -6 -15 10 -28 14 -30 9 -2 -5 -20 -8 -41 -6
-38 4 -38 4 -38 48 1 47 1 47 66 45 19 0 28 2 20 6 -8 3 -22 11 -30 18 -8 7
-29 11 -47 8 l-31 -5 -4 -75 -3 -75 73 4 c39 2 72 0 72 -3 0 -15 -29 -27 -82
-33 -40 -5 -58 -12 -58 -22 0 -9 11 -14 30 -14 20 0 30 -5 30 -15 0 -9 -9 -15
-23 -15 -13 0 -28 -5 -35 -12 -9 -9 -12 -9 -12 0 0 7 -11 12 -25 12 -14 0 -25
-5 -25 -11 0 -5 -4 -7 -10 -4 -6 3 -7 -1 -3 -10 3 -9 9 -13 12 -8 7 10 26 11
36 1 4 -4 -9 -10 -29 -13 -23 -5 -33 -11 -29 -19 3 -6 0 -6 -8 2 -16 14 -33
16 -24 2 3 -5 1 -10 -4 -10 -6 0 -11 5 -11 11 0 5 -4 8 -9 5 -4 -3 -17 1 -27
10 -18 14 -18 15 4 4 14 -7 22 -7 22 -1 0 6 6 8 14 5 8 -3 17 0 22 7 4 8 3 10
-4 5 -7 -4 -12 -1 -12 8 0 8 5 18 12 22 7 4 8 3 4 -4 -4 -7 -3 -12 2 -12 17 0
22 13 10 29 -10 12 -8 12 8 -1 19 -17 21 -17 42 2 12 12 22 26 22 33 0 7 -3 8
-8 2 -10 -14 -52 -19 -52 -6 0 12 28 41 41 41 5 0 9 34 9 76 0 68 -2 75 -16
63 -13 -10 -17 -10 -24 1 -11 18 -24 -50 -15 -82 5 -18 4 -20 -4 -8 -10 13
-11 13 -11 0 0 -8 -7 -28 -16 -45 -8 -16 -13 -41 -11 -55 5 -23 -12 -60 -27
-60 -3 0 -6 8 -7 18 0 10 -3 12 -6 5 -18 -45 -38 48 -34 156 3 56 1 63 -14 57
-9 -3 -28 -3 -41 0 -24 6 -24 7 -7 27 18 19 17 19 -6 12 -16 -5 -21 -4 -17 4
4 6 2 11 -3 11 -10 0 -18 -188 -12 -258 1 -15 -2 -21 -8 -17 -6 3 -11 1 -11
-4 0 -6 -4 -11 -10 -11 -5 0 -10 26 -10 58 l-1 57 -16 -30 c-38 -72 -94 -100
-153 -75 -35 15 -39 37 -7 43 16 3 13 5 -10 6 -21 1 -33 6 -33 15 0 8 -5 16
-11 18 -6 2 21 2 60 0 65 -4 75 -2 93 18 17 18 18 24 7 31 -8 5 -25 9 -39 9
-16 0 -20 3 -13 8 9 6 6 11 -8 21 -16 9 -19 10 -13 0 5 -9 2 -10 -10 -6 -10 4
-30 7 -44 7 -38 1 -67 24 -57 47 5 10 7 22 6 27 -3 15 42 57 57 51 8 -3 10 0
6 7 -5 8 -2 9 9 5 10 -3 17 -2 17 3 0 6 32 10 70 10 40 0 70 -4 70 -10 0 -5
-9 -10 -21 -10 -13 0 -18 -4 -13 -12 5 -8 2 -9 -9 -5 -10 4 -23 9 -29 12 -7 2
-25 -6 -40 -18 l-27 -22 24 -11 c20 -10 23 -9 18 5 -3 9 4 5 15 -8 11 -14 18
-30 15 -37 -2 -7 14 -18 41 -27 l46 -16 0 70 c0 55 3 69 15 69 8 0 15 5 15 10
0 6 5 10 11 10 5 0 7 -5 4 -11 -5 -7 4 -9 26 -5 84 14 226 19 233 7 4 -7 0
-11 -11 -11 -11 0 -19 -8 -20 -19 -1 -13 3 -18 13 -14 7 3 11 9 8 14 -3 5 1 9
9 9 8 0 18 7 21 16 3 8 10 13 15 10 5 -4 21 -2 35 4 15 5 26 6 26 0 0 -4 -8
-11 -17 -13 -10 -3 1 -5 25 -6 23 0 42 -5 42 -11 0 -5 -7 -10 -15 -10 -22 0
-18 -18 6 -25 25 -8 41 11 30 34 -4 9 -6 37 -6 64 1 26 -2 47 -6 47 -7 0 -21
74 -24 123 0 16 7 38 17 49 10 12 18 25 18 30 0 4 5 8 11 8 6 0 9 -6 6 -14z
m-1230 -8 c-3 -7 -16 -46 -28 -85 -23 -71 -46 -102 -33 -45 11 52 47 142 56
142 5 0 7 -6 5 -12z m731 -13 c-3 -3 -9 2 -12 12 -6 14 -5 15 5 6 7 -7 10 -15
7 -18z m-690 -60 c-2 -41 0 -75 4 -75 5 0 8 -7 8 -15 0 -8 -4 -15 -9 -15 -5 0
-7 -10 -3 -22 5 -20 4 -20 -10 -7 -10 8 -13 18 -7 24 12 12 12 38 -1 30 -14
-9 -13 8 2 23 9 9 9 12 -3 12 -13 0 -15 8 -8 48 4 26 8 53 8 60 1 6 6 12 12
12 8 0 10 -24 7 -75z m112 54 c-7 -11 -14 -18 -17 -15 -8 8 5 36 17 36 7 0 7
-6 0 -21z m1742 -1 c-7 -7 -12 -8 -12 -2 0 6 3 14 7 17 3 4 9 5 12 2 2 -3 -1
-11 -7 -17z m-1662 8 c0 -2 -7 -7 -16 -10 -8 -3 -12 -2 -9 4 6 10 25 14 25 6z
m1530 -15 c-6 -13 -5 -27 3 -45 12 -25 27 -35 27 -17 0 5 11 4 25 -2 l24 -12
-22 -5 c-16 -5 -22 -13 -21 -33 1 -14 -3 -24 -7 -21 -5 3 -9 13 -9 23 0 10
-10 23 -22 29 -13 6 -18 11 -11 11 9 1 8 10 -3 36 -18 45 -18 50 6 52 16 1 18
-2 10 -16z m-921 -8 c-3 -20 2 -34 10 -28 5 3 8 -10 6 -29 -2 -28 0 -34 14
-29 15 5 15 4 -1 -12 -29 -31 -48 -12 -48 50 0 30 5 55 10 55 6 0 9 -3 9 -7z
m969 -14 c16 -24 12 -32 -12 -23 -9 3 -16 15 -16 25 0 25 12 24 28 -2z m-1699
-20 c-10 -7 -11 -11 -3 -16 9 -6 7 -17 -5 -42 -20 -44 -41 -52 -41 -17 0 32
51 117 58 97 2 -7 -2 -17 -9 -22z m82 -15 c-5 -21 -9 -33 -10 -26 -1 7 -5 10
-11 7 -16 -10 -12 18 6 43 21 31 26 23 15 -24z m30 19 c-8 -15 -10 -15 -11 -2
0 17 10 32 18 25 2 -3 -1 -13 -7 -23z m1671 5 c-7 -7 -12 -8 -12 -2 0 6 3 14
7 17 3 4 9 5 12 2 2 -3 -1 -11 -7 -17z m-39 -10 c16 -17 21 -48 7 -48 -5 0
-10 9 -10 20 0 11 -4 20 -10 20 -5 0 -10 5 -10 10 0 14 9 13 23 -2z m-2009
-14 c3 -9 6 -28 6 -42 -1 -31 -13 -15 -24 31 -7 29 8 38 18 11z m-54 -4 c0 -5
-4 -10 -10 -10 -5 0 -10 5 -10 10 0 6 5 10 10 10 6 0 10 -4 10 -10z m94 -42
c10 -34 12 -54 5 -56 -6 -3 -6 -9 2 -18 9 -11 8 -14 -6 -14 -13 0 -16 6 -11
25 4 14 2 25 -4 25 -5 0 -10 20 -10 45 0 25 2 45 4 45 3 0 11 -24 20 -52z
m103 10 c-3 -7 -5 -2 -5 12 0 14 2 19 5 13 2 -7 2 -19 0 -25z m216 -26 c-3
-29 -10 -52 -14 -52 -11 0 -11 -1 2 60 14 65 20 60 12 -8z m1700 17 c4 -33 -7
-59 -24 -59 -5 0 -9 7 -9 16 0 8 5 12 11 8 7 -4 10 5 9 27 -4 63 7 70 13 8z
m-2122 -12 c-8 -8 -11 -7 -11 4 0 20 13 34 18 19 3 -7 -1 -17 -7 -23z m44 -3
c19 -45 19 -44 -2 -44 -15 0 -14 -4 6 -19 17 -13 20 -20 11 -26 -9 -6 -9 -9 0
-15 7 -4 10 -25 8 -51 -3 -43 -3 -43 -17 -20 -11 19 -11 25 0 32 11 6 9 9 -5
15 -13 5 -16 13 -11 32 5 22 4 24 -9 13 -14 -12 -16 -10 -16 15 0 34 11 104
16 104 2 0 11 -16 19 -36z m347 0 c-7 -12 -11 -13 -17 -4 -4 7 -2 16 6 21 18
11 23 4 11 -17z m1678 5 c0 -4 -7 -6 -15 -3 -8 4 -15 10 -15 15 0 4 7 6 15 3
8 -4 15 -10 15 -15z m-1874 -25 c-4 -9 -9 -15 -11 -12 -3 3 -3 13 1 22 4 9 9
15 11 12 3 -3 3 -13 -1 -22z m139 -28 c-3 -24 -1 -63 4 -85 5 -24 5 -43 0 -47
-14 -8 -11 -24 4 -19 7 3 12 -4 12 -20 0 -14 -2 -25 -5 -25 -3 0 -3 -43 -1
-96 3 -86 1 -96 -13 -91 -20 8 -21 -7 -1 -23 12 -10 13 -16 4 -26 -7 -9 -8
-14 -1 -14 9 0 25 -41 18 -48 -2 -2 -18 21 -35 51 -33 59 -42 121 -16 111 8
-4 15 -2 15 4 0 5 -7 13 -16 16 -15 6 -15 8 2 28 18 20 18 21 1 15 -16 -6 -17
0 -15 61 1 37 7 71 12 75 8 6 7 10 -1 14 -7 2 -13 11 -13 19 0 18 40 144 46
144 2 0 2 -20 -1 -44z m1285 15 c-5 -10 -6 -21 -3 -25 3 -3 1 -6 -6 -6 -8 0
-11 6 -7 16 3 9 6 22 6 30 0 9 5 12 10 9 7 -4 7 -12 0 -24z m443 -11 c3 -14 1
-34 -4 -45 -8 -17 -9 -16 -5 8 2 15 -1 30 -5 33 -5 3 -9 15 -9 27 0 27 15 11
23 -23z m-1326 8 c-3 -8 -6 -5 -6 6 -1 11 2 17 5 13 3 -3 4 -12 1 -19z m1243
-4 c0 -17 16 -19 23 -1 8 19 26 -11 20 -34 -8 -29 -21 -32 -15 -4 3 18 1 24
-9 20 -18 -6 -53 21 -44 34 8 14 25 4 25 -15z m-1810 0 c0 -8 -4 -12 -10 -9
-5 3 -10 10 -10 16 0 5 5 9 10 9 6 0 10 -7 10 -16z m216 -9 c1 -8 -2 -13 -7
-9 -5 3 -9 12 -9 21 0 19 13 9 16 -12z m-89 -7 c-3 -8 -6 -5 -6 6 -1 11 2 17
5 13 3 -3 4 -12 1 -19z m73 -46 c0 -26 -4 -41 -10 -37 -5 3 -10 30 -10 58 0
37 3 48 10 37 5 -8 10 -34 10 -58z m887 46 c-3 -8 -6 -5 -6 6 -1 11 2 17 5 13
3 -3 4 -12 1 -19z m892 -70 c0 -20 -3 -40 -9 -43 -6 -4 -10 20 -9 67 1 55 3
66 9 43 4 -16 8 -47 9 -67z m-1956 51 c-6 -6 -9 -19 -7 -28 3 -9 -1 -6 -7 7
-7 12 -18 22 -25 22 -7 0 -16 4 -19 10 -4 7 3 7 19 0 22 -8 26 -7 26 7 0 13 3
14 12 5 9 -9 9 -15 1 -23z m1150 3 c-8 -20 -24 -32 -35 -26 -13 8 -9 24 7 24
9 0 12 6 9 15 -5 11 -2 13 9 9 10 -3 13 -12 10 -22z m-53 -19 c0 -15 -26 -17
-35 -3 -9 15 18 41 27 26 4 -6 8 -17 8 -23z m679 18 c21 -38 -28 -225 -55
-214 -8 3 -14 0 -14 -6 0 -6 4 -11 10 -11 5 0 7 -7 4 -15 -4 -8 -12 -15 -20
-15 -8 0 -14 -5 -14 -11 0 -6 7 -8 16 -5 12 5 15 2 9 -11 -4 -10 -15 -43 -24
-74 -9 -33 -21 -54 -28 -52 -7 3 -9 -3 -6 -16 6 -24 -6 -27 -26 -8 -11 10 -12
7 -7 -15 5 -24 3 -28 -14 -28 -23 0 -27 -17 -5 -22 12 -2 3 -21 -37 -78 -62
-88 -98 -130 -98 -112 0 6 -4 12 -10 12 -5 0 -9 -10 -7 -22 1 -17 -3 -22 -15
-20 -20 3 -25 -14 -6 -20 11 -4 -116 -118 -132 -118 -4 0 -15 -3 -24 -6 -11
-4 -16 0 -16 12 -1 18 -1 18 -11 1 -8 -14 -18 -17 -36 -12 -19 4 -24 3 -20 -8
4 -11 -19 -20 -94 -38 -63 -16 -100 -21 -103 -14 -3 6 -9 4 -15 -5 -8 -12 -13
-12 -23 -2 -14 14 -17 10 66 76 31 24 39 27 47 15 8 -14 10 -11 13 21 0 9 10
15 24 14 23 -1 30 12 11 18 -6 2 7 12 31 23 35 16 43 17 51 4 7 -11 9 -11 9 4
0 16 10 21 38 18 7 -1 12 4 11 11 -2 7 25 42 60 78 214 221 241 246 252 236 9
-8 10 -5 6 13 -4 17 -1 24 14 28 19 5 27 23 9 23 -6 0 -5 10 2 25 6 14 15 25
20 25 4 0 8 7 8 16 0 9 9 18 21 21 14 4 17 8 9 13 -9 6 -3 21 21 56 18 27 37
52 43 56 6 4 7 8 3 8 -4 0 -2 10 5 23 6 12 12 29 13 37 1 8 2 23 3 32 1 12 7
15 20 11 14 -5 15 -3 5 8 -13 13 -18 39 -8 39 2 0 9 -9 14 -19z m135 -48 c6
-48 5 -51 -14 -46 -22 6 -27 28 -7 36 9 4 9 8 0 14 -6 4 -9 20 -6 36 8 39 19
22 27 -40z m-1703 24 c-8 -8 -11 -7 -11 4 0 20 13 34 18 19 3 -7 -1 -17 -7
-23z m59 7 c0 -8 -4 -14 -10 -14 -5 0 -10 9 -10 21 0 11 5 17 10 14 6 -3 10
-13 10 -21z m-204 3 c11 4 14 -5 14 -42 0 -38 -3 -46 -15 -41 -8 3 -15 1 -15
-3 0 -5 5 -11 12 -13 13 -5 2 -28 -14 -28 -6 0 -9 22 -6 55 1 30 -1 56 -6 58
-6 2 -6 9 -1 17 6 10 10 10 12 3 3 -7 11 -9 19 -6z m-146 -8 c0 -5 5 -7 10 -4
6 3 11 0 12 -7 2 -23 4 -32 15 -70 6 -20 8 -51 4 -69 -6 -31 -8 -28 -27 46
-12 44 -25 88 -29 98 -4 10 -3 17 4 17 6 0 11 -5 11 -11z m1047 -5 c-3 -3 -12
-4 -19 -1 -8 3 -5 6 6 6 11 1 17 -2 13 -5z m-187 -14 c0 -5 -2 -10 -4 -10 -3
0 -8 5 -11 10 -3 6 -1 10 4 10 6 0 11 -4 11 -10z m680 -64 c-12 -36 -26 -66
-31 -66 -5 0 -9 4 -9 9 0 5 -3 17 -7 27 -5 12 -3 15 6 9 10 -6 12 0 7 23 -6
25 -3 33 20 51 15 12 29 19 32 17 2 -3 -6 -34 -18 -70z m386 47 c-10 -10 -19
5 -10 18 6 11 8 11 12 0 2 -7 1 -15 -2 -18z m-1823 -72 c7 -88 -1 -96 -22 -23
-9 34 -9 50 0 77 7 19 14 33 15 32 0 -1 4 -40 7 -86z m204 9 c2 -47 -1 -80 -7
-80 -6 0 -10 21 -11 48 -1 26 -2 62 -4 80 -2 19 2 32 9 32 7 0 12 -29 13 -80z
m36 73 c2 -5 -1 -24 -9 -43 l-12 -35 -1 43 c-1 37 10 55 22 35z m1550 -30 c-3
-21 -10 -45 -15 -53 -6 -9 -6 2 -2 30 3 25 8 48 11 53 9 16 11 5 6 -30z
m-1903 -26 c0 -10 -4 -15 -10 -12 -5 3 -10 18 -10 33 0 21 2 24 10 12 5 -8 10
-23 10 -33z m1950 18 c0 -8 -4 -15 -10 -15 -5 0 -10 7 -10 15 0 8 5 15 10 15
6 0 10 -7 10 -15z m-2010 -46 c8 -24 21 -50 28 -57 7 -8 12 -39 12 -72 0 -32
4 -69 9 -82 21 -57 21 -74 1 -74 -21 0 -64 97 -79 179 -8 44 -7 47 10 42 23
-8 25 10 2 19 -12 5 -14 9 -5 18 13 13 16 29 5 27 -20 -3 -24 2 -13 16 9 10 9
15 1 15 -6 0 -11 5 -11 11 0 26 26 -1 40 -42z m1984 26 c3 -8 1 -15 -4 -15 -6
0 -10 7 -10 15 0 8 2 15 4 15 2 0 6 -7 10 -15z m-1107 -14 c-2 8 -2 11 0 6 3
-4 8 -5 12 -2 5 2 6 -6 4 -20 -4 -20 -8 -22 -27 -14 -12 6 -23 19 -23 31 -2
19 -1 20 18 2 15 -13 19 -14 16 -3z m-528 -39 c1 -7 -3 -10 -9 -7 -5 3 -10 18
-9 33 0 24 1 25 9 7 5 -11 9 -26 9 -33z m1701 28 c-6 -11 -7 -20 -2 -20 5 0 8
-21 6 -47 -1 -27 0 -37 2 -23 3 14 10 30 16 35 7 7 8 4 5 -10 -4 -11 -9 -32
-12 -47 -3 -16 -7 -39 -10 -53 -3 -14 -12 -25 -21 -25 -13 0 -14 3 -5 14 7 8
8 16 4 18 -4 3 -3 3 4 2 13 -3 14 35 2 52 -5 5 -8 36 -8 67 1 42 5 57 15 57
12 0 12 -4 4 -20z m-1976 -16 c4 -10 1 -14 -6 -12 -15 5 -23 28 -10 28 5 0 13
-7 16 -16z m1906 6 c0 -5 -4 -10 -10 -10 -5 0 -10 5 -10 10 0 6 5 10 10 10 6
0 10 -4 10 -10z m120 -10 c-6 -11 -13 -20 -15 -20 -2 0 -3 9 -2 20 1 11 7 20
14 20 11 0 11 -5 3 -20z m-1884 -16 c-3 -9 -6 -20 -6 -25 0 -5 -4 -9 -10 -9
-11 0 -14 33 -3 43 12 13 25 7 19 -9z m1717 -9 c-3 -9 -8 -14 -10 -11 -3 3 -2
9 2 15 9 16 15 13 8 -4z m41 3 c-5 -8 -2 -9 9 -5 15 6 15 3 0 -36 -9 -23 -23
-46 -32 -51 -13 -8 -13 -10 1 -15 27 -10 -38 -156 -80 -183 -18 -11 -32 -26
-32 -34 0 -8 -5 -14 -11 -14 -7 0 -8 7 -4 18 4 9 8 24 9 32 2 8 8 15 14 15 6
0 14 3 18 8 4 4 0 7 -9 7 -12 0 -7 15 23 67 22 36 42 79 45 94 5 21 11 26 23
22 14 -5 15 -3 5 8 -15 15 -17 39 -4 39 5 0 12 -8 15 -17 3 -10 3 -1 0 20 -3
23 -1 37 6 37 6 0 8 -5 4 -12z m-1882 -43 c21 -56 6 -59 -22 -5 -24 46 -24 50
-7 50 7 0 20 -20 29 -45z m935 -29 c1 -44 9 -83 22 -109 19 -39 20 -63 1 -52
-5 3 -12 -6 -16 -20 -6 -26 -17 -29 -104 -27 -38 0 -100 22 -100 34 0 4 -7 5
-15 2 -8 -4 -15 -1 -15 5 0 6 11 11 24 11 14 0 28 5 32 11 3 6 14 9 24 6 14
-3 17 0 13 12 -3 9 4 4 14 -11 15 -22 22 -25 31 -16 7 7 12 8 12 3 0 -5 8 2
17 15 13 18 18 49 20 115 1 49 3 91 3 93 0 2 8 2 17 0 14 -3 18 -16 20 -72z
m550 42 c-3 -8 -6 -5 -6 6 -1 11 2 17 5 13 3 -3 4 -12 1 -19z m-1431 -13 c1
-14 -2 -25 -7 -25 -10 0 -12 33 -2 43 3 4 7 7 7 7 1 0 2 -11 2 -25z m1051 -25
c-8 -11 -17 -17 -20 -14 -3 4 0 13 8 20 8 8 12 22 9 32 -5 16 -5 16 6 -1 8
-13 8 -22 -3 -37z m720 18 c-3 -8 -6 -5 -6 6 -1 11 2 17 5 13 3 -3 4 -12 1
-19z m-1698 -1 c8 -10 7 -14 -4 -14 -8 0 -15 6 -15 14 0 7 2 13 4 13 2 0 9 -6
15 -13z m1795 5 c3 -5 -1 -9 -9 -9 -8 0 -12 4 -9 9 3 4 7 8 9 8 2 0 6 -4 9 -8z
m86 -12 c0 -11 -4 -20 -10 -20 -5 0 -10 9 -10 20 0 11 5 20 10 20 6 0 10 -9
10 -20z m-1919 -7 c13 -16 12 -17 -3 -4 -17 13 -22 21 -14 21 2 0 10 -8 17
-17z m562 2 c35 -9 30 -29 -6 -28 -42 2 -43 2 -43 22 0 19 2 19 49 6z m-668
-25 c19 -36 19 -40 0 -40 -8 0 -15 9 -15 19 0 11 -3 26 -6 35 -11 27 5 17 21
-14z m270 9 c-5 -16 -4 -19 5 -14 9 5 10 2 5 -14 -4 -12 -2 -21 4 -21 17 0 13
-19 -9 -42 l-20 -22 0 67 c0 41 4 67 11 67 6 0 8 -9 4 -21z m1205 6 c0 -8 -4
-15 -10 -15 -5 0 -10 7 -10 15 0 8 5 15 10 15 6 0 10 -7 10 -15z m354 -32
c-15 -37 -34 -64 -34 -50 0 14 35 87 42 87 4 0 0 -17 -8 -37z m126 14 c0 -7
-4 -6 -10 3 -8 13 -10 12 -10 -4 0 -16 -3 -17 -12 -8 -10 10 -10 15 2 22 16
10 30 4 30 -13z m-1880 3 c0 -5 5 -10 11 -10 5 0 7 5 3 12 -4 7 -3 8 5 4 6 -4
9 -12 6 -17 -4 -5 -2 -9 4 -9 5 0 14 8 20 17 5 10 13 14 18 10 13 -13 -28 -37
-53 -31 -14 4 -25 0 -31 -11 -9 -15 -11 -15 -23 0 -7 9 -9 15 -4 14 22 -4 33
2 28 16 -4 8 -1 15 5 15 6 0 11 -4 11 -10z m1344 -15 c-4 -8 -13 -15 -21 -15
-13 0 -13 3 -3 15 7 8 16 15 21 15 5 0 6 -7 3 -15z m-1517 -62 c9 -25 8 -33
-3 -37 -8 -3 -14 -4 -14 -3 -12 110 -8 119 17 40z m1563 52 c0 -8 -4 -15 -10
-15 -5 0 -10 7 -10 15 0 8 5 15 10 15 6 0 10 -7 10 -15z m446 -41 c-16 -30
-21 -17 -10 24 4 15 10 20 16 14 6 -6 4 -20 -6 -38z m124 36 c0 -5 -2 -10 -4
-10 -3 0 -8 5 -11 10 -3 6 -1 10 4 10 6 0 11 -4 11 -10z m-1926 -66 c13 -51
28 -61 34 -23 2 12 -1 19 -6 15 -5 -3 -12 9 -15 27 -5 37 0 49 9 21 10 -31 13
-38 26 -56 10 -14 9 -20 -6 -31 -12 -9 -16 -19 -12 -28 4 -8 -2 -3 -13 11 -19
23 -51 101 -51 124 0 24 22 -15 34 -60z m50 41 c3 -8 1 -15 -4 -15 -6 0 -10 7
-10 15 0 8 2 15 4 15 2 0 6 -7 10 -15z m1240 -22 c-9 -21 -19 -45 -22 -53 -16
-42 -76 -133 -80 -122 -2 7 -8 12 -14 12 -5 0 -6 -9 -3 -20 5 -16 2 -20 -14
-20 -12 0 -21 -4 -21 -10 0 -5 6 -10 13 -10 8 0 7 -4 -3 -10 -24 -15 -40 -12
-34 8 5 15 4 15 -10 -2 -10 -12 -23 -17 -36 -13 -16 4 -20 2 -16 -9 3 -9 -2
-14 -14 -15 -33 -2 -38 -4 -46 -11 -19 -19 -24 -5 -5 15 26 29 101 123 129
164 14 20 28 30 37 26 8 -3 15 -1 15 4 0 6 17 18 38 27 21 10 49 31 63 47 33
40 42 36 23 -8z m636 -20 c0 -36 -3 -44 -15 -39 -18 7 -20 -5 -3 -22 9 -9 8
-15 -8 -27 -17 -13 -17 -14 -1 -15 20 0 20 -1 5 -37 -18 -41 -48 -83 -60 -83
-6 0 -3 12 7 26 9 15 12 23 6 20 -7 -5 -11 2 -11 18 0 14 6 26 13 26 9 0 8 3
-2 9 -11 7 -11 9 0 14 12 4 11 7 -1 16 -13 9 -12 12 5 25 13 10 15 15 6 16
-17 0 -9 49 14 84 25 37 45 23 45 -31z m-2014 27 c11 0 12 -4 4 -19 -7 -14 -6
-21 3 -24 9 -3 9 -7 -1 -19 -10 -12 -10 -17 -1 -20 7 -2 10 -11 7 -18 -8 -24
-28 22 -33 77 -3 26 -3 42 1 36 3 -7 12 -13 20 -13z m1429 11 c3 -6 -18 -57
-46 -114 -42 -83 -56 -103 -70 -100 -16 5 -14 11 16 54 18 27 44 76 57 109 23
59 31 69 43 51z m215 1 c0 -4 -12 -21 -27 -38 -16 -16 -30 -34 -32 -39 -10
-26 -71 -86 -81 -80 -6 4 18 37 62 85 78 84 78 84 78 72z m-312 -14 c-5 -15
-68 -24 -68 -10 0 15 13 22 43 22 18 0 27 -4 25 -12z m-1278 -8 c0 -5 -2 -10
-4 -10 -3 0 -8 5 -11 10 -3 6 -1 10 4 10 6 0 11 -4 11 -10z m1860 0 c0 -5 -5
-10 -11 -10 -5 0 -7 5 -4 10 3 6 8 10 11 10 2 0 4 -4 4 -10z m-1610 -92 c6
-20 5 -28 -3 -28 -7 0 -4 -7 6 -14 18 -14 24 -32 7 -21 -5 3 -10 1 -10 -5 0
-6 7 -13 15 -16 10 -4 13 -13 9 -27 -5 -15 -3 -19 9 -14 9 3 18 -1 21 -9 3 -8
2 -12 -3 -9 -5 3 -12 1 -15 -4 -3 -5 4 -11 15 -14 14 -4 20 -11 16 -21 -3 -8
-3 -16 1 -18 10 -4 54 -79 49 -84 -1 -2 -22 21 -45 50 -23 29 -55 65 -72 81
-27 26 -28 29 -12 41 16 12 15 13 -4 14 -27 0 -36 10 -23 26 7 8 7 14 -1 19
-5 3 -10 1 -10 -4 0 -6 -4 -11 -10 -11 -5 0 -10 20 -10 45 0 38 2 43 18 38 16
-6 16 -5 0 14 -17 19 -17 20 4 43 l23 24 8 -34 c4 -19 12 -47 17 -62z m26 35
c9 -32 21 -64 26 -70 7 -9 7 -13 0 -13 -11 0 -36 57 -47 108 -11 54 3 36 21
-25z m1124 -14 c0 -60 -2 -70 -14 -60 -10 9 -15 8 -19 -3 -3 -8 -1 -16 6 -19
6 -2 -9 -15 -33 -30 -24 -14 -46 -25 -47 -23 -2 2 12 29 32 61 19 32 42 78 51
101 9 24 18 44 20 44 2 0 4 -32 4 -71z m420 41 c0 -5 -4 -10 -10 -10 -5 0 -10
5 -10 10 0 6 5 10 10 10 6 0 10 -4 10 -10z m40 -5 c0 -8 -4 -15 -9 -15 -13 0
-22 16 -14 24 11 11 23 6 23 -9z m-1860 -5 c0 -5 14 -33 31 -62 19 -31 27 -54
20 -56 -17 -6 -13 -22 7 -22 14 0 15 -2 2 -10 -12 -8 -12 -12 -2 -18 7 -5 14
-18 17 -30 2 -12 13 -42 24 -67 19 -42 19 -46 3 -43 -10 2 -16 11 -14 22 3 13
-1 16 -16 12 -13 -4 -22 1 -31 18 -8 13 -11 29 -7 34 3 5 -4 12 -15 15 -12 3
-19 9 -16 14 3 4 -1 46 -9 93 -16 103 -17 110 -4 110 6 0 10 -4 10 -10z m-142
-24 c9 -21 8 -23 -9 -19 -10 3 -19 14 -19 24 0 26 15 24 28 -5z m1952 7 c0 -9
-40 -71 -40 -62 0 17 23 69 31 69 5 0 9 -3 9 -7z m30 -13 c0 -5 -7 -10 -16
-10 -8 0 -12 5 -9 10 3 6 10 10 16 10 5 0 9 -4 9 -10z m-1745 -10 c3 -5 1 -10
-4 -10 -6 0 -11 5 -11 10 0 6 2 10 4 10 3 0 8 -4 11 -10z m1769 -6 c3 -8 2
-12 -4 -9 -6 3 -10 10 -10 16 0 14 7 11 14 -7z m122 -21 c-10 -10 -19 5 -10
18 6 11 8 11 12 0 2 -7 1 -15 -2 -18z m-2101 -13 c10 -16 -12 -12 -29 6 -9 8
-16 18 -16 20 0 7 38 -15 45 -26z m35 14 c0 -8 -4 -12 -10 -9 -5 3 -10 10 -10
16 0 5 5 9 10 9 6 0 10 -7 10 -16z m224 -24 c15 -23 24 -45 21 -50 -3 -5 -1
-11 5 -15 12 -7 4 -25 -12 -25 -5 0 -8 6 -5 14 3 7 -3 20 -14 29 -10 9 -19 25
-19 36 0 11 -3 26 -6 35 -11 28 3 17 30 -24z m1670 3 c-10 -15 -26 -36 -36
-46 -19 -19 -25 -53 -8 -42 16 10 12 -11 -5 -25 -13 -11 -15 -10 -9 6 5 18 4
18 -11 -1 -9 -11 -20 -27 -25 -35 -5 -8 -11 -13 -13 -10 -5 5 81 152 104 178
19 23 21 5 3 -25z m-1714 1 c0 -8 -4 -14 -10 -14 -5 0 -10 9 -10 21 0 11 5 17
10 14 6 -3 10 -13 10 -21z m-241 -45 c4 -19 11 -45 16 -58 5 -16 4 -21 -4 -17
-14 9 -36 61 -46 107 -7 32 -6 33 10 18 9 -9 20 -31 24 -50z m1996 31 c7 -23
-2 -60 -15 -60 -5 0 -6 7 -3 17 4 11 3 14 -5 9 -13 -8 -15 -1 -6 32 8 27 21
28 29 2z m121 -6 c-5 -17 -3 -23 4 -19 13 8 13 -22 0 -105 -16 -100 -29 -133
-46 -119 -17 14 -19 -2 -2 -19 10 -10 8 -14 -10 -18 -25 -7 -30 -24 -6 -24 24
0 -10 -51 -78 -116 -56 -53 -78 -65 -78 -42 0 15 -15 0 -15 -15 0 -7 -10 -11
-22 -10 -15 2 -21 -2 -17 -11 4 -9 -18 -23 -68 -44 -40 -16 -82 -32 -93 -35
-11 -3 -30 -8 -42 -12 -18 -5 -22 -3 -17 9 8 21 -6 20 -22 -1 -10 -15 -15 -16
-25 -5 -18 17 -30 15 -23 -3 5 -12 -5 -15 -54 -15 -33 0 -67 -3 -76 -6 -9 -3
-16 -2 -16 3 0 5 14 14 30 20 17 6 30 7 30 2 0 -17 18 -9 23 10 3 15 11 18 28
14 18 -3 20 -2 10 5 -12 9 -12 13 2 26 20 20 38 21 31 1 -8 -21 6 -19 22 3 10
14 15 15 25 5 17 -17 32 -16 26 0 -4 10 17 21 66 36 40 13 92 34 117 48 26 14
46 20 48 14 6 -18 23 -12 20 7 -2 11 4 18 20 20 21 3 32 22 12 22 -5 0 5 24
24 53 18 28 37 66 40 84 5 22 12 30 22 26 8 -3 14 0 14 5 0 6 -7 12 -16 14
-13 2 -12 7 7 26 24 26 82 134 91 170 4 12 9 22 13 22 4 0 4 -12 1 -26z
m-2021 -24 c10 -22 16 -43 13 -46 -7 -6 -48 58 -48 75 0 24 18 9 35 -29z m-30
-21 c17 -28 34 -59 40 -70 5 -11 16 -17 23 -14 7 3 10 0 7 -5 -3 -5 -1 -20 6
-32 l11 -23 -20 21 c-27 29 -112 153 -112 165 0 21 17 6 45 -42z m1525 42 c0
-5 -7 -11 -15 -15 -9 -3 -15 0 -15 9 0 8 7 15 15 15 8 0 15 -4 15 -9z m195
-37 c-9 -14 -19 -23 -22 -20 -4 3 2 15 12 26 10 11 15 20 11 20 -4 0 -4 5 0
12 6 9 9 9 12 0 2 -7 -4 -24 -13 -38z m96 37 c4 7 11 10 15 6 11 -10 -12 -31
-25 -23 -6 4 -11 13 -10 19 0 8 3 7 6 -2 4 -11 7 -11 14 0z m-1647 -27 c3 -8
2 -12 -4 -9 -6 3 -10 10 -10 16 0 14 7 11 14 -7z m231 6 c3 -5 2 -10 -4 -10
-5 0 -13 5 -16 10 -3 6 -2 10 4 10 5 0 13 -4 16 -10z m1375 -10 c-24 -15 -36
-11 -14 4 10 8 21 12 24 10 2 -3 -2 -9 -10 -14z m-310 -10 c0 -5 -9 -14 -20
-20 -16 -8 -20 -8 -20 4 0 13 13 23 33 25 4 1 7 -3 7 -9z m329 -32 c-28 -40
-69 -84 -69 -73 0 8 36 58 69 97 25 29 25 11 0 -24z m-1792 -44 c-5 -6 -47 59
-47 72 0 5 12 -9 26 -29 14 -21 24 -41 21 -43z m418 45 c9 -17 14 -33 12 -36
-3 -2 -8 4 -11 15 -4 11 -14 23 -22 26 -8 3 -12 10 -9 16 9 15 13 13 30 -21z
m1475 26 c0 -3 -10 -25 -22 -48 -22 -41 -24 -47 -27 -74 0 -7 -6 -13 -11 -13
-6 0 -8 14 -5 33 l5 32 -17 -30 c-10 -18 -18 -25 -21 -17 -5 15 27 54 39 47 4
-3 15 13 25 35 15 34 34 53 34 35z m-1696 -20 c11 -8 14 -15 7 -15 -7 0 -9 -5
-6 -10 4 -6 12 -8 18 -4 7 3 4 -1 -5 -9 -23 -19 -23 -25 7 -69 28 -41 30 -48
15 -48 -5 0 -10 7 -10 15 0 8 -4 15 -8 15 -9 0 -42 64 -42 81 0 6 5 7 10 4 15
-9 12 8 -6 33 -17 25 -8 28 20 7z m193 -128 c26 -21 30 -37 8 -37 -8 0 -15 7
-15 15 0 8 -4 15 -10 15 -5 0 -10 -5 -10 -12 0 -6 -13 1 -30 17 -16 15 -27 31
-25 35 3 4 -4 10 -15 13 -14 4 -20 14 -20 35 0 17 -3 39 -7 49 -4 10 18 -11
47 -47 30 -36 65 -73 77 -83z m943 134 c0 -5 -9 -11 -20 -14 -20 -5 -26 3 -13
16 9 10 33 8 33 -2z m72 -13 c-6 -6 -15 -8 -19 -4 -4 4 -1 11 7 16 19 12 27 3
12 -12z m348 7 c-7 -8 -19 -15 -27 -15 -12 0 -13 -3 -4 -13 6 -8 8 -17 4 -20
-10 -11 -33 -8 -33 4 0 5 5 7 12 3 8 -5 9 -2 5 10 -5 13 -1 19 13 23 11 3 20
9 20 14 0 5 5 9 11 9 8 0 8 -5 -1 -15z m-84 -66 c-14 -29 -26 -58 -26 -64 0
-19 -57 -64 -79 -62 -22 1 -27 12 -12 21 5 4 11 1 13 -6 3 -8 11 -5 23 10 11
12 26 22 35 22 12 0 12 2 1 9 -11 7 -8 18 15 57 34 60 46 76 52 70 2 -3 -7
-29 -22 -57z m-1416 29 c0 -19 -2 -20 -10 -8 -13 19 -13 30 0 30 6 0 10 -10
10 -22z m1125 12 c3 -5 -1 -10 -9 -10 -9 0 -16 5 -16 10 0 6 4 10 9 10 6 0 13
-4 16 -10z m-71 -26 c-9 -12 -47 -39 -86 -59 l-70 -35 62 59 c39 37 71 59 86
59 22 0 22 -2 8 -24z m66 -39 c-44 -45 -66 -61 -68 -50 -4 18 -22 20 -22 3 0
-15 -48 -58 -64 -58 -6 1 -2 8 10 18 11 10 29 30 39 46 21 31 87 77 116 79 10
1 21 7 23 14 3 7 11 13 18 13 7 0 -17 -29 -52 -65z m-30 45 c0 -5 -5 -10 -11
-10 -5 0 -7 5 -4 10 3 6 8 10 11 10 2 0 4 -4 4 -10z m580 0 c0 -5 -8 -14 -17
-19 -17 -10 -17 -10 0 -11 18 0 24 -25 7 -35 -5 -3 -10 -1 -10 4 0 6 -5 11
-11 11 -6 0 -8 -8 -4 -19 7 -22 -12 -38 -26 -24 -9 9 -1 31 31 81 15 23 30 29
30 12z m40 6 c0 -3 -4 -8 -10 -11 -5 -3 -10 -1 -10 4 0 6 5 11 10 11 6 0 10
-2 10 -4z m-2000 -21 c0 -8 -2 -15 -4 -15 -2 0 -6 7 -10 15 -3 8 -1 15 4 15 6
0 10 -7 10 -15z m1207 -41 c-50 -48 -60 -54 -74 -42 -14 11 -15 10 -9 -10 5
-13 3 -22 -3 -22 -6 0 -11 5 -11 10 0 6 -4 10 -9 10 -5 0 -8 -8 -7 -17 0 -10
-6 -18 -14 -19 -8 -1 -33 -9 -55 -18 -22 -10 -59 -26 -82 -36 -41 -18 -43 -18
-43 -1 0 10 16 27 38 39 20 11 62 43 92 70 30 27 62 49 70 49 8 1 36 8 63 16
26 8 47 11 47 5 0 -5 10 -2 22 6 42 29 33 16 -25 -40z m-1149 24 c19 -19 14
-29 -8 -16 -20 13 -27 28 -12 28 4 0 13 -5 20 -12z m446 -31 c5 -21 4 -21 -14
3 -23 29 -26 48 -6 31 8 -6 16 -22 20 -34z m-208 8 c9 -13 14 -30 11 -37 -3
-9 -7 -6 -12 7 -5 11 -15 28 -23 38 -9 10 -11 17 -4 17 6 0 19 -11 28 -25z
m1526 -2 c2 -9 -6 -27 -17 -39 -11 -12 -27 -32 -36 -44 -8 -13 -21 -21 -28
-19 -9 3 -2 15 19 36 19 18 30 38 27 46 -5 14 10 37 24 37 4 0 9 -8 11 -17z
m-772 4 c0 -2 -37 -30 -82 -63 -51 -36 -83 -54 -86 -46 -6 18 -19 14 -25 -7
-3 -14 -11 -18 -26 -14 -16 4 -20 2 -16 -9 4 -9 -6 -18 -28 -26 -44 -16 -52
-15 -37 3 15 18 -1 20 -19 3 -10 -11 -15 -9 -28 7 -11 14 -17 16 -20 8 -5 -14
-43 -18 -43 -5 0 5 -10 8 -22 8 -17 -1 -31 14 -60 63 -20 36 -36 66 -34 68 8
8 52 -24 48 -35 -2 -6 1 -12 6 -12 6 0 12 6 15 13 3 9 9 7 24 -5 24 -22 34
-23 27 -3 -5 12 0 14 22 9 16 -3 73 2 126 10 118 19 109 19 102 1 -4 -8 -2
-15 4 -15 5 0 12 7 16 15 6 17 36 21 36 5 0 -5 5 -10 11 -10 6 0 9 6 6 14 -4
11 3 16 26 19 18 2 38 5 45 5 6 1 12 0 12 -1z m720 -2 c0 -3 -13 -24 -30 -47
-33 -45 -38 -40 -15 16 8 20 22 36 30 36 8 0 15 -2 15 -5z m-1623 -35 c-2 -35
-12 -38 -28 -8 -10 18 -9 20 6 14 13 -4 16 -2 11 9 -3 8 -1 15 4 15 5 0 8 -13
7 -30z m-60 14 c-3 -3 -12 -4 -19 -1 -8 3 -5 6 6 6 11 1 17 -2 13 -5z m1174
-32 c-46 -58 -61 -69 -72 -51 -8 14 -10 12 -13 -13 -1 -11 -22 -20 -93 -38
-35 -8 -43 0 -19 19 7 6 21 9 30 5 11 -4 16 -1 16 10 0 10 9 16 25 16 14 0 29
8 35 21 9 16 14 18 26 8 8 -6 18 -9 21 -5 4 4 1 11 -6 15 -9 6 -2 14 26 28 55
29 58 27 24 -15z m591 20 c-7 -2 -10 -8 -7 -13 4 -5 -1 -6 -9 -3 -12 5 -13 9
-3 19 7 7 16 10 22 7 5 -3 4 -7 -3 -10z m-1332 -39 c5 -7 10 -17 10 -23 0 -19
-15 -10 -28 18 -22 44 -25 58 -8 37 8 -11 20 -25 26 -32z m-415 27 c3 -5 1
-10 -4 -10 -6 0 -11 5 -11 10 0 6 2 10 4 10 3 0 8 -4 11 -10z m137 -49 c14 7
23 7 34 -2 8 -6 12 -14 9 -17 -2 -3 -12 1 -22 9 -14 12 -16 12 -8 0 6 -11 4
-13 -10 -7 -15 5 -16 4 -5 -9 7 -8 9 -15 4 -15 -14 0 -84 73 -84 87 0 8 14 -2
31 -22 26 -29 34 -33 51 -24z m4 22 c-7 -7 -26 7 -26 19 0 6 6 6 15 -2 9 -7
13 -15 11 -17z m125 17 c16 -9 17 -15 8 -31 -12 -23 -33 -13 -42 21 -6 22 5
25 34 10z m1523 -22 c-11 -12 -21 -15 -27 -9 -16 16 0 40 23 34 20 -5 20 -6 4
-25z m-215 -20 c-8 -13 -12 -27 -11 -32 2 -5 -4 -6 -12 -3 -10 4 -13 1 -9 -9
4 -10 -2 -17 -16 -21 -11 -3 -18 -10 -15 -15 4 -6 -2 -8 -15 -3 -16 5 -20 3
-15 -9 6 -16 -5 -21 -35 -17 -7 2 -10 -2 -7 -8 6 -9 -31 -37 -39 -29 -6 6 63
90 86 106 18 12 23 13 30 1 7 -11 9 -10 9 4 0 11 9 21 20 24 11 3 17 9 14 15
-3 5 0 16 7 25 18 21 23 0 8 -29z m-1389 22 c0 -5 -2 -10 -4 -10 -3 0 -8 5
-11 10 -3 6 -1 10 4 10 6 0 11 -4 11 -10z m1626 -35 c-24 -56 -51 -86 -65 -72
-8 8 -11 5 -11 -12 0 -18 -4 -21 -20 -16 -11 4 -20 2 -20 -4 0 -6 6 -11 13
-11 7 -1 4 -6 -7 -15 -24 -19 -165 -69 -172 -62 -12 11 9 29 27 24 14 -4 21 1
25 20 5 20 11 23 32 18 19 -5 23 -3 19 9 -4 10 10 24 46 44 29 16 72 50 97 75
24 26 46 45 48 43 2 -2 -4 -20 -12 -41z m-1776 20 c7 -8 8 -15 2 -15 -5 0 -15
7 -22 15 -7 8 -8 15 -2 15 5 0 15 -7 22 -15z m350 5 c0 -5 -6 -10 -14 -10 -8
0 -18 5 -21 10 -3 6 3 10 14 10 12 0 21 -4 21 -10z m1294 -41 c-27 -27 -69
-64 -94 -81 -25 -17 -51 -38 -57 -46 -12 -14 -15 -14 -27 4 -13 16 -12 20 1
27 8 5 17 6 20 3 4 -3 1 -6 -6 -6 -7 0 -9 -5 -6 -10 10 -15 35 8 29 25 -6 14
71 95 90 95 6 0 -8 -16 -31 -36 -40 -33 -54 -54 -35 -54 4 0 39 29 77 65 83
77 110 87 39 14z m-1440 5 c13 -19 27 -35 30 -34 4 0 19 -9 33 -20 22 -17 24
-23 13 -30 -8 -5 -11 -12 -7 -16 3 -4 13 -1 22 6 26 22 16 5 -12 -19 -20 -18
-25 -19 -20 -7 6 14 3 16 -16 11 l-22 -7 22 17 c22 15 22 17 7 40 -13 20 -20
23 -34 15 -25 -13 -40 -13 -40 1 0 6 7 9 15 5 22 -8 18 17 -5 32 -11 7 -20 19
-20 27 0 23 7 18 34 -21z m79 22 c3 -8 0 -17 -8 -19 -15 -7 -25 1 -25 20 0 17
26 17 33 -1z m1431 -13 c-10 -8 -28 -22 -39 -32 -36 -30 -51 -36 -30 -10 48
59 58 67 72 62 14 -5 13 -8 -3 -20z m-291 -15 c-10 -11 -31 -27 -48 -35 -29
-15 -29 -14 9 25 39 40 75 49 39 10z m-1326 -25 c6 -8 16 -12 21 -9 5 3 15 -1
22 -9 6 -7 18 -11 25 -9 7 3 18 -4 25 -15 9 -17 8 -21 -5 -21 -10 0 -13 5 -9
12 5 7 2 9 -8 5 -16 -6 -76 30 -118 72 l-25 24 30 -18 c17 -9 35 -24 42 -32z
m313 31 c0 -8 -5 -12 -10 -9 -6 4 -8 11 -5 16 9 14 15 11 15 -7z m-242 -33 c3
-9 -5 -7 -22 4 -14 10 -26 22 -26 27 0 13 43 -15 48 -31z m171 22 c9 -16 12
-16 21 -3 5 8 10 12 10 8 0 -3 3 -14 7 -24 5 -13 3 -16 -10 -11 -8 3 -17 1
-19 -5 -3 -8 -15 -5 -36 7 -36 22 -40 31 -14 38 29 8 31 7 41 -10z m558 -7
c-14 -11 -15 -15 -5 -20 7 -3 4 -4 -8 -1 -11 3 -37 -1 -57 -10 -38 -16 -65
-20 -53 -8 8 9 116 51 131 52 6 0 2 -6 -8 -13z m-152 -16 c-3 -5 -11 -10 -16
-10 -6 0 -7 5 -4 10 3 6 11 10 16 10 6 0 7 -4 4 -10z m-281 -62 c-3 -4 2 -8
10 -8 9 0 17 -6 18 -12 0 -7 2 -18 2 -24 1 -6 9 -19 19 -29 22 -21 14 -33 -10
-14 -10 8 -14 9 -10 2 8 -12 -11 -11 -54 2 -15 5 -17 10 -9 26 10 18 8 20 -15
19 -10 -1 -65 34 -65 41 0 4 -11 10 -25 13 -14 4 -25 11 -25 16 0 13 71 -23
89 -43 6 -8 20 -13 30 -10 13 3 23 -5 35 -31 18 -39 31 -49 21 -16 -4 13 -2
20 7 20 10 1 9 4 -2 13 -24 19 -70 78 -70 89 0 5 13 -3 29 -18 17 -15 28 -31
25 -36z m510 25 c-27 -20 -61 -47 -75 -60 -26 -24 -27 -24 -80 -9 -29 9 -64
16 -77 16 -34 0 -22 10 40 33 86 31 89 31 82 13 -8 -21 5 -21 21 1 11 15 15
15 29 4 13 -11 16 -11 16 1 0 8 15 20 33 26 58 18 61 13 11 -25z m-570 11 c4
-9 4 -19 1 -22 -3 -3 -5 0 -5 6 0 7 -7 12 -16 12 -8 0 -12 5 -9 10 9 15 22 12
29 -6z m93 -15 c1 -19 1 -20 -4 -4 -3 11 -10 24 -17 28 -7 6 -6 7 4 4 8 -2 16
-14 17 -28z m208 21 c-3 -5 -15 -10 -25 -10 -10 0 -21 -4 -24 -9 -3 -5 -17
-11 -30 -13 -17 -4 -23 -1 -19 9 3 7 16 13 28 13 13 0 27 5 30 10 3 6 15 10
26 10 11 0 17 -4 14 -10z m-145 -11 c12 -8 10 -9 -9 -4 -16 5 -21 4 -17 -4 4
-6 0 -11 -8 -11 -19 0 -21 16 -3 23 18 8 21 8 37 -4z m-315 -9 c3 -5 -1 -10
-9 -10 -9 0 -16 5 -16 10 0 6 4 10 9 10 6 0 13 -4 16 -10z m1115 -21 c-12 -16
-28 -28 -35 -25 -8 3 -15 0 -17 -5 -2 -5 -18 -12 -37 -14 -18 -2 -39 -9 -47
-16 -7 -6 -19 -9 -26 -6 -8 4 -5 8 10 12 12 4 22 12 22 17 0 5 4 7 9 4 5 -4
11 -2 13 3 3 9 104 59 121 60 5 1 -1 -13 -13 -30z m-590 17 c0 -2 -13 -9 -30
-15 -23 -7 -30 -7 -30 2 0 7 14 14 30 15 17 1 30 0 30 -2z m-610 -26 c14 -11
19 -20 12 -20 -7 0 -22 9 -34 20 -28 26 -11 26 22 0z m415 11 c-17 -17 -65
-24 -65 -11 0 7 7 10 15 6 8 -3 15 -1 15 4 0 6 10 10 22 10 14 0 18 -4 13 -9z
m120 -1 c-3 -5 -13 -10 -21 -10 -8 0 -14 5 -14 10 0 6 9 10 21 10 11 0 17 -4
14 -10z m-341 -26 c9 -8 16 -20 16 -26 0 -6 6 -6 15 2 12 10 15 10 15 -1 0
-11 3 -11 11 1 9 13 10 13 6 0 -2 -8 -12 -14 -22 -12 -11 2 -14 -1 -10 -8 6
-9 2 -9 -15 0 -12 6 -19 14 -16 17 3 3 -5 14 -17 24 -12 10 -17 18 -10 19 6 0
19 -7 27 -16z m253 4 c2 6 9 12 15 12 6 0 6 -6 -2 -15 -10 -12 -9 -15 8 -15
11 0 22 -6 25 -12 3 -10 10 -8 25 5 15 14 24 16 39 8 10 -6 44 -15 76 -21 33
-7 55 -16 51 -21 -3 -6 -13 -8 -22 -4 -8 3 -19 0 -23 -7 -6 -9 -11 -9 -23 1
-13 11 -16 11 -16 1 0 -25 -99 -2 -141 32 -22 17 -39 36 -39 42 0 6 5 4 11 -4
8 -11 12 -12 16 -2z m-397 -8 c0 -5 -4 -10 -10 -10 -5 0 -10 5 -10 10 0 6 5
10 10 10 6 0 10 -4 10 -10z m96 3 c-3 -4 4 -13 16 -20 15 -8 18 -12 8 -13 -13
0 -13 -1 0 -10 8 -5 10 -10 4 -10 -14 0 -45 45 -37 54 4 3 9 6 11 6 3 0 2 -3
-2 -7z m1154 -29 c0 -8 -4 -14 -10 -14 -5 0 -7 6 -4 14 4 11 0 13 -18 9 -21
-6 -22 -5 -9 10 10 13 17 15 27 6 8 -6 14 -18 14 -25z m-874 -24 c5 1 -4 12
-21 25 -16 14 -25 25 -20 25 16 0 60 -43 63 -62 4 -22 -1 -22 -36 -2 -25 15
-25 15 -8 0 21 -17 11 -22 -13 -7 -7 5 -11 14 -7 20 4 5 -2 16 -14 23 -11 7
-20 16 -20 21 0 4 15 -3 33 -17 19 -15 38 -26 43 -26z m604 46 c0 -3 -4 -8
-10 -11 -5 -3 -10 -1 -10 4 0 6 5 11 10 11 6 0 10 -2 10 -4z m210 -5 c0 -10
-61 -34 -68 -27 -3 4 40 27 66 35 1 1 2 -3 2 -8z m-247 -17 c-4 -10 -14 -14
-29 -11 -14 2 -24 -1 -24 -7 0 -7 -19 -11 -50 -10 -27 1 -50 -2 -50 -7 0 -5
-7 -9 -16 -9 -13 0 -13 2 -2 13 10 10 110 37 170 46 4 1 5 -6 1 -15z m-870
-11 c-19 -7 -16 -21 5 -19 12 1 16 -5 15 -21 -2 -13 2 -23 7 -23 6 0 10 5 10
12 0 7 17 -4 38 -23 52 -50 91 -75 139 -89 30 -9 40 -17 36 -27 -5 -12 -1 -14
17 -8 21 7 39 -6 40 -27 0 -11 -107 -21 -152 -14 -47 8 -92 35 -70 43 21 8 13
21 -10 15 -18 -4 -20 -2 -15 17 4 17 2 21 -12 16 -16 -5 -39 33 -89 147 -2 5
9 8 25 7 15 0 22 -3 16 -6z m1127 -3 c0 -5 -4 -10 -10 -10 -5 0 -10 5 -10 10
0 6 5 10 10 10 6 0 10 -4 10 -10z m-87 -7 c3 -5 -6 -9 -19 -9 -13 -1 -21 2
-18 7 6 11 31 12 37 2z m47 -13 c-8 -5 -17 -7 -19 -4 -3 3 1 9 9 14 8 5 17 7
19 4 3 -3 -1 -9 -9 -14z m110 6 c0 -7 -9 -16 -20 -19 -25 -6 -26 8 -2 22 22
13 22 13 22 -3z m-1094 -27 c19 -11 32 -25 28 -30 -3 -5 4 -9 15 -9 12 0 21
-7 21 -15 0 -8 5 -15 10 -15 6 0 10 4 10 10 0 13 62 -22 68 -38 2 -7 -1 -12
-8 -12 -25 0 -117 52 -160 89 -48 43 -39 54 16 20z m69 4 c20 -3 37 -15 47
-34 19 -32 7 -40 -14 -11 -13 18 -38 32 -67 38 -7 1 -19 8 -25 15 -8 9 -6 10
9 5 11 -4 34 -10 50 -13z m209 -15 c-6 -10 -44 9 -44 21 0 5 11 4 24 -2 13 -7
22 -15 20 -19z m290 16 c5 -13 3 -14 -7 -6 -8 7 -18 7 -27 2 -19 -12 -30 -12
-30 -1 0 5 10 12 23 14 12 2 25 5 28 6 4 0 10 -6 13 -15z m302 -7 c-25 -18
-127 -21 -120 -4 2 7 24 14 50 15 32 1 43 -2 38 -10 -4 -6 3 -4 16 5 28 19 42
13 16 -6z m174 13 c0 -5 -8 -10 -17 -10 -15 0 -16 2 -3 10 19 12 20 12 20 0z
m-555 -10 c-3 -5 -10 -10 -16 -10 -5 0 -9 5 -9 10 0 6 7 10 16 10 8 0 12 -4 9
-10z m465 0 c0 -5 -6 -10 -12 -10 -7 0 -24 -3 -38 -6 -17 -5 -22 -3 -15 4 9 9
30 17 58 21 4 0 7 -3 7 -9z m-303 -6 c-3 -3 -12 -4 -19 -1 -8 3 -5 6 6 6 11 1
17 -2 13 -5z m83 -4 c0 -5 -7 -10 -15 -10 -8 0 -15 5 -15 10 0 6 7 10 15 10 8
0 15 -4 15 -10z m-570 -20 c-19 -12 -30 -12 -30 -1 0 10 31 20 40 14 2 -2 -2
-8 -10 -13z m155 10 c4 -7 12 -7 25 0 10 5 31 9 47 9 18 -1 22 -3 10 -6 -18
-5 -18 -5 0 -18 15 -11 21 -11 35 1 11 10 18 12 23 5 3 -6 -1 -11 -10 -11 -9
0 -14 -4 -10 -10 3 -5 12 -7 20 -3 8 3 15 0 15 -7 0 -14 -63 -6 -68 9 -5 16
-22 13 -22 -2 0 -9 -11 -13 -31 -12 -17 1 -38 -5 -46 -13 -19 -19 -118 -29
-127 -13 -5 8 11 11 52 11 42 0 63 5 72 15 7 9 19 14 27 11 7 -3 13 -3 13 0 0
2 -11 9 -25 14 -14 5 -25 14 -25 20 0 13 17 13 25 0z m372 4 c-3 -3 -12 -4
-19 -1 -8 3 -5 6 6 6 11 1 17 -2 13 -5z m-463 -19 c20 -9 41 -13 46 -10 5 3
11 1 15 -5 4 -6 -20 -10 -66 -10 -72 0 -72 0 -53 19 10 11 20 20 20 20 1 1 18
-6 38 -14z m286 5 c0 -5 -7 -10 -15 -10 -8 0 -15 5 -15 10 0 6 7 10 15 10 8 0
15 -4 15 -10z m450 5 c0 -2 -14 -12 -32 -21 -18 -9 -38 -23 -46 -30 -7 -8 -18
-12 -23 -8 -12 7 -2 24 15 24 8 0 19 7 26 15 7 8 16 13 20 10 5 -3 11 -1 15 5
6 10 25 14 25 5z m-393 -16 c-9 -5 -21 -8 -26 -4 -17 10 -21 -13 -4 -26 16
-14 173 -21 173 -8 0 8 42 20 48 14 13 -13 -57 -29 -136 -31 -53 -2 -100 -8
-108 -15 -7 -6 -20 -9 -28 -6 -7 3 -17 2 -22 -2 -5 -5 -22 -11 -39 -15 -28 -6
-29 -5 -11 9 11 8 28 15 38 15 10 0 17 4 16 10 -6 19 57 68 87 69 25 0 27 -1
12 -10z m108 1 c14 -6 5 -9 -35 -9 -40 0 -49 3 -35 9 11 5 27 9 35 9 8 0 24
-4 35 -9z m142 -9 c2 -23 -18 -33 -38 -20 -11 7 -11 9 -1 9 7 0 10 5 6 12 -4
6 -3 8 4 4 6 -3 13 -2 17 4 9 14 11 13 12 -9z m-59 2 c-10 -2 -26 -2 -35 0
-10 3 -2 5 17 5 19 0 27 -2 18 -5z m102 3 c0 -3 -4 -8 -10 -11 -5 -3 -10 -1
-10 4 0 6 5 11 10 11 6 0 10 -2 10 -4z m-252 -23 c-10 -2 -26 -2 -35 0 -10 3
-2 5 17 5 19 0 27 -2 18 -5z m-265 -36 c16 10 77 12 77 3 0 -13 -97 -40 -142
-40 -62 0 -80 16 -27 23 23 3 49 13 58 22 14 14 16 14 19 0 2 -9 8 -12 15 -8z
m497 14 c0 -5 -7 -11 -15 -15 -15 -5 -20 5 -8 17 9 10 23 9 23 -2z m-60 -23
c-32 -12 -51 -3 -20 10 14 5 29 7 34 4 5 -3 -1 -9 -14 -14z m-591 3 c8 -5 9
-11 3 -15 -5 -3 -15 1 -22 9 -14 16 -3 20 19 6z m461 -1 c0 -5 -5 -10 -11 -10
-5 0 -7 5 -4 10 3 6 8 10 11 10 2 0 4 -4 4 -10z m-410 -49 c0 -5 -7 -11 -15
-15 -9 -3 -15 0 -15 9 0 8 7 15 15 15 8 0 15 -4 15 -9z m40 -1 c0 -5 -7 -10
-16 -10 -8 0 -12 5 -9 10 3 6 10 10 16 10 5 0 9 -4 9 -10z"/>
<path d="M1250 2410 c0 -13 18 -22 24 -11 3 5 -1 11 -9 15 -8 3 -15 1 -15 -4z"/>
<path d="M873 2067 c-1 -11 -1 -18 0 -16 2 2 8 11 15 20 9 12 9 16 -1 16 -7 0
-14 -9 -14 -20z"/>
<path d="M1516 2113 c-6 -14 -5 -15 5 -6 7 7 10 15 7 18 -3 3 -9 -2 -12 -12z"/>
<path d="M1600 1970 c8 -5 22 -10 30 -10 13 0 13 1 0 10 -8 5 -22 10 -30 10
-13 0 -13 -1 0 -10z"/>
<path d="M1623 1913 c0 -9 4 -10 14 -2 7 6 13 12 13 14 0 1 -6 2 -13 2 -8 0
-14 -6 -14 -14z"/>
<path d="M1230 1930 c0 -5 5 -10 11 -10 5 0 7 5 4 10 -3 6 -8 10 -11 10 -2 0
-4 -4 -4 -10z"/>
<path d="M1208 1903 c7 -3 16 -2 19 1 4 3 -2 6 -13 5 -11 0 -14 -3 -6 -6z"/>
<path d="M1350 936 c0 -2 8 -10 18 -17 15 -13 16 -12 3 4 -13 16 -21 21 -21
13z"/>
<path d="M1215 1770 c-8 -13 5 -13 25 0 13 8 13 10 -2 10 -9 0 -20 -4 -23 -10z"/>
<path d="M1245 1750 c-3 -5 3 -10 14 -10 12 0 21 5 21 10 0 6 -6 10 -14 10 -8
0 -18 -4 -21 -10z"/>
<path d="M1216 1663 c-3 -10 -8 -51 -12 -90 -6 -70 -6 -73 15 -73 40 0 78 28
95 70 21 53 20 56 -9 85 -29 30 -81 34 -89 8z m72 -26 c15 -10 16 -47 1 -47
-5 0 -8 -4 -4 -9 3 -5 -4 -16 -15 -24 -11 -7 -18 -16 -15 -19 3 -2 -2 -5 -10
-5 -13 0 -15 10 -11 51 3 28 5 54 5 58 1 9 31 6 49 -5z"/>
<path d="M1181 1574 c0 -11 3 -14 6 -6 3 7 2 16 -1 19 -3 4 -6 -2 -5 -13z"/>
<path d="M1616 1685 c-9 -26 -7 -32 5 -12 6 10 9 21 6 23 -2 3 -7 -2 -11 -11z"/>
<path d="M2225 1600 c-4 -6 5 -10 19 -10 14 0 26 5 26 10 0 6 -9 10 -19 10
-11 0 -23 -4 -26 -10z"/>
<path d="M2190 1560 c0 -5 5 -10 10 -10 6 0 10 5 10 10 0 6 -4 10 -10 10 -5 0
-10 -4 -10 -10z"/>
<path d="M2171 1524 c0 -11 3 -14 6 -6 3 7 2 16 -1 19 -3 4 -6 -2 -5 -13z"/>
<path d="M1575 1440 c-4 -6 3 -10 14 -10 25 0 27 6 6 13 -8 4 -17 2 -20 -3z"/>
<path d="M1971 1434 c0 -11 3 -14 6 -6 3 7 2 16 -1 19 -3 4 -6 -2 -5 -13z"/>
<path d="M1180 1409 c0 -5 5 -7 10 -4 6 3 10 8 10 11 0 2 -4 4 -10 4 -5 0 -10
-5 -10 -11z"/>
<path d="M1575 1400 c-3 -5 -2 -10 4 -10 5 0 13 5 16 10 3 6 2 10 -4 10 -5 0
-13 -4 -16 -10z"/>
<path d="M1473 1393 c-34 -7 -28 -20 7 -15 16 2 27 8 24 13 -3 5 -6 8 -7 8 -1
-1 -12 -4 -24 -6z"/>
<path d="M1942 1380 c-7 -12 -8 -20 -2 -20 5 0 10 6 10 13 0 8 4 7 10 -3 5 -8
10 -10 10 -5 0 6 -4 15 -8 22 -6 9 -11 7 -20 -7z"/>
<path d="M1171 1380 c-12 -7 -8 -10 15 -15 16 -4 35 -8 42 -11 7 -2 10 1 7 6
-3 6 -15 10 -25 10 -10 0 -20 4 -22 10 -2 6 -9 6 -17 0z"/>
<path d="M1588 1383 c-12 -3 -17 -18 -20 -61 -5 -67 8 -92 17 -36 4 22 11 52
16 68 10 33 10 34 -13 29z"/>
<path d="M1520 1318 c-3 -31 -1 -53 3 -49 5 5 7 30 5 57 l-3 49 -5 -57z"/>
<path d="M1135 1330 c3 -5 11 -10 16 -10 6 0 7 5 4 10 -3 6 -11 10 -16 10 -6
0 -7 -4 -4 -10z"/>
<path d="M1325 1290 c3 -5 8 -10 11 -10 2 0 4 5 4 10 0 6 -5 10 -11 10 -5 0
-7 -4 -4 -10z"/>
<path d="M1347 1273 c-4 -3 -7 -11 -7 -17 0 -6 5 -5 12 2 6 6 9 14 7 17 -3 3
-9 2 -12 -2z"/>
<path d="M1300 1245 c-7 -8 -8 -15 -2 -15 5 0 15 7 22 15 7 8 8 15 2 15 -5 0
-15 -7 -22 -15z"/>
<path d="M1523 1205 c0 -22 2 -30 4 -17 2 12 2 30 0 40 -3 9 -5 -1 -4 -23z"/>
<path d="M1547 1198 c8 -44 13 -48 13 -10 0 17 -4 34 -10 37 -6 4 -7 -6 -3
-27z"/>
<path d="M1215 1202 c33 -3 37 -6 20 -13 -19 -8 -19 -9 -1 -6 11 1 21 8 24 15
2 8 -9 12 -40 10 l-43 -1 40 -5z"/>
<path d="M1305 1190 c-3 -6 -23 -19 -43 -30 -22 -11 -30 -19 -20 -20 10 0 32
13 50 30 18 16 30 30 26 30 -4 0 -10 -5 -13 -10z"/>
<path d="M940 479 c0 -5 5 -7 10 -4 6 3 10 8 10 11 0 2 -4 4 -10 4 -5 0 -10
-5 -10 -11z"/>
<path d="M1520 444 c0 -8 5 -12 10 -9 6 3 10 10 10 16 0 5 -4 9 -10 9 -5 0
-10 -7 -10 -16z"/>
<path d="M405 2331 c-3 -5 -2 -12 3 -15 5 -3 9 1 9 9 0 17 -3 19 -12 6z"/>
</g>
</svg>
