<?xml version="1.0" standalone="no"?>
<!DOCTYPE svg PUBLIC "-//W3C//DTD SVG 20010904//EN"
 "http://www.w3.org/TR/2001/REC-SVG-20010904/DTD/svg10.dtd">
<svg version="1.0" xmlns="http://www.w3.org/2000/svg"
 width="300.000000pt" height="100.000000pt" viewBox="0 0 300.000000 100.000000"
 preserveAspectRatio="xMidYMid meet">
<metadata>
Created by potrace 1.10, written by Peter Selinger 2001-2011
</metadata>
<g transform="translate(0.000000,100.000000) scale(0.100000,-0.100000)"
fill="#000000" stroke="none">
<path d="M20 979 c-11 -19 -10 -20 9 -10 26 14 34 14 29 -1 -3 -7 -11 -13 -19
-13 -16 0 -19 -33 -4 -54 8 -12 6 -13 -8 -8 -24 9 -21 2 8 -17 14 -9 25 -13
24 -9 -1 4 -1 15 0 23 1 12 3 12 9 2 11 -16 3 -74 -9 -66 -5 3 -7 9 -5 13 3 4
-4 12 -14 19 -14 9 -21 8 -30 -3 -8 -10 -8 -15 1 -20 8 -6 7 -10 -2 -16 -11
-7 -10 -9 4 -9 20 0 22 11 5 28 -9 9 -9 12 3 12 8 0 20 -9 26 -20 11 -16 10
-21 -5 -29 -16 -10 -16 -10 1 -11 9 0 17 6 17 13 1 6 7 1 14 -12 9 -16 15 -19
18 -11 5 15 38 23 38 9 0 -5 -8 -9 -17 -9 -17 -1 -17 -1 0 -11 10 -6 24 -8 32
-5 8 3 15 0 18 -7 2 -8 5 -8 11 1 4 7 2 12 -5 12 -7 0 -3 8 8 18 12 9 20 28
19 42 -1 18 6 26 24 31 l25 7 -27 1 c-16 1 -29 -3 -29 -9 -1 -5 -2 -20 -3 -32
0 -13 -9 -24 -18 -26 -17 -3 -18 20 -3 51 4 6 0 4 -8 -5 -8 -10 -18 -14 -23
-10 -4 4 -3 0 4 -10 17 -21 6 -27 -35 -19 -5 1 -1 6 7 12 13 9 13 10 0 6 -8
-2 -16 -9 -16 -15 -3 -25 -5 -27 -13 -13 -12 19 -3 41 18 41 9 0 27 9 41 20
21 17 23 21 10 29 -8 6 -17 8 -19 5 -3 -3 0 -9 7 -13 9 -5 5 -11 -13 -19 -32
-15 -45 -15 -45 -1 0 5 4 8 8 5 4 -2 14 0 22 6 12 8 12 9 -2 4 -10 -3 -19 -2
-22 2 -6 11 27 48 42 46 6 -1 17 -2 23 -3 5 0 8 -5 5 -9 -3 -5 1 -9 9 -9 8 0
16 6 19 13 3 9 -1 11 -11 7 -11 -4 -14 -2 -9 5 5 8 1 10 -10 5 -11 -4 -15 -3
-10 5 3 6 2 13 -4 17 -5 3 -10 -2 -11 -12 0 -10 -3 -13 -6 -5 -2 6 -9 12 -14
12 -6 0 -7 -5 -3 -11 4 -8 0 -9 -15 -4 -12 4 -21 2 -21 -4 0 -6 4 -10 9 -8 5
1 9 -2 10 -8 1 -8 -14 -10 -49 -6 -5 1 -7 8 -3 17 5 13 8 13 15 2 6 -9 8 -8 6
7 -2 16 2 19 20 17 21 -3 22 -1 13 16 -6 11 -9 21 -8 23 1 3 -2 1 -7 -3 -5 -4
-17 -3 -27 3 -14 7 -21 5 -29 -12z m130 -194 c0 -8 -4 -15 -10 -15 -5 0 -7 7
-4 15 4 8 8 15 10 15 2 0 4 -7 4 -15z"/>
<path d="M104 978 c0 -10 4 -18 8 -18 4 0 8 7 8 15 0 8 5 15 11 15 5 0 7 -6 3
-12 -4 -7 -3 -10 1 -5 5 4 18 -2 30 -13 20 -19 21 -19 21 0 0 10 -4 16 -8 14
-4 -3 -13 -2 -19 2 -8 5 -8 9 1 14 7 4 -2 7 -22 7 -25 -1 -34 -5 -34 -19z"/>
<path d="M198 993 c7 -3 16 -2 19 1 4 3 -2 6 -13 5 -11 0 -14 -3 -6 -6z"/>
<path d="M251 984 c0 -11 3 -14 6 -6 3 7 2 16 -1 19 -3 4 -6 -2 -5 -13z"/>
<path d="M282 988 c7 -4 8 -8 2 -8 -6 0 -11 -7 -11 -16 0 -14 2 -14 14 2 7 10
20 19 29 20 30 5 24 11 -11 11 -23 0 -31 -3 -23 -9z"/>
<path d="M463 985 c0 -8 4 -12 9 -9 5 3 6 10 3 15 -9 13 -12 11 -12 -6z"/>
<path d="M536 985 c-3 -8 -1 -15 4 -15 6 0 10 7 10 15 0 8 -2 15 -4 15 -2 0
-6 -7 -10 -15z"/>
<path d="M640 996 c0 -2 7 -7 16 -10 8 -3 12 -2 9 4 -6 10 -25 14 -25 6z"/>
<path d="M690 996 c0 -2 7 -7 16 -10 8 -3 12 -2 9 4 -6 10 -25 14 -25 6z"/>
<path d="M746 987 c3 -10 9 -15 12 -12 3 3 0 11 -7 18 -10 9 -11 8 -5 -6z"/>
<path d="M880 990 c-8 -5 -10 -10 -5 -10 6 0 17 5 25 10 8 5 11 10 5 10 -5 0
-17 -5 -25 -10z"/>
<path d="M926 992 c-2 -4 -1 -14 4 -22 7 -11 9 -9 7 8 -1 24 -3 26 -11 14z"/>
<path d="M1003 985 c0 -8 4 -12 9 -9 5 3 6 10 3 15 -9 13 -12 11 -12 -6z"/>
<path d="M1053 985 c0 -8 4 -12 9 -9 5 3 6 10 3 15 -9 13 -12 11 -12 -6z"/>
<path d="M1121 983 c12 -15 12 -16 -4 -10 -11 4 -16 3 -12 -4 4 -6 13 -8 20
-5 7 2 19 -1 26 -7 8 -7 3 0 -10 16 -26 29 -42 38 -20 10z"/>
<path d="M1156 989 c4 -8 30 -6 38 2 3 3 -5 5 -19 5 -13 0 -22 -3 -19 -7z"/>
<path d="M1326 991 c-3 -5 1 -14 8 -20 10 -9 16 -9 21 -1 4 6 1 9 -7 8 -7 -2
-12 3 -10 10 2 14 -4 16 -12 3z"/>
<path d="M2054 992 c4 -3 14 -7 22 -8 9 -1 13 0 10 4 -4 3 -14 7 -22 8 -9 1
-13 0 -10 -4z"/>
<path d="M2235 991 c-3 -5 -2 -12 3 -15 5 -3 9 1 9 9 0 17 -3 19 -12 6z"/>
<path d="M2295 990 c-3 -6 1 -7 9 -4 18 7 21 14 7 14 -6 0 -13 -4 -16 -10z"/>
<path d="M2402 983 c7 -9 15 -10 29 -2 14 7 19 6 19 -3 0 -10 2 -10 9 1 6 9
10 10 14 2 4 -8 5 -7 3 1 -1 7 -20 13 -44 13 -32 1 -39 -2 -30 -12z"/>
<path d="M2494 983 c2 -10 -1 -29 -6 -42 -7 -19 -5 -27 6 -33 19 -10 26 -11
26 0 0 4 -4 7 -10 7 -5 0 -9 5 -7 10 1 6 5 9 10 8 4 -2 7 4 7 13 0 8 4 13 10
9 5 -3 7 -12 4 -20 -6 -15 20 -15 33 0 4 4 2 5 -4 1 -8 -4 -13 -1 -13 8 0 9
-4 17 -10 17 -5 1 -16 2 -22 3 -7 0 -13 6 -13 13 0 6 -3 14 -7 18 -3 4 -5 -1
-4 -12z"/>
<path d="M2520 989 c0 -5 5 -7 10 -4 6 3 10 8 10 11 0 2 -4 4 -10 4 -5 0 -10
-5 -10 -11z"/>
<path d="M2575 983 c1 -10 7 -28 13 -40 10 -19 10 -23 0 -23 -9 0 -9 -3 2 -10
12 -7 12 -12 2 -22 -9 -9 -12 -9 -12 2 0 7 -3 10 -7 7 -3 -4 -13 -1 -22 6 -14
11 -14 10 -2 -5 7 -10 11 -25 7 -33 -3 -8 0 -15 7 -15 8 0 8 -3 -2 -9 -9 -6
-10 -11 -2 -15 15 -10 14 -29 -1 -23 -7 2 -14 13 -14 25 -1 12 -2 28 -3 36 0
8 -11 13 -25 12 l-24 -1 27 -24 c16 -16 21 -26 13 -29 -6 -2 -12 -8 -12 -13 0
-6 4 -8 9 -4 5 3 12 1 16 -5 3 -5 0 -10 -7 -10 -10 0 -9 -3 2 -10 13 -8 13 -9
0 -14 -42 -13 -44 -14 -23 -15 12 -1 25 4 28 9 4 6 12 7 18 3 7 -4 5 1 -3 12
-14 17 -13 17 9 10 44 -14 56 -13 72 7 10 13 16 15 16 7 0 -8 3 -24 7 -36 5
-14 3 -23 -3 -23 -6 0 -11 8 -12 18 0 15 -1 15 -8 -2 -5 -14 -10 -16 -15 -8
-4 7 -13 12 -19 12 -7 0 -4 -7 6 -14 20 -15 23 -42 5 -49 -10 -4 -10 -6 0 -6
8 -1 16 8 19 20 4 14 12 19 24 16 11 -3 19 2 22 15 4 13 10 17 18 12 7 -4 10
-3 5 4 -3 6 -1 14 5 17 7 5 9 -1 7 -16 -2 -13 -9 -23 -15 -22 -6 1 -9 -6 -6
-17 4 -15 0 -20 -13 -20 -16 0 -17 -2 -4 -10 12 -8 10 -10 -10 -11 -14 -1 -40
-1 -57 0 -19 2 -33 -2 -33 -9 0 -6 -5 -8 -12 -4 -10 6 -10 5 -1 -8 7 -8 11
-18 8 -21 -3 -4 -2 -4 3 -1 4 3 7 11 7 17 0 7 8 11 18 11 49 -4 48 -3 37 -24
-6 -11 -15 -18 -20 -15 -6 4 -7 -2 -3 -12 5 -15 3 -16 -8 -5 -7 6 -18 12 -23
12 -6 0 0 -7 12 -16 12 -8 20 -19 17 -24 -3 -4 1 -13 9 -19 11 -9 15 -9 18 0
3 9 9 9 26 0 24 -13 29 -6 9 12 -18 17 -37 19 -37 5 0 -9 -3 -9 -9 1 -11 18 5
55 20 46 5 -4 9 -2 9 4 0 6 7 8 16 4 13 -5 13 -7 2 -14 -7 -5 -8 -9 -2 -9 5 0
14 4 20 9 11 10 54 -4 54 -18 0 -16 28 -20 34 -4 4 11 2 14 -9 9 -8 -3 -15 -1
-15 4 0 5 -11 12 -25 16 -22 5 -24 9 -13 22 10 12 10 14 1 8 -7 -4 -13 -3 -13
3 0 5 3 11 8 14 4 2 1 2 -5 1 -7 -2 -13 4 -13 12 0 8 4 13 9 10 5 -4 7 3 4 14
-4 16 -1 18 18 15 12 -3 26 -10 31 -17 5 -9 8 -10 8 -1 0 6 -8 18 -18 25 -20
14 -36 58 -21 58 5 0 9 -10 10 -22 l0 -23 9 22 c14 35 48 20 45 -20 -2 -18 -4
-34 -5 -37 -1 -3 -2 -8 -1 -12 0 -5 -6 -8 -15 -8 -8 0 -12 -5 -9 -11 5 -7 16
-2 31 12 13 12 24 17 24 11 0 -6 -4 -14 -10 -17 -5 -3 -10 -15 -10 -26 0 -10
-5 -19 -11 -19 -5 0 -7 5 -4 10 3 6 1 10 -4 10 -6 0 -11 -4 -11 -10 0 -5 0
-13 0 -17 0 -5 8 -8 17 -9 10 -1 28 -4 41 -8 26 -9 29 6 5 25 -11 10 -14 10
-9 2 4 -8 2 -13 -7 -13 -18 0 -11 44 9 61 17 14 19 -2 2 -19 -9 -9 -8 -12 5
-12 9 0 20 -8 26 -17 8 -15 12 -16 23 -4 8 8 8 11 1 7 -8 -5 -11 9 -9 51 2 56
-10 103 -27 103 -5 0 -6 4 -3 9 3 5 -6 20 -20 34 -17 17 -21 26 -12 30 10 3 8
9 -5 25 -11 12 -14 22 -8 26 5 4 12 -3 16 -14 4 -11 11 -18 16 -14 5 3 6 10 3
16 -4 6 0 15 7 20 11 8 10 9 -3 5 -22 -7 -38 11 -38 42 0 5 -7 11 -15 15 -14
5 -14 2 0 -24 19 -37 19 -51 0 -26 -8 11 -15 16 -15 10 0 -5 -9 5 -20 21 -11
17 -20 25 -20 18 0 -6 5 -15 10 -18 8 -5 7 -11 0 -20 -13 -16 -40 -9 -40 10 0
7 -7 18 -16 25 -12 11 -15 11 -12 0 2 -7 -8 -16 -22 -20 -24 -6 -24 -6 -3 -12
12 -3 26 -1 31 4 6 6 11 4 15 -5 4 -11 -2 -15 -29 -13 -19 1 -34 -2 -34 -6 0
-13 -28 -9 -32 4 -6 16 16 38 36 38 9 0 16 4 16 9 0 14 -34 8 -48 -9 -9 -12
-12 -12 -10 -1 2 7 -2 15 -8 18 -6 2 -10 -4 -9 -14z m198 -49 c4 -1 10 -2 15
-3 4 -1 -2 -9 -13 -18 -15 -12 -16 -14 -3 -10 19 7 45 -18 29 -27 -5 -3 -11 0
-14 6 -2 7 -7 10 -11 6 -4 -3 8 -21 28 -38 19 -18 34 -35 33 -39 0 -3 5 -17
12 -30 11 -19 11 -22 -1 -18 -7 2 -12 10 -10 16 1 7 -2 10 -8 6 -6 -3 -8 -10
-5 -15 3 -5 1 -11 -5 -15 -5 -3 -10 3 -10 14 0 12 -6 22 -12 22 -7 1 -23 2
-35 3 -12 0 -24 4 -27 9 -3 4 -3 5 1 2 3 -3 12 3 20 13 8 9 12 12 9 5 -4 -6
-2 -15 4 -18 6 -4 9 -1 8 6 -2 7 5 15 14 17 13 2 16 -1 12 -11 -3 -8 -1 -18 5
-22 7 -4 10 2 8 16 -4 23 -42 45 -52 29 -3 -5 -11 -8 -18 -6 -7 1 -9 1 -5 -1
6 -4 -58 -73 -67 -73 -1 0 -5 14 -7 32 -4 21 1 37 13 49 18 18 18 19 -4 15
-12 -1 -22 -9 -22 -17 -1 -8 -7 -13 -14 -11 -7 1 -10 -2 -7 -7 16 -25 -11 -43
-44 -31 -3 1 -7 2 -10 2 -3 0 -5 11 -5 24 0 13 1 24 3 24 9 0 30 -28 25 -34
-4 -3 2 -6 12 -6 13 0 15 3 6 14 -9 10 -5 19 15 39 15 15 31 24 36 21 6 -4 13
-2 17 4 3 6 13 12 21 14 19 4 40 24 40 38 0 6 -10 2 -22 -10 -12 -11 -29 -20
-37 -20 -14 1 -13 3 1 14 10 7 14 17 10 21 -4 5 1 5 10 2 10 -3 20 -2 23 4 4
5 12 6 18 2 7 -4 15 -8 20 -9z m-133 -14 c-8 -5 -10 -10 -5 -10 6 0 -1 -9 -15
-20 -14 -11 -20 -20 -13 -20 6 0 15 5 18 10 4 6 12 7 18 4 7 -4 9 -3 4 1 -8 9
21 45 37 45 6 0 6 -4 -1 -11 -6 -6 -9 -19 -6 -28 4 -12 3 -13 -5 -3 -7 11 -10
11 -15 -2 -4 -9 -13 -16 -21 -16 -7 0 -16 -10 -19 -22 -4 -12 -10 -19 -14 -15
-14 14 -12 42 4 59 13 15 13 18 2 19 -8 0 -6 4 6 9 27 12 43 12 25 0z m-56
-55 c3 -8 1 -15 -4 -15 -6 0 -10 7 -10 15 0 8 2 15 4 15 2 0 6 -7 10 -15z
m286 -134 c0 -4 -3 -11 -7 -15 -11 -11 -10 -40 2 -49 6 -5 4 -7 -5 -4 -8 2
-14 11 -12 20 4 22 -31 40 -48 24 -7 -7 -3 3 9 20 19 28 25 31 42 23 10 -6 19
-14 19 -19z m-170 -71 c0 -5 0 -12 0 -15 0 -3 -3 -5 -7 -4 -5 1 -7 5 -5 10 1
6 -5 6 -16 0 -14 -8 -19 -6 -19 5 0 8 10 14 24 14 13 0 23 -4 23 -10z"/>
<path d="M2725 877 c-15 -12 -16 -15 -4 -22 8 -5 10 -4 6 0 -4 5 3 15 15 22
13 7 18 12 12 13 -5 0 -18 -6 -29 -13z"/>
<path d="M2745 860 c-3 -6 1 -7 9 -4 18 7 21 14 7 14 -6 0 -13 -4 -16 -10z"/>
<path d="M2687 833 c-4 -3 -7 -18 -7 -31 l0 -25 20 23 c24 28 26 37 3 19 -15
-12 -16 -12 -10 4 7 18 5 21 -6 10z"/>
<path d="M2850 731 c0 -7 -5 -9 -12 -5 -7 5 -8 3 -3 -5 5 -9 10 -10 18 -2 6 6
8 14 4 18 -4 3 -7 1 -7 -6z"/>
<path d="M2833 986 c3 -8 3 -17 -1 -19 -4 -2 -2 -2 5 -1 6 2 16 -11 22 -28 14
-41 14 -43 -6 -27 -14 12 -15 12 -9 0 5 -8 4 -16 -3 -20 -8 -5 0 -32 24 -88
41 -95 55 -150 35 -138 -9 5 -11 4 -6 -4 4 -6 11 -9 15 -7 4 3 7 -14 6 -36 -1
-31 -7 -45 -23 -56 -12 -8 -22 -21 -22 -28 0 -18 19 -18 26 -1 3 8 11 14 19
14 8 0 16 -6 16 -14 3 -27 4 -32 13 -40 5 -4 5 7 1 27 -4 19 -10 37 -14 40 -3
3 -7 23 -8 45 -1 34 2 29 18 -30 23 -88 23 -95 -1 -95 -11 0 -20 4 -20 9 0 8
-21 8 -40 1 -3 -1 -9 -2 -13 -1 -19 3 -114 12 -137 12 -29 1 -470 30 -485 32
-5 1 -12 4 -15 7 -3 3 -36 2 -75 -1 l-70 -5 63 -2 c35 -1 61 -5 59 -9 -3 -5
23 -6 56 -4 60 3 61 2 45 -16 -17 -18 -16 -19 15 -20 29 -1 29 -1 7 6 -22 6
-23 8 -7 14 32 12 94 8 107 -8 11 -13 6 -15 -31 -16 -36 -1 -39 -2 -16 -8 27
-6 27 -6 -18 -30 -46 -24 -46 -25 -23 -37 13 -7 47 -16 76 -20 l53 -6 -38 -24
c-39 -24 -69 -31 -58 -14 3 5 0 7 -9 4 -8 -3 -86 13 -174 35 -88 23 -162 41
-166 41 -3 0 -6 -7 -6 -16 0 -13 -3 -14 -13 -5 -8 6 -17 8 -20 4 -4 -3 -7 -1
-7 5 0 7 8 12 18 13 9 0 -5 7 -33 15 -63 17 -68 17 -61 -1 3 -8 1 -15 -4 -15
-6 0 -10 5 -10 11 0 5 -4 7 -10 4 -5 -3 -10 -2 -10 4 0 5 6 12 13 14 9 4 9 6
0 6 -6 1 -15 -3 -18 -9 -10 -17 -35 -11 -35 8 0 12 -3 13 -8 5 -6 -9 -23 -8
-71 8 -35 10 -73 17 -84 13 -12 -4 -17 -2 -13 4 3 5 -1 13 -10 16 -8 3 -12 2
-9 -4 3 -6 1 -10 -4 -10 -6 0 -11 5 -11 11 0 6 -7 8 -16 5 -8 -3 -12 -2 -9 3
7 12 -31 25 -45 16 -5 -3 -10 -1 -10 5 0 6 -4 8 -10 5 -5 -3 -16 -3 -22 2 -7
4 -18 8 -25 9 -31 5 -83 27 -83 35 0 14 -37 10 -54 -6 -8 -8 -21 -13 -28 -10
-7 3 -51 -6 -97 -20 -46 -13 -87 -22 -92 -19 -5 3 -9 0 -9 -6 0 -7 -7 -9 -16
-6 -10 4 -13 2 -8 -6 5 -7 0 -9 -14 -6 -12 4 -22 2 -22 -4 0 -6 -12 -8 -27 -4
-16 3 -22 3 -15 0 6 -3 12 -10 12 -15 0 -6 -9 -5 -21 1 -16 9 -34 6 -86 -11
-54 -18 -67 -19 -74 -8 -7 11 -9 10 -9 -3 0 -10 1 -21 3 -24 3 -9 -31 -21
-318 -110 -132 -41 -251 -79 -265 -84 -14 -5 -78 -25 -142 -45 -65 -20 -118
-41 -118 -46 0 -13 59 -4 107 16 33 14 37 14 50 -2 8 -10 12 -12 8 -5 -3 6 -1
12 5 12 6 0 8 5 5 10 -4 7 3 8 21 4 21 -5 25 -4 19 6 -6 10 -4 12 8 7 10 -4
17 -2 17 4 0 6 7 9 15 5 8 -3 18 2 23 10 6 12 13 13 33 4 22 -9 22 -10 2 -6
-12 2 -22 1 -21 -3 2 -21 -3 -31 -14 -25 -9 5 -9 2 1 -9 14 -18 22 -22 20 -9
-3 19 2 33 11 27 5 -3 7 -13 4 -23 -5 -14 -4 -14 4 -2 6 8 9 17 6 21 -2 4 0
11 6 14 8 5 7 11 -1 21 -10 12 -9 13 4 9 8 -4 18 -1 22 5 4 7 28 8 69 4 43 -4
66 -3 70 5 4 6 3 11 -2 11 -5 0 -12 8 -14 18 -3 12 1 18 12 18 12 0 16 -9 16
-31 -1 -29 -4 -32 -41 -34 -21 -1 -45 -7 -52 -13 -11 -8 -12 -7 -7 8 6 15 4
17 -6 7 -8 -7 -10 -19 -5 -30 5 -10 7 -25 6 -33 -2 -13 -1 -13 8 0 10 13 11
13 11 0 0 -13 1 -13 10 0 9 13 10 13 10 0 0 -11 2 -12 8 -2 6 9 14 7 31 -9
l23 -22 -7 23 c-4 14 -3 20 3 16 5 -3 10 0 9 7 -1 41 3 47 33 43 17 -2 34 -7
38 -11 4 -5 0 -6 -9 -3 -20 8 -46 -7 -30 -16 6 -4 11 -2 11 4 0 6 5 8 11 4 8
-5 6 -10 -5 -16 -9 -5 -20 -7 -25 -4 -10 7 -2 -86 9 -97 4 -5 11 -3 15 4 5 7
4 10 -2 6 -6 -4 -10 9 -9 32 0 22 4 37 9 34 4 -2 4 -9 1 -15 -4 -7 -2 -8 4 -4
6 4 9 13 6 20 -3 8 -1 17 5 21 6 3 11 1 11 -5 0 -7 7 -10 15 -6 9 3 19 -3 25
-14 7 -14 7 -20 0 -20 -17 0 -25 5 -22 13 1 4 -3 7 -9 7 -6 0 -8 -7 -5 -16 3
-8 2 -12 -3 -9 -5 3 -12 1 -16 -5 -3 -5 -1 -10 5 -10 6 0 8 -5 4 -12 -4 -6 9
-2 29 11 20 12 37 20 37 17 0 -3 9 3 21 15 11 11 23 18 27 15 3 -4 0 -12 -6
-18 -14 -14 -16 -62 -3 -54 5 3 7 16 5 29 -3 16 -2 18 3 5 7 -15 9 -14 20 7 6
14 7 23 2 19 -5 -3 -9 2 -9 11 0 10 5 13 13 9 6 -4 9 -4 5 1 -4 4 0 14 10 22
15 13 15 13 -5 3 -22 -10 -23 -9 -21 29 1 22 5 38 9 36 4 -3 9 1 12 7 11 30
30 -13 30 -69 0 -33 2 -43 4 -23 2 21 12 41 22 47 17 10 19 8 23 -18 4 -22 -1
-34 -16 -44 -11 -8 -17 -18 -13 -21 4 -4 13 -1 22 6 13 11 15 9 15 -13 0 -27
-22 -51 -35 -39 -5 4 -5 2 -1 -5 3 -6 2 -14 -2 -17 -5 -3 -8 -16 -7 -28 1 -13
3 -29 4 -35 0 -7 10 -13 22 -13 11 0 17 5 14 10 -3 6 1 10 9 10 9 0 16 -4 16
-9 0 -12 74 -4 78 9 2 5 8 8 12 5 5 -3 11 -1 14 4 4 5 1 13 -5 17 -8 5 -9 3
-4 -6 5 -8 4 -11 -3 -6 -6 4 -8 14 -5 22 4 10 9 12 16 5 6 -6 18 -1 36 15 22
21 24 26 11 34 -13 9 -13 10 0 11 8 1 18 1 23 0 4 -1 2 8 -5 19 -16 25 -4 37
18 19 16 -13 16 -12 6 8 -16 30 -31 37 -38 19 -3 -8 -13 -17 -22 -21 -9 -3 5
17 33 44 47 49 63 61 51 42 -3 -5 2 -15 11 -22 12 -10 14 -10 9 -1 -4 7 -2 12
5 12 8 0 6 5 -5 13 -16 12 -16 14 3 31 11 10 24 15 29 12 5 -3 18 1 28 9 13
11 15 15 4 13 -8 -2 -19 -7 -23 -13 -5 -6 -7 -4 -5 4 5 16 44 25 53 11 6 -10
-54 -100 -67 -100 -4 0 -7 -3 -6 -7 3 -8 -66 -113 -114 -176 l-30 -37 26 0
c14 0 26 5 26 11 0 6 -7 8 -16 5 -14 -6 -15 -4 -4 10 13 14 15 14 29 -5 15
-18 17 -18 31 -3 13 14 12 15 -5 8 -16 -6 -18 -5 -8 5 7 7 13 20 13 29 -1 12
-4 11 -15 -4 -8 -11 -15 -15 -15 -8 0 6 9 17 21 25 15 11 17 16 7 20 -9 4 -7
6 5 6 9 1 17 -3 17 -9 0 -5 5 -10 10 -10 6 0 9 6 8 13 -2 6 3 11 10 9 8 -1 11
1 8 6 -3 5 0 17 8 27 11 15 12 12 9 -25 -4 -54 7 -78 25 -50 10 16 9 18 -3 14
-11 -5 -14 2 -11 33 2 21 4 47 5 58 2 19 2 19 15 2 12 -16 14 -16 20 -1 9 24
7 31 -4 14 -8 -12 -11 -11 -16 8 -5 18 -9 20 -20 11 -8 -6 -11 -16 -7 -23 3
-6 3 -8 -2 -4 -4 4 -15 -7 -24 -25 -9 -17 -25 -34 -35 -36 -16 -2 -12 7 19 50
52 73 51 72 67 63 7 -5 18 -9 24 -10 10 -2 11 5 5 35 -1 2 -7 -2 -14 -8 -36
-29 -18 10 44 98 72 102 79 117 54 107 -20 -7 -19 3 2 28 10 12 1 5 -20 -14
-21 -19 -33 -36 -27 -38 5 -2 7 -9 4 -14 -4 -7 -2 -8 4 -4 7 4 12 5 12 1 0 -3
-12 -11 -27 -17 -22 -9 -24 -12 -10 -15 9 -3 15 -8 12 -13 -3 -5 -11 -8 -18
-6 -7 1 -9 1 -4 -1 12 -7 8 -20 -7 -20 -20 0 -14 39 9 59 18 15 16 18 -10 18
-3 0 -4 -2 -2 -4 1 -3 -8 -16 -21 -29 -13 -14 -20 -27 -15 -29 4 -3 3 -3 -4
-2 -7 2 -36 -21 -64 -51 -29 -30 -56 -52 -62 -48 -6 3 -7 1 -3 -5 3 -6 2 -13
-3 -16 -5 -3 -11 10 -13 30 -4 37 8 59 14 23 3 -20 4 -19 28 7 21 25 22 26 3
10 -20 -16 -23 -17 -23 -3 0 8 19 29 42 46 43 32 65 40 52 19 -4 -7 -3 -8 4
-4 6 4 9 13 6 20 -3 7 11 23 30 37 20 13 36 27 37 32 1 4 2 12 3 17 0 6 8 15
16 20 13 9 13 10 0 10 -13 0 -13 1 0 11 13 9 13 10 0 6 -8 -2 -15 -9 -15 -15
0 -6 -9 -18 -20 -26 -13 -10 -15 -15 -6 -16 11 0 11 -3 1 -16 -8 -8 -22 -20
-32 -25 -16 -9 -18 -5 -18 39 0 42 3 48 22 49 11 1 24 6 27 10 3 5 20 9 38 8
17 0 29 3 27 7 -8 13 19 21 60 19 112 -7 101 -1 100 -48 0 -24 3 -43 8 -43 4
0 8 21 8 46 0 42 1 45 17 33 11 -10 14 -10 9 -1 -5 8 0 12 17 12 40 0 87 -21
87 -38 0 -13 2 -14 9 -4 7 11 16 10 47 -6 22 -10 45 -17 52 -15 6 3 12 0 12
-7 0 -6 4 -9 9 -5 5 3 12 1 16 -4 3 -6 11 -8 18 -5 8 3 26 -7 41 -21 30 -28
42 -31 50 -12 5 9 7 9 12 0 3 -7 12 -9 21 -6 12 5 14 3 8 -6 -6 -10 -2 -11 15
-6 14 5 20 3 16 -3 -3 -6 0 -17 8 -25 8 -8 12 -18 8 -22 -4 -4 3 -2 16 4 14 8
22 8 22 1 0 -5 5 -10 10 -10 6 0 10 6 10 14 0 9 7 12 21 9 16 -4 17 -8 7 -14
-10 -7 -10 -9 0 -9 7 0 12 -15 12 -42 0 -33 -3 -39 -12 -30 -7 7 -17 12 -22
12 -6 0 0 -7 12 -16 27 -18 33 -88 7 -78 -8 4 -12 10 -9 15 3 5 -2 6 -10 3
-13 -5 -16 2 -17 32 -2 30 -3 32 -6 12 -6 -40 -33 -25 -33 19 0 31 2 34 15 23
18 -15 20 -13 30 19 5 16 4 21 -4 17 -6 -4 -11 -14 -11 -21 0 -21 -70 22 -71
43 0 11 -2 12 -6 5 -2 -7 -9 -13 -14 -13 -6 0 -7 5 -3 12 5 7 3 8 -5 4 -7 -5
-10 -11 -7 -14 3 -3 0 -12 -6 -21 -10 -13 -10 -14 2 -3 23 20 30 14 30 -25 0
-49 -10 -84 -21 -77 -14 8 -11 54 3 54 7 0 1 8 -12 17 -14 9 -27 19 -30 23
-17 19 -60 39 -65 29 -4 -6 -4 -13 -1 -16 3 -4 6 -1 6 5 0 9 4 9 19 1 11 -7
16 -19 13 -31 -5 -21 -13 -23 -30 -6 -9 9 -13 7 -18 -5 -3 -9 -11 -14 -18 -10
-6 3 -6 1 2 -8 6 -7 12 -20 12 -28 0 -10 -11 -4 -31 18 -16 19 -28 40 -25 47
2 6 -7 22 -22 35 l-27 24 24 -28 c14 -15 20 -27 14 -27 -17 0 -88 83 -75 88 7
2 12 9 12 15 0 5 -3 7 -7 4 -3 -4 -15 0 -25 10 -10 9 -18 12 -18 8 0 -5 -15 4
-32 21 -18 16 -30 25 -26 20 5 -5 3 -15 -2 -21 -7 -9 -3 -17 16 -30 15 -9 23
-12 20 -6 -4 6 -3 11 2 11 11 0 26 -30 23 -43 -1 -5 2 -6 7 -3 5 3 26 -13 47
-34 22 -22 35 -40 29 -40 -5 0 -15 5 -22 12 -10 10 -15 9 -27 -3 -13 -13 -10
-21 25 -74 22 -33 38 -66 35 -73 -3 -7 -1 -10 5 -7 5 3 14 -5 21 -17 11 -21
11 -22 -4 -10 -9 8 -22 10 -28 6 -8 -4 -9 -3 -5 4 4 7 3 12 -2 12 -6 0 -12 -7
-16 -15 -3 -8 0 -14 6 -12 7 1 18 -11 26 -26 7 -16 20 -31 28 -34 8 -3 14 -10
14 -15 0 -6 -6 -5 -15 2 -10 9 -15 9 -15 1 0 -6 -5 -11 -11 -11 -5 0 -8 4 -4
9 3 5 0 13 -6 17 -7 4 -9 3 -5 -4 3 -5 0 -13 -6 -15 -10 -4 -10 -6 -1 -6 7 -1
10 -7 7 -15 -7 -19 8 -27 26 -14 12 8 12 9 -2 4 -10 -3 -18 -1 -18 3 0 13 29
21 35 10 4 -5 10 -7 14 -5 4 3 13 1 21 -5 12 -7 10 -9 -6 -9 -12 0 -25 -7 -28
-16 -5 -14 -4 -15 8 -5 9 7 21 9 28 5 19 -12 39 -14 32 -3 -8 13 10 11 25 -3
11 -11 11 -9 0 9 -7 12 -16 20 -20 17 -4 -2 -6 4 -5 14 1 12 -5 16 -19 14 -15
-2 -17 -1 -6 6 10 8 6 21 -23 67 -26 39 -35 63 -31 78 5 16 4 18 -3 8 -8 -10
-18 -1 -45 39 -34 51 -38 70 -16 70 6 0 7 -5 4 -10 -3 -6 4 -10 16 -10 35 0
61 -28 48 -52 -7 -13 -7 -18 -1 -14 6 3 13 0 16 -6 3 -7 3 -2 0 12 -7 25 -7
25 15 6 20 -19 30 -43 12 -32 -5 3 -14 -1 -21 -10 -11 -12 -11 -17 0 -27 10
-10 12 -8 6 6 -4 13 -2 17 6 15 7 -3 13 -11 13 -19 0 -8 8 -13 20 -11 15 3 17
1 8 -10 -8 -10 -8 -18 3 -32 7 -10 11 -23 8 -27 -3 -5 -3 -9 0 -9 3 0 10 10
17 21 9 17 8 20 -2 14 -8 -6 -10 -4 -4 5 5 9 4 11 -3 6 -7 -4 -12 -3 -12 2 0
6 7 12 15 16 15 5 18 -3 18 -47 0 -11 5 -16 13 -13 8 3 15 0 15 -7 1 -7 3 -22
4 -34 1 -13 -2 -23 -6 -23 -5 0 -9 12 -9 28 0 19 -3 23 -9 13 -6 -9 -11 -10
-15 -2 -9 13 -26 5 -26 -12 0 -7 4 -6 11 3 8 11 9 9 3 -10 -6 -21 -5 -23 8
-12 13 10 17 10 22 -3 4 -12 12 -14 28 -9 21 6 22 5 8 -11 -9 -11 -10 -16 -3
-11 7 4 18 16 23 26 9 17 8 19 -7 13 -16 -6 -16 -5 -4 10 17 21 18 21 32 -4 6
-12 7 -19 1 -16 -5 4 -14 -4 -20 -18 -10 -22 -9 -23 15 -19 15 3 30 7 34 10 4
2 9 -2 12 -8 3 -10 11 -9 34 4 17 10 34 14 39 10 5 -4 0 4 -11 17 -11 13 -19
31 -17 41 2 10 -1 21 -7 24 -5 4 -7 -3 -4 -16 5 -19 -1 -16 -35 17 -26 24 -42
49 -42 64 0 20 2 21 15 11 8 -7 15 -22 15 -34 0 -16 2 -18 9 -7 14 22 102 -58
90 -81 -6 -11 -5 -19 3 -24 7 -4 10 -4 6 1 -4 4 -3 16 3 27 8 15 7 24 -5 37
-9 10 -13 21 -9 25 5 4 3 7 -2 6 -27 -6 -34 2 -32 35 2 39 1 39 28 25 12 -7
19 -22 20 -43 0 -18 3 -26 6 -19 2 6 10 9 16 5 7 -4 6 1 -2 10 -16 20 -3 22
20 4 9 -7 16 -29 16 -55 1 -41 0 -42 -17 -27 -11 10 -20 12 -24 6 -3 -5 5 -18
19 -29 14 -11 25 -24 25 -29 0 -5 12 -10 27 -11 14 -1 23 1 19 5 -4 5 -13 8
-19 8 -8 0 -12 26 -12 83 0 45 3 82 7 82 8 0 12 -16 9 -33 -1 -5 3 -6 9 -2 15
9 12 32 -6 39 -9 3 -25 0 -36 -8 -31 -22 -48 -9 -48 35 0 21 5 39 11 39 5 0 7
-4 4 -10 -3 -5 0 -7 9 -4 11 4 13 0 9 -14 -2 -11 -1 -22 4 -25 5 -3 8 7 7 21
-1 15 -3 35 -3 45 -1 9 -5 17 -11 17 -5 0 -7 -7 -4 -15 5 -11 2 -13 -10 -9
-11 4 -16 18 -16 43 0 35 2 38 28 38 29 0 29 -1 31 -66 2 -72 11 -99 11 -33 0
23 5 42 13 45 10 4 10 6 0 6 -16 1 -17 41 -2 41 5 0 7 -4 4 -10 -3 -6 1 -7 10
-4 11 5 14 2 9 -10 -3 -9 -1 -23 6 -31 10 -12 8 -17 -11 -25 l-24 -11 23 5
c20 4 23 1 19 -15 -4 -14 0 -19 15 -19 17 0 18 3 8 15 -7 9 -9 26 -5 47 7 30
6 32 -10 18 -16 -13 -18 -13 -13 0 3 8 14 14 24 12 10 -2 24 -4 29 -4 6 -1 12
-11 12 -22 2 -20 1 -20 -12 -2 -13 17 -14 16 -13 -11 1 -28 2 -29 44 -26 34 3
45 0 53 -15 6 -11 7 -23 3 -27 -4 -5 -2 -5 4 -2 7 4 14 -3 16 -18 3 -14 1 -25
-5 -25 -5 0 -3 -8 4 -17 12 -15 12 -16 -6 -9 -15 5 -17 4 -8 -5 13 -13 37 -3
27 12 -3 5 0 17 8 26 9 12 9 15 1 9 -7 -4 -13 -3 -13 2 0 5 11 14 25 20 21 10
23 9 18 -6 -8 -22 1 -14 15 14 10 20 9 22 -13 20 -14 0 -25 -4 -25 -8 0 -13
-25 2 -37 21 -10 16 -9 18 8 14 10 -3 19 -9 19 -12 0 -4 13 -6 28 -3 16 2 35
-2 43 -10 8 -7 20 -13 27 -14 39 -3 43 -5 36 -16 -5 -8 -2 -9 9 -5 10 3 17 2
17 -4 0 -6 5 -7 10 -4 6 3 10 2 10 -3 0 -5 9 -12 20 -15 11 -3 20 -1 20 4 0 4
7 6 15 3 8 -4 13 -10 10 -14 -3 -5 3 -6 13 -3 24 6 53 -22 46 -45 -5 -14 -4
-14 4 -2 6 8 8 18 6 22 -3 4 2 5 11 2 9 -4 14 -13 11 -23 -5 -15 -4 -15 6 0
12 17 32 14 103 -16 64 -27 264 -87 279 -83 8 1 -67 32 -168 68 -102 35 -182
68 -180 72 3 4 -1 6 -8 3 -7 -3 -164 49 -348 115 -184 66 -368 133 -409 147
-41 15 -70 28 -64 30 16 6 890 -291 903 -306 3 -3 12 -7 20 -9 8 -2 32 -12 53
-22 20 -11 37 -17 37 -15 0 3 11 -2 25 -11 14 -9 32 -14 40 -10 11 4 14 2 9
-6 -5 -8 0 -9 15 -5 13 3 20 3 17 -1 -6 -5 47 -32 65 -32 16 0 9 20 -8 26 -10
4 -33 13 -52 21 -18 8 -39 16 -45 18 -16 3 -40 12 -132 51 -44 18 -114 45
-155 59 -41 15 -87 32 -104 40 -16 7 -39 16 -51 19 -11 3 -21 13 -21 21 0 8 2
15 3 15 17 0 117 -25 147 -36 20 -7 37 -10 37 -6 0 13 74 34 78 22 7 -19 21
-10 17 10 -2 12 0 18 6 15 5 -4 7 -11 4 -16 -4 -5 4 -9 17 -9 19 0 20 -2 8
-11 -12 -9 -11 -10 8 -6 12 3 20 1 16 -4 -3 -5 4 -9 16 -9 14 0 19 4 13 13
-11 18 -12 37 -2 37 5 0 9 5 9 11 0 5 -8 9 -17 8 -37 -3 -36 2 2 21 22 11 41
20 42 20 7 0 -3 -26 -12 -33 -6 -5 -1 -6 10 -2 33 11 76 15 71 6 -7 -10 71
-24 85 -16 5 4 9 2 9 -3 0 -12 -49 -22 -55 -11 -5 8 -21 9 -85 9 -43 0 -53
-10 -44 -44 7 -30 41 -33 36 -3 -2 12 2 15 15 11 14 -5 15 -4 4 4 -14 10 -7
32 10 32 6 0 8 -4 5 -9 -3 -4 8 -7 25 -5 16 2 28 0 25 -4 -2 -4 -1 -14 5 -22
6 -11 9 -12 9 -2 0 7 5 10 10 7 6 -3 10 -1 10 4 0 6 8 11 18 11 14 0 15 -2 2
-10 -12 -7 -12 -12 -2 -22 6 -6 13 -8 13 -2 1 5 3 22 5 39 3 29 -9 45 -34 45
-7 0 -10 -5 -6 -11 5 -8 1 -8 -13 0 -11 6 -23 8 -26 5 -3 -3 -10 3 -16 14 -6
11 -7 22 -3 26 3 4 -2 4 -11 0 -10 -4 -16 -13 -13 -20 3 -8 1 -14 -3 -14 -15
0 -20 27 -8 43 16 20 45 28 49 15 2 -6 10 -8 16 -4 21 13 13 25 -15 23 -16 -1
-29 3 -31 8 -1 6 23 10 58 10 44 0 60 4 60 14 0 7 -6 11 -13 8 -8 -3 -14 1
-14 9 0 8 6 13 14 10 7 -3 13 -1 13 3 0 5 -7 11 -15 15 -17 6 -20 39 -5 66 7
13 7 21 -2 26 -6 4 -8 3 -5 -2 3 -6 2 -16 -2 -23 -6 -9 -11 0 -16 26 -10 53
-40 145 -77 231 -26 61 -29 75 -17 82 15 10 31 -1 35 -22 1 -7 14 -42 29 -78
15 -36 37 -99 51 -140 18 -58 23 -66 20 -35 -2 22 -9 55 -15 73 -9 30 -8 33 7
28 14 -5 14 -4 -2 8 -10 8 -15 20 -11 26 4 6 1 9 -7 8 -8 -2 -12 4 -10 15 2 9
-2 17 -8 17 -6 0 -9 4 -5 9 3 5 1 12 -5 16 -5 3 -10 13 -10 21 0 8 4 13 9 9 5
-3 13 -1 16 5 4 6 3 10 -2 9 -22 -4 -25 2 -7 17 18 14 18 15 -4 4 -12 -6 -20
-15 -17 -21 4 -5 4 -9 1 -9 -11 0 -33 55 -28 70 2 8 1 12 -3 8 -4 -4 -17 10
-27 32 -19 37 -47 58 -35 26z m-1443 -420 c0 -2 -7 -6 -15 -10 -8 -3 -15 -1
-15 4 0 6 7 10 15 10 8 0 15 -2 15 -4z m1065 -65 c3 -5 27 -7 54 -4 30 3 51 1
55 -6 4 -6 20 -11 35 -11 15 0 33 -6 40 -12 9 -8 11 -8 8 -2 -4 7 0 15 9 18
29 11 39 5 19 -11 -20 -16 -16 -16 30 3 10 4 15 0 15 -10 0 -10 -6 -13 -17 -9
-10 3 -15 3 -11 -2 9 -10 91 -10 108 0 9 5 11 4 6 -4 -6 -8 2 -11 28 -8 41 5
50 -1 35 -20 -6 -7 -8 -13 -3 -13 5 0 -8 -11 -29 -25 -20 -14 -42 -23 -47 -20
-16 10 -3 22 30 28 30 6 43 27 16 27 -7 0 -29 3 -47 6 -19 3 -29 2 -23 -3 13
-9 15 -45 2 -37 -4 3 -8 -1 -8 -8 0 -9 -3 -9 -8 -2 -12 18 -39 23 -52 11 -10
-9 -11 -7 -5 13 4 17 3 21 -3 11 -7 -10 -12 -7 -21 15 l-11 29 5 -27 c4 -21 2
-26 -9 -22 -8 3 -12 13 -9 22 4 15 3 15 -6 2 -6 -8 -14 -15 -18 -16 -4 0 -21
-4 -38 -9 -26 -7 -27 -9 -10 -15 11 -4 24 -5 30 -2 16 10 49 10 65 0 12 -7 10
-8 -5 -4 -11 3 -27 1 -35 -5 -13 -9 -13 -10 1 -6 9 3 28 -1 43 -8 16 -9 24
-10 20 -3 -5 7 0 9 14 6 12 -4 20 -2 16 3 -6 10 9 12 19 3 12 -13 -6 -34 -30
-34 -20 0 -24 -4 -20 -19 3 -14 -5 -23 -31 -35 -33 -16 -39 -16 -109 0 -48 12
-69 21 -61 27 9 5 5 6 -9 3 -71 -18 -70 -18 -43 -2 29 18 23 20 -14 6 -18 -6
-24 -15 -21 -30 3 -13 -1 -20 -12 -20 -10 0 -13 6 -9 16 3 9 6 20 6 24 0 14
84 60 109 60 12 0 20 4 17 8 -7 12 69 54 79 44 5 -4 5 -2 2 4 -3 6 -16 10 -29
9 -13 -1 -26 3 -30 9 -5 8 -8 7 -8 -1 0 -7 -7 -10 -15 -7 -15 6 -37 -33 -28
-50 3 -4 -3 -6 -13 -3 -11 3 -37 8 -59 12 -79 12 -81 15 -34 43 36 22 54 26
99 23 30 -2 52 1 47 5 -4 4 -27 7 -50 6 -28 -2 -37 1 -28 7 11 7 10 11 -5 20
-11 6 -14 11 -7 11 6 0 14 -4 18 -9z m-1402 -138 c-48 -38 -49 -38 -57 -18 -3
9 5 20 22 29 l27 14 -27 -1 c-14 -1 -24 -5 -22 -9 2 -4 0 -9 -6 -13 -5 -3 -10
3 -10 14 0 13 13 28 38 41 21 12 28 19 17 18 -11 -2 -26 -9 -34 -16 -12 -11
-15 -11 -23 0 -6 8 -8 -2 -6 -29 2 -24 1 -44 -2 -46 -3 -2 0 -2 7 -1 14 3 26
-23 13 -31 -4 -3 -11 1 -13 7 -3 7 -6 3 -6 -9 -1 -27 -20 -31 -22 -5 -1 9 -1
21 0 25 1 5 -3 6 -8 2 -7 -3 -7 -15 -1 -30 8 -21 5 -27 -20 -45 l-30 -21 0 31
c0 24 -4 31 -14 27 -8 -3 -17 -1 -19 6 -2 7 -3 5 -2 -4 2 -14 -24 -39 -40 -39
-3 0 -5 13 -5 30 0 24 6 32 33 43 30 13 32 12 39 -7 4 -12 6 3 5 34 -2 46 -6
57 -24 65 -18 8 -11 12 55 33 64 20 77 22 86 10 12 -15 46 -12 46 4 0 5 7 8
15 4 8 -3 16 0 17 7 0 7 4 -10 7 -38 6 -49 6 -50 -36 -82z m1793 104 c3 -3 -6
-4 -22 -1 -37 7 -47 16 -12 12 15 -2 30 -7 34 -11z m-79 -3 c-3 -3 -12 -4 -19
-1 -8 3 -5 6 6 6 11 1 17 -2 13 -5z m182 -9 c-17 -17 -63 -29 -54 -14 4 5 11
7 16 4 5 -4 9 -1 9 5 0 6 4 9 9 5 5 -3 12 -1 16 5 3 5 9 10 13 10 3 0 -1 -7
-9 -15z m-1169 -6 c11 -8 8 -9 -13 -4 -19 4 -26 2 -22 -5 3 -5 1 -10 -4 -10
-12 0 -14 13 -4 23 9 10 26 8 43 -4z m-536 -21 c-7 -11 -34 -10 -34 1 0 6 9 9
19 8 11 0 17 -5 15 -9z m276 -3 c7 -9 8 -15 2 -15 -5 0 -12 7 -16 15 -3 8 -4
15 -2 15 2 0 9 -7 16 -15z m436 2 c8 3 14 -1 14 -11 0 -13 -4 -15 -19 -7 -10
6 -20 8 -23 6 -3 -3 -5 2 -5 10 0 10 4 12 10 6 5 -5 16 -7 23 -4z m574 -7 c0
8 3 10 7 6 5 -4 -1 -14 -11 -22 -27 -19 -35 -18 -29 6 4 16 8 18 19 9 11 -9
14 -8 14 1z m-1652 -32 c2 -19 -3 -30 -17 -38 -12 -6 -21 -8 -21 -4 0 3 -6 1
-14 -5 -11 -9 -15 -9 -19 1 -6 15 -10 -14 -7 -55 2 -28 -14 -57 -31 -57 -5 0
-9 16 -9 35 0 21 5 35 13 35 9 0 9 2 -1 9 -21 13 -11 56 13 56 11 0 22 9 26
20 3 12 12 19 23 17 12 -2 15 1 11 8 -5 8 -1 11 11 8 12 -2 20 -13 22 -30z
m1172 7 c0 -8 -4 -15 -10 -15 -5 0 -7 7 -4 15 4 8 8 15 10 15 2 0 4 -7 4 -15z
m-1250 -5 c0 -5 -7 -10 -16 -10 -8 0 -12 5 -9 10 3 6 10 10 16 10 5 0 9 -4 9
-10z m1094 -11 c-6 -11 -24 -2 -24 11 0 5 7 7 15 4 8 -4 12 -10 9 -15z m236
-17 c0 -15 -2 -15 -10 -2 -13 20 -13 33 0 25 6 -3 10 -14 10 -23z m37 4 c0 -8
-6 -12 -14 -9 -7 3 -10 9 -7 14 8 14 21 11 21 -5z m-1447 -6 c0 -5 6 -9 12 -7
8 1 13 -12 15 -33 2 -31 -1 -35 -23 -36 -20 -2 -25 2 -21 16 2 10 1 24 -4 31
-9 14 -12 -17 -11 -108 1 -33 -4 -45 -23 -57 -38 -25 -43 -19 -10 10 17 14 24
22 16 18 -11 -5 -13 -2 -9 14 3 12 3 21 -1 20 -22 -2 -23 5 -1 17 15 9 19 14
10 15 -13 0 -13 1 0 10 12 7 12 10 1 10 -8 0 -11 6 -7 16 6 14 4 15 -9 4 -13
-11 -13 -15 -3 -21 10 -7 10 -9 -2 -9 -11 0 -12 -2 -2 -8 8 -6 1 -13 -23 -25
-27 -13 -37 -14 -47 -4 -19 17 -38 19 -38 5 -1 -8 -6 -6 -14 5 -26 34 9 94 43
73 5 -4 11 -2 13 4 1 5 14 11 28 12 19 2 25 -1 24 -15 -2 -14 1 -15 12 -6 16
13 19 33 4 24 -5 -3 -10 -2 -10 4 0 14 34 23 55 15 13 -5 16 -4 11 4 -4 7 -2
12 3 12 6 0 11 -4 11 -10z m2069 -4 c10 -12 5 -16 -23 -26 -32 -10 -34 -13
-21 -26 8 -9 19 -13 23 -10 5 3 9 -1 9 -9 0 -17 -13 -20 -22 -4 -4 5 -18 14
-31 19 -13 5 -24 14 -24 19 0 8 56 25 73 22 5 -1 6 3 2 9 -3 6 -11 7 -17 4 -7
-4 -8 -2 -4 4 10 16 21 15 35 -2z m58 -6 c1 -11 -2 -20 -5 -20 -4 0 -8 9 -9
20 -1 11 2 20 5 20 4 0 8 -9 9 -20z m-597 -10 c0 -17 -3 -19 -19 -11 -10 6
-21 7 -25 4 -3 -3 -6 -1 -6 6 0 8 7 10 21 6 15 -5 19 -4 15 4 -4 6 -2 11 3 11
6 0 11 -9 11 -20z m35 0 c-3 -5 -10 -10 -16 -10 -5 0 -9 5 -9 10 0 6 7 10 16
10 8 0 12 -4 9 -10z m-430 -94 c-6 -47 -10 -55 -22 -45 -18 16 -13 55 7 51 12
-3 13 -1 3 9 -7 7 -13 27 -13 43 0 28 1 29 16 14 13 -12 14 -27 9 -72z m469
78 c9 -3 16 -14 16 -23 0 -12 -2 -13 -9 -3 -4 8 -11 13 -15 13 -20 -3 -26 0
-21 9 7 12 8 12 29 4z m-545 -81 c-1 -31 -5 -50 -11 -47 -5 3 -8 16 -7 27 0
12 1 33 0 47 -1 20 -3 22 -11 10 -8 -12 -10 -9 -10 13 0 24 2 26 20 15 15 -10
19 -23 19 -65z m591 52 c0 -8 -4 -15 -8 -15 -5 0 -9 7 -9 15 0 8 4 15 9 15 4
0 8 -7 8 -15z m-641 -44 c-3 -32 1 -52 10 -47 4 3 17 -5 28 -17 16 -17 19 -28
12 -44 -13 -34 -35 -28 -31 8 1 4 -14 24 -32 45 -18 22 -31 45 -28 53 4 11 6
11 13 0 6 -10 9 -8 9 8 0 16 -4 21 -15 17 -11 -5 -13 -2 -9 10 6 16 8 16 26 0
10 -10 18 -25 17 -33z m-875 -37 c-36 -31 -44 -30 -44 6 0 17 4 30 10 30 5 0
7 -8 4 -17 -5 -15 -4 -15 4 -3 6 8 9 17 6 21 -2 4 0 10 6 14 6 3 10 -4 10 -16
0 -28 8 -21 14 12 7 36 9 37 13 5 4 -22 -2 -34 -23 -52z m1984 64 c-2 -6 -10
-13 -16 -14 -9 -2 -9 -1 -1 3 8 4 7 8 -2 14 -11 7 -10 9 4 9 10 0 17 -5 15
-12z m-2368 -13 c0 -6 -10 -11 -22 -9 -34 4 -34 4 -20 12 19 12 42 10 42 -3z
m480 -81 c-15 -19 -28 -26 -32 -20 -5 7 -8 7 -8 -2 0 -7 7 -15 15 -18 21 -8
19 -46 -4 -66 -11 -9 -21 -14 -24 -12 -2 3 -7 -2 -11 -11 -3 -9 -2 -14 2 -11
5 3 9 -1 9 -9 0 -8 -4 -12 -9 -9 -4 3 -8 0 -8 -7 0 -8 -5 -7 -17 2 -11 10 -14
10 -9 2 11 -19 2 -16 -18 6 -16 17 -15 18 10 15 28 -3 25 8 -4 12 -9 2 -27 -9
-39 -23 -13 -14 -24 -22 -24 -17 -7 47 -4 56 25 80 55 45 76 66 76 78 0 6 -5
4 -10 -4 -8 -12 -10 -12 -11 5 0 20 0 20 -8 0 -5 -11 -7 -23 -5 -26 2 -4 -3
-12 -11 -19 -13 -10 -15 -9 -15 12 0 25 16 43 83 92 36 26 37 26 37 6 0 -13
-4 -19 -12 -14 -7 4 -8 3 -4 -4 4 -6 -2 -17 -14 -24 -11 -7 -20 -22 -19 -33 0
-14 2 -16 6 -5 3 8 15 25 26 38 16 17 23 19 29 10 5 -8 6 -2 2 14 -3 16 -3 36
2 45 6 14 9 10 14 -17 5 -28 1 -41 -20 -66z m1230 86 c0 -5 7 -6 17 -3 10 4
14 2 9 -5 -9 -15 -46 -11 -46 5 0 7 5 13 10 13 6 0 10 -4 10 -10z m-433 -42
c-3 -7 -5 -2 -5 12 0 14 2 19 5 13 2 -7 2 -19 0 -25z m-1260 -38 c-9 -13 -18
-17 -21 -11 -4 5 -16 8 -27 6 -15 -3 -19 0 -17 13 2 11 16 19 38 22 41 6 47
-1 27 -30z m153 25 c0 -8 0 -18 0 -22 0 -14 -53 -8 -58 6 -3 10 0 12 12 8 9
-4 15 -3 11 2 -3 5 1 12 7 14 22 9 28 7 28 -8z m1256 -27 c1 -33 -1 -36 -17
-27 -26 13 -27 72 -1 67 12 -2 17 -14 18 -40z m-176 -11 c0 -5 -7 -4 -15 3 -8
6 -18 9 -24 6 -5 -3 -8 2 -6 11 2 10 4 20 4 22 2 8 41 -32 41 -42z m90 -1 c-7
-20 0 -31 50 -81 53 -53 57 -60 42 -71 -15 -11 -23 -7 -57 27 -30 28 -44 36
-52 28 -8 -8 -13 -8 -17 0 -4 6 0 11 8 11 18 0 21 15 6 25 -6 3 -6 15 0 30 6
15 6 27 0 30 -14 9 0 34 15 29 10 -4 11 -12 5 -28z m-833 -33 c2 -6 -1 -14 -7
-18 -8 -5 -8 -11 1 -21 9 -11 8 -14 -3 -14 -8 0 -15 6 -15 13 0 6 -3 22 -7 34
-5 17 -3 21 11 19 9 -2 19 -8 20 -13z m677 -38 l19 -30 -26 24 c-15 13 -24 28
-21 33 3 5 7 8 8 6 1 -2 10 -16 20 -33z"/>
<path d="M2540 470 c6 -12 20 -19 33 -19 l22 2 -22 4 c-13 2 -23 11 -23 19 0
8 -5 14 -10 14 -7 0 -7 -6 0 -20z"/>
<path d="M2600 450 c0 -5 7 -7 15 -4 8 4 15 8 15 10 0 2 -7 4 -15 4 -8 0 -15
-4 -15 -10z"/>
<path d="M2710 421 c0 -5 10 -11 23 -15 36 -9 42 -7 21 9 -21 16 -44 19 -44 6z"/>
<path d="M2555 361 l30 -7 -32 -5 c-18 -3 -37 -1 -43 5 -7 7 -10 7 -10 -1 0
-12 29 -28 44 -24 5 1 13 -4 19 -11 6 -9 7 -8 3 5 -6 19 10 24 17 5 2 -7 3 -6
2 2 -1 10 7 17 22 18 23 2 23 1 9 -33 -8 -19 -11 -35 -5 -35 5 0 9 7 9 16 0 8
4 13 9 9 5 -3 13 0 17 6 4 8 3 9 -4 5 -7 -4 -12 -1 -12 8 0 11 10 16 28 17 16
1 4 6 -33 15 -33 7 -69 13 -80 12 -12 0 -8 -3 10 -7z"/>
<path d="M2475 340 c3 -5 8 -10 11 -10 2 0 4 5 4 10 0 6 -5 10 -11 10 -5 0 -7
-4 -4 -10z"/>
<path d="M2660 321 c0 -6 4 -12 8 -15 5 -3 9 1 9 9 0 8 -4 15 -9 15 -4 0 -8
-4 -8 -9z"/>
<path d="M2528 303 c7 -3 16 -2 19 1 4 3 -2 6 -13 5 -11 0 -14 -3 -6 -6z"/>
<path d="M2568 293 c7 -3 16 -2 19 1 4 3 -2 6 -13 5 -11 0 -14 -3 -6 -6z"/>
<path d="M958 462 c-11 -5 -14 -12 -9 -20 7 -11 10 -10 15 3 3 10 12 15 21 11
8 -3 15 -1 15 4 0 11 -17 12 -42 2z"/>
<path d="M910 440 c0 -5 -8 -7 -17 -4 -16 5 -15 4 1 -10 14 -12 23 -13 33 -5
7 6 10 15 7 20 -7 12 -24 11 -24 -1z"/>
<path d="M944 385 c-3 -8 -4 -20 -2 -27 3 -7 7 -1 10 15 6 29 1 36 -8 12z"/>
<path d="M905 370 c-3 -6 1 -7 9 -4 18 7 21 14 7 14 -6 0 -13 -4 -16 -10z"/>
<path d="M905 309 c-4 -6 -5 -12 -2 -15 2 -3 7 2 10 11 7 17 1 20 -8 4z"/>
<path d="M665 340 c3 -5 8 -10 11 -10 2 0 4 5 4 10 0 6 -5 10 -11 10 -5 0 -7
-4 -4 -10z"/>
<path d="M611 312 c-1 -26 -51 -56 -59 -34 -6 18 -22 15 -22 -5 0 -9 3 -13 7
-10 3 4 17 0 29 -8 14 -9 30 -12 41 -7 15 6 17 14 12 47 -3 22 -7 30 -8 17z
m-9 -54 c-6 -6 -15 -8 -19 -4 -4 4 -1 11 7 16 19 12 27 3 12 -12z"/>
<path d="M554 294 c7 -8 17 -9 29 -3 24 13 22 16 -12 16 -22 0 -26 -3 -17 -13z"/>
<path d="M867 106 c-21 -23 -27 -26 -22 -11 4 14 3 17 -5 9 -17 -16 -2 -43 22
-39 33 7 69 35 66 52 -5 26 -31 22 -61 -11z m51 3 c-2 -6 -7 -10 -12 -9 -5 1
-13 -4 -18 -12 -8 -10 -9 -10 -5 2 2 8 10 14 16 13 6 -2 11 2 11 7 0 6 3 10 6
10 3 0 4 -5 2 -11z"/>
<path d="M811 84 c0 -11 3 -14 6 -6 3 7 2 16 -1 19 -3 4 -6 -2 -5 -13z"/>
<path d="M1826 84 c18 -26 28 -27 18 -1 -3 8 -12 18 -20 21 -11 4 -11 0 2 -20z"/>
<path d="M1865 51 c-3 -5 -1 -12 5 -16 5 -3 10 1 10 9 0 18 -6 21 -15 7z"/>
<path d="M2905 991 c-3 -5 -1 -12 5 -16 6 -4 7 -11 4 -17 -4 -7 -2 -8 5 -4 8
6 9 12 2 20 -6 7 -8 16 -4 19 3 4 4 7 0 7 -3 0 -8 -4 -12 -9z"/>
<path d="M2943 987 c-3 -6 -1 -7 5 -3 5 3 12 1 14 -6 3 -8 6 -7 10 3 7 17 -19
22 -29 6z"/>
<path d="M486 973 c-6 -14 -5 -15 5 -6 7 7 10 15 7 18 -3 3 -9 -2 -12 -12z"/>
<path d="M1670 986 c0 -2 8 -10 18 -17 15 -13 16 -12 3 4 -13 16 -21 21 -21
13z"/>
<path d="M2193 976 c3 -8 3 -17 -1 -20 -10 -11 -11 -37 -1 -30 5 3 7 9 4 14
-3 5 3 13 12 19 14 8 15 10 3 11 -13 0 -13 1 0 10 13 8 12 10 -4 10 -11 0 -16
-5 -13 -14z"/>
<path d="M2270 970 c6 -11 12 -20 14 -20 2 0 2 9 -1 20 -3 11 -9 20 -15 20 -5
0 -4 -9 2 -20z"/>
<path d="M215 967 c-13 -16 -17 -37 -7 -37 4 0 12 11 19 25 12 26 5 33 -12 12z"/>
<path d="M325 969 c-4 -6 -5 -12 -2 -15 2 -3 7 2 10 11 7 17 1 20 -8 4z"/>
<path d="M630 969 c0 -5 5 -7 10 -4 6 3 10 8 10 11 0 2 -4 4 -10 4 -5 0 -10
-5 -10 -11z"/>
<path d="M806 970 c6 -8 13 -22 16 -30 3 -10 6 -7 11 9 3 13 3 20 0 17 -4 -3
-13 0 -22 7 -14 10 -14 10 -5 -3z"/>
<path d="M1756 964 c-5 -14 -4 -15 9 -4 17 14 19 20 6 20 -5 0 -12 -7 -15 -16z"/>
<path d="M1806 972 c-3 -5 1 -9 9 -9 8 0 12 4 9 9 -3 4 -7 8 -9 8 -2 0 -6 -4
-9 -8z"/>
<path d="M2041 964 c0 -11 3 -14 6 -6 3 7 2 16 -1 19 -3 4 -6 -2 -5 -13z"/>
<path d="M2365 970 c-3 -5 -1 -10 4 -10 6 0 11 5 11 10 0 6 -2 10 -4 10 -3 0
-8 -4 -11 -10z"/>
<path d="M580 961 c0 -9 30 -24 36 -18 2 1 -6 8 -16 15 -11 7 -20 8 -20 3z"/>
<path d="M858 959 c10 -13 9 -19 -3 -29 -8 -7 -15 -18 -15 -24 0 -7 4 -6 9 2
4 8 12 13 16 13 16 -3 13 28 -3 41 -15 11 -15 11 -4 -3z"/>
<path d="M1605 960 c-3 -6 1 -7 9 -4 18 7 21 14 7 14 -6 0 -13 -4 -16 -10z"/>
<path d="M2880 959 c0 -5 5 -7 10 -4 6 3 10 8 10 11 0 2 -4 4 -10 4 -5 0 -10
-5 -10 -11z"/>
<path d="M392 945 c12 -15 14 -25 7 -38 -6 -9 -8 -17 -5 -17 3 0 10 8 15 19 8
14 6 23 -12 37 -22 19 -22 19 -5 -1z"/>
<path d="M646 944 c-8 -22 -4 -25 11 -9 7 8 9 16 4 19 -5 3 -12 -1 -15 -10z"/>
<path d="M787 953 c-9 -9 -9 -41 1 -46 4 -3 7 8 7 24 0 16 0 29 -1 29 0 0 -4
-3 -7 -7z"/>
<path d="M2223 949 c-6 -6 -9 -18 -6 -27 5 -11 3 -13 -7 -7 -9 5 -11 4 -6 -4
9 -15 29 -3 22 14 -2 7 1 18 7 24 6 6 9 11 6 11 -3 0 -10 -5 -16 -11z"/>
<path d="M2380 950 c-9 -6 -10 -10 -3 -10 6 0 15 5 18 10 8 12 4 12 -15 0z"/>
<path d="M2452 943 c5 -7 14 -10 19 -7 16 10 9 23 -10 21 -15 -1 -17 -4 -9
-14z"/>
<path d="M230 946 c0 -2 7 -7 16 -10 8 -3 12 -2 9 4 -6 10 -25 14 -25 6z"/>
<path d="M445 941 c-3 -5 -2 -12 3 -15 5 -3 9 1 9 9 0 17 -3 19 -12 6z"/>
<path d="M745 940 c-3 -6 1 -7 9 -4 18 7 21 14 7 14 -6 0 -13 -4 -16 -10z"/>
<path d="M1130 940 c8 -5 20 -10 25 -10 6 0 3 5 -5 10 -8 5 -19 10 -25 10 -5
0 -3 -5 5 -10z"/>
<path d="M1859 948 c-5 -18 -6 -38 -1 -34 7 8 12 36 6 36 -2 0 -4 -1 -5 -2z"/>
<path d="M1933 938 c-15 -19 -27 -44 -18 -36 4 4 17 3 29 -3 20 -10 20 -9 2 5
-16 13 -17 18 -6 31 7 8 10 15 7 15 -2 0 -9 -6 -14 -12z"/>
<path d="M2252 930 c-6 -11 -12 -25 -11 -32 0 -7 4 -3 10 10 5 13 13 21 19 17
6 -3 7 1 4 9 -8 20 -7 20 -22 -4z"/>
<path d="M2330 945 c0 -2 6 -8 13 -14 10 -8 14 -7 14 2 0 8 -6 14 -14 14 -7 0
-13 -1 -13 -2z"/>
<path d="M2950 935 c-11 -13 -10 -14 4 -9 9 3 16 10 16 15 0 13 -6 11 -20 -6z"/>
<path d="M543 933 c15 -4 16 -7 5 -21 -9 -12 -6 -12 10 2 12 11 22 20 22 20 0
1 -12 2 -27 3 -16 0 -20 -1 -10 -4z"/>
<path d="M686 932 c-3 -5 1 -9 9 -9 8 0 12 4 9 9 -3 4 -7 8 -9 8 -2 0 -6 -4
-9 -8z"/>
<path d="M1001 927 c-8 -10 -7 -14 2 -14 8 0 14 6 14 14 0 7 -1 13 -2 13 -2 0
-8 -6 -14 -13z"/>
<path d="M1345 930 c-3 -6 1 -7 9 -4 18 7 21 14 7 14 -6 0 -13 -4 -16 -10z"/>
<path d="M1385 930 c-3 -5 8 -8 25 -8 33 1 34 6 2 13 -12 2 -24 0 -27 -5z"/>
<path d="M1891 924 c0 -11 3 -14 6 -6 3 7 2 16 -1 19 -3 4 -6 -2 -5 -13z"/>
<path d="M2035 931 c-3 -5 -2 -12 3 -15 5 -3 9 1 9 9 0 17 -3 19 -12 6z"/>
<path d="M2429 939 c-6 -31 -5 -37 7 -35 22 3 25 12 9 26 -8 7 -15 11 -16 9z"/>
<path d="M2913 921 c0 -11 5 -18 9 -15 4 3 5 11 1 19 -7 21 -12 19 -10 -4z"/>
<path d="M350 925 c0 -7 30 -13 34 -7 3 4 -4 9 -15 9 -10 1 -19 0 -19 -2z"/>
<path d="M1194 919 c-3 -6 -1 -16 5 -22 9 -9 10 -7 5 7 -6 15 -4 17 6 11 9 -5
11 -4 6 3 -9 15 -13 15 -22 1z"/>
<path d="M1274 908 c-10 -13 -15 -20 -10 -15 5 4 17 0 26 -8 14 -13 17 -13 17
-1 0 8 -3 15 -6 14 -19 -2 -22 4 -11 17 7 8 10 15 8 15 -3 0 -13 -10 -24 -22z"/>
<path d="M1970 926 c0 -2 7 -7 16 -10 8 -3 12 -2 9 4 -6 10 -25 14 -25 6z"/>
<path d="M237 906 c4 -6 -1 -6 -13 -2 -14 5 -16 4 -8 -4 7 -7 29 -14 50 -16
33 -3 35 -2 16 6 -13 6 -29 7 -35 4 -7 -3 -4 1 7 10 18 14 18 15 -2 13 -11 0
-18 -5 -15 -11z"/>
<path d="M286 908 c3 -5 10 -6 15 -3 13 9 11 12 -6 12 -8 0 -12 -4 -9 -9z"/>
<path d="M605 909 c-4 -6 -5 -12 -2 -15 2 -3 7 2 10 11 7 17 1 20 -8 4z"/>
<path d="M1109 904 c-10 -12 -10 -15 2 -12 8 2 13 -3 11 -12 -2 -8 0 -11 4 -7
11 11 14 36 4 42 -4 3 -14 -2 -21 -11z"/>
<path d="M2149 920 c-8 -26 -3 -52 10 -62 13 -10 14 -10 4 2 -9 10 -10 17 -1
27 8 10 8 17 0 25 -7 7 -13 10 -13 8z"/>
<path d="M182 894 c-7 -8 -8 -14 -3 -14 10 0 25 19 20 25 -2 1 -10 -3 -17 -11z"/>
<path d="M459 897 c6 -8 7 -18 3 -22 -4 -5 -1 -5 6 -1 10 6 10 11 1 22 -6 8
-14 14 -16 14 -3 0 0 -6 6 -13z"/>
<path d="M649 898 c14 -19 2 -25 -15 -8 -7 7 -11 7 -11 -3 0 -7 11 -14 24 -15
27 -2 30 10 6 29 -16 13 -17 12 -4 -3z"/>
<path d="M2121 894 c0 -11 3 -14 6 -6 3 7 2 16 -1 19 -3 4 -6 -2 -5 -13z"/>
<path d="M2336 902 c-3 -5 1 -12 9 -16 15 -5 31 11 21 21 -3 4 -6 0 -6 -8 0
-12 -2 -12 -9 0 -5 8 -11 9 -15 3z"/>
<path d="M756 892 c-3 -5 1 -9 9 -9 8 0 12 4 9 9 -3 4 -7 8 -9 8 -2 0 -6 -4
-9 -8z"/>
<path d="M1695 891 c-3 -5 -2 -12 3 -15 5 -3 9 1 9 9 0 17 -3 19 -12 6z"/>
<path d="M2046 892 c-3 -5 1 -9 9 -9 8 0 12 4 9 9 -3 4 -7 8 -9 8 -2 0 -6 -4
-9 -8z"/>
<path d="M2383 885 c-3 -9 -3 -18 -1 -21 3 -3 8 4 11 16 6 23 -1 27 -10 5z"/>
<path d="M405 880 c-4 -6 -11 -8 -16 -5 -16 10 -10 -2 9 -16 9 -7 14 -9 10 -5
-4 5 -3 15 3 23 6 7 9 13 6 13 -3 0 -9 -5 -12 -10z"/>
<path d="M1550 886 c0 -2 9 -6 20 -9 11 -3 18 -1 14 4 -5 9 -34 13 -34 5z"/>
<path d="M320 868 c0 -4 4 -8 9 -8 6 0 12 4 15 8 3 5 -1 9 -9 9 -8 0 -15 -4
-15 -9z"/>
<path d="M730 877 c0 -2 6 -10 14 -16 11 -9 16 -9 22 1 4 7 4 10 -1 6 -4 -4
-14 -3 -22 3 -7 6 -13 9 -13 6z"/>
<path d="M1871 866 c-8 -10 -9 -16 -1 -21 6 -4 9 -1 8 6 -2 6 3 14 11 17 9 3
11 0 6 -8 -5 -9 -4 -11 4 -6 12 8 6 26 -8 26 -5 0 -14 -6 -20 -14z"/>
<path d="M2276 863 c-6 -14 -5 -15 5 -6 7 7 10 15 7 18 -3 3 -9 -2 -12 -12z"/>
<path d="M2866 871 c-4 -6 -2 -11 4 -11 6 0 9 -3 6 -8 -2 -4 3 -16 11 -27 15
-19 15 -19 8 5 -12 41 -21 54 -29 41z"/>
<path d="M287 859 c7 -7 15 -10 18 -7 3 3 -2 9 -12 12 -14 6 -15 5 -6 -5z"/>
<path d="M2234 852 c1 -17 19 -17 24 0 3 10 1 10 -6 -1 -9 -12 -11 -12 -14 0
-3 9 -5 10 -4 1z"/>
<path d="M2426 862 c-3 -5 1 -9 9 -9 8 0 12 4 9 9 -3 4 -7 8 -9 8 -2 0 -6 -4
-9 -8z"/>
<path d="M2970 866 c0 -2 7 -7 16 -10 8 -3 12 -2 9 4 -6 10 -25 14 -25 6z"/>
<path d="M233 848 c-25 -12 -29 -23 -13 -33 6 -3 10 -13 10 -21 0 -10 -5 -12
-12 -8 -9 5 -9 2 1 -9 20 -25 23 -21 18 21 -3 29 1 39 17 49 26 15 9 16 -21 1z"/>
<path d="M649 843 c-13 -16 -12 -17 4 -4 9 7 17 15 17 17 0 8 -8 3 -21 -13z"/>
<path d="M1533 845 c0 -8 4 -12 9 -9 5 3 6 10 3 15 -9 13 -12 11 -12 -6z"/>
<path d="M1950 850 c-9 -6 -10 -10 -3 -10 6 0 15 5 18 10 8 12 4 12 -15 0z"/>
<path d="M2480 856 c0 -4 7 -14 15 -22 8 -9 15 -11 15 -6 0 5 -7 15 -15 22 -8
7 -15 9 -15 6z"/>
<path d="M330 835 c5 -7 6 -16 2 -21 -4 -5 -3 -5 2 -1 15 12 15 34 0 34 -9 0
-11 -4 -4 -12z"/>
<path d="M789 833 c-13 -16 -12 -17 4 -4 9 7 17 15 17 17 0 8 -8 3 -21 -13z"/>
<path d="M860 845 c0 -7 30 -13 34 -7 3 4 -4 9 -15 9 -10 1 -19 0 -19 -2z"/>
<path d="M826 832 c-3 -5 1 -9 9 -9 8 0 12 4 9 9 -3 4 -7 8 -9 8 -2 0 -6 -4
-9 -8z"/>
<path d="M2210 836 c0 -2 8 -10 18 -17 15 -13 16 -12 3 4 -13 16 -21 21 -21
13z"/>
<path d="M253 813 c1 -15 5 -19 13 -13 6 6 15 6 19 2 5 -4 5 -1 1 6 -4 7 -11
10 -16 7 -4 -3 -10 1 -13 7 -3 7 -4 3 -4 -9z"/>
<path d="M473 822 l-53 -3 0 -60 c0 -60 1 -61 45 -61 79 0 132 4 144 11 18 11
24 86 8 99 -15 12 -75 18 -144 14z m117 -36 c0 -9 -18 -12 -60 -11 -56 1 -60
0 -60 -22 0 -13 -4 -23 -10 -23 -5 0 -10 15 -10 34 l0 34 70 0 c49 0 70 -3 70
-12z m0 -46 c0 -5 -25 -10 -55 -10 -30 0 -55 5 -55 10 0 6 25 10 55 10 30 0
55 -4 55 -10z"/>
<path d="M2038 823 c-72 -4 -95 -23 -28 -23 l40 0 0 -45 c0 -33 4 -45 15 -45
11 0 15 12 15 45 l0 45 40 -2 c37 -1 60 6 49 16 -9 8 -67 12 -131 9z"/>
<path d="M2380 822 c-95 -3 -120 -17 -120 -63 0 -44 31 -59 127 -59 67 0 83 3
83 15 0 12 -16 15 -84 15 -47 0 -88 5 -91 10 -4 6 22 10 69 10 58 0 76 3 76
14 0 11 -16 13 -76 11 -64 -3 -73 -1 -63 11 8 10 35 14 95 14 52 0 85 4 90 12
4 6 3 8 -4 4 -5 -3 -12 -3 -14 1 -1 5 -41 7 -88 5z"/>
<path d="M896 803 c-6 -14 -5 -15 5 -6 7 7 10 15 7 18 -3 3 -9 -2 -12 -12z"/>
<path d="M960 809 c0 -23 62 -99 86 -105 14 -4 26 -5 28 -3 83 118 87 127 49
115 -10 -4 -29 -24 -43 -46 -13 -22 -27 -40 -30 -40 -12 0 -41 61 -34 72 4 6
3 8 -4 4 -6 -3 -13 -2 -17 4 -8 13 -35 13 -35 -1z"/>
<path d="M1366 798 c-36 -27 -86 -30 -86 -5 0 10 -8 17 -20 17 -17 0 -20 -7
-20 -50 0 -43 3 -50 20 -50 13 0 20 7 20 20 0 29 53 26 94 -5 18 -14 44 -25
57 -25 26 1 26 1 -36 46 -20 15 -19 16 15 44 34 29 34 29 10 29 -14 0 -38 -9
-54 -21z"/>
<path d="M1559 802 c-14 -12 -20 -25 -16 -35 5 -14 21 -17 89 -17 103 0 94
-18 -12 -22 -41 -2 -75 -7 -75 -13 0 -6 35 -11 79 -13 70 -3 81 0 102 19 13
13 24 28 24 35 0 15 -107 29 -152 19 -29 -7 -31 -6 -19 9 10 12 32 16 92 16
46 0 79 4 79 10 0 6 -35 10 -84 10 -67 0 -88 -4 -107 -18z"/>
<path d="M710 790 c0 -32 21 -67 47 -79 30 -14 143 -15 143 -1 0 12 -30 19
-95 22 l-50 3 -3 38 c-3 29 -7 37 -23 37 -12 0 -19 -7 -19 -20z"/>
<path d="M780 806 c0 -2 8 -10 18 -17 15 -13 16 -12 3 4 -13 16 -21 21 -21 13z"/>
<path d="M1770 805 c0 -7 30 -13 34 -7 3 4 -4 9 -15 9 -10 1 -19 0 -19 -2z"/>
<path d="M1830 760 c0 -43 3 -50 20 -50 17 0 20 7 20 50 0 43 -3 50 -20 50
-17 0 -20 -7 -20 -50z"/>
<path d="M4 771 c1 -26 4 -30 27 -28 18 1 25 7 24 17 -2 8 -4 17 -4 19 -1 3
-8 -4 -16 -15 -8 -10 -15 -14 -14 -9 3 23 -2 45 -10 45 -5 0 -8 -13 -7 -29z"/>
<path d="M331 797 c2 -2 11 -8 20 -15 12 -9 16 -9 16 1 0 7 -9 14 -20 14 -11
1 -18 1 -16 0z"/>
<path d="M2982 791 c-11 -7 -11 -9 0 -14 9 -3 15 1 15 9 0 8 -1 14 -1 14 -1 0
-7 -4 -14 -9z"/>
<path d="M186 782 c-2 -4 -1 -14 5 -22 7 -12 9 -10 9 8 0 23 -5 28 -14 14z"/>
<path d="M275 781 c-6 -11 13 -26 22 -17 4 3 1 6 -6 6 -7 0 -9 5 -6 10 3 6 4
10 1 10 -3 0 -7 -4 -11 -9z"/>
<path d="M2900 785 c0 -3 9 -24 20 -45 11 -22 18 -40 14 -40 -4 0 -2 -6 4 -13
10 -12 22 -54 24 -84 1 -7 6 -13 11 -13 5 0 6 8 2 18 -4 9 -8 26 -11 36 -7 36
-27 91 -41 112 -7 11 -10 24 -6 27 3 4 1 7 -5 7 -7 0 -12 -2 -12 -5z"/>
<path d="M856 765 c4 -8 11 -15 16 -15 6 0 5 6 -2 15 -7 8 -14 15 -16 15 -2 0
-1 -7 2 -15z"/>
<path d="M926 765 c-11 -8 -15 -15 -9 -15 6 0 16 7 23 15 16 19 11 19 -14 0z"/>
<path d="M2184 764 c1 -8 4 -15 7 -16 2 -2 3 -1 2 1 -2 2 2 9 7 16 7 8 5 12
-4 12 -8 0 -13 -6 -12 -13z"/>
<path d="M2764 759 c-3 -6 -2 -15 3 -20 5 -5 9 -1 10 11 2 22 -2 25 -13 9z"/>
<path d="M100 751 c0 -8 -6 -11 -16 -7 -8 3 -13 2 -10 -3 7 -11 -22 -23 -35
-15 -14 8 -10 -6 6 -22 13 -14 15 -13 15 2 0 10 3 15 6 11 3 -3 15 3 27 13 11
11 17 23 14 27 -4 3 -7 1 -7 -6z"/>
<path d="M1166 738 c3 -5 10 -6 15 -3 13 9 11 12 -6 12 -8 0 -12 -4 -9 -9z"/>
<path d="M2575 740 c3 -5 8 -10 11 -10 2 0 4 5 4 10 0 6 -5 10 -11 10 -5 0 -7
-4 -4 -10z"/>
<path d="M199 726 c7 -8 10 -20 6 -27 -5 -8 0 -7 16 1 30 16 39 25 17 17 -10
-4 -18 -2 -18 2 0 5 -7 12 -16 15 -14 5 -15 4 -5 -8z"/>
<path d="M1195 729 c-4 -6 -5 -12 -2 -15 2 -3 7 2 10 11 7 17 1 20 -8 4z"/>
<path d="M2130 730 c-9 -6 -10 -10 -3 -10 6 0 15 5 18 10 8 12 4 12 -15 0z"/>
<path d="M2513 725 c6 -7 18 -10 26 -7 10 4 13 1 8 -10 -9 -25 16 -28 43 -5
14 11 18 18 9 14 -9 -3 -22 0 -28 6 -6 6 -24 12 -41 13 -23 2 -27 0 -17 -11z
m67 -19 c0 -3 -4 -8 -10 -11 -5 -3 -10 -1 -10 4 0 6 5 11 10 11 6 0 10 -2 10
-4z"/>
<path d="M101 720 c-9 -5 -7 -9 8 -13 12 -3 23 -2 26 3 7 11 -19 20 -34 10z"/>
<path d="M1990 726 c0 -2 8 -10 18 -17 15 -13 16 -12 3 4 -13 16 -21 21 -21
13z"/>
<path d="M2480 720 c0 -5 5 -10 11 -10 5 0 7 5 4 10 -3 6 -8 10 -11 10 -2 0
-4 -4 -4 -10z"/>
<path d="M1940 716 c0 -3 9 -10 20 -16 11 -6 20 -8 20 -6 0 3 -9 10 -20 16
-11 6 -20 8 -20 6z"/>
<path d="M10 701 c9 -7 11 -14 5 -18 -5 -5 -11 -15 -13 -23 -1 -10 3 -9 13 5
17 22 15 37 -6 43 -11 3 -11 2 1 -7z"/>
<path d="M153 704 c7 -13 -17 -27 -28 -16 -12 12 -52 9 -52 -5 0 -7 7 -13 15
-13 8 0 12 -6 9 -14 -4 -10 0 -14 14 -11 19 4 25 -5 12 -19 -4 -3 -7 -15 -8
-26 -1 -11 0 -18 3 -15 3 2 14 0 26 -6 19 -9 19 -9 4 4 -10 8 -15 17 -11 20 3
4 1 7 -5 7 -9 0 -9 5 0 19 7 11 15 18 19 15 4 -2 11 1 15 7 4 7 3 9 -3 6 -6
-4 -13 -1 -16 7 -8 21 21 28 32 8 5 -9 13 -13 18 -8 4 5 2 11 -5 13 -6 3 -9
10 -5 16 3 7 3 9 -2 5 -4 -4 -15 -2 -23 5 -10 8 -13 8 -9 1z m-29 -29 c5 0 11
-5 13 -11 6 -19 -24 -12 -36 9 -10 15 -10 18 1 11 7 -5 17 -9 22 -9z"/>
<path d="M371 694 c6 -7 16 -11 21 -8 11 7 3 17 -18 20 -12 2 -13 -1 -3 -12z"/>
<path d="M2159 693 c-12 -16 -12 -17 2 -6 9 7 20 9 24 5 5 -4 5 -1 1 6 -9 16
-11 15 -27 -5z"/>
<path d="M2880 695 c0 -8 4 -15 10 -15 5 0 7 7 4 15 -4 8 -8 15 -10 15 -2 0
-4 -7 -4 -15z"/>
<path d="M658 695 c-6 -6 0 -106 6 -113 3 -2 4 23 3 57 -1 33 -2 61 -3 61 0 0
-3 -2 -6 -5z"/>
<path d="M215 680 c-4 -6 1 -7 12 -3 16 6 17 5 3 -13 -8 -10 -10 -16 -6 -12 5
4 15 3 23 -4 11 -9 13 -8 11 2 -2 8 2 14 9 15 6 0 15 3 19 7 3 4 -3 6 -14 3
-12 -2 -24 0 -27 6 -8 12 -22 12 -30 -1z"/>
<path d="M2213 682 c-7 -4 -9 -13 -4 -21 6 -9 11 -10 15 -2 4 6 4 11 -1 12 -4
0 1 4 12 9 13 6 15 9 5 9 -8 0 -20 -3 -27 -7z"/>
<path d="M2263 683 c4 -6 1 -14 -5 -16 -10 -4 -10 -6 0 -6 7 -1 10 -6 6 -13
-4 -6 -3 -8 4 -5 12 8 10 32 -3 44 -4 4 -5 3 -2 -4z"/>
<path d="M2743 664 c0 -17 2 -22 7 -13 5 6 6 18 3 26 -8 19 -10 16 -10 -13z"/>
<path d="M296 663 c-6 -14 -5 -15 5 -6 7 7 10 15 7 18 -3 3 -9 -2 -12 -12z"/>
<path d="M935 669 c-4 -6 -5 -12 -2 -15 2 -3 7 2 10 11 7 17 1 20 -8 4z"/>
<path d="M1115 670 c-4 -6 -11 -7 -17 -4 -7 4 -8 2 -4 -5 6 -9 11 -9 22 0 14
11 18 19 10 19 -3 0 -8 -5 -11 -10z"/>
<path d="M1216 668 c3 -5 10 -6 15 -3 13 9 11 12 -6 12 -8 0 -12 -4 -9 -9z"/>
<path d="M2035 669 c-4 -6 -5 -12 -2 -15 2 -3 7 2 10 11 7 17 1 20 -8 4z"/>
<path d="M2087 666 c-3 -8 -2 -18 3 -21 13 -8 20 9 11 24 -6 10 -10 9 -14 -3z"/>
<path d="M2473 663 c0 -9 4 -10 14 -2 7 6 13 12 13 14 0 1 -6 2 -13 2 -8 0
-14 -6 -14 -14z"/>
<path d="M2510 665 c-9 -10 -9 -15 -1 -15 6 0 11 5 11 11 0 5 5 7 12 3 7 -4 8
-3 4 4 -9 15 -11 15 -26 -3z"/>
<path d="M476 658 c3 -5 10 -6 15 -3 13 9 11 12 -6 12 -8 0 -12 -4 -9 -9z"/>
<path d="M591 654 c0 -11 3 -14 6 -6 3 7 2 16 -1 19 -3 4 -6 -2 -5 -13z"/>
<path d="M2141 656 c-8 -10 -8 -16 3 -25 10 -8 16 -9 21 -1 4 6 3 10 -2 9 -20
-3 -25 2 -13 16 7 8 10 15 7 15 -2 0 -10 -6 -16 -14z"/>
<path d="M56 644 c-9 -8 -13 -21 -9 -27 4 -7 9 -3 14 9 6 18 7 18 14 2 4 -10
12 -18 18 -18 5 0 3 8 -6 18 -10 10 -14 22 -10 25 3 4 4 7 0 7 -3 0 -13 -7
-21 -16z"/>
<path d="M565 649 c-4 -6 -5 -12 -2 -15 2 -3 7 2 10 11 7 17 1 20 -8 4z"/>
<path d="M883 637 c0 -15 5 -30 11 -34 6 -3 8 -3 4 2 -4 4 -3 17 3 28 7 12 7
17 1 13 -6 -3 -12 0 -15 6 -2 7 -4 1 -4 -15z"/>
<path d="M991 629 c-13 -18 -19 -29 -13 -25 6 3 18 -4 26 -16 9 -12 16 -17 16
-11 0 6 -7 16 -15 23 -12 10 -12 15 2 36 22 35 11 29 -16 -7z"/>
<path d="M1758 653 c7 -3 16 -2 19 1 4 3 -2 6 -13 5 -11 0 -14 -3 -6 -6z"/>
<path d="M15 641 c-3 -5 -1 -12 4 -15 5 -3 11 1 15 9 6 16 -9 21 -19 6z"/>
<path d="M347 637 c-3 -8 3 -14 16 -15 12 0 17 2 12 6 -6 4 -13 11 -16 15 -4
4 -9 2 -12 -6z"/>
<path d="M502 621 c-13 -18 -18 -32 -12 -36 6 -4 9 -3 8 2 -1 4 4 18 12 30 12
18 17 20 30 10 13 -11 13 -10 1 6 -7 9 -14 17 -15 17 -1 0 -12 -13 -24 -29z"/>
<path d="M726 635 c-10 -8 -24 -12 -30 -8 -8 4 -8 3 0 -6 13 -14 40 -5 48 15
7 17 6 17 -18 -1z"/>
<path d="M1316 638 c3 -5 10 -6 15 -3 13 9 11 12 -6 12 -8 0 -12 -4 -9 -9z"/>
<path d="M1346 633 c-6 -14 -5 -15 5 -6 7 7 10 15 7 18 -3 3 -9 -2 -12 -12z"/>
<path d="M1926 635 c-3 -8 -1 -15 4 -15 6 0 10 7 10 15 0 8 -2 15 -4 15 -2 0
-6 -7 -10 -15z"/>
<path d="M2324 625 c0 -13 3 -22 7 -19 8 4 6 30 -2 38 -3 3 -5 -5 -5 -19z"/>
<path d="M200 615 c-12 -13 -27 -22 -31 -19 -5 3 -6 -1 -3 -9 2 -7 11 -14 18
-14 8 0 12 6 9 12 -2 7 8 22 23 34 15 11 22 21 17 21 -5 0 -20 -11 -33 -25z"/>
<path d="M459 638 c0 -2 -2 -16 -3 -31 -2 -26 -1 -27 11 -10 9 11 10 19 3 21
-5 2 -8 8 -4 13 3 5 3 9 0 9 -3 0 -6 -1 -7 -2z"/>
<path d="M1665 630 c3 -5 8 -10 11 -10 2 0 4 5 4 10 0 6 -5 10 -11 10 -5 0 -7
-4 -4 -10z"/>
<path d="M2192 628 c-16 -16 -15 -25 4 -32 13 -5 14 -4 6 7 -9 10 -8 17 0 25
7 7 10 12 7 12 -3 0 -10 -5 -17 -12z"/>
<path d="M2395 631 c3 -2 0 -10 -6 -17 -7 -8 -6 -14 2 -20 7 -4 9 -3 5 4 -3 6
-2 13 3 17 5 3 14 -2 19 -11 8 -14 10 -13 10 7 0 17 -6 25 -19 25 -10 0 -16
-2 -14 -5z"/>
<path d="M245 621 c-3 -5 -2 -12 3 -15 5 -3 9 1 9 9 0 17 -3 19 -12 6z"/>
<path d="M589 628 c-6 -20 -5 -38 1 -48 5 -7 7 0 6 19 -1 26 -4 39 -7 29z"/>
<path d="M855 621 c-3 -5 -2 -12 3 -15 5 -3 9 1 9 9 0 17 -3 19 -12 6z"/>
<path d="M1126 622 c-3 -5 1 -9 9 -9 8 0 12 4 9 9 -3 4 -7 8 -9 8 -2 0 -6 -4
-9 -8z"/>
<path d="M2523 620 c2 -8 12 -16 23 -17 13 -2 15 -1 4 4 -8 3 -19 11 -23 17
-6 7 -7 6 -4 -4z"/>
<path d="M14 605 c11 -8 26 -15 33 -15 22 0 14 8 -20 19 -29 10 -30 9 -13 -4z"/>
<path d="M420 616 c0 -2 7 -7 16 -10 8 -3 12 -2 9 4 -6 10 -25 14 -25 6z"/>
<path d="M762 616 c4 -5 0 -15 -10 -23 -15 -13 -15 -13 4 -4 14 7 24 7 31 0 6
-6 10 -4 10 6 0 8 -3 13 -5 10 -3 -3 -12 1 -21 7 -9 7 -13 8 -9 4z"/>
<path d="M1259 603 c-13 -16 -12 -17 4 -4 9 7 17 15 17 17 0 8 -8 3 -21 -13z"/>
<path d="M2793 614 c3 -5 0 -19 -7 -32 l-12 -23 -24 26 c-13 14 -31 25 -39 24
-12 0 -11 -3 4 -9 20 -9 10 -14 -25 -11 -10 0 -11 -1 -2 -5 6 -3 12 -11 12
-19 0 -7 11 -12 25 -12 15 0 22 4 18 11 -3 6 2 4 13 -5 11 -9 34 -15 57 -13
21 1 37 -3 37 -9 0 -6 2 -8 6 -5 3 3 -5 21 -16 39 -15 23 -19 27 -15 12 5 -19
2 -23 -14 -23 -12 0 -21 5 -21 11 0 5 4 8 8 5 4 -2 8 4 9 14 1 11 -3 23 -9 26
-6 4 -9 3 -5 -2z m-63 -39 c-7 -9 -15 -13 -19 -10 -3 3 1 10 9 15 21 14 24 12
10 -5z"/>
<path d="M2885 610 c-3 -5 -1 -10 4 -10 6 0 11 5 11 10 0 6 -2 10 -4 10 -3 0
-8 -4 -11 -10z"/>
<path d="M216 602 c-2 -4 7 -13 21 -19 25 -12 25 -12 8 7 -20 22 -22 23 -29
12z"/>
<path d="M274 599 c-8 -14 14 -19 25 -6 8 10 7 14 -5 14 -8 0 -17 -4 -20 -8z"/>
<path d="M2090 594 c8 -10 15 -20 16 -22 1 -2 4 1 7 5 3 5 -4 15 -16 23 -21
12 -21 12 -7 -6z"/>
<path d="M2457 599 c7 -7 15 -10 18 -7 3 3 -2 9 -12 12 -14 6 -15 5 -6 -5z"/>
<path d="M340 591 c0 -6 4 -13 10 -16 6 -3 7 1 4 9 -7 18 -14 21 -14 7z"/>
<path d="M700 590 c-8 -5 -10 -10 -5 -10 6 0 17 5 25 10 8 5 11 10 5 10 -5 0
-17 -5 -25 -10z"/>
<path d="M1046 591 c-4 -5 3 -7 14 -4 23 6 26 13 6 13 -8 0 -17 -4 -20 -9z"/>
<path d="M1915 590 c-3 -5 -1 -10 4 -10 6 0 11 5 11 10 0 6 -2 10 -4 10 -3 0
-8 -4 -11 -10z"/>
<path d="M2056 592 c-3 -5 1 -9 9 -9 8 0 12 4 9 9 -3 4 -7 8 -9 8 -2 0 -6 -4
-9 -8z"/>
<path d="M2247 589 c7 -7 15 -10 18 -7 3 3 -2 9 -12 12 -14 6 -15 5 -6 -5z"/>
<path d="M884 573 c14 -18 23 -20 37 -12 25 13 24 16 -3 14 -13 -1 -30 3 -38
9 -8 6 -7 1 4 -11z"/>
<path d="M2525 579 c-4 -6 -5 -12 -2 -15 2 -3 7 2 10 11 7 17 1 20 -8 4z"/>
<path d="M2574 566 c22 -23 37 -26 18 -3 -7 8 -10 16 -7 18 2 3 -4 5 -14 6
-17 1 -17 0 3 -21z"/>
<path d="M609 564 c-10 -12 -30 -15 -101 -12 -52 2 -90 -1 -92 -7 -3 -5 -5 -4
-5 4 -1 10 -5 11 -14 3 -7 -6 -89 -12 -198 -14 -103 -2 -185 -6 -182 -10 2 -5
-1 -8 -6 -8 -6 0 -11 -6 -11 -12 0 -9 16 -13 45 -13 29 0 45 4 45 13 0 9 21
11 86 7 57 -4 83 -2 79 5 -4 6 5 10 22 10 23 0 25 -2 13 -11 -13 -9 -13 -10 1
-6 9 3 21 2 28 -3 8 -4 -14 -10 -50 -13 -76 -7 -115 -5 -125 6 -4 4 -16 7 -27
7 -21 0 -17 -11 6 -17 60 -15 97 -18 126 -10 19 5 56 7 82 5 27 -1 49 -2 49
-1 0 2 -17 11 -37 22 l-38 20 38 1 c21 0 36 -4 32 -9 -3 -5 -1 -13 5 -16 6 -4
9 -1 8 7 -3 14 6 15 139 25 53 3 76 9 89 24 9 10 15 19 12 19 -3 0 -11 -7 -19
-16z"/>
<path d="M1067 574 c7 -3 10 -11 7 -19 -3 -7 -1 -16 5 -20 7 -3 8 0 5 9 -4 10
-1 16 7 16 11 0 11 3 -1 10 -8 5 -19 9 -25 9 -5 0 -5 -3 2 -5z"/>
<path d="M2460 576 c0 -2 7 -7 16 -10 8 -3 12 -2 9 4 -6 10 -25 14 -25 6z"/>
<path d="M673 555 c0 -6 14 -9 34 -7 39 5 35 16 -6 17 -15 0 -28 -4 -28 -10z"/>
<path d="M1877 563 c-15 -2 -25 -8 -22 -13 3 -5 1 -11 -5 -15 -5 -3 -10 -11
-10 -18 0 -6 7 -2 15 10 11 15 23 21 43 18 15 -2 21 -2 14 1 -6 3 -10 10 -6
15 3 5 4 8 2 8 -2 -1 -15 -4 -31 -6z"/>
<path d="M2435 561 c-3 -5 -2 -12 3 -15 5 -3 9 1 9 9 0 17 -3 19 -12 6z"/>
<path d="M750 553 c0 -5 24 -8 54 -8 30 0 52 3 50 7 -7 10 -104 10 -104 1z"/>
<path d="M2066 543 c-6 -14 -5 -15 5 -6 7 7 10 15 7 18 -3 3 -9 -2 -12 -12z"/>
<path d="M1985 540 c-3 -6 1 -7 9 -4 18 7 21 14 7 14 -6 0 -13 -4 -16 -10z"/>
<path d="M1733 525 c0 -8 3 -13 5 -10 3 3 12 -1 21 -7 10 -8 9 -4 -3 10 -23
26 -23 26 -23 7z"/>
<path d="M1955 531 c-6 -11 13 -26 22 -17 4 3 1 6 -6 6 -7 0 -9 5 -6 10 3 6 4
10 1 10 -3 0 -7 -4 -11 -9z"/>
<path d="M2009 513 c-13 -16 -12 -17 4 -4 16 13 21 21 13 21 -2 0 -10 -8 -17
-17z"/>
<path d="M2991 514 c0 -11 3 -14 6 -6 3 7 2 16 -1 19 -3 4 -6 -2 -5 -13z"/>
<path d="M2850 511 c0 -5 7 -12 16 -15 14 -5 15 -4 4 9 -14 17 -20 19 -20 6z"/>
<path d="M50 479 c0 -10 68 -16 81 -8 7 4 -9 8 -35 10 -25 2 -46 1 -46 -2z"/>
<path d="M1950 479 c0 -5 5 -7 10 -4 6 3 10 8 10 11 0 2 -4 4 -10 4 -5 0 -10
-5 -10 -11z"/>
<path d="M2190 470 c-6 -11 -8 -20 -6 -20 3 0 10 9 16 20 6 11 8 20 6 20 -3 0
-10 -9 -16 -20z"/>
<path d="M563 459 c-2 -23 3 -25 10 -4 4 8 3 16 -1 19 -4 3 -9 -4 -9 -15z"/>
<path d="M155 460 c-4 -6 -10 -8 -15 -5 -5 3 -11 1 -14 -4 -4 -5 -2 -12 4 -16
6 -4 8 -11 5 -16 -4 -5 3 -6 17 0 13 4 36 6 52 4 25 -3 28 -1 23 16 -6 25 -4
26 36 4 l32 -17 -50 -12 -50 -11 70 1 c61 1 71 4 72 19 2 15 -1 16 -13 7 -13
-12 -18 -7 -15 13 1 5 -3 6 -8 2 -6 -3 -24 1 -40 10 -31 16 -65 11 -54 -9 4
-8 2 -8 -7 1 -7 6 -19 9 -28 6 -10 -4 -13 -2 -8 5 4 7 5 12 2 12 -3 0 -8 -5
-11 -10z"/>
<path d="M445 460 c-3 -6 1 -7 9 -4 18 7 21 14 7 14 -6 0 -13 -4 -16 -10z"/>
<path d="M495 460 c-3 -6 1 -7 9 -4 18 7 21 14 7 14 -6 0 -13 -4 -16 -10z"/>
<path d="M30 449 c0 -5 5 -7 12 -3 6 4 8 3 5 -3 -4 -6 -1 -13 6 -16 8 -3 14 3
14 14 1 13 -5 19 -18 19 -10 0 -19 -5 -19 -11z"/>
<path d="M83 440 c2 -26 -8 -29 -48 -15 -17 6 -18 5 -5 -5 13 -10 12 -11 -5
-7 -16 3 -21 -1 -22 -17 -1 -12 1 -16 4 -9 2 6 15 9 29 7 18 -3 23 -1 18 7 -4
8 -3 9 4 5 20 -12 13 -24 -15 -29 -16 -2 -5 -4 24 -3 52 1 52 1 49 31 -2 17
-7 29 -12 27 -4 -2 -12 5 -16 15 -6 14 -7 13 -5 -7z m15 -30 c-7 -10 -14 -17
-17 -15 -4 4 18 35 25 35 2 0 -1 -9 -8 -20z"/>
<path d="M400 440 c15 -28 27 -32 26 -8 -1 12 -9 22 -18 24 -14 2 -16 -1 -8
-16z"/>
<path d="M741 433 c-12 -16 -19 -22 -16 -15 3 6 0 12 -7 13 -7 0 -4 5 7 10 29
13 -21 4 -223 -43 -96 -22 -180 -37 -188 -34 -10 4 -12 2 -8 -6 5 -8 -3 -9
-27 -5 -19 3 -28 3 -21 0 6 -2 12 -8 12 -13 0 -10 -45 2 -87 23 -27 14 -33 14
-43 2 -6 -7 -18 -11 -26 -8 -8 3 -14 1 -14 -4 0 -5 9 -9 20 -10 11 -1 20 2 20
7 0 11 40 6 64 -7 16 -9 14 -11 -14 -16 -18 -4 -44 -4 -58 -1 -19 4 -23 3 -13
-4 10 -7 3 -12 -27 -17 -23 -4 -47 -3 -53 1 -8 4 -9 3 -5 -4 5 -8 0 -12 -13
-12 -12 0 -21 -5 -21 -10 0 -11 69 -8 87 3 4 3 32 8 61 11 40 4 52 3 52 -8 0
-8 -38 -26 -100 -46 -95 -31 -128 -55 -76 -55 13 0 22 4 18 9 -3 5 5 7 16 4
14 -4 20 -2 15 5 -4 6 2 8 15 5 12 -4 20 -3 18 1 -5 7 243 86 474 152 222 64
240 70 240 79 0 5 -4 12 -10 15 -5 3 -10 -1 -10 -10 0 -10 -6 -15 -17 -13 -10
2 -17 10 -15 16 3 18 -2 15 -27 -15z m-35 -15 c5 -7 0 -9 -14 -6 -12 3 -23 1
-26 -6 -2 -6 -5 -3 -5 7 -1 19 34 24 45 5z m-65 -15 c12 -14 12 -15 0 -9 -8 5
-17 3 -22 -5 -7 -11 -9 -11 -9 2 0 13 8 29 15 29 2 0 9 -8 16 -17z m-42 -10
c0 -11 -3 -13 -6 -6 -3 9 -11 8 -31 -5 -14 -9 -23 -12 -19 -5 4 6 1 14 -5 17
-7 4 -3 4 10 2 12 -2 22 0 22 5 0 5 7 9 15 9 8 0 15 -8 14 -17z m-74 -12 c9
-16 -9 -20 -23 -5 -10 12 -10 14 2 14 8 0 17 -4 21 -9z m-45 -12 c12 -8 10 -9
-9 -4 -16 5 -21 4 -17 -4 4 -6 2 -11 -3 -11 -12 0 -14 13 -4 23 9 9 15 9 33
-4z m-53 -5 c-3 -3 -12 -4 -19 -1 -8 3 -5 6 6 6 11 1 17 -2 13 -5z m-32 -13
c3 -5 1 -12 -4 -15 -5 -3 -11 1 -15 9 -6 16 9 21 19 6z m-48 -27 c2 -13 1 -15
-4 -4 -3 8 -11 19 -17 23 -7 6 -6 7 4 4 8 -2 16 -12 17 -23z m-27 -9 c-21 -21
-84 -33 -78 -14 2 7 16 14 31 14 15 1 30 5 34 8 3 4 11 7 17 7 6 0 4 -7 -4
-15z m-90 -21 c0 -8 -4 -14 -10 -14 -5 0 -10 9 -10 21 0 11 5 17 10 14 6 -3
10 -13 10 -21z"/>
<path d="M2199 443 c-13 -16 -12 -17 4 -4 16 13 21 21 13 21 -2 0 -10 -8 -17
-17z"/>
<path d="M2126 437 c3 -10 9 -15 12 -12 3 3 0 11 -7 18 -10 9 -11 8 -5 -6z"/>
<path d="M380 426 c0 -2 8 -10 18 -17 15 -13 16 -12 3 4 -13 16 -21 21 -21 13z"/>
<path d="M1687 409 c7 -7 15 -10 18 -7 3 3 -2 9 -12 12 -14 6 -15 5 -6 -5z"/>
<path d="M2950 400 c0 -5 7 -6 17 -3 11 4 14 3 9 -5 -5 -8 -2 -10 8 -6 24 9
19 19 -9 22 -14 1 -25 -3 -25 -8z"/>
<path d="M136 392 c-3 -5 8 -6 25 -4 16 2 29 6 29 8 0 8 -49 4 -54 -4z"/>
<path d="M1479 385 c21 -43 37 -59 46 -45 5 9 4 11 -3 6 -7 -4 -12 -4 -12 1 0
4 -10 19 -21 33 -14 17 -17 19 -10 5z"/>
<path d="M210 381 c0 -6 4 -13 10 -16 6 -3 7 1 4 9 -7 18 -14 21 -14 7z"/>
<path d="M1600 382 c0 -5 7 -15 15 -22 8 -7 15 -9 15 -6 0 4 -7 14 -15 22 -8
9 -15 11 -15 6z"/>
<path d="M1744 376 c11 -9 24 -16 30 -16 12 0 7 5 -24 19 -24 11 -24 11 -6 -3z"/>
<path d="M68 359 c-10 -5 -18 -7 -18 -2 0 4 -7 -3 -16 -15 -8 -12 -20 -20 -25
-17 -5 4 -9 1 -9 -4 0 -17 14 -13 40 9 13 11 28 20 33 20 6 0 3 -6 -8 -13 -13
-10 -15 -16 -6 -21 7 -5 15 -5 18 -2 5 5 14 56 10 56 -1 0 -10 -5 -19 -11z"/>
<path d="M2933 355 c-9 -25 6 -31 25 -10 16 18 16 18 -2 4 -18 -13 -19 -12
-13 4 3 9 4 17 1 17 -2 0 -7 -7 -11 -15z"/>
<path d="M0 350 c0 -5 4 -10 9 -10 6 0 13 5 16 10 3 6 -1 10 -9 10 -9 0 -16
-4 -16 -10z"/>
<path d="M1356 348 c3 -5 10 -6 15 -3 13 9 11 12 -6 12 -8 0 -12 -4 -9 -9z"/>
<path d="M1655 330 c21 -24 26 -25 19 -6 -3 8 -13 17 -22 21 -13 5 -13 2 3
-15z"/>
<path d="M1060 330 c-9 -6 -10 -10 -3 -10 6 0 15 5 18 10 8 12 4 12 -15 0z"/>
<path d="M1263 285 c0 -8 4 -12 9 -9 5 3 6 10 3 15 -9 13 -12 11 -12 -6z"/>
<path d="M1568 293 c7 -3 16 -2 19 1 4 3 -2 6 -13 5 -11 0 -14 -3 -6 -6z"/>
<path d="M1171 276 c-8 -9 -8 -16 -2 -20 5 -4 12 -2 16 4 3 5 3 10 -2 10 -4 0
-1 5 7 10 8 5 10 10 4 10 -6 0 -17 -6 -23 -14z"/>
<path d="M1076 271 c-3 -5 0 -11 7 -14 8 -3 14 1 14 9 0 16 -13 19 -21 5z"/>
<path d="M1460 268 c0 -6 3 -8 7 -5 3 4 11 2 18 -3 8 -7 12 -6 12 3 0 7 -9 14
-19 14 -10 1 -18 -3 -18 -9z"/>
<path d="M2885 270 c-4 -6 -5 -10 -3 -11 25 -6 38 -6 38 1 0 12 -29 20 -35 10z"/>
<path d="M1320 256 c0 -2 8 -10 18 -17 15 -13 16 -12 3 4 -13 16 -21 21 -21
13z"/>
<path d="M1431 246 c-8 -10 -9 -16 -1 -21 5 -3 10 -5 11 -3 4 18 7 38 4 38 -1
0 -8 -6 -14 -14z"/>
<path d="M2630 250 c-17 -11 -18 -11 30 -15 19 -2 98 -20 175 -39 148 -38 165
-41 165 -28 0 6 -332 93 -350 92 -3 0 -12 -5 -20 -10z"/>
<path d="M2864 243 c4 -8 2 -13 -6 -14 -7 0 1 -5 17 -10 20 -6 31 -5 34 2 2 6
8 4 15 -5 6 -8 27 -17 46 -20 19 -3 30 -3 23 0 -7 3 -9 13 -6 22 5 13 3 14 -6
6 -13 -12 -54 -7 -46 6 2 4 -8 6 -23 6 -15 -1 -33 3 -41 9 -11 7 -13 7 -7 -2z"/>
<path d="M1020 225 c-11 -14 -11 -19 5 -33 16 -16 17 -16 6 6 -8 14 -8 22 -1
22 5 0 10 -5 10 -12 0 -6 3 -9 6 -5 3 3 2 13 -3 22 -9 15 -11 15 -23 0z"/>
<path d="M1215 231 c-3 -5 -2 -12 3 -15 5 -3 9 1 9 9 0 17 -3 19 -12 6z"/>
<path d="M1465 229 c-4 -6 -5 -12 -2 -15 2 -3 7 2 10 11 7 17 1 20 -8 4z"/>
<path d="M1552 225 c4 -24 26 -50 36 -41 3 4 2 10 -4 14 -6 4 -16 16 -23 27
-11 20 -11 20 -9 0z"/>
<path d="M2056 222 c-5 -9 8 -34 18 -33 20 3 25 -1 28 -21 5 -32 -12 -68 -28
-61 -8 3 -11 10 -7 17 3 6 2 7 -2 3 -15 -13 -15 -39 0 -33 8 3 17 1 20 -4 6
-9 -8 -14 -27 -11 -5 0 -8 -4 -8 -10 0 -6 7 -9 14 -6 10 4 13 1 9 -9 -3 -7
-12 -14 -21 -14 -8 0 -13 -3 -9 -6 9 -10 47 6 47 20 0 7 7 27 16 45 9 18 14
43 12 56 -4 16 -1 22 9 18 7 -3 13 -9 13 -15 0 -5 4 -7 9 -3 5 3 12 1 16 -5 3
-6 -4 -10 -17 -10 -20 -1 -21 -2 -8 -13 15 -12 21 -77 8 -77 -5 0 -8 3 -7 6 0
4 -5 11 -13 15 -10 7 -10 9 0 9 7 0 10 5 7 11 -7 11 -34 -17 -35 -36 0 -5 5
-3 11 5 7 11 9 7 7 -19 -2 -24 2 -36 12 -38 13 -4 13 -3 0 6 -13 10 -8 15 12
12 15 -2 30 41 23 67 -5 20 -3 23 7 16 27 -21 42 -10 43 31 1 22 -3 46 -8 52
-5 7 -7 20 -3 28 4 11 -1 15 -22 14 -18 -1 -21 -3 -9 -6 10 -3 16 -11 13 -18
-3 -8 0 -16 7 -19 7 -2 0 -4 -15 -3 -26 1 -34 13 -29 40 1 5 -4 5 -10 2 -6 -4
-9 -16 -6 -26 6 -23 6 -23 -37 -2 -19 9 -33 20 -30 25 3 4 3 8 0 8 -3 0 -7 -4
-10 -8z m143 -49 c14 11 14 10 2 -5 -11 -15 -11 -18 0 -18 10 0 10 -3 1 -12
-7 -7 -8 -16 -2 -23 7 -8 5 -12 -5 -12 -19 0 -29 28 -13 38 9 6 8 10 -5 15 -9
3 -17 11 -17 17 0 8 4 7 12 -1 9 -9 15 -9 27 1z"/>
<path d="M1371 196 c-9 -10 -7 -17 6 -27 16 -12 17 -12 6 2 -10 12 -10 18 -1
27 7 7 9 12 6 12 -3 0 -11 -6 -17 -14z"/>
<path d="M2333 180 c-37 -22 -40 -27 -18 -27 8 0 12 4 9 9 -3 4 6 8 20 8 14 0
26 -4 26 -9 0 -10 -30 -25 -43 -22 -4 1 -3 -8 3 -20 7 -11 9 -23 6 -26 -3 -3
-8 2 -12 11 -8 21 -26 21 -22 -1 2 -12 -4 -18 -19 -19 -13 -1 -23 3 -23 8 0 5
-4 7 -9 3 -14 -8 -9 -44 7 -50 10 -4 12 0 8 10 -3 9 -2 13 4 10 14 -9 12 -32
-2 -38 -7 -3 -3 -4 8 -4 15 1 20 6 16 15 -3 10 0 13 9 10 8 -3 13 -11 11 -17
-1 -7 2 -10 8 -6 5 3 10 0 10 -7 0 -9 3 -9 10 2 5 8 10 20 10 25 0 6 -4 4 -9
-4 -5 -8 -11 -9 -15 -3 -7 12 20 36 33 28 16 -11 30 25 20 52 -6 16 -6 29 2
38 9 11 8 15 -5 20 -9 3 -13 10 -10 15 8 13 3 11 -33 -11z m35 -88 c-4 -2 -5
-9 -2 -14 5 -7 2 -8 -5 -4 -7 5 -20 1 -31 -9 -12 -11 -20 -13 -25 -6 -8 14 3
33 15 26 4 -3 15 -2 24 1 13 5 14 10 5 20 -6 7 -8 18 -4 24 5 8 12 3 19 -12 7
-12 8 -25 4 -26z"/>
<path d="M1324 179 c-4 -7 -3 -9 4 -5 5 3 13 0 15 -6 4 -9 6 -10 6 -1 1 17
-16 25 -25 12z"/>
<path d="M1536 178 c3 -5 10 -6 15 -3 13 9 11 12 -6 12 -8 0 -12 -4 -9 -9z"/>
<path d="M231 145 l-1 -40 18 23 c14 19 20 20 32 10 12 -11 12 -11 1 4 -7 9
-18 14 -26 12 -7 -3 -15 3 -18 13 -3 10 -5 0 -6 -22z"/>
<path d="M374 165 c-4 -8 -10 -15 -16 -15 -5 0 -6 6 -2 13 5 7 1 7 -12 -3 -30
-22 -30 -24 -9 -17 18 7 19 6 3 -6 -10 -8 -15 -17 -11 -20 3 -4 1 -7 -4 -7 -6
0 -14 6 -16 13 -3 7 -6 5 -6 -5 -1 -18 -61 -56 -61 -39 0 10 30 25 43 22 5 -1
6 3 3 8 -4 5 -16 4 -31 -2 -21 -10 -28 -24 -24 -53 0 -3 -11 -16 -25 -29 -23
-21 -23 -24 -6 -22 10 1 21 10 24 20 2 10 9 16 15 13 6 -4 8 -13 4 -21 -6 -17
12 -21 22 -5 5 8 11 7 21 -1 12 -10 13 -9 8 5 -3 9 -14 16 -23 16 -13 0 -14 2
-2 9 19 12 54 -5 46 -22 -4 -7 3 -1 14 12 20 22 21 22 21 3 0 -24 36 -37 38
-13 3 26 2 75 -2 79 -2 2 -21 -4 -41 -12 -43 -19 -45 -19 -45 -8 0 11 48 34
78 37 12 2 22 -1 22 -6 0 -6 5 -7 10 -4 14 9 1 28 -14 22 -9 -4 -12 5 -11 24
2 32 -2 37 -11 14z m-98 -112 c-29 -15 -43 -12 -31 7 4 6 13 9 21 6 8 -3 14
-1 14 5 0 6 5 7 11 3 8 -4 2 -12 -15 -21z m95 9 c0 -4 2 -15 4 -25 5 -25 -12
-21 -18 5 -5 18 -8 19 -22 8 -16 -13 -31 -8 -22 7 7 11 57 15 58 5z"/>
<path d="M185 154 c12 -31 11 -95 -2 -106 -14 -11 -9 -28 8 -28 6 0 7 5 4 10
-3 6 -1 10 5 10 17 0 9 122 -9 128 -10 4 -12 0 -6 -14z"/>
<path d="M731 150 c-1 -14 -16 -40 -37 -59 -34 -33 -35 -34 -41 -13 -3 12 -10
22 -17 22 -6 0 -4 5 4 10 13 8 12 10 -2 10 -15 0 -18 -9 -18 -46 0 -33 -5 -51
-17 -61 -17 -13 -16 -13 2 -5 11 6 23 12 26 14 3 1 12 -2 20 -8 25 -21 96 -5
96 21 0 15 -11 11 -40 -14 -17 -15 -18 -14 -12 12 5 19 3 27 -6 27 -18 0 -5
10 20 15 11 2 21 0 21 -6 0 -5 4 -9 10 -9 5 0 7 7 3 16 -3 9 -12 13 -22 9 -9
-3 0 8 19 25 19 16 29 30 23 30 -7 0 -14 -6 -14 -12 -1 -7 -5 1 -9 17 -7 28
-8 28 -9 5z m-65 -96 c15 6 25 -16 14 -33 -5 -10 -11 -8 -22 8 -8 11 -17 18
-20 16 -3 -3 -5 7 -5 22 0 27 0 28 10 5 6 -13 16 -21 23 -18z"/>
<path d="M2403 109 c0 -37 -4 -63 -12 -68 -18 -11 -2 -41 23 -41 21 1 21 1 -2
13 -12 7 -19 16 -16 20 11 11 26 8 19 -3 -3 -5 0 -7 8 -4 8 3 18 1 22 -5 3 -6
12 -11 18 -11 7 0 -3 12 -20 26 -18 14 -33 30 -33 37 0 6 7 2 15 -9 15 -18 15
-18 9 8 -5 23 -2 29 20 38 14 5 26 13 26 18 0 7 -62 42 -74 42 -2 0 -3 -27 -3
-61z m53 26 c13 -10 15 -14 5 -15 -8 0 -22 -7 -32 -16 -16 -14 -17 -14 -14 3
1 10 8 17 14 16 15 -4 14 14 -1 20 -7 3 -8 6 -2 6 5 1 19 -6 30 -14z"/>
<path d="M1469 133 c-13 -15 -17 -22 -8 -15 9 6 19 10 22 7 4 -3 5 -2 2 2 -3
3 0 12 6 20 21 25 3 13 -22 -14z"/>
<path d="M413 139 c12 -7 16 -17 11 -31 -5 -17 -4 -18 15 -9 25 14 29 43 4 34
-9 -4 -14 -2 -10 3 3 6 -4 11 -16 11 -20 2 -20 1 -4 -8z"/>
<path d="M470 137 c0 -9 8 -20 18 -26 14 -8 15 -12 3 -23 -12 -11 -13 -11 -6
1 6 11 2 12 -21 7 -16 -4 -36 -8 -45 -9 -9 -1 -15 -7 -12 -14 3 -7 10 -11 15
-10 6 1 13 -4 15 -10 3 -7 -2 -13 -10 -13 -8 0 -18 -7 -21 -16 -3 -8 -2 -12 3
-9 5 3 12 1 16 -5 9 -14 45 -13 45 2 0 9 3 9 12 0 22 -22 38 -14 36 17 -1 16
-7 29 -13 28 -10 -2 -11 7 0 34 3 8 -3 25 -15 39 -15 18 -20 19 -20 7z m40
-114 c0 -16 -12 -17 -28 -1 -8 8 -15 8 -27 -2 -11 -9 -19 -10 -26 -3 -8 8 -5
13 11 18 16 5 19 10 10 20 -7 8 -9 19 -5 25 8 12 65 -38 65 -57z"/>
<path d="M470 46 c0 -2 8 -10 18 -17 15 -13 16 -12 3 4 -13 16 -21 21 -21 13z"/>
<path d="M1340 139 c0 -5 5 -7 10 -4 6 3 10 8 10 11 0 2 -4 4 -10 4 -5 0 -10
-5 -10 -11z"/>
<path d="M1406 137 c3 -10 9 -15 12 -12 3 3 0 11 -7 18 -10 9 -11 8 -5 -6z"/>
<path d="M2277 131 c-3 -12 -2 -23 3 -26 12 -7 22 27 12 37 -6 6 -12 1 -15
-11z"/>
<path d="M47 119 c7 -7 15 -10 18 -7 3 3 -2 9 -12 12 -14 6 -15 5 -6 -5z"/>
<path d="M1575 119 c-4 -6 -5 -12 -2 -15 2 -3 7 2 10 11 7 17 1 20 -8 4z"/>
<path d="M1130 116 c0 -2 7 -7 16 -10 8 -3 12 -2 9 4 -6 10 -25 14 -25 6z"/>
<path d="M1319 103 c-12 -16 -12 -17 2 -6 9 7 20 9 24 5 5 -4 5 -1 1 6 -9 16
-11 15 -27 -5z"/>
<path d="M160 95 c-11 -13 -10 -14 4 -9 9 3 16 10 16 15 0 13 -6 11 -20 -6z"/>
<path d="M1393 104 c3 -6 2 -16 -2 -23 -7 -10 -14 -11 -32 -1 -23 11 -23 10
-5 -4 26 -21 33 -20 46 3 7 14 7 22 -2 27 -6 4 -8 3 -5 -2z"/>
<path d="M1426 102 c-3 -5 1 -9 9 -9 8 0 12 4 9 9 -3 4 -7 8 -9 8 -2 0 -6 -4
-9 -8z"/>
<path d="M586 84 c-3 -8 -10 -13 -15 -9 -5 3 -13 0 -17 -6 -5 -8 -3 -9 5 -4 9
5 12 1 9 -14 -3 -21 -23 -31 -23 -12 0 5 -3 13 -7 17 -5 4 -8 -2 -8 -13 0 -28
44 -47 45 -20 1 6 5 11 10 10 6 -1 11 14 12 33 2 37 -1 43 -11 18z"/>
<path d="M1171 68 c-1 -21 4 -28 17 -28 11 0 13 3 6 8 -7 4 -14 16 -17 27 -4
15 -5 14 -6 -7z"/>
<path d="M1490 81 c0 -6 4 -13 10 -16 6 -3 7 1 4 9 -7 18 -14 21 -14 7z"/>
<path d="M2215 80 c-4 -6 -10 -8 -15 -5 -4 3 -6 -5 -3 -17 4 -19 3 -20 -6 -8
-7 10 -11 11 -11 3 0 -22 -3 -28 -18 -39 -13 -9 -11 -11 9 -10 13 1 29 5 36 9
6 4 14 1 17 -5 2 -7 4 -4 3 7 -2 11 -6 26 -11 33 -4 7 -2 19 4 27 7 8 10 15 7
15 -3 0 -9 -5 -12 -10z m-5 -56 c-15 -17 -17 -17 -23 -1 -3 8 3 14 15 14 16 2
17 -1 8 -13z"/>
<path d="M1293 65 c0 -7 6 -11 14 -8 7 3 13 6 13 8 0 2 -6 5 -13 8 -8 3 -14
-1 -14 -8z"/>
<path d="M1406 61 c-20 -22 -20 -31 -2 -31 8 0 13 8 12 17 -1 19 24 25 37 8 5
-6 7 -5 5 4 -6 21 -34 22 -52 2z"/>
<path d="M1040 59 c0 -6 7 -9 15 -5 19 7 19 1 -1 -29 -14 -21 -14 -23 0 -21 9
1 22 8 29 16 10 12 9 12 -5 1 -20 -15 -25 -2 -7 16 6 6 8 16 5 22 -9 14 -36
14 -36 0z"/>
<path d="M1333 58 c1 -7 -3 -12 -9 -11 -6 1 -11 -4 -11 -12 0 -7 6 -11 14 -8
7 3 13 9 13 15 0 5 6 6 13 2 8 -5 8 -2 -2 9 -16 20 -22 22 -18 5z"/>
<path d="M2480 54 c0 -13 -3 -14 -14 -5 -10 8 -16 9 -21 1 -3 -5 0 -10 7 -11
7 0 20 -2 29 -4 12 -2 15 3 12 16 -6 23 -13 25 -13 3z"/>
<path d="M1226 51 c-18 -7 -18 -8 -3 -14 9 -3 17 -2 17 3 0 6 4 10 9 10 5 0 8
-12 6 -27 -2 -16 -2 -22 1 -15 3 6 9 10 13 8 12 -8 9 28 -3 36 -13 9 -15 9
-40 -1z"/>
<path d="M1469 43 c-13 -16 -12 -17 4 -4 16 13 21 21 13 21 -2 0 -10 -8 -17
-17z"/>
<path d="M1433 35 c0 -8 4 -12 9 -9 5 3 6 10 3 15 -9 13 -12 11 -12 -6z"/>
<path d="M2243 22 c1 -15 8 -22 22 -22 15 0 17 2 6 9 -7 5 -17 15 -22 22 -6
10 -8 7 -6 -9z"/>
<path d="M2357 26 c-4 -10 -5 -21 -2 -24 9 -9 17 6 13 25 -3 17 -4 17 -11 -1z"/>
<path d="M140 18 c-12 -8 -12 -9 2 -5 9 3 19 1 22 -6 3 -9 5 -9 5 0 1 18 -13
23 -29 11z"/>
<path d="M1100 15 c-9 -10 -7 -13 7 -10 10 2 20 4 23 5 3 1 10 1 15 0 6 -1 6
2 2 6 -13 13 -36 13 -47 -1z"/>
<path d="M1205 10 c-3 -5 -1 -10 4 -10 6 0 11 5 11 10 0 6 -2 10 -4 10 -3 0
-8 -4 -11 -10z"/>
<path d="M1320 10 c-8 -5 -10 -10 -5 -10 6 0 17 5 25 10 8 5 11 10 5 10 -5 0
-17 -5 -25 -10z"/>
<path d="M1574 8 c-3 -4 4 -8 15 -8 12 0 21 4 21 8 0 5 -7 9 -15 9 -9 0 -18
-4 -21 -9z"/>
<path d="M1488 3 c7 -3 16 -2 19 1 4 3 -2 6 -13 5 -11 0 -14 -3 -6 -6z"/>
<path d="M1918 3 c7 -3 16 -2 19 1 4 3 -2 6 -13 5 -11 0 -14 -3 -6 -6z"/>
</g>
</svg>
