<?xml version="1.0" standalone="no"?>
<!DOCTYPE svg PUBLIC "-//W3C//DTD SVG 20010904//EN"
 "http://www.w3.org/TR/2001/REC-SVG-20010904/DTD/svg10.dtd">
<svg version="1.0" xmlns="http://www.w3.org/2000/svg"
 width="300.000000pt" height="201.000000pt" viewBox="0 0 300.000000 201.000000"
 preserveAspectRatio="xMidYMid meet">
<metadata>
Created by potrace 1.10, written by Peter Selinger 2001-2011
</metadata>
<g transform="translate(0.000000,201.000000) scale(0.050000,-0.050000)"
fill="#000000" stroke="none">
<path d="M2889 3971 c-39 -59 -68 -66 -71 -16 -1 22 -5 25 -11 9 -6 -14 1 -40
16 -58 23 -28 21 -30 -16 -18 -31 9 -45 4 -51 -22 -8 -28 2 -36 45 -36 30 0
51 7 46 15 -5 8 0 15 12 15 11 0 21 -9 21 -20 0 -11 16 -20 36 -20 20 0 46
-10 58 -22 15 -15 25 -15 36 2 8 13 -2 27 -26 33 -40 11 -40 11 -1 50 37 37
90 34 66 -4 -6 -11 -2 -19 10 -19 27 0 27 26 -2 88 -19 42 -29 46 -71 31 -61
-24 -85 -24 -49 -1 18 11 20 21 6 30 -12 7 -36 -10 -54 -37z"/>
<path d="M3166 3980 c1 -21 6 -34 11 -30 4 5 25 0 46 -11 28 -15 37 -14 37 7
0 15 -22 38 -49 50 -42 19 -48 17 -45 -16z"/>
<path d="M3395 4006 c-20 -5 -30 -17 -24 -28 7 -10 20 -13 30 -7 11 6 19 1 19
-11 0 -14 12 -11 30 7 51 51 34 63 -55 39z"/>
<path d="M3706 3993 c18 -47 -18 -85 -54 -55 -16 14 -40 20 -51 13 -12 -8 -16
-1 -9 18 7 17 2 31 -10 31 -12 0 -22 -22 -22 -50 0 -37 11 -50 40 -50 49 0 55
-73 11 -131 -28 -36 -30 -37 -30 -3 -1 23 -10 31 -26 22 -15 -8 -18 -7 -8 4 9
10 27 18 39 18 13 0 26 14 30 32 5 30 -24 35 -129 21 -13 -2 -34 -34 -47 -73
-21 -63 -80 -100 -80 -50 0 11 14 20 30 20 17 0 30 9 30 20 0 11 -11 20 -25
20 -17 1 -18 5 -3 15 60 41 6 145 -75 145 -36 0 -83 -74 -57 -90 26 -16 64 8
49 31 -6 11 5 19 26 19 29 0 36 -13 33 -62 -5 -70 -47 -125 -62 -83 -5 14 -18
20 -28 14 -10 -6 -24 3 -30 20 -13 33 -68 43 -68 12 0 -10 -18 -24 -41 -31
-60 -19 -13 -67 52 -55 40 8 54 1 63 -32 6 -24 19 -43 29 -43 9 0 6 -18 -8
-40 -30 -48 -55 -52 -55 -9 0 17 -9 26 -20 19 -12 -7 -16 -21 -9 -31 6 -10
-19 -36 -55 -59 -48 -29 -56 -40 -29 -40 32 0 34 -5 12 -31 -14 -17 -37 -26
-52 -21 -15 6 -27 2 -27 -9 0 -10 9 -20 20 -21 11 -2 28 -4 38 -5 10 -2 25
-10 34 -18 25 -26 48 -16 48 20 -1 30 -3 31 -21 5 -18 -25 -20 -23 -15 10 4
22 17 40 30 40 29 0 56 27 56 57 0 12 14 23 30 23 18 0 30 -19 30 -48 0 -52
58 -74 110 -42 49 30 4 48 -55 22 -52 -24 -53 -24 -23 11 18 20 38 53 45 72
16 47 91 -16 78 -65 -6 -19 -3 -22 8 -8 28 37 94 24 133 -25 20 -26 50 -47 65
-47 16 0 29 -10 29 -21 0 -12 -9 -16 -20 -9 -34 21 -140 28 -140 9 0 -11 9
-19 20 -19 11 0 20 -19 20 -41 0 -47 60 -48 76 -1 5 16 0 22 -12 14 -12 -7
-27 -4 -34 8 -7 11 6 20 29 20 22 0 41 -11 42 -25 0 -15 8 -11 20 8 10 19 18
50 16 70 -8 87 3 107 58 108 47 0 50 3 20 21 -19 11 -35 31 -35 44 1 17 6 16
17 -2 14 -22 23 -21 49 4 17 18 45 27 63 22 17 -6 46 -15 63 -20 26 -9 28 -16
8 -40 -30 -37 -89 -41 -68 -5 8 14 -5 8 -29 -13 -23 -21 -43 -48 -43 -59 0
-13 9 -12 24 3 27 27 64 33 48 7 -6 -10 14 -13 44 -9 50 8 52 7 17 -21 -35
-29 -35 -31 7 -53 40 -22 41 -25 9 -48 -33 -24 -33 -26 -1 -39 19 -7 29 -22
22 -33 -7 -11 -1 -21 14 -22 14 -1 -3 -10 -39 -20 -36 -11 -65 -28 -65 -39 0
-24 52 -25 98 0 24 13 53 9 93 -11 38 -20 61 -23 65 -9 10 30 47 26 40 -4 -3
-14 24 -54 60 -88 54 -52 63 -72 52 -118 -10 -39 -7 -51 9 -41 65 40 253 -146
283 -279 27 -120 69 -220 101 -240 16 -10 20 -7 11 8 -9 14 -3 18 17 11 17 -7
26 -19 21 -28 -6 -9 -3 -20 5 -25 8 -5 4 -6 -10 -2 -42 10 -28 -49 20 -82 25
-18 42 -38 39 -46 -3 -8 13 -18 35 -21 51 -8 53 26 3 69 -37 32 -37 33 5 75
53 52 73 114 24 73 -27 -23 -30 -22 -19 6 7 18 25 33 40 33 15 0 28 14 28 30
0 40 53 38 68 -3 12 -30 16 -30 49 0 20 18 49 33 65 33 15 0 6 -12 -20 -25
-27 -14 -53 -38 -58 -53 -5 -16 0 -22 12 -14 12 7 27 4 34 -8 14 -23 -11 -26
-58 -8 -18 7 -32 25 -32 41 0 52 -35 10 -44 -53 -10 -69 -2 -75 37 -25 20 26
25 27 20 5 -3 -16 -3 -23 2 -15 5 8 26 15 49 15 23 0 44 17 50 39 6 22 27 45
48 52 21 6 38 21 38 32 0 10 -11 13 -25 5 -16 -9 -15 -4 3 14 21 22 29 22 36
3 5 -14 25 -25 45 -25 20 0 47 -13 61 -30 38 -46 59 -35 34 18 -14 29 -37 45
-58 41 -18 -3 -56 11 -83 32 -27 22 -64 39 -81 39 -35 0 -44 50 -12 70 11 7
20 2 20 -10 0 -12 9 -17 20 -10 13 8 9 24 -10 43 -34 33 -41 76 -10 57 11 -7
20 -3 20 9 0 29 -54 26 -68 -4 -7 -14 -9 -1 -5 29 6 49 3 52 -33 33 -36 -19
-38 -16 -26 31 9 38 4 56 -18 65 -46 18 -36 62 15 59 36 -2 44 -14 41 -57 -3
-42 5 -55 35 -55 22 0 34 -10 28 -26 -6 -15 6 -27 28 -28 28 -2 38 10 38 45 0
27 -8 49 -17 49 -10 0 -18 18 -18 40 0 24 13 40 33 40 19 0 28 6 21 13 -8 7
-4 25 9 40 44 54 -40 28 -92 -28 -28 -30 -51 -44 -51 -31 0 13 -31 30 -70 37
-46 9 -70 25 -70 46 -1 26 -4 27 -17 7 -14 -22 -23 -21 -48 4 -27 27 -34 26
-66 -9 -19 -22 -29 -45 -22 -52 7 -8 13 -4 13 8 0 13 16 21 36 20 28 -2 34
-16 28 -59 -5 -34 1 -56 15 -56 13 0 18 8 12 19 -19 30 30 48 56 20 16 -17 16
-21 0 -12 -19 10 -44 -69 -55 -175 -1 -10 -14 -23 -29 -28 -22 -7 -22 0 -3 35
21 40 20 42 -16 23 -45 -24 -54 -122 -11 -122 15 0 27 7 27 17 0 31 85 10 113
-27 15 -21 27 -29 27 -19 0 11 22 29 49 41 67 32 45 -22 -26 -63 -46 -26 -47
-29 -8 -18 32 8 45 3 45 -19 0 -19 -11 -26 -30 -19 -16 6 -30 1 -30 -11 0 -13
-27 -9 -70 12 -38 18 -70 41 -70 50 0 9 -12 16 -28 16 -15 0 -39 14 -53 32
-15 18 -46 28 -72 23 -38 -8 -42 -4 -26 27 29 55 23 70 -12 27 -30 -38 -31
-38 -11 4 22 44 70 73 90 52 6 -6 1 -24 -11 -39 -18 -21 -16 -24 9 -15 47 18
57 65 18 88 -19 11 -23 20 -9 20 66 2 -12 111 -106 149 -37 15 -37 17 6 33 25
10 45 28 45 41 0 13 17 18 40 12 22 -6 40 -3 40 5 0 9 29 12 65 8 36 -4 79 -8
95 -10 49 -5 98 24 87 53 -5 15 17 39 55 58 87 44 98 39 34 -14 -40 -32 -49
-52 -36 -74 16 -25 22 -26 44 -2 19 21 20 24 1 14 -14 -8 -25 -6 -25 5 0 30
46 40 87 18 29 -14 35 -12 28 8 -6 15 -21 24 -35 21 -16 -3 -20 7 -12 27 6 18
12 37 12 42 0 5 25 -4 55 -19 30 -16 80 -41 110 -55 67 -31 71 -74 10 -98 -26
-11 -32 -19 -15 -20 25 -1 26 -4 2 -19 -16 -10 -43 -14 -60 -10 -40 11 34 -24
88 -42 38 -12 36 -16 -20 -65 -33 -29 -44 -47 -25 -39 28 10 35 2 33 -42 -2
-30 -7 -39 -11 -21 -11 40 -87 26 -87 -17 0 -15 -9 -23 -20 -16 -11 7 -20 4
-20 -6 0 -11 22 -24 49 -29 28 -5 45 -2 39 8 -6 9 0 17 13 17 13 0 19 -16 14
-36 -6 -24 2 -35 28 -35 41 0 41 -1 45 74 2 29 15 66 29 83 21 25 19 35 -11
54 -30 19 -26 20 24 10 33 -7 63 -21 67 -31 3 -11 14 -19 23 -19 24 0 12 57
-19 85 -22 20 -24 20 -12 -1 13 -22 8 -22 -26 -1 -46 28 -49 147 -4 147 33 0
83 71 67 96 -7 12 -21 -1 -32 -28 -16 -38 -22 -41 -28 -14 -5 20 -20 29 -37
23 -16 -6 -23 -21 -16 -34 10 -17 7 -17 -12 -1 -43 40 -42 133 2 122 20 -6 41
-3 47 6 6 9 29 11 51 5 52 -13 50 115 -1 132 -27 8 -27 5 0 -28 17 -21 19 -30
5 -22 -14 9 -25 6 -25 -6 0 -11 10 -21 21 -21 12 0 16 -9 9 -20 -7 -12 -21
-15 -32 -9 -10 6 -43 16 -73 22 -30 5 -59 14 -64 19 -14 14 44 47 62 36 8 -5
20 1 27 12 18 29 -155 1 -174 -27 -22 -35 0 -41 37 -11 30 24 29 19 -3 -37
-27 -45 -45 -58 -59 -44 -24 24 -31 121 -7 106 31 -18 16 13 -25 54 -24 24
-40 30 -38 15 8 -60 -3 -99 -26 -91 -14 5 -25 19 -25 32 0 13 -7 23 -15 23 -8
0 -25 0 -38 0 -14 0 -10 -15 10 -37 18 -20 33 -47 33 -60 0 -12 9 -23 20 -23
48 0 14 -39 -54 -61 -55 -18 -76 -19 -82 -2 -12 36 -44 27 -45 -12 -1 -22 -13
-11 -34 30 -19 38 -48 65 -69 65 -41 0 -46 -22 -14 -54 16 -16 10 -29 -25 -47
-42 -23 -44 -22 -21 6 47 57 -10 127 -93 116 -15 -2 -22 5 -15 16 7 11 1 24
-13 29 -14 4 -9 6 10 3 19 -3 40 3 46 13 20 31 -87 19 -120 -13 -33 -34 -42
-58 -14 -41 9 6 34 -2 55 -18 21 -16 61 -30 88 -31 l50 -3 -55 -22 c-30 -12
-55 -29 -55 -39 0 -9 20 -7 45 5 38 19 40 18 15 -4 -16 -14 -33 -44 -37 -66
-3 -22 -26 -61 -49 -86 -24 -26 -44 -61 -44 -79 0 -49 -129 -72 -174 -31 -19
17 -33 41 -30 53 2 13 -7 21 -21 18 -14 -3 -25 9 -25 26 0 17 -9 26 -20 19
-11 -7 -20 -5 -20 5 0 30 187 106 208 85 31 -31 -49 -80 -106 -66 -33 8 -44 5
-34 -11 8 -13 36 -23 63 -23 54 0 62 -18 24 -60 -21 -24 -20 -24 10 -2 22 17
35 19 35 5 0 -11 -16 -31 -35 -43 -24 -15 -25 -20 -5 -15 17 4 39 28 50 52 11
25 40 50 66 56 52 13 95 78 64 97 -11 7 -20 2 -20 -11 0 -18 -7 -18 -27 -2
-15 13 -33 18 -40 13 -7 -6 -9 -4 -3 3 5 7 -20 35 -55 61 -36 26 -65 57 -65
68 0 11 -12 27 -26 36 -29 18 18 82 60 82 13 0 11 11 -4 30 -30 36 1 41 36 6
19 -19 24 -17 24 9 0 22 13 30 40 25 21 -4 45 1 51 12 7 10 5 18 -5 16 -9 -1
-32 -2 -51 0 -42 2 -47 42 -6 42 19 0 25 12 18 32 -9 23 -17 25 -28 7 -10 -17
-21 -12 -37 17 -28 53 -28 84 0 84 12 0 17 -15 10 -32 -10 -26 -3 -30 38 -20
27 7 50 4 50 -6 0 -35 86 -14 95 22 5 20 28 36 51 36 22 0 35 -6 28 -12 -26
-27 96 -109 160 -107 30 1 28 5 -10 24 -25 12 -42 31 -37 43 10 29 177 17 197
-14 9 -14 16 -15 16 -3 0 12 -11 32 -24 45 -19 19 -16 24 10 24 47 0 43 17
-17 73 -52 48 -89 47 -89 -3 0 -19 -17 -24 -55 -18 -37 6 -46 3 -28 -9 34 -22
-1 -48 -43 -32 -36 14 -21 89 18 89 30 0 37 24 13 48 -8 8 -15 25 -17 38 -1
13 -3 40 -5 59 -2 26 -20 35 -68 34 -54 0 -59 -4 -30 -21 19 -11 43 -15 53 -9
10 6 18 -22 18 -63 0 -58 -4 -67 -19 -39 -18 31 -26 28 -78 -28 -41 -44 -69
-58 -97 -50 -31 10 -39 4 -37 -27 3 -32 10 -35 41 -19 21 11 43 15 49 9 6 -7
2 -12 -9 -12 -12 0 -26 -19 -32 -41 -20 -76 -114 7 -112 98 0 40 6 62 11 49 5
-13 23 -19 38 -13 38 15 37 47 -1 47 -16 0 -30 8 -30 19 0 34 39 43 85 19 27
-15 35 -28 20 -33 -14 -5 -25 -23 -24 -42 1 -26 8 -24 32 12 18 25 44 45 59
45 16 0 28 14 28 30 0 20 -20 30 -61 30 -37 0 -56 8 -49 20 16 27 -35 17 -55
-10 -9 -12 -15 -10 -15 5 0 46 -51 26 -86 -34 -20 -33 -60 -72 -90 -87 -30
-14 -52 -37 -49 -50 3 -13 -5 -24 -16 -24 -12 0 -8 -14 10 -32 17 -17 25 -41
18 -53 -8 -12 9 -5 38 17 53 39 56 75 4 55 -38 -15 -37 2 2 42 48 47 91 40 81
-14 -25 -131 -88 -179 -152 -115 -44 44 -80 52 -80 19 0 -12 10 -15 23 -7 15
9 18 5 8 -10 -11 -19 -21 -19 -44 0 -22 19 -23 28 -4 40 19 12 19 22 -2 46
-19 24 -20 39 -4 59 13 15 18 31 12 37 -6 6 14 6 43 0 37 -7 50 -3 40 13 -8
13 -5 23 7 23 11 0 21 17 21 38 0 21 11 43 25 49 16 6 13 10 -8 11 -18 1 -38
-18 -45 -43 l-12 -45 -40 50 c-21 28 -39 38 -40 24 0 -15 -9 -21 -20 -14 -26
16 -26 -16 -1 -41 23 -23 5 -109 -21 -109 -10 0 -18 22 -18 49 0 27 -10 55
-23 63 -14 9 -18 5 -9 -9 23 -37 -60 -16 -111 28 -39 35 -42 35 -31 4 7 -19 3
-35 -8 -35 -11 0 -14 -10 -7 -21 7 -12 28 -16 46 -9 21 8 26 6 13 -7 -23 -22
-154 -6 -140 17 5 9 -5 22 -24 29 -18 7 -39 3 -46 -8 -8 -14 -25 -12 -49 6
-26 19 -30 31 -14 41 13 8 23 5 23 -7 0 -11 8 -21 17 -21 9 0 16 14 16 30 0
20 -20 30 -58 30 -41 0 -56 -8 -49 -27z m459 -204 c5 -27 0 -49 -12 -49 -52 0
48 -63 109 -70 37 -3 75 -7 84 -8 9 -1 11 -11 4 -22 -7 -11 -4 -20 7 -20 11 0
24 11 30 25 7 18 10 18 11 1 1 -13 -12 -37 -29 -55 -29 -28 -25 -31 40 -31 39
0 71 -10 71 -21 0 -12 -9 -16 -20 -9 -11 7 -40 -2 -64 -19 -66 -46 -92 -24
-103 87 -2 16 -14 32 -26 36 -16 6 -20 -7 -13 -35 9 -34 4 -42 -26 -36 -23 5
-38 25 -39 52 0 25 -9 42 -20 40 -10 -3 -16 -25 -13 -50 3 -25 -2 -45 -12 -45
-10 0 -38 -18 -63 -39 -44 -38 -41 -81 5 -81 17 1 16 5 -2 17 -21 14 -21 20 0
37 39 32 164 55 147 28 -8 -13 3 -22 29 -22 27 0 37 -8 28 -23 -8 -14 -5 -18
8 -10 11 8 27 4 34 -7 8 -13 24 -9 44 11 17 17 35 27 40 22 5 -5 -10 -29 -33
-52 -23 -23 -36 -52 -29 -64 7 -12 4 -27 -7 -34 -27 -18 -52 -103 -30 -103 9
0 26 9 38 21 14 14 20 11 20 -10 0 -29 -20 -40 -60 -33 -10 2 -29 -6 -43 -18
-20 -16 -33 -14 -53 10 -15 18 -40 48 -57 66 -16 19 -29 61 -27 94 4 81 4 81
31 54 13 -13 31 -24 40 -24 28 0 17 55 -13 67 -44 17 -115 -84 -103 -146 6
-28 6 -41 0 -28 -5 12 -27 18 -49 13 -27 -8 -39 -1 -39 23 0 18 8 29 17 23 10
-6 13 12 8 40 -7 33 -20 47 -38 39 -23 -8 -26 4 -15 64 8 41 15 86 15 99 0 13
6 20 14 15 21 -12 139 50 139 74 0 12 -18 44 -40 72 -64 81 -47 175 21 114 19
-17 39 -53 44 -80z m-245 71 c0 -11 17 -20 39 -20 22 0 44 -18 52 -43 10 -33
17 -36 31 -15 11 18 17 20 18 4 0 -35 -28 -46 -61 -25 -16 10 -20 19 -9 19 11
0 7 9 -9 19 -19 12 -40 10 -59 -5 -24 -20 -27 -18 -17 9 6 17 2 42 -11 55 -16
16 -16 22 2 22 13 0 24 -9 24 -20z m-198 -67 c4 -72 38 -156 38 -96 0 13 10
23 21 23 12 0 16 -8 10 -18 -6 -11 4 -23 24 -27 19 -4 -3 -15 -50 -23 -77 -14
-120 -52 -60 -52 39 -1 -29 -39 -70 -40 -49 0 -45 73 5 105 80 49 44 78 -42
34 -45 -23 -84 -39 -87 -35 -66 78 -32 110 71 67 23 -9 39 4 57 47 24 57 79
67 83 15z m165 -3 c7 -16 3 -31 -8 -32 -10 -2 -30 -4 -44 -6 -50 -6 -74 37
-28 51 65 20 68 19 80 -13z m71 -5 c-7 -43 6 -65 38 -65 57 0 128 -58 74 -61
-22 -1 -65 -5 -96 -9 -36 -5 -60 3 -67 21 -6 16 -30 29 -52 29 -34 0 -29 9 27
48 80 57 79 56 76 37z m-473 -132 c27 -42 -6 -107 -44 -84 -16 10 -17 22 -2
39 22 27 -45 33 -71 6 -22 -21 -48 5 -48 49 0 46 134 38 165 -10z m1405 -433
c14 0 31 -13 37 -30 13 -34 -65 -43 -98 -12 -10 11 -46 23 -79 27 l-60 9 64 3
c35 2 70 14 78 27 12 19 17 19 23 0 5 -13 20 -24 35 -24z"/>
<path d="M4045 3586 c-30 -6 -45 -23 -45 -51 0 -41 1 -41 50 5 42 39 64 68 45
57 -3 -1 -25 -6 -50 -11z"/>
<path d="M4191 3302 c-6 -10 7 -39 29 -65 24 -28 36 -34 29 -14 -7 18 -2 39
10 46 12 8 16 22 10 32 -15 24 -63 25 -78 1z"/>
<path d="M5010 3987 c-29 -28 -37 -29 -54 -5 -16 22 -17 21 -9 -7 8 -23 1 -35
-19 -35 -20 0 -29 -15 -24 -45 8 -56 60 -59 75 -5 13 48 81 66 81 22 0 -19 12
-26 29 -20 48 19 75 -11 41 -45 -36 -36 -38 -60 -7 -79 16 -10 20 -4 11 19 -8
21 -3 33 15 33 15 0 31 7 36 15 5 8 6 4 3 -9 -9 -37 26 -50 71 -27 32 18 43
14 61 -19 25 -47 60 -53 60 -9 0 16 19 37 42 46 36 13 37 19 12 39 -24 20 -34
13 -61 -41 -18 -36 -32 -51 -33 -34 0 16 14 50 30 73 19 28 23 48 10 56 -11 7
-20 34 -20 61 0 41 -10 49 -60 49 -33 0 -60 -4 -60 -8 0 -37 31 -72 62 -72 51
0 48 -34 -5 -51 -29 -9 -35 -18 -18 -28 17 -11 11 -19 -17 -26 -32 -9 -42 -2
-42 27 0 21 -11 38 -25 39 -15 0 -12 10 10 27 32 24 32 28 -10 50 -25 13 -29
19 -10 13 19 -5 35 -1 35 10 0 31 -75 22 -87 -11 -7 -16 -32 -30 -57 -29 -45
0 -45 1 -7 30 32 24 33 29 6 29 -18 0 -47 -15 -65 -33z"/>
<path d="M5480 3973 c0 -28 -10 -35 -40 -27 -46 12 -55 -21 -11 -39 17 -6 44
3 62 21 39 39 57 41 43 4 -6 -15 -1 -37 12 -50 16 -16 16 -22 0 -22 -13 0 -27
11 -32 25 -7 20 -14 20 -35 0 -22 -21 -21 -25 7 -25 35 0 38 -40 5 -64 -11 -8
-13 -21 -4 -29 8 -9 23 -3 33 12 14 24 22 24 48 2 18 -14 32 -18 32 -8 0 9 9
4 20 -13 15 -24 20 -20 20 20 0 35 6 42 18 23 9 -14 24 -25 34 -23 9 2 20 -7
24 -18 4 -12 -2 -22 -14 -22 -31 0 -28 -53 3 -54 14 -1 41 -8 60 -16 27 -11
33 -7 23 18 -11 28 -5 30 41 12 69 -26 71 -26 71 10 0 17 -12 30 -27 30 -14 0
-47 23 -73 50 -26 28 -63 50 -83 50 -42 0 -50 32 -12 46 17 6 10 22 -22 50
-25 23 -59 37 -74 31 -16 -6 -34 3 -40 20 -17 44 -89 33 -89 -14z"/>
<path d="M2410 3959 c-6 -9 5 -27 25 -39 32 -21 31 -22 -5 -10 -61 20 -230 22
-228 2 1 -10 -11 -25 -25 -34 -37 -24 -102 -22 -87 2 7 11 -1 14 -19 8 -17 -7
-31 -19 -31 -27 0 -8 -13 -14 -29 -14 -16 0 -27 9 -25 21 2 12 -14 20 -36 17
-22 -3 -56 -7 -74 -9 -19 -3 -39 -15 -44 -29 -5 -13 -26 -21 -46 -18 -20 3
-64 -5 -98 -19 -35 -14 -73 -19 -86 -11 -36 22 -144 0 -128 -26 10 -17 6 -17
-15 0 -47 38 -177 29 -199 -14 -14 -25 -13 -41 2 -50 16 -10 14 -19 -5 -31
-21 -14 -22 -17 -1 -18 15 0 20 -10 13 -22 -9 -15 1 -14 30 2 50 26 86 8 40
-21 -23 -14 -23 -18 -2 -19 16 0 22 -12 16 -30 -7 -16 -4 -30 5 -30 10 0 24
23 31 52 9 36 22 48 44 40 24 -10 29 -3 21 28 -6 22 -2 45 8 51 10 6 18 -9 18
-35 1 -97 35 -112 99 -42 32 35 62 54 66 41 4 -12 18 -15 33 -7 13 9 21 26 16
39 -5 13 3 35 18 49 24 21 27 14 19 -44 -6 -49 0 -72 22 -80 42 -16 79 8 45
29 -21 13 -20 19 6 30 19 7 29 25 22 41 -8 22 -17 24 -38 6 -22 -18 -28 -16
-28 10 0 19 16 32 40 32 22 0 40 -8 40 -18 0 -10 18 -14 40 -8 22 6 34 19 28
29 -6 10 19 16 56 14 37 -3 78 2 92 10 13 9 24 6 24 -5 0 -11 -15 -28 -33 -39
-45 -24 -55 -85 -12 -68 19 7 26 4 19 -9 -9 -13 19 -18 80 -14 95 8 136 27 90
43 -20 7 -19 18 8 47 32 36 37 36 71 5 22 -20 37 -24 37 -10 0 13 -8 23 -18
23 -10 0 -8 21 4 48 14 30 34 43 52 36 20 -8 22 -14 6 -19 -36 -12 -29 -39 13
-50 20 -5 53 4 75 20 37 29 37 30 -6 20 -32 -8 -40 -3 -32 18 6 16 24 24 40
18 16 -6 33 -11 38 -11 26 0 2 -83 -27 -94 -47 -16 -125 -88 -125 -114 0 -11
14 -1 31 24 18 24 52 44 79 44 26 0 53 9 59 19 7 11 26 14 43 7 25 -9 26 -15
5 -28 -15 -10 -20 -19 -12 -20 51 -10 67 -6 80 22 9 18 11 8 5 -24 -5 -29 -1
-59 10 -66 12 -7 19 -28 16 -45 -7 -39 73 -84 149 -85 30 0 55 -9 55 -20 0
-11 -16 -20 -35 -20 -30 -1 -31 -3 -5 -20 31 -20 31 -20 -65 -28 -14 -1 -26
12 -27 28 -4 58 -8 60 -48 20 -43 -43 -56 -112 -17 -88 14 9 18 5 9 -8 -21
-34 -76 -4 -61 34 30 76 29 147 -2 121 -18 -15 -29 -16 -29 -3 0 12 9 27 20
34 36 22 22 53 -15 33 -19 -9 -46 -14 -60 -9 -14 5 -48 -18 -77 -52 -28 -34
-62 -62 -75 -62 -13 0 -10 9 7 20 17 11 20 20 7 20 -14 0 -19 17 -12 42 8 31
15 35 27 15 13 -20 17 -15 18 16 0 24 5 58 12 75 7 18 2 32 -10 32 -12 0 -21
-7 -20 -15 7 -45 -6 -65 -43 -65 -23 0 -37 -7 -32 -16 6 -9 -7 -17 -28 -19
-22 -1 -39 6 -39 17 0 11 -8 15 -19 9 -10 -6 -23 -3 -30 7 -6 10 3 23 19 29
17 7 30 3 30 -8 0 -10 14 -19 30 -19 45 0 36 74 -10 86 -22 6 -35 2 -29 -8 10
-16 -18 -26 -56 -20 -8 1 -15 -18 -15 -43 0 -25 -18 -72 -40 -105 -22 -33 -40
-47 -40 -32 0 16 -6 22 -14 15 -21 -21 -25 -73 -5 -73 9 0 4 -25 -12 -55 -45
-86 -37 -122 30 -129 55 -6 57 -8 27 -46 -26 -33 -29 -34 -19 -5 12 36 -51 19
-72 -20 -5 -8 -6 -4 -2 10 3 14 -3 25 -14 25 -38 0 -19 -84 21 -94 23 -6 40
-27 40 -50 0 -73 69 -33 77 44 3 38 14 75 24 81 10 6 4 36 -12 67 -34 66 -38
112 -9 112 11 0 20 18 20 40 0 33 13 40 72 40 67 0 72 -4 63 -51 -7 -35 1 -56
28 -70 20 -11 37 -13 37 -5 1 49 101 61 154 19 30 -23 46 -30 37 -14 -10 16 4
12 35 -11 34 -25 49 -50 42 -74 -6 -20 -2 -33 11 -30 14 4 25 -44 29 -130 7
-127 5 -134 -27 -105 -42 39 -63 40 -49 3 6 -15 1 -34 -11 -41 -11 -7 -21 1
-21 18 0 17 -9 31 -20 31 -30 0 -24 -112 7 -137 15 -13 33 -16 41 -8 8 7 8 -1
2 -19 -9 -22 -1 -35 24 -40 60 -11 176 272 150 369 -7 25 35 17 87 -17 42 -28
54 -29 84 -5 32 24 32 24 8 -8 -25 -31 -23 -35 25 -35 28 0 52 11 53 25 0 14
19 3 42 -25 40 -48 42 -48 69 -11 36 50 36 84 -2 98 -16 7 -30 3 -30 -8 0 -10
-18 -19 -40 -19 -22 0 -40 9 -40 20 0 11 -11 18 -24 15 -13 -3 -25 7 -25 22
-1 14 -18 39 -40 55 -23 16 -28 28 -13 28 15 0 21 13 15 29 -7 19 -1 25 18 18
34 -13 34 -15 10 68 -11 40 -11 69 1 76 10 7 13 22 5 33 -8 14 -23 9 -40 -14
-21 -29 -21 -43 -2 -67 20 -23 20 -31 0 -38 -14 -5 -25 -20 -25 -35 0 -14 -14
-31 -31 -38 -21 -8 -26 -4 -16 13 12 20 8 20 -16 0 -24 -19 -35 -19 -55 0 -19
20 -22 18 -12 -6 6 -18 36 -42 66 -54 l54 -22 -54 7 c-29 4 -58 -4 -64 -17 -6
-15 -17 -11 -32 12 -12 20 -31 31 -41 24 -10 -6 -13 4 -5 24 8 21 16 26 21 11
5 -13 18 -24 29 -24 11 0 5 24 -14 52 -19 29 -25 47 -13 40 11 -7 26 -3 33 8
8 14 25 13 52 -1 55 -29 81 -6 71 63 -5 32 -2 54 7 48 27 -17 39 19 17 51 -15
22 -22 23 -30 4 -6 -14 -24 -25 -40 -25 -16 0 -24 8 -18 19 7 10 -19 15 -59
12 -38 -4 -76 3 -83 14 -9 14 -1 17 20 9 18 -7 33 -4 33 7 0 10 -11 19 -25 19
-17 1 -15 7 5 20 26 17 25 19 -5 20 -19 0 -35 10 -35 21 0 12 9 16 20 9 41
-26 18 29 -28 65 -44 34 -45 40 -15 62 30 23 30 24 0 15 -25 -7 -30 1 -21 34
6 25 15 32 20 17 9 -27 84 26 84 60 0 19 -72 12 -93 -9 -7 -8 -23 -14 -35 -14
-12 0 -10 8 5 18 15 9 19 22 9 29 -30 18 -106 -9 -106 -39 0 -15 -12 -22 -29
-16 -16 6 -24 23 -19 37 11 29 -66 57 -82 30z m208 -516 c-10 -3 -13 -15 -7
-25 6 -10 4 -19 -5 -20 -9 0 -31 -4 -49 -7 -23 -5 -29 4 -22 31 5 21 18 33 27
27 10 -6 18 -2 18 10 0 30 -21 26 -61 -10 -27 -24 -39 -26 -50 -7 -10 16 -7
19 10 9 19 -12 22 -4 11 29 -8 26 -6 40 4 34 10 -6 30 -4 45 6 18 11 39 2 63
-27 19 -24 27 -46 16 -50z"/>
<path d="M800 3860 c-17 -9 -58 -21 -93 -26 -35 -5 -81 -27 -103 -47 -72 -65
-96 -82 -141 -96 -43 -14 -54 -33 -30 -57 7 -8 26 2 42 21 26 32 27 32 19 -9
-6 -24 1 -49 13 -55 13 -5 5 -9 -17 -8 -84 4 -110 -4 -110 -32 0 -15 16 -31
35 -35 28 -6 15 -29 -66 -116 -131 -142 -166 -218 -117 -254 32 -23 32 -26 3
-26 -18 0 -38 -9 -45 -20 -7 -12 3 -14 24 -7 25 9 30 6 16 -8 -11 -12 -38 -25
-60 -31 -37 -9 -36 -10 4 -12 31 -1 41 -11 33 -32 -13 -35 1 -38 55 -9 51 27
88 6 57 -33 -36 -43 18 -52 111 -19 44 16 67 30 52 30 -22 1 -20 10 8 41 42
47 -35 60 -111 19 -31 -16 -39 -14 -39 10 0 17 -9 31 -20 31 -11 0 -20 24 -20
53 l0 53 37 -43 c43 -49 73 -57 56 -14 -6 17 -2 35 8 42 28 17 2 51 -35 45
-111 -20 -57 130 56 154 32 7 58 22 58 33 0 10 27 29 60 40 34 12 70 38 81 59
17 31 26 33 48 13 22 -21 17 -30 -33 -57 l-60 -31 63 -53 63 -53 -51 -88 c-46
-78 -48 -90 -21 -113 21 -17 24 -33 10 -49 -11 -14 -14 -30 -7 -37 7 -7 -5 -9
-27 -5 -27 5 -50 -11 -74 -51 -29 -49 -30 -56 -3 -46 17 7 26 20 21 29 -6 9
-3 21 7 27 10 7 23 -11 28 -38 9 -47 6 -49 -87 -41 -71 6 -108 -1 -140 -26
-50 -41 -69 -143 -26 -143 15 0 28 -9 28 -20 0 -22 1 -22 -110 -28 -44 -3 -99
-11 -123 -19 -51 -17 -133 46 -84 66 32 13 36 64 7 87 -11 9 2 13 28 10 27 -3
53 -19 58 -34 6 -18 0 -22 -15 -12 -17 10 -22 3 -17 -23 5 -21 21 -33 37 -29
16 4 44 9 63 9 18 1 33 6 32 12 -3 40 8 61 34 61 31 0 40 24 17 46 -7 8 -26 3
-42 -10 -17 -14 -33 -16 -42 -5 -7 11 -40 20 -73 21 -33 0 -73 5 -90 10 -25 7
-31 -25 -34 -188 -3 -113 3 -191 14 -184 23 15 66 -64 49 -92 -7 -11 -26 -16
-41 -10 -15 6 -28 2 -28 -9 0 -34 57 -20 97 23 25 26 56 38 86 33 l47 -8 -50
-22 c-27 -12 -39 -23 -26 -24 13 0 22 -25 20 -56 -4 -48 4 -56 61 -61 36 -4
65 -14 65 -24 0 -9 20 -21 45 -26 44 -8 44 -9 2 -11 -69 -5 -73 -57 -6 -80 37
-13 58 -34 57 -57 -3 -49 -34 -143 -36 -110 -1 15 -12 20 -25 12 -16 -10 -16
-3 -2 23 17 30 12 42 -29 63 -61 32 -93 34 -75 4 7 -11 -6 -39 -29 -60 -56
-52 -53 -75 8 -63 28 5 50 2 50 -8 -1 -37 -32 -61 -76 -57 -31 2 -44 -7 -42
-28 5 -62 -2 -77 -44 -88 -23 -6 -36 -21 -29 -33 9 -14 23 -11 44 9 39 39 107
39 107 0 0 -17 -18 -30 -41 -30 -35 0 -38 -5 -17 -44 l23 -44 36 44 c43 53 70
56 88 9 13 -33 15 -33 33 0 11 19 32 35 47 35 35 0 56 -55 25 -67 -13 -5 -4
-11 21 -11 33 -2 45 9 45 40 0 32 8 39 35 28 19 -8 46 -15 60 -16 36 -1 31
-28 -11 -58 -42 -30 -48 -116 -8 -116 17 0 22 13 15 38 -9 27 0 40 30 48 24 6
37 21 30 33 -15 24 43 53 65 32 8 -8 -3 -26 -23 -41 -20 -15 -31 -37 -24 -49
7 -11 3 -21 -9 -21 -12 0 -16 -10 -9 -22 7 -12 31 -17 51 -12 21 6 33 2 27 -8
-6 -10 -2 -18 10 -18 11 0 21 -10 21 -22 0 -16 -9 -15 -30 2 -38 32 -162 10
-178 -32 -6 -17 -20 -26 -30 -19 -10 6 -23 -3 -29 -19 -7 -17 -32 -31 -57 -32
-37 -2 -39 -4 -9 -12 21 -5 47 0 59 12 12 12 37 22 56 22 18 0 39 14 45 30 7
17 22 30 35 30 17 0 17 -7 0 -27 -37 -45 17 -72 78 -40 28 15 39 27 25 27 -14
0 -25 8 -25 17 0 23 97 4 113 -22 8 -12 3 -15 -10 -7 -13 8 -23 5 -23 -7 0
-31 44 -26 96 10 25 18 39 42 31 53 -8 13 -4 16 9 8 26 -16 75 54 95 133 14
57 37 70 59 35 7 -12 23 -15 34 -7 13 8 16 4 8 -10 -8 -12 9 -46 37 -74 63
-63 63 -63 -10 -148 -42 -50 -59 -90 -59 -144 0 -143 -138 -228 -338 -209 -45
5 -82 0 -82 -9 0 -10 -11 -13 -25 -8 -101 39 -405 -407 -320 -470 8 -6 15 -24
15 -41 0 -16 25 -42 56 -56 67 -32 91 -81 52 -106 -24 -15 -24 -17 0 -18 16 0
44 -14 63 -30 19 -18 48 -25 67 -18 31 12 30 17 -8 52 -45 43 -45 78 1 93 24
8 24 4 -1 -27 -28 -34 -27 -35 14 -13 24 13 50 33 57 44 35 58 195 -61 177
-132 -13 -50 40 -80 99 -57 18 7 33 2 33 -10 0 -12 -11 -22 -25 -23 -14 0 0
-15 30 -34 79 -49 68 -71 -30 -54 -94 15 -135 40 -135 81 0 16 -8 28 -18 28
-10 0 -35 27 -57 61 -33 53 -42 57 -63 31 -26 -31 57 -172 102 -172 10 0 13
-8 7 -18 -15 -25 25 -51 133 -86 88 -28 94 -28 103 9 8 29 21 35 52 25 29 -9
41 -4 41 18 0 17 18 40 40 52 22 12 38 14 35 5 -21 -67 98 -165 200 -165 121
0 146 49 54 109 -27 18 -45 42 -38 53 17 28 59 11 59 -24 0 -47 203 -45 236 3
20 28 39 34 75 23 81 -23 219 -110 219 -136 0 -43 115 -28 127 16 10 40 93 19
93 -23 0 -9 54 -17 119 -18 l120 -2 14 104 c9 58 13 112 11 120 -2 8 5 15 16
15 19 0 28 -27 50 -165 9 -56 21 -75 50 -75 29 0 39 17 44 75 4 47 15 73 31
70 31 -6 32 24 3 78 -18 34 -12 48 41 92 l62 51 -56 34 c-30 19 -64 27 -76 19
-12 -10 -28 10 -42 53 -20 64 -19 67 12 39 19 -17 48 -31 65 -31 65 0 175
-139 111 -141 -33 0 19 -30 85 -48 37 -10 42 -8 21 7 -74 50 107 63 434 31
123 -12 182 20 84 45 -57 15 -37 55 32 63 36 4 66 -6 81 -27 36 -48 168 46
168 119 0 21 -72 11 -111 -16 -41 -28 -288 -74 -383 -71 l-56 1 50 16 c28 9
120 32 205 51 86 19 162 46 170 60 53 91 230 39 193 -57 -8 -22 -2 -33 20 -33
46 0 87 -93 55 -125 -17 -17 -23 -16 -23 6 -1 90 -92 116 -167 47 -30 -29 -70
-54 -88 -57 -56 -8 -50 -48 7 -55 30 -3 59 -17 63 -31 5 -14 -3 -21 -18 -16
-15 6 -131 19 -257 29 -127 11 -246 25 -265 33 -19 7 -35 4 -35 -7 0 -12 52
-31 115 -44 175 -35 270 -62 259 -72 -5 -6 -78 3 -162 18 -84 16 -152 21 -152
12 0 -10 10 -18 23 -18 13 0 18 -5 12 -12 -7 -7 -42 4 -79 23 -128 67 -135 70
-124 44 10 -24 81 -75 219 -158 60 -35 63 -35 137 5 52 27 94 36 134 28 60
-14 76 -40 33 -55 -19 -7 -19 -16 2 -42 38 -45 68 -42 53 7 -16 51 76 102 115
63 34 -34 56 -28 41 12 -12 30 -9 31 18 9 37 -30 134 -14 168 28 41 50 113
-23 97 -99 -16 -77 20 -49 38 30 8 34 4 57 -12 62 -29 10 -33 98 -5 122 11 10
4 11 -18 4 -46 -14 -114 41 -99 80 6 16 41 34 77 40 50 10 70 26 80 65 7 28
28 63 46 77 28 20 30 31 9 61 -36 52 -40 65 -56 176 -8 55 -18 89 -23 75 -26
-70 -188 33 -193 122 -3 58 -9 61 -52 34 -17 -10 -23 -25 -15 -33 8 -8 0 -30
-17 -50 -30 -32 -27 -38 29 -80 61 -44 76 -97 50 -166 -18 -48 -87 -42 -74 6
11 43 -67 162 -107 162 -14 0 -40 -27 -57 -60 -17 -33 -53 -65 -80 -72 -28 -7
-50 -21 -50 -32 0 -11 16 -14 35 -7 59 23 70 22 80 -9 6 -16 4 -24 -4 -16 -8
7 -37 5 -64 -5 -37 -14 -51 -11 -60 12 -8 20 -19 24 -35 11 -13 -11 -55 -25
-93 -32 -38 -7 -78 -22 -89 -33 -14 -15 -6 -17 25 -8 59 18 107 -10 54 -31
-22 -8 -63 -16 -92 -17 -28 0 -62 -14 -75 -29 -28 -33 -122 -55 -122 -28 0 10
-19 13 -43 5 -28 -9 -38 -6 -28 9 7 12 29 23 47 24 19 0 23 5 10 11 -12 5 -61
-9 -108 -32 -110 -53 -121 -52 -109 11 14 77 70 134 104 106 15 -13 22 -31 16
-40 -28 -45 89 -12 137 38 58 60 74 106 24 64 -42 -35 -58 -13 -31 38 12 23
40 42 62 42 21 0 39 14 39 30 0 39 -52 39 -67 0 -7 -17 -22 -30 -35 -30 -17 0
-17 8 1 29 24 29 -35 29 -117 0 -15 -5 -4 21 25 59 29 38 53 84 53 101 0 38
80 72 136 58 42 -11 169 60 232 130 42 47 91 60 53 15 -19 -24 -16 -27 16 -18
24 6 36 21 30 37 -7 17 9 32 41 40 29 7 52 24 52 38 0 33 -92 73 -132 57 -23
-8 -31 -4 -24 15 5 15 31 33 57 39 27 7 52 29 56 50 4 22 46 77 94 124 63 62
83 96 75 126 -14 53 -51 41 -66 -20 -12 -53 -70 -97 -94 -72 -9 10 -5 22 9 26
14 5 20 18 14 28 -6 10 -1 18 12 18 13 0 18 13 12 30 -7 16 -2 30 9 30 11 0
15 9 8 20 -7 12 -21 16 -30 10 -23 -14 -169 -34 -266 -36 -62 -2 -75 -8 -68
-36 6 -23 -5 -39 -33 -46 -33 -9 -37 -16 -16 -30 23 -14 23 -19 0 -27 -21 -7
-19 -18 11 -52 21 -24 29 -43 17 -43 -12 0 -25 11 -30 25 -5 15 -18 7 -33 -22
-27 -50 -15 -113 18 -93 42 26 62 -14 21 -43 -53 -38 -52 -67 2 -67 74 0 133
122 70 146 -18 7 -26 38 -23 87 6 108 6 107 49 107 21 0 44 9 51 20 7 11 32
30 56 43 40 21 41 20 17 -10 -37 -44 20 -47 64 -3 34 34 73 40 73 10 0 -11 -9
-20 -20 -20 -11 0 -18 -11 -15 -25 3 -14 -7 -23 -21 -20 -14 3 -30 -7 -36 -23
-6 -16 -27 -23 -50 -17 -29 7 -36 2 -26 -23 9 -24 4 -29 -20 -20 -17 7 -32 2
-32 -10 0 -12 7 -22 15 -22 50 0 67 -85 26 -129 -44 -47 -37 -71 21 -71 23 0
34 -14 33 -40 -3 -27 -18 -40 -48 -40 -24 0 -59 -14 -76 -32 -18 -18 -47 -26
-64 -19 -20 7 -43 -4 -61 -29 -21 -29 -42 -37 -77 -28 -36 9 -49 4 -49 -19 0
-17 -9 -36 -19 -43 -28 -17 18 113 55 155 17 19 22 36 12 37 -10 2 -31 4 -48
5 -16 2 -30 16 -30 31 0 15 -18 35 -40 43 -36 13 -37 16 -6 29 31 12 31 17 5
43 -32 33 -38 67 -11 67 9 0 28 -13 42 -30 35 -42 59 -37 78 15 22 59 4 114
-22 67 -25 -44 -56 -40 -56 8 0 22 -10 40 -21 40 -12 0 -16 -9 -9 -20 7 -11
-1 -14 -19 -8 -17 7 -26 19 -21 28 14 23 -29 35 -84 24 -25 -5 -46 -21 -46
-36 0 -35 33 -37 48 -3 6 14 9 7 8 -15 -4 -47 23 -136 45 -150 37 -24 -6 -203
-55 -225 -26 -12 -44 -33 -39 -45 12 -31 -19 -80 -51 -80 -16 0 -28 -32 -32
-85 -6 -79 -3 -85 45 -85 58 0 60 -5 28 -66 -21 -40 -20 -41 10 -16 57 47 56
12 0 -40 -30 -26 -47 -37 -39 -23 17 30 -55 131 -78 109 -9 -8 -11 24 -5 71 6
47 3 85 -7 85 -36 0 -17 51 27 71 32 14 43 34 39 69 -10 88 34 161 89 148 45
-12 54 19 26 92 -5 12 -12 44 -16 69 -2 10 -16 1 -32 -20 -29 -38 -30 -38 -30
6 -1 59 -51 58 -90 -1 -42 -64 -33 -177 14 -162 22 7 35 0 35 -18 0 -20 -16
-25 -50 -19 -33 6 -54 -1 -61 -22 -9 -22 -33 -29 -86 -23 -40 4 -79 8 -87 9
-8 0 -4 29 8 63 12 36 14 68 4 75 -10 7 -14 108 -8 223 12 241 2 330 -38 330
-28 0 -50 30 -70 95 -8 27 -24 33 -62 23 -31 -8 -50 -4 -50 10 0 41 62 48 131
16 41 -20 72 -25 79 -13 35 55 100 -34 93 -126 -2 -34 8 -60 26 -67 20 -8 29
-39 28 -96 -1 -47 4 -107 10 -133 7 -27 -4 -13 -26 31 l-38 80 11 -92 c7 -58
2 -98 -12 -107 -12 -7 -21 -33 -21 -57 2 -44 2 -44 24 3 19 39 34 45 89 36 36
-6 66 -2 66 8 0 11 18 19 40 19 22 0 40 9 40 20 0 11 -9 20 -20 20 -11 0 -20
14 -20 31 0 23 -12 28 -40 19 -22 -7 -40 -4 -40 7 0 11 16 24 35 29 32 8 31
10 -2 12 -26 1 -33 12 -25 34 34 90 35 128 3 140 -18 7 -47 40 -64 74 -17 33
-48 79 -69 101 -42 45 -49 73 -18 73 11 0 20 -9 20 -21 0 -11 11 -19 25 -18
47 7 77 -1 68 -16 -5 -8 35 -18 89 -21 59 -4 98 2 98 15 0 36 51 23 110 -27
50 -44 52 -49 18 -59 -34 -10 -34 -10 2 -7 51 6 54 72 6 120 -23 23 -52 32
-76 24 -45 -14 -59 39 -15 57 17 7 15 10 -6 11 -16 1 -46 -17 -66 -40 -25 -29
-50 -38 -79 -30 -24 6 -65 12 -90 12 -26 0 -42 8 -36 17 6 9 -30 26 -79 37
-57 13 -89 13 -89 1 0 -11 -13 -14 -30 -8 -18 7 -30 0 -30 -18 0 -38 -29 -37
-91 3 -27 18 -43 42 -36 54 9 13 0 16 -25 6 -89 -35 -147 -37 -159 -6 -7 17
-34 36 -60 43 -27 6 -49 21 -49 32 0 11 -21 14 -48 8 -57 -15 -89 23 -34 40
21 7 44 26 50 43 9 24 2 28 -31 17 -29 -9 -38 -6 -27 10 10 17 3 17 -26 -1
-22 -14 -36 -35 -31 -48 5 -15 -17 -23 -62 -22 -69 2 -107 52 -40 52 46 0 27
68 -21 77 -22 4 -55 20 -73 36 -18 16 -52 31 -75 32 -23 2 -42 12 -42 23 0 10
-6 13 -13 6 -22 -22 33 -71 94 -84 57 -13 83 -50 35 -50 -19 0 -19 -5 0 -24
13 -13 24 -40 24 -59 0 -25 29 -41 110 -59 144 -32 128 -43 -36 -26 -106 11
-129 19 -119 44 7 19 4 25 -10 17 -12 -7 -26 -2 -31 12 -5 14 -16 18 -26 7
-11 -10 -8 -21 7 -26 55 -20 25 -66 -44 -66 -38 0 -75 -10 -83 -23 -18 -29 46
-77 104 -77 25 0 48 -9 51 -20 5 -13 55 -15 136 -7 91 10 118 18 90 29 -50 19
97 20 251 0 l110 -14 -85 -16 c-51 -9 -85 -26 -85 -43 0 -17 14 -24 35 -18 19
6 4 -5 -35 -23 -172 -83 -198 -97 -191 -104 4 -4 27 3 51 16 45 24 119 -11 86
-41 -41 -37 -163 -40 -172 -5 -7 28 -10 26 -12 -9 -2 -51 -26 -58 -60 -17 -23
27 53 112 100 112 9 0 12 13 5 30 -13 33 23 42 43 10 14 -23 90 10 90 39 0 19
-526 10 -620 -10 -48 -10 -48 -9 -5 10 68 30 52 75 -39 107 -52 18 -100 -86
-63 -137 41 -56 37 -162 -5 -128 -18 16 -28 46 -22 73 5 26 1 52 -9 58 -34 21
-16 97 35 150 64 67 81 165 25 147 -49 -15 -48 24 2 55 29 18 33 31 18 50 -16
19 -16 26 1 26 12 0 22 9 22 20 0 12 -21 16 -49 9 -41 -11 -47 -7 -37 29 9 34
2 42 -40 42 -50 0 -90 54 -60 81 28 25 202 42 215 21 7 -11 27 -15 45 -8 27
11 26 15 -11 29 -47 17 -59 57 -17 57 14 0 37 -11 50 -24 19 -19 24 -19 24 0
0 13 -9 24 -21 24 -13 0 -16 26 -8 67 10 52 6 66 -19 66 -37 0 -44 -53 -7 -54
14 0 10 -9 -10 -21 -19 -11 -46 -17 -60 -14 -14 3 -28 -3 -31 -14 -12 -37 -70
-90 -98 -90 -41 0 -84 104 -47 116 15 5 47 30 70 54 37 41 44 42 71 13 27 -29
30 -29 36 2 15 77 -72 151 -108 92 -10 -17 -3 -20 24 -10 37 13 37 12 -1 -17
-21 -16 -51 -30 -66 -30 -17 0 -21 -10 -12 -25 10 -18 5 -17 -18 2 -30 24 -29
30 16 72 26 25 42 52 34 61 -8 9 -4 10 10 2 14 -8 34 -9 45 -2 30 18 -44 107
-80 96 -16 -5 -8 5 20 21 60 36 86 24 69 -31 -9 -27 -6 -36 9 -27 12 7 22 2
22 -11 0 -58 64 -101 92 -63 15 19 27 24 27 11 1 -13 -12 -37 -29 -53 -42 -42
-37 -58 11 -43 89 28 188 -98 126 -160 -17 -17 -25 -31 -18 -32 6 -2 22 -5 36
-6 14 -2 23 -14 21 -26 -6 -30 75 -7 87 25 6 16 41 23 93 20 142 -8 187 40 77
82 -53 20 -56 18 -47 -26 9 -50 -46 -48 -81 2 -21 31 -18 55 5 41 11 -7 25 -1
30 14 6 14 37 27 70 28 61 2 81 -20 35 -39 -14 -5 0 -11 30 -11 30 -1 55 7 55
18 0 11 -9 20 -20 20 -11 0 -20 10 -20 23 0 13 18 6 42 -14 23 -21 31 -41 20
-45 -12 -4 -22 -21 -22 -37 0 -16 9 -24 19 -18 10 7 28 -5 39 -26 26 -49 111
-75 93 -29 -10 26 -7 27 19 6 49 -41 35 12 -20 74 l-50 56 9 -58 c7 -46 4 -53
-15 -34 -13 13 -24 30 -25 38 -9 135 -93 247 -133 176 -15 -27 -26 -28 -62 -8
-24 13 -56 22 -71 19 -15 -3 -22 3 -15 14 8 12 -8 14 -43 4 -30 -9 -53 -25
-50 -38 3 -13 -10 -16 -30 -9 -31 12 -32 9 -8 -20 25 -30 23 -34 -15 -34 -25
0 -42 13 -42 31 0 39 48 89 85 89 15 0 49 23 75 50 26 28 38 50 27 50 -11 0
-31 23 -43 50 -20 44 -19 50 16 50 27 0 40 13 40 40 0 22 8 40 19 40 29 0 44
-36 21 -50 -38 -24 -23 -75 20 -64 22 6 35 2 29 -8 -6 -10 8 -18 32 -18 29 0
40 9 33 28 -6 15 -1 37 12 50 26 26 -37 101 -91 109 -17 3 -45 16 -61 30 -26
21 -29 19 -20 -16 6 -23 1 -41 -12 -41 -12 0 -22 -14 -22 -31 0 -25 -17 -29
-85 -21 -47 5 -102 10 -122 11 -24 1 -33 11 -26 30 8 20 1 26 -23 18 -28 -8
-27 -4 5 21 21 18 50 32 65 32 14 0 26 10 26 21 0 26 83 4 103 -27 28 -43 26
59 -2 121 -28 63 -61 87 -61 45 0 -11 -9 -20 -21 -20 -13 0 -13 14 2 42 20 37
18 39 -18 20 -56 -30 -57 -29 -47 38 5 38 0 60 -15 60 -13 0 -18 -9 -11 -20 7
-11 -2 -20 -20 -20 -18 0 -26 -10 -19 -22 9 -13 -7 -19 -44 -15 -66 8 -88 67
-30 82 28 7 40 32 46 88 12 127 2 149 -59 134 -72 -16 -98 -41 -70 -69 28 -28
11 -92 -29 -107 -44 -17 -55 2 -24 40 22 27 22 35 -2 50 -54 34 -67 22 -62
-61 1 -16 -3 -20 -8 -8 -15 33 -108 10 -95 -24 5 -15 18 -23 28 -17 10 6 18 2
18 -10 0 -19 -44 -29 -115 -26 -14 0 -25 -11 -25 -26 0 -15 -19 -25 -41 -23
-36 2 -38 6 -10 26 17 12 31 33 31 46 0 14 9 19 20 12 11 -7 36 -3 55 8 19 12
27 21 18 21 -10 1 -7 15 7 31 22 26 20 29 -7 18 -18 -7 -33 -21 -33 -31 0 -11
-8 -14 -19 -8 -10 6 -24 3 -31 -9 -21 -34 -111 -25 -97 10 6 17 29 30 51 30
57 0 156 63 156 99 -1 52 -28 79 -60 61z m207 -265 c8 -19 14 -19 29 2 12 18
24 20 32 7 7 -12 -7 -35 -32 -53 -25 -17 -34 -31 -20 -31 28 0 33 -72 5 -90
-11 -6 -37 6 -59 28 -21 21 -44 33 -50 27 -7 -6 -12 3 -12 20 0 18 19 38 42
45 22 8 37 17 33 21 -4 5 -36 -3 -71 -16 -73 -27 -99 -129 -27 -106 43 14 98
-37 64 -58 -12 -8 -21 1 -21 19 0 18 -8 28 -17 22 -13 -8 -15 -61 -5 -109 1
-5 17 4 36 20 29 24 32 23 20 -10 -8 -20 -14 -45 -14 -55 0 -10 -22 -18 -50
-18 -27 0 -68 -18 -90 -40 -22 -22 -40 -35 -40 -29 0 6 -9 6 -20 -1 -12 -7
-14 -23 -6 -36 9 -13 16 -33 16 -44 0 -11 16 -22 35 -26 37 -7 50 28 15 39
-33 11 38 97 79 97 23 0 40 -18 46 -50 10 -55 -30 -102 -67 -79 -17 11 -21 3
-13 -27 13 -50 -31 -123 -53 -87 -8 13 -9 31 -3 41 6 9 -2 28 -18 42 -25 20
-28 12 -23 -52 4 -42 -3 -94 -15 -115 -18 -29 -17 -40 2 -47 14 -5 25 -22 25
-38 0 -20 14 -25 48 -17 71 18 157 -103 102 -144 -21 -15 -50 -27 -65 -27 -15
0 -41 -13 -58 -30 -29 -29 -187 -43 -187 -16 0 7 20 34 43 60 44 46 117 63
117 26 0 -11 9 -20 20 -20 32 0 23 76 -12 96 -17 10 -30 26 -27 36 2 10 -17
29 -43 43 -27 13 -41 25 -32 25 9 0 3 14 -15 32 -37 37 -24 68 30 68 42 0 55
39 14 42 -20 1 -20 3 0 11 30 12 34 87 5 87 -11 0 -20 10 -20 21 0 12 8 16 19
10 10 -6 24 -2 32 10 7 12 -6 27 -32 33 -43 12 -42 14 21 69 54 47 59 57 28
59 -34 2 -34 4 -3 12 19 5 35 20 35 32 1 49 38 86 58 57 11 -18 21 -20 30 -6
7 12 -10 37 -39 56 -57 37 -108 4 -67 -45 24 -29 -24 -52 -61 -29 -20 13 -20
25 1 63 15 27 25 54 23 61 -2 7 15 8 37 2 28 -7 43 1 50 28 19 71 173 136 195
82z m149 -127 c14 -83 30 -99 42 -40 7 32 25 63 40 68 20 7 24 -1 15 -24 -7
-20 -4 -29 7 -22 11 7 20 3 20 -9 0 -11 -8 -21 -18 -21 -20 0 -112 -142 -106
-165 2 -8 -28 -35 -66 -60 -38 -25 -66 -56 -61 -68 5 -13 -3 -28 -18 -34 -36
-14 -79 83 -52 116 11 14 14 32 6 41 -8 9 -4 10 9 2 14 -8 35 4 50 27 14 23
34 41 43 41 10 0 7 -13 -7 -30 -14 -16 -18 -30 -11 -30 26 0 90 89 90 126 1
20 -7 31 -17 25 -19 -12 -43 81 -25 99 20 20 53 -3 59 -42z m161 -299 c49 -17
-16 -69 -86 -69 -44 0 -64 -10 -64 -30 0 -21 12 -27 38 -18 76 24 127 21 155
-9 24 -26 22 -28 -17 -18 -30 8 -42 4 -37 -12 5 -12 18 -21 28 -19 11 2 19 -9
19 -25 0 -51 -82 -13 -88 41 -1 10 -13 23 -27 27 -16 6 -20 -6 -13 -34 14 -52
-46 -61 -85 -13 -28 34 -11 170 22 170 11 0 15 8 9 18 -11 18 86 11 146 -9z
m123 -101 c0 -17 9 -25 20 -18 12 7 14 -2 6 -23 -8 -22 -16 -26 -21 -11 -5 13
-18 18 -30 11 -12 -7 -15 -4 -8 9 8 11 4 27 -7 34 -11 7 -15 21 -9 32 16 26
49 3 49 -34z m-526 -41 c-7 -7 -3 -30 9 -52 16 -30 15 -36 -2 -25 -32 19 -101
-47 -87 -84 10 -26 6 -26 -31 -3 -56 35 -54 50 7 65 30 8 54 32 62 62 7 28 22
50 34 50 11 0 15 -6 8 -13z m-474 -178 c0 -2 -12 -28 -27 -57 -28 -53 -28 -53
-40 -9 -6 24 -7 50 -3 57 7 12 70 20 70 9z m227 -47 c36 -30 44 -82 13 -82
-11 0 -20 14 -20 30 0 17 -11 30 -23 30 -34 0 -97 -61 -97 -94 0 -16 -10 -22
-23 -14 -15 9 -18 5 -9 -9 10 -16 -7 -32 -47 -46 -59 -20 -76 -74 -20 -61 14
3 33 -6 42 -20 13 -20 16 -20 17 -1 0 14 14 25 30 25 17 0 30 -7 30 -15 -1
-49 -100 -105 -100 -57 0 32 -55 60 -105 54 -41 -5 -45 18 -10 58 14 16 7 14
-15 -4 -38 -31 -42 -29 -79 21 -31 41 -32 47 -5 26 21 -18 34 -20 34 -6 0 12
13 17 29 11 16 -6 60 18 101 55 41 37 88 75 106 85 29 17 28 20 -7 33 -26 10
-11 14 43 12 45 -2 97 -16 115 -31z m809 -117 c-3 -19 -27 -38 -53 -42 -41 -5
-44 -2 -24 35 27 51 87 57 77 7z m-504 -252 c7 -22 -4 -54 -30 -81 -51 -54
-54 -75 -9 -58 26 10 31 5 21 -20 -7 -18 -4 -38 6 -44 23 -14 11 -110 -21
-172 -14 -27 -32 -61 -39 -78 -20 -43 -80 -50 -80 -10 0 18 -8 27 -19 21 -22
-14 -49 61 -31 89 7 11 23 15 34 7 13 -8 16 -4 8 9 -17 29 -72 8 -72 -28 0
-35 -32 -37 -45 -3 -6 15 33 45 98 75 109 51 143 117 53 104 -46 -6 -84 32
-52 53 61 41 42 79 -40 79 -123 -2 -150 16 -150 95 0 75 25 93 42 29 14 -54
42 -50 118 18 l64 57 66 -52 c37 -29 72 -70 78 -90z m-652 57 c14 -17 21 -36
15 -42 -18 -18 -97 32 -84 53 17 27 40 23 69 -11z m220 -69 c0 -39 -50 -71
-138 -91 -47 -10 -63 -8 -53 8 7 12 26 22 42 22 33 0 39 32 9 50 -38 23 -1 46
70 44 49 -1 70 -11 70 -33z m70 -61 c-7 -11 6 -20 29 -20 22 0 41 -10 41 -21
0 -13 17 -16 40 -9 50 16 50 -6 0 -66 -38 -46 -140 -18 -140 38 0 10 -29 19
-65 20 l-65 3 60 15 c33 8 51 16 40 18 -11 1 -6 11 10 22 39 25 66 25 50 0z
m-50 -140 c0 -42 -10 -60 -32 -60 -25 0 -28 6 -11 27 13 15 17 32 11 39 -12
11 6 54 23 54 5 0 9 -27 9 -60z m-74 -114 c-13 -33 11 -32 99 4 50 20 46 -34
-5 -65 -24 -15 -40 -17 -40 -5 0 11 -26 20 -58 20 -58 0 -68 22 -35 75 22 35
54 11 39 -29z m1058 30 c-19 -19 -12 -29 31 -48 l55 -25 -50 -1 c-64 -2 -94
19 -94 63 1 22 16 35 41 35 32 0 36 -5 17 -24z m196 -16 c49 -16 48 -16 -10
-16 -33 0 -82 7 -110 16 -49 16 -48 16 10 16 33 0 83 -7 110 -16z m-988 -241
c12 -108 17 -119 61 -119 28 0 47 -12 47 -30 0 -34 -51 -41 -70 -10 -7 12 -21
16 -30 10 -51 -32 -122 13 -80 50 42 37 22 62 -55 68 -41 3 -33 41 13 62 24
11 49 40 55 65 19 74 44 32 59 -96z m1299 70 c-21 -16 -54 -29 -73 -29 -19 0
-51 -6 -71 -13 -22 -8 -30 -6 -21 5 20 22 133 65 174 66 22 1 20 -7 -9 -29z
m-1699 -80 c7 -28 6 -57 -1 -65 -21 -21 -70 55 -57 88 16 44 44 33 58 -23z
m1789 12 c-33 -60 -25 -68 31 -32 76 50 80 28 33 -154 -28 -106 -37 -171 -24
-184 33 -33 24 -137 -11 -124 -33 13 -35 2 -10 -57 17 -40 17 -40 19 0 2 37 5
36 42 -10 28 -36 37 -68 29 -113 -6 -35 -2 -70 9 -77 23 -14 28 -89 9 -138 -7
-18 -20 -27 -30 -21 -21 13 -22 4 -6 -39 7 -18 20 -27 30 -21 10 6 19 -32 20
-85 2 -53 6 -123 9 -155 l7 -59 -47 59 c-113 140 -130 220 -32 144 18 -14 3 2
-33 35 -36 33 -66 74 -66 91 0 17 -11 43 -25 57 -20 22 -16 24 25 13 l50 -13
-54 46 c-41 35 -49 54 -35 80 23 39 10 49 -69 59 -92 11 -111 -44 -46 -130 30
-39 46 -76 35 -82 -10 -6 -32 8 -50 33 -17 25 -31 37 -31 27 0 -10 17 -37 38
-60 57 -61 6 -106 -58 -51 -25 21 -57 32 -76 25 -25 -10 -16 -19 37 -41 85
-35 104 -62 67 -99 -41 -41 -12 -71 56 -57 45 9 71 0 112 -38 l54 -50 -54 0
c-29 0 -57 -11 -63 -25 -8 -18 -18 -16 -38 9 -18 21 -46 31 -77 25 -26 -5 -37
-4 -23 3 18 8 13 22 -20 47 -76 59 -278 165 -290 152 -16 -15 21 -52 57 -59
54 -9 189 -90 152 -91 -20 -1 -63 13 -97 30 -59 31 -60 31 -47 -10 17 -55 -17
-52 -56 4 -24 36 -35 40 -56 20 -41 -40 -66 -29 -103 45 -39 80 -27 89 37 28
62 -58 97 -32 57 43 -29 57 -109 84 -109 38 0 -12 -9 -16 -20 -9 -32 20 -100
-28 -100 -71 0 -21 -8 -39 -18 -39 -64 0 42 146 166 227 55 36 57 36 104 -9
54 -51 60 -71 23 -83 -14 -5 0 -5 30 0 37 5 59 -2 67 -23 11 -29 126 -112 156
-112 7 0 2 17 -11 38 -13 21 -34 34 -46 30 -57 -22 -89 226 -39 303 26 39 27
49 5 49 -54 -1 -83 -35 -70 -85 14 -55 -74 -116 -112 -78 -25 25 -2 63 38 63
43 0 23 46 -33 74 -26 13 -50 44 -54 69 -4 25 -15 54 -25 64 -12 12 -14 1 -7
-26 9 -36 5 -44 -26 -37 -25 5 -36 22 -34 50 3 23 -8 53 -25 66 -39 33 -37 67
4 52 19 -8 43 2 58 23 29 38 68 18 76 -40 3 -17 16 -45 31 -62 14 -17 20 -39
14 -49 -6 -10 7 -35 28 -54 62 -56 41 37 -42 195 -14 26 -11 35 11 35 17 0 51
-43 76 -95 36 -76 56 -96 102 -101 43 -5 53 -15 43 -40 -8 -23 -6 -27 7 -14
47 47 50 130 5 130 -23 0 -42 8 -42 18 0 20 59 50 90 45 11 -1 46 38 77 87 31
50 60 90 64 90 12 0 -15 -65 -43 -107 -14 -21 -20 -50 -14 -65 5 -16 0 -28
-13 -28 -31 0 121 -178 153 -179 13 -1 29 17 36 39 16 50 -6 160 -31 160 -10
0 -17 20 -16 45 1 25 -8 71 -20 102 -29 71 27 161 81 131 25 -14 37 -5 52 40
22 63 -55 104 -111 58 -36 -30 -85 -136 -62 -136 11 0 14 -9 7 -20 -21 -33
-65 -22 -75 18 -7 26 10 58 47 94 44 42 52 60 33 74 -18 13 -15 15 8 7 22 -7
46 7 66 38 39 59 83 68 52 10z m-671 -1 c7 -12 19 -17 27 -12 8 5 28 0 44 -11
24 -17 24 -22 2 -31 -23 -9 -23 -14 0 -28 18 -12 6 -17 -39 -18 -36 0 -86 14
-112 30 -34 23 -59 26 -94 12 -26 -11 -36 -20 -22 -21 20 -1 19 -11 -5 -45
-39 -56 -39 -76 -1 -76 45 0 36 -35 -12 -51 -46 -14 -84 23 -68 66 5 14 0 25
-11 25 -46 0 -18 99 31 112 28 7 50 20 50 29 0 14 47 25 164 36 18 2 39 -6 46
-17z m438 -96 c-111 -104 -119 -117 -89 -145 38 -36 42 -162 6 -174 -16 -5
-25 11 -25 42 0 64 -19 113 -44 113 -26 0 -76 -52 -76 -79 0 -11 -9 -21 -21
-21 -27 0 -15 87 18 127 14 17 39 26 54 20 16 -6 29 -1 29 12 0 13 -9 18 -20
11 -11 -7 -20 -1 -19 14 0 22 268 196 299 195 6 -1 -45 -52 -112 -115z m-1442
3 c-6 -15 0 -27 13 -27 13 0 18 -9 11 -20 -33 -54 -80 16 -58 85 9 30 16 34
28 14 9 -14 12 -37 6 -52z m394 -176 c0 -14 -23 -35 -51 -48 -66 -30 -76 -29
-62 6 6 17 3 35 -8 42 -12 7 -11 26 2 50 23 43 119 3 119 -50z m710 49 c-45
-50 -54 -50 -113 -1 l-47 40 98 0 c97 1 98 0 62 -39z m-323 -381 c30 -118 39
-259 16 -259 -12 0 -27 34 -33 75 -7 41 -21 96 -31 121 -11 25 -19 69 -19 97
0 72 45 49 67 -34z m1663 -144 c-8 -25 -16 -70 -18 -100 -1 -32 -16 -60 -34
-66 -17 -5 -44 -32 -58 -59 -15 -28 -43 -50 -63 -50 -54 0 -45 38 13 60 28 10
50 32 50 48 0 16 6 44 13 62 8 22 -1 36 -30 43 -55 15 -35 47 28 47 30 0 49
12 49 30 0 17 15 30 32 30 25 0 29 -11 18 -45z m-1710 -167 c0 -111 -5 -129
-28 -110 -59 49 -59 242 0 242 21 0 28 -33 28 -132z m1334 22 c-6 -38 -3 -70
7 -70 11 0 19 -19 19 -41 0 -23 -9 -36 -20 -29 -11 7 -20 -6 -20 -29 0 -22 9
-41 20 -41 23 0 26 -66 8 -158 -16 -75 -48 -82 -48 -10 0 45 -4 49 -31 27 -23
-19 -36 -20 -54 -2 -17 17 -17 23 1 23 13 0 24 18 24 39 0 21 15 47 33 58 64
36 16 88 -74 79 -95 -9 -108 49 -13 60 30 4 50 15 44 24 -6 10 7 28 29 40 23
12 41 39 41 61 0 21 10 39 23 39 14 0 18 -25 11 -70z m-1426 -153 c95 -33 113
-70 45 -96 -28 -10 -60 -36 -71 -58 -12 -21 -44 -44 -71 -51 -28 -7 -51 -22
-51 -32 0 -11 -33 -20 -73 -20 -41 0 -90 -15 -110 -33 -34 -31 -43 -31 -112
-1 -41 17 -95 37 -120 44 -99 28 -80 170 22 170 18 0 24 16 18 50 -12 61 165
79 188 19 7 -19 26 -26 49 -18 21 6 38 2 38 -10 0 -34 28 -24 56 21 24 38 23
40 -15 28 -25 -8 -41 -4 -41 10 0 28 135 15 248 -23z m1702 -147 c-44 -37 -87
-69 -95 -69 -34 -2 -11 39 45 79 33 23 60 36 60 27 0 -8 11 -4 24 9 13 13 29
24 35 24 6 0 -25 -32 -69 -70z m-1350 -2 c0 -49 242 -113 269 -70 14 23 110
40 121 22 5 -9 -9 -20 -32 -26 -26 -7 -36 -20 -27 -35 23 -37 -33 -58 -79 -30
-23 15 -78 33 -122 40 -44 8 -98 25 -120 39 -89 56 -115 56 -105 2 10 -52 -27
-67 -81 -33 -35 23 -10 119 33 127 60 13 143 -8 143 -36z m-292 -60 c19 -7 32
-36 32 -72 0 -45 -7 -57 -30 -49 -43 17 -37 2 20 -55 28 -28 50 -69 50 -93 0
-46 39 -45 60 2 71 154 66 149 171 145 86 -4 176 -14 209 -24 47 -13 -65 -33
-169 -30 -169 5 -208 -31 -103 -93 40 -24 72 -52 72 -63 0 -13 11 -12 28 2 15
13 35 21 45 19 9 -3 52 7 94 21 79 27 170 -32 172 -111 1 -12 15 -33 31 -47
48 -40 23 -43 -49 -7 -37 18 -71 49 -76 70 -11 44 -45 50 -45 8 0 -18 -12 -25
-30 -18 -17 6 -58 0 -92 -14 -51 -21 -65 -21 -80 3 -14 23 -17 21 -18 -7 0
-19 -10 -35 -22 -35 -12 0 -17 13 -11 30 7 16 3 30 -8 30 -10 0 -19 -9 -19
-19 0 -11 -32 -17 -71 -14 -39 3 -76 -2 -82 -12 -6 -9 -30 6 -54 34 -25 28
-65 51 -90 51 -25 0 -40 9 -33 20 7 11 39 20 71 20 37 0 59 10 59 28 0 22 -25
26 -123 17 -83 -7 -119 -4 -110 10 7 11 -9 26 -37 33 -48 12 -71 52 -30 52 11
0 20 -11 20 -24 0 -26 42 17 126 129 58 78 69 83 122 63z m989 -17 c66 -34
126 -97 83 -87 -15 3 -43 22 -63 41 -20 19 -50 35 -67 35 -16 0 -30 9 -30 20
0 27 12 25 77 -9z m-237 -31 c-15 -9 -4 -20 32 -29 45 -11 50 -18 27 -34 -22
-15 -16 -17 24 -9 29 6 87 -2 130 -18 l77 -30 -100 11 c-169 18 -208 30 -220
70 -15 46 5 85 34 67 13 -9 12 -18 -4 -28z m464 -65 c4 -14 6 -65 4 -115 -2
-49 -5 -111 -6 -137 -2 -41 -7 -44 -33 -22 -39 33 -38 299 2 299 14 0 28 -11
33 -25z m-526 -54 c49 -6 93 -22 97 -36 11 -32 -63 -33 -120 -2 -32 17 -45 17
-51 0 -12 -37 -58 -26 -69 16 -12 46 2 65 33 46 12 -8 62 -19 110 -24z m1222
-31 c29 -35 -178 -42 -250 -8 -31 15 -24 17 32 10 39 -5 84 0 100 9 42 27 90
23 118 -11z m-825 -10 c28 0 45 -12 45 -33 0 -26 -14 -30 -75 -20 -41 7 -95
13 -120 13 -28 0 -45 12 -45 33 0 26 14 30 75 20 41 -7 95 -13 120 -13z m-45
-104 l100 3 -50 -39 -50 -39 45 -1 c25 0 45 -9 45 -20 0 -11 -22 -20 -50 -20
-27 0 -50 10 -50 21 0 12 -9 16 -21 8 -11 -7 -36 0 -54 14 -28 23 -30 23 -17
-3 8 -17 2 -15 -14 5 -25 31 -32 32 -54 5 -27 -33 -130 -42 -110 -10 7 11 -7
20 -30 20 -23 0 -37 9 -30 20 7 11 -2 20 -20 20 -18 0 -27 9 -20 19 7 12 66
14 146 6 74 -7 179 -11 234 -9z m1446 -79 c-9 -62 -45 -67 -49 -7 -2 32 8 50
27 50 18 0 26 -16 22 -43z m-1336 -129 c0 -42 -9 -68 -21 -64 -12 4 -21 14
-20 21 0 8 1 38 1 65 0 28 9 50 20 50 11 0 20 -32 20 -72z"/>
<path d="M1840 1255 c0 -34 -13 -57 -38 -64 -94 -30 -87 -207 7 -183 26 7 62
-9 101 -44 57 -51 58 -52 15 -3 -25 28 -45 73 -45 100 1 160 -4 211 -21 228
-12 12 -19 0 -19 -34z"/>
<path d="M2713 3785 c-22 -35 25 -78 49 -45 17 24 20 21 12 -15 -6 -25 -2 -40
8 -34 10 6 18 27 19 45 1 19 15 1 32 -39 28 -69 99 -132 74 -66 -6 16 -20 29
-31 29 -12 0 -16 16 -11 37 18 67 -117 145 -152 88z"/>
<path d="M2875 3767 c14 -5 25 -24 25 -40 0 -16 7 -25 16 -19 9 5 29 1 45 -9
23 -15 21 -19 -11 -20 -40 -2 -40 -2 0 -19 22 -9 29 -18 15 -19 -14 0 -25 -16
-25 -35 0 -30 6 -29 44 9 40 40 41 46 11 79 -18 20 -33 45 -33 55 -1 10 -26
21 -56 24 -31 3 -45 0 -31 -6z"/>
<path d="M5165 3747 c-35 -14 -31 -60 6 -75 17 -6 27 -19 22 -28 -6 -9 -2 -29
8 -45 14 -22 18 -22 19 -3 0 15 9 21 20 14 11 -7 20 -3 20 9 0 13 20 17 50 9
58 -14 92 39 50 78 -14 13 -21 15 -14 3 6 -11 3 -34 -7 -50 -14 -22 -18 -15
-19 26 0 30 -10 55 -21 55 -12 0 -16 -9 -8 -21 14 -23 -25 -79 -56 -79 -11 0
-15 18 -9 40 7 28 0 40 -23 40 -29 1 -29 3 -3 20 31 20 9 24 -35 7z"/>
<path d="M5529 3730 c-22 -17 -30 -29 -19 -28 11 2 33 2 48 0 39 -3 8 -31 -34
-32 -23 0 -32 -14 -29 -45 4 -43 -13 -54 -70 -46 -14 1 -25 -16 -25 -38 0 -51
24 -52 68 -3 35 38 63 43 105 17 26 -17 30 -111 5 -127 -39 -23 -16 -49 24
-27 23 12 36 34 30 50 -5 15 0 34 12 41 14 9 16 5 6 -12 -12 -20 -7 -23 17
-14 23 9 33 2 33 -25 0 -21 11 -35 25 -32 58 12 95 37 95 65 0 21 13 27 41 20
25 -7 38 -2 34 11 -4 12 -27 24 -52 28 -25 4 -40 -1 -34 -11 13 -22 -74 -46
-88 -25 -6 9 -29 27 -51 39 -22 13 -29 23 -16 23 15 1 20 15 12 34 -10 27 -3
31 41 20 41 -11 53 -6 53 18 0 22 -12 28 -38 20 -21 -7 -45 -3 -52 9 -7 11
-21 15 -31 9 -11 -6 -28 12 -39 40 -22 60 -21 60 -71 21z"/>
<path d="M3106 3654 c-58 -64 -79 -152 -25 -103 22 19 39 44 39 55 0 11 15 30
33 44 20 14 25 29 13 36 -11 7 -38 -7 -60 -32z"/>
<path d="M1938 3648 c-20 -24 -28 -25 -41 -4 -21 34 -19 -2 3 -54 9 -22 18
-29 19 -15 0 14 23 25 50 25 63 0 78 26 31 55 -29 18 -42 17 -62 -7z"/>
<path d="M4970 3643 c-11 -21 -36 -67 -56 -101 l-36 -64 96 12 c114 13 140 34
93 72 -30 25 -33 24 -22 -6 9 -24 2 -33 -26 -30 -47 3 -67 50 -37 86 12 15 19
36 15 48 -4 11 -16 4 -27 -17z"/>
<path d="M5106 3632 c-28 -16 -38 -33 -27 -51 19 -31 52 -15 82 40 23 44 9 46
-55 11z"/>
<path d="M5786 3607 c-50 -53 -19 -65 37 -15 35 33 116 -6 83 -40 -7 -6 7 -12
31 -12 29 0 43 -12 43 -39 0 -29 -10 -37 -35 -29 -33 11 -33 10 0 -11 45 -29
49 -204 6 -240 -24 -20 -32 -15 -43 28 -8 34 -23 50 -40 43 -15 -6 -25 0 -23
13 9 43 51 75 84 63 20 -8 31 -1 31 18 0 49 -57 57 -82 11 -18 -34 -26 -37
-40 -15 -14 22 -17 21 -18 -7 0 -19 -10 -35 -22 -35 -17 0 -16 -8 1 -28 19
-24 16 -27 -18 -18 -23 6 -41 1 -41 -12 0 -12 -7 -21 -15 -20 -47 8 -45 -7 7
-52 32 -27 46 -50 32 -50 -15 0 -21 -9 -14 -20 7 -11 -3 -20 -21 -20 -27 0
-29 -6 -11 -28 23 -27 -62 -62 -88 -35 -19 19 -70 20 -70 1 0 -10 -9 -18 -20
-18 -11 0 -20 14 -20 30 0 17 13 30 29 30 40 0 77 74 66 132 -8 39 -4 44 18
26 21 -18 27 -16 27 10 0 17 14 32 32 32 21 0 28 11 20 32 -7 17 -12 35 -12
39 0 4 -13 3 -30 -4 -16 -6 -30 -24 -30 -40 0 -16 -9 -24 -20 -17 -12 7 -15
21 -9 31 6 11 -3 19 -21 19 -18 0 -27 -9 -20 -20 7 -11 -8 -28 -32 -37 l-45
-16 45 -45 c48 -48 28 -108 -34 -97 -16 3 -34 -8 -40 -23 -6 -18 0 -23 18 -13
16 8 12 1 -7 -15 -41 -33 -46 -63 -9 -48 14 5 42 -3 63 -18 20 -15 45 -22 54
-16 9 6 17 1 17 -11 0 -11 -14 -21 -31 -21 -17 0 -26 -9 -19 -20 7 -12 23 -15
36 -7 13 7 6 -5 -16 -27 -30 -30 -51 -36 -84 -24 -25 9 -49 9 -56 -1 -13 -21
8 -34 50 -32 41 3 63 -34 34 -55 -15 -11 -3 -14 31 -8 30 4 55 -1 55 -12 0
-11 7 -14 15 -6 8 8 -8 33 -35 55 -28 22 -37 34 -22 26 19 -10 23 -7 14 8 -8
14 -2 23 16 23 19 0 26 -11 19 -30 -7 -19 1 -30 22 -30 18 0 28 8 22 18 -6 10
0 23 14 29 19 7 18 15 -5 31 -26 19 -26 21 4 22 46 0 64 -36 35 -71 -19 -23
-18 -29 9 -29 17 0 32 -8 32 -18 0 -9 18 -22 40 -28 28 -7 36 -21 27 -44 -10
-26 -16 -28 -29 -7 -13 21 -22 21 -40 3 -18 -18 -18 -31 -2 -51 12 -15 17 -47
11 -71 -7 -27 -3 -44 13 -44 13 0 28 17 33 37 8 29 25 36 72 30 82 -9 91 -22
27 -38 -32 -8 -51 -25 -47 -44 12 -67 -60 -76 -114 -14 -93 106 -95 109 -64
109 51 0 23 70 -29 74 l-48 4 50 -17 50 -17 -55 -2 c-42 -2 -55 7 -55 38 0 51
-23 51 -83 0 -38 -32 -40 -37 -9 -27 27 10 34 7 24 -10 -9 -14 6 -31 38 -43
51 -20 52 -20 16 -69 -30 -41 -40 -44 -58 -21 -25 33 -115 14 -123 -26 -4 -19
4 -21 33 -5 51 27 82 27 82 -1 0 -12 -11 -18 -25 -13 -14 6 -36 -1 -49 -15
-26 -29 -14 -51 21 -40 13 5 50 12 83 18 33 5 88 15 122 22 61 14 105 -26 78
-70 -15 -25 34 -35 90 -19 46 14 47 15 6 17 -24 1 -49 10 -55 20 -6 10 7 14
29 8 28 -8 40 -1 40 23 0 20 9 28 23 19 14 -8 18 -5 10 8 -13 20 57 84 91 84
9 0 16 -36 16 -80 0 -66 -7 -80 -39 -80 -47 0 -70 -32 -38 -52 14 -8 28 -4 32
8 22 64 45 10 45 -104 0 -130 -56 -198 -105 -126 -11 16 -15 13 -11 -10 7 -40
-1 -44 -54 -22 -22 9 -40 33 -40 54 0 21 -13 42 -30 47 -25 7 -25 5 -2 -11 22
-16 19 -22 -15 -33 -26 -8 -43 -30 -43 -54 0 -31 9 -38 34 -28 19 7 29 7 21 0
-26 -26 39 -65 102 -61 l63 4 -45 -49 c-35 -38 -37 -47 -11 -37 41 15 72 -24
37 -45 -13 -9 -50 -12 -82 -9 -31 4 -63 -2 -69 -12 -26 -41 -54 -19 -41 32 8
33 5 47 -8 38 -12 -7 -21 -3 -21 9 0 11 9 21 20 21 11 0 20 17 20 37 0 29 -11
35 -50 28 -27 -5 -50 -23 -50 -40 0 -26 5 -26 35 -2 30 23 32 23 14 -3 -12
-16 -21 -43 -20 -60 3 -35 -63 -100 -101 -100 -16 0 -22 13 -15 30 6 17 18 30
25 30 8 0 32 14 53 32 38 31 38 31 -1 17 -22 -8 -56 -14 -75 -13 -19 1 -35 -5
-35 -12 0 -8 -29 -13 -65 -13 -36 1 -76 -7 -89 -16 -13 -10 -33 -13 -43 -7
-11 7 -42 4 -70 -7 -36 -14 -53 -12 -58 5 -6 18 -17 17 -42 -3 -28 -24 -34
-23 -45 4 -9 25 -21 28 -50 12 -30 -16 -34 -29 -18 -59 17 -33 12 -38 -43 -44
-91 -9 -97 -87 -9 -105 35 -7 65 -3 69 9 3 11 18 20 32 20 14 0 26 22 26 50 0
28 -8 50 -17 50 -10 0 -18 8 -18 18 0 10 22 8 50 -5 46 -21 47 -25 15 -50 -32
-25 -31 -26 8 -14 37 11 42 6 32 -31 -7 -29 -4 -40 10 -31 44 27 82 -9 74 -69
-5 -40 3 -64 23 -71 41 -16 63 11 27 34 -25 17 -25 21 1 39 26 17 24 25 -13
55 -47 38 -39 93 20 142 27 23 33 19 44 -26 11 -42 19 -48 42 -29 15 13 34 17
42 9 8 -8 -1 -26 -20 -40 -43 -32 -46 -91 -4 -91 17 0 26 -9 19 -20 -7 -12 2
-14 23 -6 23 9 27 16 10 22 -19 6 -17 18 9 46 39 43 25 48 -38 15 -42 -21 -42
-20 4 30 77 84 251 86 182 3 -26 -31 5 -110 44 -110 12 0 18 -5 11 -11 -6 -7
-29 -1 -50 13 -44 27 -115 10 -94 -23 8 -14 23 -13 44 5 26 22 30 21 22 -4
-19 -57 -135 -118 -207 -109 -73 9 -97 -9 -78 -59 15 -38 61 -42 73 -7 5 15
46 25 107 25 73 0 98 8 100 30 5 71 10 80 48 80 22 0 41 -7 42 -15 0 -8 4 -32
8 -52 4 -22 -6 -41 -26 -46 -36 -10 -93 -107 -62 -107 10 0 18 -19 18 -43 0
-24 6 -38 13 -31 7 8 27 2 44 -11 24 -20 28 -20 16 0 -9 14 -6 25 6 25 11 0
21 -22 21 -49 0 -27 9 -54 20 -61 11 -7 14 1 7 20 -15 39 52 107 93 94 17 -5
13 5 -10 22 -22 17 -46 26 -54 21 -23 -14 -96 31 -96 60 0 17 19 23 57 18 40
-6 61 1 70 24 8 21 5 28 -9 19 -29 -17 -60 33 -47 75 6 19 1 40 -11 47 -16 10
-16 21 1 41 12 15 18 35 12 44 -18 29 96 16 119 -13 30 -38 91 -14 75 29 -9
23 -30 30 -71 24 -32 -4 -62 -1 -68 8 -6 10 -27 8 -47 -2 -19 -11 -42 -13 -49
-6 -8 8 -8 -2 -1 -21 10 -26 6 -31 -19 -22 -17 7 -27 19 -22 28 6 9 -1 21 -15
27 -14 5 0 11 30 11 61 2 64 8 35 62 -22 42 -33 39 175 39 l125 0 -2 75 c-2
42 -7 60 -12 41 -9 -34 -48 -47 -71 -23 -23 22 9 68 47 68 37 0 38 28 38 790
0 777 -1 790 -40 790 -22 0 -40 12 -40 26 0 43 -88 31 -134 -19z m101 -383
c26 -29 28 -42 8 -65 -14 -15 -6 -12 17 7 59 49 60 46 61 -81 1 -82 -8 -122
-31 -140 -28 -22 -29 -28 -2 -50 48 -40 48 -134 0 -179 -54 -51 -101 -34 -89
32 5 27 0 55 -11 62 -11 7 -20 34 -20 61 0 27 -9 49 -20 49 -11 0 -20 13 -20
29 0 16 -9 34 -20 41 -11 7 -14 -1 -7 -20 10 -27 5 -28 -40 -8 -75 35 -45 59
68 55 91 -3 159 25 159 65 0 10 -13 18 -30 18 -16 0 -30 -9 -30 -20 0 -29 -27
-25 -71 11 -22 18 -27 26 -12 18 18 -9 25 -1 22 24 -13 124 10 154 68 91z"/>
<path d="M5842 2865 c-2 -29 94 -96 112 -78 7 7 2 13 -11 13 -12 0 -23 14 -23
32 0 20 -11 28 -29 21 -15 -6 -33 0 -38 13 -7 18 -10 18 -11 -1z"/>
<path d="M75 3618 c-47 -27 -45 -58 4 -58 26 0 38 13 36 40 -2 22 -4 40 -4 39
-1 0 -17 -9 -36 -21z"/>
<path d="M4645 3615 c7 -18 -5 -55 -29 -85 l-41 -53 72 14 c65 12 72 9 84 -39
7 -28 21 -47 31 -41 10 6 19 0 19 -15 1 -14 10 -4 21 22 10 26 14 53 8 58 -5
6 -10 0 -10 -13 0 -12 -10 -23 -22 -23 -16 0 -15 9 2 30 34 41 60 38 60 -8 0
-57 52 -93 90 -62 39 32 21 59 -30 46 -22 -6 -40 -1 -40 10 0 11 -5 34 -11 51
-7 16 0 33 15 38 14 5 5 6 -21 1 -28 -5 -41 0 -33 13 7 12 32 22 56 23 41 2
40 3 -6 17 -27 8 -66 7 -86 -4 -64 -32 -113 -35 -101 -6 5 15 -1 34 -15 42
-17 11 -21 6 -13 -16z"/>
<path d="M1421 3573 c-34 -34 -24 -58 19 -47 22 6 35 3 29 -7 -10 -18 52 -59
90 -59 11 0 21 16 21 36 0 46 -128 108 -159 77z"/>
<path d="M1730 3549 c-7 -32 -21 -84 -31 -114 -10 -34 -10 -55 3 -55 22 0 58
82 45 104 -4 8 9 11 29 7 49 -10 74 10 75 60 1 26 -11 40 -35 40 -20 0 -36 -9
-36 -20 0 -12 -9 -8 -19 8 -14 22 -21 15 -31 -30z"/>
<path d="M1913 3427 c-24 -25 -15 -131 10 -115 17 10 19 3 8 -24 -60 -146 -51
-215 24 -195 46 12 63 47 24 47 -12 0 -8 14 10 31 40 40 39 62 -2 85 -18 10
-26 29 -18 42 7 12 21 18 30 13 16 -10 40 52 41 104 0 26 -103 35 -127 12z"/>
<path d="M4446 3418 c-29 -29 -12 -85 37 -115 23 -14 36 -17 29 -6 -7 11 2 29
20 39 28 15 24 21 -21 32 -37 9 -51 23 -43 43 13 35 8 37 -22 7z"/>
<path d="M3240 3405 c-33 -12 -59 -45 -60 -73 0 -10 18 -2 40 18 32 29 45 31
70 10 54 -45 34 -70 -55 -67 -47 2 -97 -6 -112 -19 -19 -16 -31 -14 -44 7 -15
24 -18 22 -19 -7 0 -23 -9 -31 -25 -22 -14 7 -10 -2 8 -22 21 -22 43 -29 60
-18 15 9 48 14 74 11 30 -4 43 1 34 15 -8 14 11 23 53 24 36 1 111 3 166 5 55
2 106 -6 114 -16 27 -38 35 2 11 53 -15 33 -40 51 -69 51 -25 0 -42 -6 -37
-13 4 -7 -14 -23 -41 -35 -33 -16 -52 -17 -61 -2 -7 12 -4 16 7 9 22 -14 71
75 52 94 -19 18 -67 -30 -55 -55 6 -13 -4 -3 -23 22 -34 47 -39 49 -88 30z"/>
<path d="M1749 3379 c-7 -12 8 -39 34 -62 41 -36 48 -37 54 -8 12 60 -59 116
-88 70z"/>
<path d="M3850 3355 c-21 -25 -39 -58 -39 -73 -1 -16 -12 -32 -26 -37 -17 -6
-21 3 -12 27 11 27 6 32 -21 22 -19 -8 -29 -5 -23 5 21 33 -22 40 -61 10 -37
-28 -37 -29 2 -16 22 7 34 6 26 -2 -7 -8 8 -37 35 -64 60 -60 62 -87 8 -87
-23 0 -36 -8 -30 -19 7 -10 -6 -17 -29 -16 -22 2 -40 10 -40 19 0 8 -13 10
-30 3 -40 -15 -18 -47 33 -47 27 0 38 -10 31 -28 -13 -32 21 -71 53 -64 13 3
16 2 8 -3 -8 -5 -15 -26 -15 -47 0 -21 -14 -38 -31 -38 -22 0 -28 12 -20 38 7
21 2 45 -11 53 -15 10 -19 7 -10 -8 8 -13 1 -37 -16 -54 -17 -16 -26 -42 -20
-58 6 -15 1 -33 -11 -40 -12 -8 -21 4 -21 30 0 38 -4 41 -33 17 -29 -25 -31
-23 -19 17 11 34 7 45 -17 45 -17 0 -31 -11 -31 -25 -1 -19 -4 -19 -17 1 -9
14 -30 20 -48 13 -17 -6 -37 -2 -45 11 -8 14 4 27 31 34 42 11 43 14 10 38
-32 23 -30 25 17 20 53 -5 98 -32 55 -32 -12 0 -23 -9 -23 -20 0 -11 26 -20
58 -20 48 0 57 8 57 50 0 28 -7 50 -16 50 -9 0 -12 29 -8 65 l8 64 -39 -64
c-56 -93 -153 -44 -132 67 6 27 -3 39 -28 39 -23 0 -32 -10 -24 -30 9 -25 3
-24 -29 4 -49 43 -81 46 -47 5 22 -26 20 -29 -11 -17 -34 13 -34 11 2 -38 28
-37 41 -43 46 -22 11 48 53 18 55 -39 2 -42 -4 -49 -30 -35 -18 9 -53 8 -78
-1 l-47 -18 43 -59 c34 -48 38 -68 20 -101 -22 -42 -69 -36 -54 7 17 45 -26
98 -57 72 -42 -34 -37 -99 8 -99 37 0 123 -78 123 -111 0 -11 -32 -40 -70 -67
-77 -52 -96 -133 -35 -147 26 -6 16 -19 -43 -55 -118 -72 -34 -108 98 -42 103
51 130 82 71 82 -57 0 -132 77 -103 106 16 16 29 15 46 -2 29 -29 96 -32 96
-4 0 11 -17 20 -38 20 -21 0 -43 13 -48 28 -12 31 100 58 118 29 15 -25 68
-21 68 5 0 12 -12 18 -27 12 -19 -7 -24 3 -18 37 10 50 -67 89 -116 58 -17
-10 -17 -2 1 31 19 36 35 42 84 32 34 -7 69 -12 79 -12 9 0 17 -30 17 -67 0
-49 18 -86 69 -138 65 -67 69 -79 67 -200 -1 -71 3 -137 10 -148 28 -46 -18
-137 -69 -139 -53 -2 -59 67 -12 127 38 48 -31 26 -87 -27 -88 -84 7 -211 119
-161 34 15 53 11 88 -22 48 -45 115 -31 115 24 0 50 50 48 53 -2 4 -62 46
-112 82 -98 17 7 46 -10 67 -37 59 -75 316 -42 286 37 -6 14 3 39 20 56 34 34
21 63 -15 33 -135 -113 -151 -117 -244 -69 l-56 29 52 20 c78 30 183 141 110
117 -14 -5 -36 6 -48 23 -13 18 -31 25 -40 16 -9 -9 -3 -25 14 -35 16 -10 25
-19 19 -20 -19 -4 -110 -19 -132 -23 -12 -1 -21 -21 -19 -44 6 -73 -12 -76
-46 -8 -20 40 -51 69 -78 72 -40 6 -42 10 -15 37 53 53 45 625 -9 643 -11 4
-2 37 20 75 39 71 -2 136 -63 98 -11 -7 -10 5 4 27 24 38 28 38 51 8 23 -30
26 -28 26 21 1 30 10 55 21 55 11 0 20 16 20 36 0 19 14 56 32 81 67 95 48
179 -22 98z m-154 -756 c54 -80 24 -108 -43 -41 -37 37 -39 46 -13 62 24 16
21 19 -16 20 -27 0 -41 9 -33 21 20 33 55 12 105 -62z"/>
<path d="M2452 3278 c-20 -20 -47 -34 -60 -32 -45 8 -37 -109 11 -153 l46 -43
-45 -6 c-24 -4 -41 -13 -36 -21 5 -8 -8 -14 -30 -14 -24 0 -35 10 -29 25 5 14
-1 26 -15 25 -42 -1 -87 -47 -101 -104 -18 -72 -50 -70 -76 5 -12 33 -30 60
-40 60 -11 0 -14 8 -8 18 6 10 0 22 -14 27 -35 12 -95 -6 -95 -29 0 -10 10
-12 22 -5 15 10 18 0 8 -31 -10 -31 -7 -41 8 -31 35 21 102 -8 103 -45 0 -19
18 -70 40 -114 l39 -80 -9 80 c-7 58 -5 69 8 40 16 -36 18 -34 20 15 1 66 41
75 41 10 1 -36 4 -39 20 -15 15 25 26 26 59 5 40 -24 101 -15 101 16 0 9 14
30 31 48 20 19 23 31 8 31 -28 0 -8 139 25 170 15 14 18 2 11 -37 -7 -40 -4
-50 12 -34 29 29 34 216 6 238 -15 11 -37 4 -61 -19z"/>
<path d="M4560 3299 c0 -12 11 -15 25 -6 19 11 19 8 0 -17 -22 -26 -19 -33 23
-41 47 -9 48 -7 18 38 -32 49 -66 62 -66 26z"/>
<path d="M1 3142 c0 -76 5 -87 25 -62 13 17 50 43 81 59 l57 30 -44 29 c-89
59 -120 45 -119 -56z"/>
<path d="M479 3235 c-12 -48 -9 -155 4 -155 9 0 17 9 17 20 0 11 14 20 30 20
37 0 38 38 2 85 -23 30 -50 45 -53 30z"/>
<path d="M3400 3164 c0 -13 9 -24 20 -24 11 0 20 -14 20 -32 0 -42 48 -24 57
22 5 25 -2 32 -23 24 -16 -6 -39 -1 -52 12 -16 16 -22 16 -22 -2z"/>
<path d="M3884 3156 c-33 -33 -30 -56 6 -56 17 0 30 4 30 8 0 5 5 23 12 40 14
38 -14 42 -48 8z"/>
<path d="M1792 3085 c-15 -14 -22 -16 -101 -22 -90 -7 35 -76 148 -82 22 -1
23 -7 6 -24 -23 -23 17 -116 115 -267 21 -33 52 -89 68 -125 34 -74 43 -79 61
-31 7 19 7 28 -1 20 -27 -27 -85 93 -60 125 16 21 16 25 -1 15 -26 -16 -56 17
-77 84 -16 51 -10 49 90 -41 34 -31 38 -31 50 -1 6 18 5 26 -3 18 -35 -35 -65
75 -31 112 18 21 24 34 13 31 -10 -3 -39 6 -64 20 -25 14 -53 20 -62 15 -10
-6 -28 12 -40 40 -13 28 -32 45 -43 38 -11 -7 -20 10 -20 39 0 50 -19 65 -48
36z"/>
<path d="M3825 3050 c-22 -24 -14 -34 44 -58 68 -29 69 -31 41 -85 -25 -49
-25 -58 1 -72 16 -10 29 -29 29 -45 0 -47 63 -98 83 -66 13 20 16 19 17 -6 0
-17 -16 -47 -37 -65 -24 -22 -33 -52 -28 -91 5 -31 -1 -63 -13 -71 -26 -16
-30 -71 -5 -71 9 0 27 23 39 50 13 28 32 50 44 50 11 0 20 -22 20 -50 0 -27
-8 -50 -17 -50 -9 0 -27 -23 -40 -52 -19 -41 -30 -47 -52 -29 -20 17 -31 17
-41 1 -8 -13 -11 -24 -7 -26 4 -2 27 -15 53 -29 40 -23 50 -20 92 25 26 27 57
50 69 50 13 0 23 9 23 20 0 11 -13 20 -29 20 -19 0 -28 22 -28 65 1 36 -4 123
-9 194 -12 160 19 222 106 210 42 -5 55 0 48 20 -8 20 -26 23 -69 11 -46 -13
-59 -11 -59 11 0 16 20 30 45 31 34 2 36 5 10 12 -19 5 -35 20 -35 33 0 13
-18 35 -40 48 -34 21 -40 20 -40 -7 0 -20 -11 -28 -29 -21 -15 6 -32 0 -37
-13 -13 -35 -85 13 -81 54 3 39 -34 40 -68 2z m248 -153 c5 -87 -61 -169 -94
-116 -10 16 -19 45 -19 64 0 19 -9 35 -20 35 -11 0 -20 8 -20 18 0 10 18 14
40 8 31 -8 40 -1 40 33 0 80 67 41 73 -42z"/>
<path d="M33 3019 c-42 -50 -42 -91 -1 -107 45 -17 62 -14 31 6 -19 12 -5 20
46 26 40 4 78 1 83 -8 6 -9 -1 -16 -16 -16 -27 -1 19 -39 47 -40 48 -1 29 65
-23 83 -33 12 -60 29 -60 38 0 44 -73 56 -107 18z"/>
<path d="M2960 3022 c0 -10 -25 -16 -56 -14 -94 6 -89 -98 6 -121 71 -17 71
-17 37 -66 -47 -66 -57 -164 -16 -148 41 16 84 -24 84 -78 1 -25 3 -54 5 -65
10 -46 -2 -70 -36 -70 -20 0 -53 -12 -74 -28 -21 -15 -49 -23 -62 -18 -33 12
-57 -33 -32 -58 13 -13 36 -11 69 7 27 15 96 52 152 82 118 64 121 70 53 143
-65 71 -63 94 7 80 41 -9 61 -3 69 20 14 35 -16 45 -36 12 -24 -39 -44 -19
-34 32 7 40 -4 64 -48 102 -53 45 -54 48 -13 39 54 -11 56 -1 11 43 -31 32
-31 34 0 40 41 8 42 18 5 55 -31 32 -91 39 -91 11z"/>
<path d="M5161 3001 c-17 -10 -24 -25 -17 -32 18 -17 96 9 96 32 0 24 -41 24
-79 0z"/>
<path d="M2783 2885 c-30 -55 -29 -65 4 -65 49 0 58 -142 12 -191 -21 -23 -39
-56 -39 -74 0 -18 -9 -38 -20 -45 -36 -22 -22 -53 15 -33 19 9 45 14 58 9 34
-12 47 90 13 103 -22 8 -16 26 25 81 31 40 43 70 29 70 -19 0 -19 7 -2 27 15
19 17 43 4 75 -11 27 -20 40 -21 29 0 -10 -13 -2 -28 19 -27 36 -28 36 -50 -5z"/>
<path d="M2285 2810 c-46 -20 -61 -78 -25 -100 12 -7 16 -20 11 -29 -6 -9 7
-21 29 -27 48 -12 73 58 47 130 -14 39 -24 43 -62 26z"/>
<path d="M5175 2765 c-38 -9 -37 -71 1 -109 19 -19 24 -15 24 16 0 22 10 50
22 62 26 26 2 42 -47 31z"/>
<path d="M4209 2738 c-8 -12 -2 -31 13 -42 21 -15 19 -17 -10 -8 -20 7 -49 2
-65 -10 -31 -26 -37 -67 -7 -48 11 7 20 4 20 -7 0 -11 -11 -23 -25 -28 -14 -5
12 -14 57 -21 73 -12 81 -19 74 -60 -12 -63 39 -106 74 -64 22 26 20 29 -7 18
-28 -10 -30 -5 -16 35 10 26 30 48 45 50 16 1 39 3 53 5 14 1 25 12 25 23 0
12 -9 16 -20 9 -11 -7 -20 2 -20 19 0 42 -53 39 -78 -4 -15 -27 -25 -30 -43
-12 -13 13 -39 18 -56 12 -30 -11 -30 -9 -3 24 17 21 30 58 31 84 1 50 -20 62
-42 25z"/>
<path d="M5345 2729 c-90 -29 -137 -77 -56 -57 51 12 55 11 30 -16 -15 -17
-41 -29 -56 -28 -16 1 -33 -9 -37 -22 -6 -16 9 -21 48 -13 31 5 71 11 90 13
18 1 28 10 23 19 -6 10 2 28 19 41 55 44 13 88 -61 63z"/>
<path d="M2213 2633 c13 -78 6 -85 -54 -52 -47 25 -49 5 -8 -78 39 -76 47 -79
34 -12 -6 28 -2 49 8 47 54 -9 65 5 54 67 -17 91 -48 117 -34 28z"/>
<path d="M2629 2651 c-22 -15 -39 -40 -39 -54 0 -15 -18 -30 -40 -34 -32 -6
-35 -2 -15 19 36 38 31 52 -22 62 -75 15 -111 -99 -38 -117 l52 -13 -46 -37
c-25 -20 -38 -37 -28 -37 9 0 7 -7 -5 -15 -40 -27 -73 -151 -36 -137 20 8 28
3 22 -13 -5 -14 -19 -23 -31 -20 -14 3 -23 -24 -22 -70 1 -67 3 -70 20 -28 11
26 38 74 61 106 32 45 37 65 19 86 -19 22 -14 38 23 75 25 25 46 54 46 64 0
10 21 21 46 25 58 9 137 61 152 100 8 20 -5 16 -43 -13 -57 -45 -89 -23 -44
31 34 42 14 54 -32 20z"/>
<path d="M3392 2644 c-5 -9 -5 -44 0 -78 5 -35 0 -68 -11 -75 -34 -21 -24 -42
19 -42 22 0 40 7 40 15 0 9 23 16 50 16 58 0 64 35 19 121 -28 56 -94 80 -117
43z"/>
<path d="M2285 2515 c-3 -148 9 -196 46 -182 20 8 24 19 10 35 -22 28 -20 117
3 133 16 11 -25 119 -45 119 -6 0 -12 -47 -14 -105z"/>
<path d="M1500 2580 c-25 -16 -23 -20 10 -20 39 -1 39 -2 1 -24 -29 -17 -41
-17 -47 1 -11 33 -44 28 -44 -6 0 -40 73 -79 91 -49 7 12 30 17 51 12 46 -12
48 -1 8 39 -17 17 -25 38 -19 49 15 24 -13 23 -51 -2z"/>
<path d="M1924 2547 c-14 -23 -22 -26 -33 -8 -11 17 -24 14 -49 -12 -32 -33
-31 -38 5 -74 36 -36 41 -36 63 -6 26 35 61 47 40 13 -7 -11 6 -20 28 -20 30
0 37 9 28 33 -10 25 -6 29 16 16 24 -14 24 -12 2 16 -15 18 -40 28 -56 22 -20
-8 -25 -2 -16 21 16 42 -5 41 -28 -1z"/>
<path d="M1284 2507 c-83 -41 -79 -97 6 -97 41 0 61 -11 66 -35 4 -19 22 -35
40 -35 20 0 25 7 14 15 -47 35 -89 138 -65 162 31 31 18 29 -61 -10z"/>
<path d="M4483 2499 c-26 -21 -60 -39 -75 -39 -15 0 -28 -10 -28 -21 0 -12 9
-16 20 -9 11 7 26 -1 32 -19 7 -17 21 -25 31 -19 11 7 18 0 16 -15 -8 -61 2
-107 18 -82 9 14 36 30 60 34 98 19 106 70 8 56 -39 -6 -67 5 -94 33 -33 37
-33 42 -4 42 18 0 33 9 33 20 0 11 14 20 30 20 17 0 30 9 30 20 0 30 -24 23
-77 -21z"/>
<path d="M5140 2466 c-27 -27 -50 -55 -50 -63 0 -7 -6 -22 -12 -33 -7 -11 -10
-50 -7 -86 4 -54 0 -62 -23 -42 -23 18 -28 14 -28 -21 0 -31 -10 -42 -35 -37
-20 4 -33 22 -29 42 3 19 -4 34 -16 34 -12 0 -17 -9 -10 -19 6 -11 -11 -26
-39 -33 -28 -7 -46 -20 -40 -30 6 -10 1 -18 -12 -18 -17 0 -16 -10 4 -34 23
-29 23 -32 -3 -18 -17 8 -15 2 5 -14 32 -26 33 -31 4 -55 -42 -35 -75 12 -47
65 24 44 1 46 -58 4 -45 -31 -138 -201 -120 -219 14 -14 136 32 136 52 0 9 17
22 38 28 21 7 71 39 111 71 l73 57 -56 31 c-31 17 -44 31 -30 31 15 1 21 10
14 21 -7 11 -3 20 9 20 11 0 21 -8 21 -19 0 -10 18 -24 40 -31 33 -10 36 -20
19 -53 -40 -73 25 -120 92 -65 35 28 35 30 3 20 -21 -7 -31 -3 -24 8 7 11 4
20 -5 20 -26 0 -23 67 3 85 40 26 53 16 28 -24 -14 -22 -17 -46 -9 -55 15 -15
56 38 66 84 13 65 24 122 26 135 0 8 11 15 22 15 12 0 16 -17 10 -38 -7 -21
-7 -63 1 -92 l13 -53 33 48 c17 27 43 45 57 40 14 -4 25 1 25 13 0 12 9 22 19
22 11 0 15 -13 8 -30 -6 -16 -30 -30 -53 -30 -31 0 -36 -6 -20 -22 16 -16 39
-10 84 24 64 47 89 132 32 111 -19 -7 -30 0 -30 19 0 17 -9 25 -20 18 -11 -7
-20 -3 -20 8 0 11 17 18 39 17 21 -2 33 -12 27 -22 -7 -11 -2 -13 11 -5 31 19
29 75 -2 71 -47 -7 -77 1 -68 17 6 8 -14 17 -43 20 -30 2 -64 18 -76 34 -27
37 -27 37 -88 -24z m73 -19 c-7 -7 7 -23 32 -36 25 -12 48 -42 51 -67 7 -45
-23 -60 -47 -23 -7 11 -27 18 -46 15 -74 -12 -98 65 -34 109 26 18 62 20 44 2z"/>
<path d="M1530 2460 c-7 -11 6 -20 29 -20 22 0 41 -9 41 -21 0 -19 83 -61 97
-48 15 13 -40 89 -58 79 -10 -7 -36 -2 -57 9 -26 14 -44 14 -52 1z"/>
<path d="M2594 2465 c-5 -8 8 -32 29 -53 36 -38 37 -38 37 15 0 50 -45 75 -66
38z"/>
<path d="M5573 2466 c-18 -18 27 -88 48 -75 10 6 19 2 19 -10 0 -11 -9 -21
-19 -21 -29 0 -3 -55 33 -69 17 -6 45 0 62 14 27 21 29 20 18 -12 -12 -30 -7
-35 21 -24 49 19 49 19 110 2 30 -8 50 -23 44 -33 -6 -10 1 -18 16 -18 17 0
27 18 25 45 -3 29 -15 43 -36 39 -17 -3 -37 4 -44 15 -7 12 -34 21 -61 21 -27
0 -49 10 -49 22 0 16 -10 15 -31 -3 -31 -26 -87 20 -88 74 -1 26 -51 50 -68
33z"/>
<path d="M3244 2423 c-14 -9 -20 -31 -13 -50 8 -18 4 -33 -9 -33 -12 0 -22
-19 -22 -42 0 -29 -9 -39 -30 -31 -18 7 -30 0 -30 -16 0 -15 11 -25 25 -22 51
10 95 36 95 55 0 10 13 32 28 47 50 50 13 128 -44 92z"/>
<path d="M1952 2383 c-11 -17 13 -42 98 -104 36 -26 38 -26 15 3 -13 17 -18
38 -10 47 8 8 6 13 -5 10 -41 -8 -72 2 -61 20 6 10 3 24 -7 30 -11 6 -24 4
-30 -6z"/>
<path d="M4295 2367 c14 -6 25 -19 25 -30 0 -11 -10 -13 -21 -6 -12 7 -42 8
-68 1 -53 -13 -81 -84 -39 -100 15 -6 28 -25 28 -42 0 -22 14 -28 50 -22 28 5
50 0 50 -11 0 -12 14 -16 32 -9 41 16 190 -8 177 -29 -5 -9 -1 -22 9 -28 11
-6 19 15 18 49 -2 51 -10 60 -54 61 -46 0 -48 3 -18 26 30 23 27 27 -24 47
-45 17 -60 16 -68 -6 -6 -16 -1 -28 12 -28 12 0 18 -5 12 -10 -34 -35 -76 19
-64 82 11 62 8 68 -35 66 -26 0 -36 -6 -22 -11z"/>
<path d="M4980 2357 c-37 -14 -42 -23 -22 -36 22 -13 22 -18 -1 -26 -15 -5 -2
-9 28 -10 31 0 61 8 67 18 5 9 -6 17 -26 17 -30 1 -31 4 -7 19 44 28 18 39
-39 18z"/>
<path d="M2633 2331 c-20 -16 -52 -23 -70 -16 -18 6 -27 4 -19 -4 8 -9 -6 -33
-30 -53 -24 -20 -35 -37 -23 -37 12 -1 32 10 45 23 19 19 24 19 24 0 0 -13
-10 -24 -22 -24 -12 0 -17 -12 -12 -28 8 -20 -1 -25 -32 -18 -36 8 -38 5 -14
-12 51 -37 78 -25 109 48 28 69 62 102 37 37 -8 -21 -5 -29 9 -20 29 18 126
-21 171 -69 20 -21 45 -33 57 -26 11 6 17 0 13 -15 -3 -15 3 -27 14 -27 11 0
19 11 17 25 -1 14 5 26 15 28 10 1 27 4 38 7 11 3 30 6 42 8 12 1 17 16 11 32
-7 17 -3 30 8 30 10 0 19 -9 19 -20 0 -11 25 -19 55 -18 35 2 42 6 19 12 -19
5 -33 23 -30 40 10 55 -41 51 -95 -7 -43 -46 -55 -51 -72 -26 -15 22 -22 23
-30 4 -15 -37 -62 -30 -108 16 -22 22 -49 35 -60 29 -17 -11 -27 21 -24 85 1
32 -16 31 -62 -4z"/>
<path d="M5572 2282 c42 -71 69 -82 54 -21 -6 22 -29 50 -51 62 -39 21 -39 20
-3 -41z"/>
<path d="M1860 2267 c0 -20 11 -27 30 -20 18 7 30 1 30 -15 0 -16 27 -31 65
-35 89 -10 175 2 175 24 0 10 -25 13 -55 7 -33 -7 -93 5 -150 30 -82 35 -95
36 -95 9z"/>
<path d="M1293 2250 c-7 -16 -31 -28 -55 -25 -24 3 -48 -8 -53 -23 -7 -20 1
-25 30 -18 42 12 54 -40 15 -69 -29 -22 65 -96 117 -92 41 2 41 3 -2 11 -76
15 -100 166 -26 166 26 0 28 53 3 69 -10 6 -23 -3 -29 -19z"/>
<path d="M2296 2236 c-31 -11 -50 -29 -44 -44 5 -14 -11 -35 -36 -47 -35 -17
-38 -23 -12 -24 18 0 46 17 62 39 15 22 32 35 38 29 6 -5 22 4 36 21 34 41 22
48 -44 26z"/>
<path d="M5562 2200 c-1 -6 -10 -40 -21 -76 -13 -46 -12 -61 4 -51 14 9 17 2
9 -20 -7 -18 -4 -33 7 -33 10 0 19 17 19 37 0 30 12 36 55 29 53 -8 53 -7 16
23 -21 17 -28 31 -15 31 13 0 24 14 24 31 0 24 -8 26 -38 10 -28 -15 -42 -14
-49 4 -5 14 -11 20 -11 15z"/>
<path d="M3009 2124 c-28 -14 -44 -35 -37 -47 8 -14 19 -14 34 1 12 12 31 22
43 22 12 0 8 -9 -9 -20 -22 -14 -9 -20 50 -20 44 0 103 -6 130 -12 47 -10 48
-9 10 15 -22 14 -47 26 -55 26 -8 1 -14 10 -14 21 1 11 15 17 30 14 16 -3 29
3 29 15 0 27 -149 17 -211 -15z"/>
<path d="M5405 2120 c13 -22 36 -40 51 -40 19 0 20 10 4 40 -12 22 -35 40 -51
40 -24 0 -25 -7 -4 -40z"/>
<path d="M5333 2111 c-5 -15 3 -45 18 -67 23 -32 23 -43 4 -51 -17 -6 -15 -10
6 -11 17 -1 42 9 55 22 19 19 24 19 24 0 0 -13 10 -24 22 -24 17 0 17 7 1 27
-13 15 -16 33 -8 42 8 8 -3 12 -25 8 -28 -5 -38 3 -35 26 7 40 -48 65 -62 28z"/>
<path d="M4329 2034 c-30 -36 -11 -94 32 -94 21 0 47 17 58 39 28 52 26 62 -9
48 -16 -6 -30 -1 -30 11 0 29 -25 27 -51 -4z"/>
<path d="M3031 2008 c-36 -26 -34 -28 34 -28 40 0 78 -9 85 -20 18 -29 70 -24
70 7 0 36 -94 79 -112 50 -9 -14 -17 -15 -26 -1 -8 13 -26 11 -51 -8z"/>
<path d="M3532 2009 c-38 -38 -53 -39 -73 -8 -9 15 -25 18 -42 7 -15 -9 -47
-14 -72 -11 -58 7 -58 -26 -1 -66 56 -39 76 -39 76 -1 0 17 10 30 21 30 12 0
15 -11 7 -23 -10 -16 -3 -20 20 -10 20 7 43 13 52 13 23 0 80 58 80 81 0 29
-33 23 -68 -12z"/>
<path d="M3672 1992 c6 -15 1 -34 -11 -41 -32 -20 -25 -51 9 -38 36 14 40 -15
6 -49 -19 -19 -14 -24 21 -24 36 0 43 -8 34 -38 -15 -45 23 -76 54 -45 16 16
13 32 -10 58 -34 38 -35 39 -35 114 0 29 -17 58 -40 71 -31 17 -37 15 -28 -8z"/>
<path d="M4831 1952 l-52 -47 62 -9 c69 -11 164 46 122 72 -13 8 -23 5 -23 -7
0 -11 -15 -21 -32 -21 -27 0 -28 5 -8 30 41 49 -12 35 -69 -18z"/>
<path d="M2520 1931 c0 -4 71 -82 157 -173 175 -183 277 -222 354 -136 34 36
-16 78 -92 78 -11 0 -19 11 -19 25 0 14 -46 51 -101 82 -56 31 -97 61 -92 67
5 5 51 -15 101 -44 51 -30 92 -45 92 -34 0 10 -27 30 -60 44 -33 14 -55 32
-49 41 8 14 -24 14 -117 1 -9 -1 -11 -11 -4 -22 22 -35 -22 -22 -97 29 -40 28
-73 46 -73 42z"/>
<path d="M3412 1868 c-22 -58 -15 -95 14 -71 14 12 44 17 65 11 21 -5 57 4 79
21 38 29 37 30 -25 18 -49 -9 -67 -4 -77 21 -16 41 -40 41 -56 0z"/>
<path d="M2983 1852 c-60 -32 117 -131 211 -117 65 9 121 78 90 109 -35 35
-114 10 -110 -34 3 -37 1 -37 -22 -6 -40 54 -117 76 -169 48z"/>
<path d="M3856 1792 c-25 -39 -64 -80 -86 -92 -41 -22 -99 -120 -70 -120 9 0
20 11 25 25 6 14 35 28 64 30 68 6 90 19 107 66 13 35 18 35 80 5 48 -23 59
-37 40 -49 -18 -11 -13 -16 19 -17 52 0 58 -35 16 -91 -48 -64 -35 -79 18 -22
27 30 45 65 40 80 -6 14 8 42 30 62 46 42 65 -17 20 -62 -31 -31 -1 -94 31
-67 28 23 59 115 52 155 -2 14 11 25 29 25 45 0 24 50 -23 52 -21 1 -47 4 -58
7 -11 3 -34 4 -51 3 -18 -2 -58 10 -89 26 -53 28 -60 27 -85 -9 -29 -42 -65
-52 -65 -19 0 11 14 20 32 20 17 0 28 11 23 24 -16 49 -54 36 -99 -32z"/>
<path d="M4343 1793 c-18 -21 -13 -36 18 -64 22 -20 36 -49 30 -63 -6 -15 2
-32 18 -38 16 -6 24 -24 18 -40 -6 -15 -18 -23 -27 -18 -13 8 -40 -33 -40 -62
0 -24 87 -3 123 30 35 33 36 38 6 35 -19 -2 -37 13 -40 32 -3 19 6 35 21 35
15 0 30 11 35 25 5 16 55 26 137 29 70 2 133 4 139 5 39 5 80 121 42 121 -22
0 -43 -18 -50 -43 -8 -33 -18 -38 -37 -23 -37 29 -188 46 -211 23 -12 -12 -28
-7 -44 12 -32 38 -108 40 -138 4z"/>
<path d="M4534 1667 c13 -5 18 -24 11 -42 -9 -23 -4 -27 17 -15 23 13 23 11 3
-11 -30 -32 -33 -67 -5 -49 11 7 20 -8 20 -33 0 -40 4 -42 28 -16 44 46 60
119 26 119 -16 0 -40 14 -54 30 -14 17 -35 29 -47 28 -16 -1 -15 -4 1 -11z"/>
<path d="M5040 1609 c-73 -72 -132 -97 -72 -31 31 34 31 38 1 50 -47 18 -64
14 -30 -7 24 -15 24 -23 2 -49 -14 -18 -20 -32 -13 -32 7 0 4 -18 -8 -40 -15
-27 -15 -40 -1 -40 12 0 19 -10 16 -22 -3 -13 18 -26 45 -31 28 -4 59 -19 70
-32 50 -62 87 -79 76 -36 -9 33 -3 39 27 31 20 -6 10 3 -23 19 -33 16 -49 30
-35 30 14 1 25 18 25 40 0 46 39 76 58 45 8 -14 23 -15 43 -3 51 33 -16 57
-93 33 -91 -28 -106 -5 -42 62 100 105 59 116 -46 13z"/>
<path d="M5887 1597 c9 -35 3 -40 -38 -32 -65 13 -99 -29 -50 -60 30 -18 43
-17 62 6 31 37 119 38 119 1 0 -19 -16 -25 -45 -20 -43 9 -43 8 3 -12 55 -24
51 -35 -18 -44 -144 -21 -140 -58 9 -80 22 -4 45 -28 53 -56 8 -29 15 31 16
140 l2 190 -62 4 c-54 4 -61 -1 -51 -37z"/>
<path d="M232 1572 l-56 -23 78 -20 c69 -19 77 -17 77 14 0 48 -31 57 -99 29z"/>
<path d="M3732 1569 c-23 -60 -12 -89 33 -90 44 0 44 -1 -9 -48 -33 -29 -74
-46 -105 -42 -31 3 -51 -5 -51 -20 0 -13 -15 -30 -33 -37 -18 -7 -27 -18 -20
-25 6 -7 36 3 65 22 38 25 57 29 67 12 10 -16 30 -17 69 -2 30 12 57 21 59 21
11 0 -1 -101 -14 -113 -7 -8 -13 -4 -13 8 0 16 -20 17 -65 4 -85 -25 -140 -24
-125 1 23 38 -15 20 -80 -37 -80 -71 -65 -116 39 -112 39 1 66 -2 61 -8 -22
-21 39 -63 91 -63 45 0 70 19 119 90 34 50 71 90 83 90 30 0 0 122 -42 170
-42 48 -68 107 -70 158 -1 49 -42 64 -59 21z"/>
<path d="M3961 1551 c-45 -54 -46 -162 -1 -162 30 0 39 12 37 50 -2 28 3 71
11 96 17 51 -11 60 -47 16z"/>
<path d="M4706 1553 c-9 -15 -36 -38 -60 -50 -36 -19 -42 -36 -35 -93 5 -39 0
-70 -11 -70 -11 0 -20 9 -20 20 0 11 -9 20 -20 20 -32 0 -23 -35 13 -49 19 -7
43 -3 54 8 12 12 37 21 57 21 22 0 36 15 36 39 0 21 18 44 40 51 35 11 37 16
11 42 -16 16 -24 42 -18 59 14 37 -25 38 -47 2z"/>
<path d="M3652 1523 c-9 -14 -29 -21 -45 -15 -16 7 -24 3 -18 -7 6 -10 -22
-46 -63 -79 -66 -54 -70 -62 -31 -62 24 0 53 18 65 40 12 22 33 40 48 40 36 0
78 52 68 83 -7 20 -12 20 -24 0z"/>
<path d="M54 1482 c24 -20 39 -43 32 -50 -7 -6 2 -12 20 -12 34 0 81 66 61 87
-7 6 -31 2 -54 -11 -30 -16 -43 -16 -49 1 -4 13 -18 23 -31 22 -12 0 -3 -17
21 -37z"/>
<path d="M4458 1484 c-2 -8 -1 -22 0 -31 2 -10 -11 -12 -29 -6 -17 7 -44 0
-60 -15 -23 -24 -20 -29 27 -39 55 -11 184 23 184 49 0 19 -119 60 -122 42z"/>
<path d="M5444 1430 c-24 -27 -60 -51 -79 -53 -119 -10 -185 -39 -185 -81 0
-30 -9 -36 -40 -26 -42 13 -49 -3 -27 -60 10 -26 16 -28 29 -7 27 44 66 -13
64 -93 -2 -68 19 -91 44 -50 7 11 2 20 -10 20 -12 0 -17 8 -11 18 6 10 2 42
-8 70 -11 29 -12 52 -2 52 9 0 25 -34 35 -75 l18 -75 119 7 c98 5 125 15 156
55 20 26 46 42 58 35 13 -8 15 -4 7 10 -8 13 -23 19 -32 13 -10 -6 -28 8 -40
31 -18 33 -29 37 -51 18 -21 -17 -29 -17 -29 -1 0 12 -16 22 -35 22 -30 -1
-31 -3 -5 -20 17 -11 22 -20 12 -20 -10 0 0 -16 22 -35 34 -29 36 -40 15 -60
-19 -17 -31 -18 -40 -3 -7 11 -26 16 -41 10 -22 -8 -25 1 -16 39 14 57 -15 65
-55 14 -15 -20 -25 -32 -23 -28 3 5 -13 31 -35 58 -43 55 -50 96 -19 115 11 7
15 0 9 -15 -6 -16 6 -28 31 -29 23 -2 40 9 40 25 0 37 32 38 47 1 13 -34 99
-29 144 9 27 22 35 22 50 -2 26 -41 23 -10 -4 50 -18 40 -29 46 -51 28 -38
-32 -54 -8 -27 41 30 56 18 53 -35 -8z"/>
<path d="M4152 1431 c8 -20 0 -25 -28 -18 -39 10 -82 -107 -55 -151 33 -54
125 -34 103 22 -16 42 -15 67 4 97 25 41 17 79 -17 79 -10 0 -13 -13 -7 -29z"/>
<path d="M4773 1395 c-24 -88 -13 -101 36 -44 49 57 50 89 2 89 -14 0 -32 -20
-38 -45z"/>
<path d="M4875 1366 c-56 -14 -40 -43 22 -42 71 2 103 -16 103 -59 0 -25 6
-27 23 -10 28 28 -10 85 -55 85 -16 0 -28 9 -28 20 0 21 -7 21 -65 6z"/>
<path d="M258 1307 c48 -21 74 -23 89 -8 24 24 27 23 -77 31 l-80 6 68 -29z"/>
<path d="M4377 1300 c-6 -93 2 -118 63 -180 33 -34 60 -77 60 -96 -1 -29 -3
-30 -20 -4 -12 19 -20 21 -20 6 0 -14 -13 -20 -30 -13 -19 7 -30 -1 -30 -21 0
-18 9 -32 20 -32 11 0 20 -9 20 -20 0 -11 -14 -20 -31 -20 -17 0 -25 -10 -18
-21 7 -12 26 -17 42 -11 16 6 34 -2 40 -18 6 -17 19 -30 29 -30 27 0 21 55 -7
66 -38 14 8 80 67 97 26 7 37 14 23 15 -33 3 -32 62 1 62 32 0 170 -99 143
-102 -11 -2 -27 -1 -37 1 -10 2 -7 -11 7 -28 27 -32 -46 -80 -87 -56 -10 6
-13 2 -6 -9 7 -11 -9 -30 -37 -43 -57 -26 -63 -59 -16 -93 23 -17 29 -36 17
-62 -9 -21 -15 -51 -13 -68 2 -16 -10 -6 -26 22 -35 62 -103 87 -119 45 -7
-16 6 -48 28 -71 21 -23 34 -50 28 -59 -24 -39 70 -13 114 31 65 65 204 347
190 384 -6 17 -5 26 4 20 8 -5 55 26 103 69 94 85 92 84 151 61 38 -15 38 -16
-5 -40 -25 -13 -45 -33 -45 -45 0 -12 21 -8 51 12 46 30 53 30 82 1 42 -43 74
-11 51 50 -11 31 -22 39 -32 23 -8 -12 -24 -23 -37 -23 -12 0 -16 6 -9 13 8 7
4 25 -9 40 -16 20 -15 27 6 28 15 1 9 10 -13 19 -58 25 -70 23 -70 -8 0 -42
-60 -58 -61 -16 0 44 -43 99 -80 105 -94 13 -138 -26 -58 -51 60 -19 36 -59
-38 -62 -61 -2 -78 11 -50 38 7 8 25 4 38 -7 16 -13 30 -14 37 -2 6 10 -12 25
-40 32 -34 8 -48 22 -40 42 6 16 2 29 -9 29 -10 0 -19 -17 -19 -39 0 -21 -10
-45 -23 -53 -14 -9 -18 -5 -9 9 8 13 2 23 -16 23 -42 0 -62 -41 -30 -62 28
-18 -1 -29 -50 -19 -10 2 -7 -11 7 -28 22 -26 20 -31 -15 -31 -45 0 -73 182
-34 222 12 13 -3 12 -38 -2 -45 -17 -62 -16 -75 4 -11 18 -17 10 -20 -24z"/>
<path d="M460 1296 c0 -11 13 -15 29 -9 18 7 34 -4 41 -28 8 -25 31 -39 61
-39 72 0 60 52 -16 70 -36 8 -76 18 -90 21 -14 3 -25 -4 -25 -15z"/>
<path d="M4553 1270 c-13 -33 -5 -35 62 -17 25 6 45 20 45 29 0 31 -95 20
-107 -12z"/>
<path d="M5939 1250 c-2 -11 -2 -28 -1 -37 6 -33 -105 -113 -121 -88 -11 17
-29 10 -64 -22 -39 -37 -74 -47 -166 -50 -65 -1 -123 -10 -130 -20 -12 -17
-43 -23 -143 -30 -20 -2 -31 -11 -25 -22 6 -10 2 -24 -9 -31 -11 -7 -15 -22
-8 -33 8 -13 -4 -12 -30 2 -23 12 -42 36 -42 52 0 16 -13 29 -30 29 -16 0 -30
-13 -30 -28 0 -26 -44 -56 -90 -61 -11 -1 -19 -18 -17 -37 2 -28 -3 -30 -24
-13 -15 13 -39 18 -53 12 -17 -6 -15 -10 7 -11 41 -2 26 -82 -15 -82 -16 0
-28 -13 -28 -28 0 -17 -39 -38 -100 -54 -95 -24 -220 -136 -220 -196 0 -11
-29 -15 -70 -8 -45 7 -70 3 -70 -11 0 -13 -27 -23 -59 -23 -61 0 -115 61 -91
100 7 11 2 20 -11 20 -16 0 -20 20 -12 60 7 34 4 60 -7 60 -11 0 -20 9 -20 19
0 12 26 15 60 8 38 -8 60 -4 60 11 0 12 -13 22 -30 22 -18 0 -30 18 -30 45 1
37 4 40 22 15 16 -23 19 -13 11 42 -5 39 -2 84 7 99 10 15 13 34 7 43 -14 24
-87 -21 -87 -54 0 -17 -12 -24 -30 -17 -16 6 -30 27 -30 47 0 52 -55 93 -85
63 -19 -19 -18 -33 0 -62 20 -33 18 -41 -14 -51 -50 -15 -68 -68 -29 -83 45
-18 87 29 48 54 -17 10 -20 19 -8 19 36 0 99 -81 75 -96 -41 -27 -44 -122 -4
-135 20 -6 37 -22 37 -34 0 -17 -6 -17 -22 -1 -15 15 -38 15 -80 -1 -71 -27
-75 -48 -8 -48 28 0 50 8 50 19 0 10 10 12 22 5 12 -7 17 -30 12 -51 -6 -21
-2 -38 9 -38 11 0 14 -9 7 -20 -7 -11 6 -20 28 -20 35 0 39 -9 29 -60 -11 -53
-7 -60 36 -60 35 -1 40 -5 19 -18 -37 -24 -13 -82 32 -81 33 0 32 3 -4 32 -32
26 -33 30 -5 20 21 -7 49 3 70 26 19 20 67 50 107 66 46 20 80 52 97 93 26 62
67 81 92 41 19 -31 -29 -78 -66 -64 -20 8 -27 4 -18 -11 8 -13 -4 -34 -26 -48
-23 -14 -41 -35 -41 -46 0 -32 -171 -190 -206 -190 -17 0 -49 -23 -70 -50 -22
-28 -49 -50 -60 -50 -25 0 -48 -57 -33 -82 16 -26 297 -22 323 4 16 16 33 16
63 0 23 -13 45 -14 52 -4 6 9 -7 22 -28 28 -22 5 -38 26 -37 47 2 20 -4 66
-12 102 -17 71 24 96 42 26 5 -21 22 -34 36 -28 14 5 32 0 40 -13 8 -13 -3
-27 -27 -33 -36 -10 -79 -67 -50 -67 41 0 121 97 104 127 -14 24 -11 33 10 33
15 0 39 13 53 30 14 17 35 30 47 30 13 0 10 -9 -7 -20 -24 -16 -23 -19 10 -15
41 6 52 27 35 70 -6 18 -19 19 -48 3 -22 -11 -50 -16 -63 -11 -17 7 -18 10 -1
11 13 1 19 19 13 40 -10 40 49 87 98 77 14 -3 24 6 21 20 -3 14 5 25 17 25 16
0 14 10 -3 31 -14 17 -17 29 -7 25 30 -9 148 47 137 66 -6 10 0 18 14 18 14 0
53 26 86 58 39 37 90 62 141 69 44 6 125 31 180 56 55 25 107 43 115 41 8 -2
15 16 16 41 0 44 1 44 30 6 23 -30 35 -33 53 -15 28 28 104 33 87 6 -6 -10 39
-18 99 -19 62 -1 110 7 110 19 0 11 9 15 20 8 12 -8 20 23 20 77 0 90 -42 111
-122 62 -8 -5 -20 -1 -27 9 -6 11 7 25 29 32 22 7 40 22 40 34 0 11 18 16 40
10 33 -9 40 0 40 49 0 33 -8 54 -18 48 -10 -6 -23 0 -29 14 -5 14 -12 16 -14
5z m-1411 -1122 c9 -23 4 -29 -16 -21 -16 6 -34 -2 -40 -18 -6 -16 -26 -29
-45 -29 -29 0 -27 8 13 50 55 58 71 62 88 18z m-188 -16 c0 -16 11 -32 25 -37
15 -5 7 -18 -22 -33 -57 -31 -62 -26 -49 43 11 57 46 77 46 27z"/>
<path d="M4240 1220 c-45 -28 31 -164 87 -156 56 8 60 40 13 91 -22 24 -40 53
-40 64 0 26 -21 26 -60 1z"/>
<path d="M3960 1190 c0 -17 18 -30 40 -30 22 0 40 -8 40 -19 0 -10 -18 -24
-40 -31 -22 -7 -40 -26 -40 -43 0 -22 12 -26 45 -16 105 32 123 115 32 147
-79 28 -77 28 -77 -8z"/>
<path d="M3352 1030 c-25 -38 -45 -48 -78 -39 -55 14 -140 -16 -198 -71 l-44
-40 56 0 c39 0 59 12 66 40 9 33 24 38 93 31 46 -5 90 -9 98 -10 8 0 15 -13
15 -28 0 -30 -83 -33 -105 -3 -9 12 -15 10 -15 -5 0 -14 -18 -25 -40 -25 -22
0 -40 -9 -40 -19 0 -11 -24 -41 -52 -68 -53 -49 -51 -93 3 -93 17 0 85 40 153
90 130 94 147 102 165 72 12 -20 -163 -153 -241 -183 -26 -10 -48 -24 -48 -31
0 -23 110 15 126 43 9 17 44 27 88 25 74 -3 146 54 146 116 0 15 7 28 15 28
37 0 10 170 -27 177 -21 4 -47 15 -57 25 -29 28 -44 22 -79 -32z"/>
<path d="M5005 987 c-41 -17 -28 -47 20 -47 35 1 38 5 17 19 -22 13 -14 20 30
26 49 8 51 9 8 10 -27 1 -61 -3 -75 -8z"/>
<path d="M3015 627 c-64 -34 -72 -78 -17 -92 55 -15 79 8 75 70 -2 30 -3 54
-3 53 0 -1 -25 -15 -55 -31z"/>
<path d="M168 396 c-16 -24 44 -76 87 -76 15 0 23 -7 17 -17 -6 -9 3 -16 19
-16 52 0 31 48 -40 90 -48 28 -74 34 -83 19z"/>
<path d="M4139 389 c-14 -17 -37 -26 -52 -21 -15 6 -27 1 -27 -10 0 -12 -19
-15 -45 -7 -44 13 -44 13 -5 -17 29 -23 44 -24 55 -7 11 16 27 9 54 -22 26
-32 43 -39 53 -22 10 16 22 12 41 -14 32 -43 36 -23 7 32 -12 22 -33 33 -50
26 -17 -6 -30 -1 -30 11 0 12 10 22 21 22 12 0 16 8 10 18 -6 10 0 23 14 29
16 6 16 10 2 11 -12 1 -34 -12 -48 -29z"/>
<path d="M5900 381 c-16 -31 -13 -43 16 -59 32 -17 36 -13 28 39 -10 70 -16
72 -44 20z"/>
<path d="M342 305 c8 -51 -5 -69 -45 -58 -31 8 -37 5 -21 -11 15 -15 9 -32
-22 -58 -24 -20 -35 -37 -24 -38 234 -20 301 24 196 128 -50 51 -88 67 -84 37z"/>
<path d="M2640 263 c0 -27 70 -83 105 -83 17 0 41 -28 53 -63 28 -81 17 -93
-26 -28 -49 75 -92 66 -92 -19 l0 -70 190 0 c224 0 232 14 70 126 -149 102
-300 171 -300 137z"/>
<path d="M4059 209 c-15 -42 -28 -49 -64 -37 -39 12 -41 10 -19 -17 17 -20 19
-36 6 -44 -36 -22 -1 -67 49 -64 32 2 49 15 49 38 0 19 9 35 20 35 11 0 20 9
20 20 0 11 -15 20 -32 20 -30 0 -30 4 0 50 18 28 23 50 12 50 -12 0 -30 -23
-41 -51z"/>
<path d="M4199 163 c-28 -22 -37 -42 -24 -50 11 -7 41 4 66 24 28 22 37 42 24
50 -11 7 -41 -4 -66 -24z"/>
<path d="M1620 84 c0 -11 -29 -25 -64 -32 -97 -19 -40 -56 76 -48 90 5 135 48
48 45 -21 -1 -34 5 -29 13 5 8 1 21 -11 28 -11 7 -20 4 -20 -6z"/>
<path d="M460 39 c-14 -25 1 -31 92 -35 106 -5 142 18 73 46 -64 27 -148 21
-165 -11z"/>
</g>
</svg>
