<?xml version="1.0" standalone="no"?>
<!DOCTYPE svg PUBLIC "-//W3C//DTD SVG 20010904//EN"
 "http://www.w3.org/TR/2001/REC-SVG-20010904/DTD/svg10.dtd">
<svg version="1.0" xmlns="http://www.w3.org/2000/svg"
 width="300.000000pt" height="200.000000pt" viewBox="0 0 300.000000 200.000000"
 preserveAspectRatio="xMidYMid meet">
<metadata>
Created by potrace 1.10, written by Peter Selinger 2001-2011
</metadata>
<g transform="translate(0.000000,200.000000) scale(0.050000,-0.050000)"
fill="#000000" stroke="none">
<path d="M4620 3826 c0 -171 1 -174 34 -126 57 81 63 300 8 300 -40 0 -42 -10
-42 -174z"/>
<path d="M2863 3188 c-109 -76 -206 -268 -135 -268 36 0 38 -118 2 -167 -29
-40 -220 -66 -240 -33 -41 66 -294 21 -383 -67 l-87 -88 0 -212 c0 -189 4
-213 35 -213 20 0 26 -7 14 -15 -24 -17 -25 -45 -3 -80 11 -16 5 -25 -15 -25
-18 0 -41 -22 -51 -50 -21 -55 -63 -65 -98 -22 -66 79 -312 93 -331 20 -12
-48 -15 -50 -38 -18 -31 41 -122 -51 -146 -146 -8 -29 -29 -69 -48 -90 -36
-38 -27 -38 -359 -4 -98 10 -102 14 80 -68 94 -43 35 -52 -160 -25 -128 18
-151 16 -207 -18 -94 -58 -143 -31 -160 86 -9 57 -33 65 -33 10 0 -29 -13 -66
-30 -82 -16 -17 -30 -44 -30 -62 0 -17 -7 -31 -16 -31 -31 0 -61 45 -51 77 9
26 7 27 -9 5 -12 -16 -90 -36 -192 -48 l-172 -22 0 -86 c0 -56 9 -86 25 -86
14 0 124 13 245 29 1009 133 1239 155 1173 113 -20 -12 -12 -20 28 -31 76 -19
86 6 79 212 l-6 177 167 0 c177 0 194 -7 175 -77 -10 -41 -14 -42 -45 -14 -82
74 -161 63 -161 -22 l0 -77 165 -37 c91 -20 199 -45 240 -55 l75 -20 0 -147 0
-147 -135 -22 c-74 -11 -157 -23 -185 -26 -49 -6 -50 -10 -44 -143 4 -103 -1
-135 -20 -129 -246 63 -336 104 -336 150 0 100 -44 229 -74 217 -16 -6 -61
-11 -99 -11 l-70 0 5 -125 c5 -135 -3 -146 -89 -116 -52 19 -56 27 -50 106 6
76 3 84 -33 78 -22 -4 -260 -36 -530 -71 l-490 -64 -6 -120 -6 -121 196 -74
c108 -40 212 -73 232 -73 33 0 34 -3 7 -30 -27 -27 -38 -26 -98 10 -66 38
-282 120 -320 120 -10 0 -15 -19 -11 -42 7 -47 394 -218 492 -218 51 1 383 57
1173 199 373 67 451 73 487 37 19 -19 24 48 24 300 0 178 3 324 7 324 4 0 177
-31 384 -70 208 -38 380 -70 383 -70 3 0 6 -193 6 -429 l0 -430 155 9 c85 5
331 14 545 19 358 9 814 54 873 87 58 33 -189 244 -285 244 -72 0 -131 57
-245 235 -37 58 -74 105 -81 105 -8 0 -66 -9 -128 -21 -155 -29 -454 26 -454
83 0 75 481 78 566 3 39 -35 40 -34 26 102 l-14 138 226 -14 c173 -10 256 -6
356 17 134 32 259 40 332 20 39 -10 44 -32 62 -285 l19 -273 2 212 c1 117 8
243 15 281 16 85 -51 186 -111 167 -21 -7 -58 -1 -82 12 -25 13 -71 23 -102
22 -30 -1 -51 7 -44 17 6 11 -33 19 -91 19 l-103 0 7 75 c7 81 81 225 117 225
12 0 16 -9 9 -20 -17 -28 17 -25 46 4 19 19 24 16 24 -12 0 -21 10 -31 25 -24
14 7 41 18 60 24 19 7 35 21 35 32 0 10 10 12 22 5 21 -13 57 22 58 56 0 8
-63 15 -140 15 -80 0 -140 9 -140 20 0 26 221 26 289 0 46 -17 50 -15 33 16
-62 116 -285 174 -319 82 -26 -71 -42 -4 -43 182 -1 83 -4 209 -6 280 l-4 130
-75 6 -75 6 1 -573 c1 -597 0 -610 -47 -566 -24 22 -24 43 -3 133 24 107 24
107 -28 128 -112 44 -147 66 -165 100 -15 27 -12 36 11 36 27 0 31 52 31 380
l0 380 209 0 c200 0 209 -2 217 -45 8 -41 9 -40 11 7 3 52 -50 118 -94 118
-12 0 -23 9 -23 20 0 11 -22 20 -50 20 -27 0 -50 9 -50 20 0 59 -196 19 -282
-58 l-88 -77 -6 -298 c-6 -303 -33 -427 -93 -427 -14 0 -57 -13 -94 -28 -66
-28 -64 -29 57 -18 144 13 219 -4 161 -36 -19 -11 -44 -15 -54 -9 -11 7 -29
-8 -41 -33 -21 -44 -21 -44 9 -7 28 35 31 35 31 4 0 -20 9 -30 20 -23 11 7 20
-2 20 -20 0 -18 7 -28 16 -23 8 6 33 -16 55 -49 21 -32 55 -63 75 -70 22 -7
32 -23 26 -41 -9 -22 -2 -26 28 -17 30 10 37 5 28 -19 -7 -17 -27 -32 -45 -34
-18 -1 -62 -5 -98 -8 -39 -3 -65 4 -65 18 -1 15 -6 16 -15 3 -23 -32 -125 -93
-126 -75 -1 8 -9 -3 -17 -25 -9 -22 -24 -40 -34 -41 -10 0 -40 -13 -67 -27
-108 -60 -280 -53 -416 19 -84 43 -155 66 -215 67 -50 1 -90 9 -90 17 0 8 -13
15 -30 15 -16 0 -30 -7 -30 -17 0 -9 -27 -12 -60 -7 -33 5 -55 16 -49 26 6 10
-3 18 -20 18 -17 0 -31 14 -31 30 0 17 -11 30 -25 30 -17 1 -15 7 5 22 23 16
24 24 5 31 -43 18 -31 127 14 127 21 0 44 9 51 20 7 12 6 19 -4 17 -9 -2 -38
6 -66 17 -27 11 -63 25 -80 32 -53 19 24 16 142 -7 136 -26 418 -5 418 32 0
20 13 21 58 4 65 -25 176 26 150 69 -8 13 -5 17 8 9 11 -8 28 -3 36 9 10 18
-44 20 -214 11 l-228 -13 84 43 c54 29 88 61 96 95 12 45 15 47 33 17 10 -20
14 -44 7 -55 -7 -11 -4 -20 7 -20 10 0 31 41 45 90 36 122 58 113 58 -23 0
-110 1 -112 38 -79 25 23 42 27 51 13 23 -36 51 -2 51 60 0 33 7 59 16 59 31
0 82 114 94 211 22 183 25 228 14 238 -24 24 -19 113 7 139 33 33 -13 51 -129
52 l-68 0 13 -355 c9 -240 7 -345 -6 -325 -11 17 -21 48 -21 70 0 22 -37 106
-82 186 -72 131 -81 162 -84 295 l-4 149 120 2 c244 5 386 27 330 51 -163 71
-328 127 -376 127 -30 0 -74 14 -98 30 -170 119 -321 156 -403 98z m170 -190
c-31 -151 9 -398 63 -398 l50 0 -13 172 c-8 94 -23 189 -34 210 -24 44 -9 81
27 67 16 -6 22 -44 17 -112 -8 -109 10 -136 92 -137 41 0 45 -10 45 -99 l0
-99 -85 -10 c-93 -12 -645 -52 -713 -52 -41 0 -42 -5 -29 -232 l13 -233 -58
12 c-32 6 -96 17 -142 23 l-84 13 -6 216 -6 216 170 15 c94 8 260 20 370 27
l200 13 -3 120 c-1 66 -9 167 -17 225 l-15 105 85 0 c84 0 85 0 73 -62z m275
-639 c145 -3 18 -36 -143 -38 l-145 -1 0 -161 c0 -145 -4 -161 -35 -152 -19 6
-87 17 -150 24 l-115 14 0 145 0 146 165 20 c91 11 205 17 253 12 48 -4 125
-9 170 -9z m-928 -396 l210 -36 6 -264 c5 -242 -10 -319 -44 -230 -11 28 -37
31 -190 20 l-176 -12 -13 164 c-13 165 -17 396 -8 394 3 0 100 -17 215 -36z
m678 -573 c317 -54 314 -53 291 -104 -15 -34 -16 -34 -24 0 -7 30 -22 35 -82
26 -259 -39 -265 -39 -294 3 -15 21 -70 51 -123 65 -121 33 -210 87 -116 70
33 -6 190 -33 348 -60z m218 -303 c13 -22 23 -25 32 -10 22 36 52 27 52 -15 0
-32 13 -36 95 -29 72 6 85 3 52 -11 -121 -54 -59 -83 188 -88 89 -2 157 -11
152 -19 -5 -8 36 -62 92 -120 133 -139 130 -149 -44 -162 -80 -6 -278 -22
-441 -35 -162 -13 -299 -19 -304 -14 -29 29 -21 539 8 555 36 20 92 -4 118
-52z m-1239 -18 c30 -67 20 -81 -68 -95 -110 -18 -135 -2 -94 63 63 99 126
111 162 32z m-1087 -82 c24 -23 31 -59 27 -118 -6 -67 -1 -82 23 -75 27 9 27
7 0 -12 -16 -12 -53 -22 -81 -22 -28 0 -60 -8 -70 -18 -10 -10 -86 -23 -169
-29 -146 -10 -148 -10 -70 17 l80 27 -92 -3 c-90 -2 -176 25 -355 112 -112 54
-95 62 237 112 327 49 428 51 470 9z m209 -8 c26 41 36 25 44 -69 7 -77 5 -80
-58 -86 l-65 -7 0 106 c0 97 2 102 30 66 25 -33 32 -35 49 -10z m341 -39 c0
-11 34 -21 75 -22 71 -1 70 -3 -35 -29 -136 -34 -268 -38 -249 -7 7 12 34 16
58 10 30 -8 57 2 81 28 39 43 70 52 70 20z"/>
<path d="M5679 2056 c-22 -8 -52 -10 -67 -4 -58 22 -132 -115 -132 -245 0
-141 105 -348 143 -281 17 31 23 31 68 2 27 -18 108 -37 179 -43 l130 -10 0
123 c0 79 -7 120 -20 112 -12 -7 -16 -20 -11 -28 5 -9 -32 -9 -81 -2 -58 9
-100 6 -115 -8 -115 -110 -153 -80 -153 121 l0 167 75 -28 c41 -16 127 -33
191 -39 l116 -10 -6 83 -6 84 -136 10 c-75 6 -154 4 -175 -4z"/>
<path d="M580 1820 c0 -24 69 -61 137 -73 53 -9 53 -9 10 22 -62 44 -147 74
-147 51z"/>
<path d="M1635 1465 c-89 -7 -95 -11 -95 -64 0 -32 -6 -73 -13 -93 -13 -32 2
-34 203 -21 254 15 239 7 208 111 -27 91 -22 89 -303 67z"/>
<path d="M1339 1429 c-21 -26 -20 -37 8 -64 31 -31 33 -29 33 31 0 73 -5 76
-41 33z"/>
<path d="M4653 1395 l-118 -20 12 -123 c6 -67 18 -256 25 -419 l14 -297 93 12
c164 22 581 50 956 64 l365 14 0 57 c0 41 -10 57 -35 58 -31 0 -31 4 5 32 38
30 38 30 -20 20 -33 -6 -96 -14 -140 -17 -44 -2 -87 -14 -96 -25 -11 -14 -23
-11 -37 9 -18 26 -63 27 -373 5 -282 -20 -355 -20 -367 0 -11 16 -16 4 -17
-32 0 -44 -7 -54 -32 -45 -17 7 -35 12 -39 12 -4 0 -2 16 5 35 10 29 7 30 -15
10 -39 -36 -59 -31 -59 15 0 22 -10 40 -22 40 -13 0 -16 23 -7 63 9 43 7 58
-9 48 -29 -18 -29 64 1 150 18 52 18 69 -1 75 -16 5 -13 17 12 36 33 26 33 27
1 16 -24 -8 -35 -2 -35 19 0 22 11 28 35 19 19 -7 28 -5 20 4 -8 9 -2 31 14
49 94 104 44 147 -136 116z"/>
<path d="M2230 641 c22 -9 72 -21 110 -28 l70 -13 -70 29 c-38 15 -88 28 -110
28 -40 0 -40 0 0 -16z"/>
<path d="M2380 502 c0 -10 -27 -16 -60 -14 -33 2 -60 -4 -60 -13 0 -10 24 -15
53 -11 42 5 54 -3 60 -39 4 -26 -4 -45 -18 -46 -47 -1 55 -48 105 -49 31 0 50
-12 50 -30 0 -37 228 -35 251 2 9 14 19 15 26 3 17 -28 113 -6 113 25 0 16
-15 22 -40 16 -24 -7 -44 1 -51 20 -13 34 -124 9 -154 -34 -8 -13 -15 -3 -15
23 0 25 -9 45 -20 45 -11 0 -21 16 -21 35 -1 27 -6 24 -20 -10 -10 -25 -31
-45 -47 -45 -16 0 -41 -3 -55 -7 -15 -3 -20 -3 -12 2 8 5 15 17 15 27 0 10 -7
17 -15 16 -54 -9 -93 4 -66 21 16 10 36 14 45 9 9 -6 16 0 16 12 0 14 -16 18
-40 10 -30 -10 -37 -5 -28 19 7 17 7 31 0 31 -7 0 -12 -8 -12 -18z"/>
<path d="M5933 387 c-23 -23 -14 -47 17 -47 17 0 30 -9 30 -20 0 -11 -9 -20
-20 -20 -11 0 -20 -13 -20 -29 0 -18 12 -25 30 -18 20 7 29 37 28 84 0 40 -6
62 -11 48 -6 -14 -19 -25 -30 -25 -11 0 -14 9 -7 20 14 23 3 27 -17 7z"/>
<path d="M4310 299 c-11 -32 -20 -35 -56 -18 -41 20 -42 19 -7 -9 20 -16 51
-24 68 -17 24 9 29 3 19 -22 -11 -29 -7 -31 26 -13 30 16 40 15 41 -4 0 -15 9
-11 21 10 15 25 34 32 64 22 68 -20 34 2 -70 48 -92 40 -94 40 -106 3z"/>
<path d="M5800 216 c-47 -19 -48 -21 -10 -36 22 -8 55 -7 73 2 22 11 41 7 57
-12 14 -16 33 -25 42 -19 23 14 23 -32 0 -68 -18 -28 -61 -31 -192 -14 -55 8
-68 6 -40 -6 22 -10 47 -14 55 -9 8 4 9 -6 3 -23 -10 -26 7 -31 100 -31 l112
0 0 100 c0 88 -5 100 -41 100 -23 0 -57 8 -75 18 -20 10 -54 9 -84 -2z"/>
<path d="M4560 178 c0 -10 10 -18 21 -18 12 0 16 -9 9 -19 -6 -11 7 -31 29
-45 23 -14 41 -33 41 -42 0 -9 -9 -11 -20 -4 -11 7 -20 2 -20 -10 0 -14 -29
-19 -76 -14 -42 4 -94 1 -115 -6 -22 -8 202 -16 497 -17 347 -3 549 4 575 18
45 23 34 64 -12 46 -16 -6 -24 -19 -18 -29 6 -10 2 -18 -9 -18 -11 0 -25 8
-31 18 -8 14 -81 16 -81 3 0 -2 -43 -7 -95 -11 -52 -5 -95 -1 -95 9 0 10 -29
24 -65 32 -36 7 -74 20 -85 29 -11 8 -63 21 -115 29 -52 7 -99 21 -105 31 -6
10 -25 13 -41 7 -16 -6 -41 -2 -54 9 -31 24 -135 26 -135 2z"/>
<path d="M3043 105 c11 -53 -31 -83 -114 -82 -52 1 -83 10 -76 22 11 18 -25
14 -166 -18 -23 -6 -49 0 -57 13 -22 35 5 49 40 20 17 -14 30 -16 30 -5 0 31
-49 44 -123 32 -37 -6 -110 -12 -162 -13 -66 -3 -95 -12 -95 -31 0 -19 -20
-25 -69 -19 -37 4 -64 1 -59 -7 12 -20 328 -16 328 4 0 21 78 38 90 19 6 -9
-5 -21 -25 -26 -19 -5 141 -10 355 -10 295 0 375 6 330 21 -33 12 -67 31 -75
43 -10 15 -14 14 -15 -3 0 -16 -28 -25 -75 -24 -67 0 -71 3 -40 27 43 32 45
52 5 52 -16 0 -29 -7 -27 -15z"/>
<path d="M4315 68 c-64 -34 -72 -68 -15 -68 22 0 40 13 40 28 0 16 11 33 25
38 14 5 21 13 15 20 -5 6 -35 -3 -65 -18z"/>
<path d="M780 60 c0 -11 -16 -21 -35 -22 -23 -1 -18 -7 15 -18 75 -24 101 -23
95 5 -9 45 -75 76 -75 35z"/>
<path d="M1410 60 c10 -17 -42 -30 -93 -23 -87 11 -271 -4 -290 -24 -7 -7 192
-12 443 -12 445 0 612 21 245 31 -109 3 -187 13 -191 26 -4 13 -20 8 -41 -12
-31 -31 -33 -31 -39 0 -4 19 -16 34 -27 34 -10 0 -14 -9 -7 -20z"/>
<path d="M3613 30 c-10 -25 12 -29 133 -27 79 2 115 7 79 11 -36 5 -65 15 -65
24 0 8 -13 15 -29 15 -16 0 -25 -7 -19 -16 14 -23 -6 -21 -51 3 -28 14 -40 12
-48 -10z"/>
<path d="M3960 42 c-67 -19 35 -42 186 -42 111 0 115 22 6 31 -38 3 -86 10
-106 15 -20 5 -58 3 -86 -4z"/>
</g>
</svg>
